<svg width="335" height="256" viewBox="0 0 335 256" fill="none" xmlns="http://www.w3.org/2000/svg">
<g opacity="0.46">
<path opacity="0.46" d="M162.163 253.735L56.3209 192.726C52.4866 190.517 52.4868 184.992 56.3213 182.782L173.757 115.102C177.675 112.844 182.501 112.839 186.424 115.09L294.642 177.178C298.485 179.383 298.491 184.916 294.652 187.128L179.098 253.735C173.858 256.755 167.402 256.755 162.163 253.735Z" fill="#CDE9F9"/>
</g>
<path d="M135.645 231.711L260.92 159.129V138.801L135.645 211.098V231.711Z" fill="url(#paint0_linear_20_3036)"/>
<g opacity="0.46">
<path opacity="0.46" d="M143.121 99.8415L102.623 123.122C101.088 124.004 99.1719 122.898 99.1719 121.13V108.616C99.1719 107.794 99.6116 107.034 100.325 106.624L140.824 83.3438C142.359 82.4613 144.275 83.5675 144.275 85.3356V97.8497C144.275 98.6717 143.835 99.4311 143.121 99.8415Z" fill="#CDE9F9"/>
</g>
<g opacity="0.46">
<path opacity="0.46" d="M193.174 80.5333L152.676 103.814C151.141 104.696 149.225 103.59 149.225 101.822V89.3078C149.225 88.4858 149.664 87.7261 150.378 87.3159L190.876 64.0355C192.411 63.1531 194.328 64.2593 194.328 66.0274V78.5415C194.328 79.3635 193.888 80.1229 193.174 80.5333Z" fill="#CDE9F9"/>
</g>
<g opacity="0.46">
<path opacity="0.46" d="M196.959 55.289L156.461 78.5694C154.926 79.4518 153.01 78.3457 153.01 76.5775V64.0635C153.01 63.2415 153.45 62.4818 154.163 62.0716L194.662 38.7912C196.197 37.9088 198.113 39.015 198.113 40.7831V53.2972C198.113 54.1194 197.673 54.8788 196.959 55.289Z" fill="#CDE9F9"/>
</g>
<path d="M163.794 94.1915C163.804 96.1393 163.504 97.4188 162.981 98.3783C162.13 99.9471 160.685 100.666 159.026 102.066C158.334 102.651 157.604 103.356 156.863 104.293C153.271 108.838 158.026 110.706 158.026 110.706C158.026 110.706 161.516 131.522 145.04 144.191C144.979 144.238 144.917 144.285 144.856 144.33C142.35 146.228 139.946 147.471 137.707 148.176C136.062 148.694 134.507 148.922 133.068 148.906C130.825 148.883 128.866 148.27 127.29 147.243C122.26 143.965 121.133 136.48 127.168 130.585C137.993 120.009 140.609 112.903 139.611 106.473C138.399 98.6369 145.487 93.4335 148.314 91.9705C153.002 89.5439 153.991 88.2157 158.228 88.5354C163.592 88.9391 163.794 94.1915 163.794 94.1915Z" fill="#A17194"/>
<path d="M133.069 148.906C130.826 148.883 128.867 148.27 127.291 147.243C125.689 145.746 124.685 143.464 124.512 140.078C124.158 133.154 133.64 125.914 133.64 125.914C126.218 139.597 130.897 146.636 133.069 148.906Z" fill="url(#paint1_linear_20_3036)"/>
<path d="M152.526 105.723C152.167 107.07 146.453 136.178 144.857 144.33C142.35 146.229 139.946 147.471 137.707 148.176C134.446 148.27 130.778 147.119 128.633 142.396C124.113 132.44 140.203 121.175 142.064 111.74C143.926 102.307 151.72 101.161 151.72 101.161C151.72 101.161 152.945 104.156 152.526 105.723Z" fill="url(#paint2_linear_20_3036)"/>
<path d="M162.981 98.3783C162.13 99.9471 160.685 100.666 159.025 102.066L159.572 98.5514C159.572 98.5514 162.321 96.1108 162.409 94.5621C162.468 93.5272 163.003 96.074 162.981 98.3783Z" fill="url(#paint3_linear_20_3036)"/>
<path d="M171.685 109.949C171.685 109.949 169.534 115.205 168.912 117.145C168.291 119.088 167.936 118.426 167.936 118.426L164.632 114.533C163.326 112.781 162.12 111.472 161.034 110.495C160.871 110.35 160.716 110.215 160.561 110.085C160.15 109.729 159.736 109.419 159.322 109.156C159.203 109.075 159.099 109.003 159.001 108.936C158.995 108.93 158.987 108.926 158.981 108.92C158.089 108.284 158.107 108.133 156.677 107.897C156.03 107.738 155.114 107.927 155.052 107.952C155.042 107.956 150.809 109.209 150.809 109.209C147.428 111.159 142.844 113.431 140.16 114.733C139.911 114.802 139.676 114.916 139.456 115.071C139.399 115.109 139.344 115.152 139.291 115.197C139.289 115.197 139.285 115.201 139.282 115.201C139.227 115.248 139.174 115.295 139.121 115.344C139.085 115.378 139.05 115.413 139.015 115.45C138.98 115.486 138.946 115.523 138.911 115.562C138.876 115.6 138.844 115.639 138.809 115.68C135.817 119.308 136.209 131.427 136.678 135.01C136.929 136.918 137.103 137.097 137.544 138.003C137.607 138.132 137.672 138.256 137.744 138.374C138.337 139.387 139.203 139.982 140.603 140.073C141.115 140.11 141.793 139.849 142.478 139.597C142.476 142.05 141.923 146.552 141.636 148.435C141.409 149.924 138.946 150.509 138.931 151.354C138.931 151.397 138.927 151.438 138.931 151.479C138.911 152.97 139.111 153.518 139.111 153.518L151.007 145.75L160.118 139.8L161.644 138.802C161.214 139.028 160.732 139.216 160.314 139.23H160.22C160.216 139.23 160.216 139.23 160.214 139.23C159.626 139.23 158.691 141.192 158.701 140.016C158.701 139.902 158.244 138.199 158.228 138.003C158.154 136.82 158.852 133.45 159.442 131.412C159.501 131.205 159.56 130.982 159.62 130.744C159.999 129.234 160.404 127.144 161.13 124.992C161.446 124.049 161.826 123.096 162.291 122.175C162.453 122.633 162.542 122.902 162.542 122.902C162.542 122.902 165.385 125.041 168.138 125.63C170.898 126.219 172.12 124.014 172.418 122.731C172.598 121.969 173.294 118.13 173.828 115.146C174.192 113.121 174.481 111.491 174.481 111.491C172.794 111.422 171.685 109.949 171.685 109.949Z" fill="#3C7FBE"/>
<path d="M174.481 111.491C174.481 111.491 174.191 113.121 173.828 115.146C173.293 118.131 172.597 121.969 172.418 122.731C172.12 124.015 170.897 126.219 168.138 125.63C165.385 125.042 162.542 122.902 162.542 122.902C162.542 122.902 162.452 122.633 162.291 122.175C161.826 123.096 161.446 124.049 161.13 124.993C160.403 127.144 159.999 129.234 159.62 130.744C159.56 130.983 159.501 131.205 159.442 131.413C158.852 133.45 158.154 136.82 158.228 138.003C158.244 138.199 158.701 139.902 158.701 140.016C158.691 141.192 159.626 139.23 160.213 139.23C160.216 139.23 160.216 139.23 160.22 139.23H160.313C160.732 139.216 161.214 139.028 161.644 138.802L160.118 139.801L151.007 145.75L139.111 153.518C139.111 153.518 138.911 152.97 138.931 151.479C138.927 151.438 138.931 151.397 138.931 151.354C138.943 150.605 140.882 150.061 141.478 148.907C141.556 148.761 141.609 148.604 141.635 148.435C141.919 146.577 142.462 142.166 142.478 139.692V139.597C141.793 139.849 141.115 140.11 140.603 140.073C139.203 139.982 138.337 139.387 137.743 138.374C137.672 138.256 137.607 138.132 137.543 138.003C137.102 137.097 136.929 136.917 136.678 135.01C136.441 133.201 136.223 129.218 136.453 125.249C136.676 121.356 137.327 117.477 138.809 115.68C138.843 115.639 138.876 115.6 138.911 115.562C138.945 115.523 138.98 115.486 139.015 115.45C139.05 115.413 139.084 115.378 139.121 115.344C139.174 115.295 139.227 115.248 139.282 115.201C139.284 115.201 139.288 115.197 139.29 115.197C139.343 115.152 139.399 115.109 139.456 115.071C139.676 114.916 139.911 114.802 140.16 114.732C142.844 113.431 147.427 111.159 150.809 109.209C150.809 109.209 155.042 107.956 155.052 107.952C155.113 107.928 156.03 107.738 156.677 107.897C158.107 108.133 158.089 108.284 158.981 108.92C158.987 108.926 158.995 108.93 159.001 108.936C159.099 109.003 159.203 109.075 159.322 109.156C159.736 109.419 160.15 109.729 160.56 110.085C160.715 110.216 160.871 110.35 161.034 110.495C162.12 111.473 163.326 112.78 164.632 114.533L167.936 118.426C167.936 118.426 168.291 119.088 168.911 117.145C169.534 115.205 171.685 109.949 171.685 109.949C171.685 109.949 172.793 111.422 174.481 111.491Z" fill="url(#paint4_linear_20_3036)"/>
<path d="M162.867 138.004C162.768 138.085 162.258 138.479 161.646 138.801L162.867 138.004Z" fill="#BD8AAE"/>
<path d="M148.797 127.594C148.238 127.668 147.943 127.615 147.943 127.615C147.943 127.615 147.611 127.541 148.797 127.594Z" fill="#2A2F6D"/>
<path d="M173.829 115.146C173.295 118.131 172.6 121.97 172.419 122.732C172.121 124.016 170.898 126.22 168.14 125.631C165.385 125.042 162.543 122.903 162.543 122.903C162.543 122.903 162.453 122.633 162.292 122.174C161.826 123.095 161.447 124.05 161.13 124.993C160.435 124.909 159.664 124.828 159.587 124.865C159.444 124.931 157.354 124.965 157.354 124.965C157.354 124.965 156.885 124.124 155.518 124.9C154.149 125.672 150.909 127.706 149.223 127.616C149.065 127.606 148.925 127.6 148.801 127.594C149.618 127.488 151.003 127.113 152.863 125.913C156.003 123.889 157.947 122.54 160.146 122.574C162.344 122.609 159.105 121.161 159.105 121.161C159.105 121.161 160.726 120.252 160.624 118.299C160.521 116.346 158.801 112.418 157.792 111.587C157.792 111.587 158.857 110.796 160.146 113.233C160.146 113.233 162.68 121.867 167.841 121.7C171.18 121.591 172.979 117.809 173.829 115.146Z" fill="url(#paint5_linear_20_3036)"/>
<path d="M160.22 139.23C160.014 139.644 159.728 139.98 159.34 140.2C157.32 141.349 141.729 149.935 138.931 151.479C138.927 151.438 138.931 151.397 138.931 151.355C138.946 150.509 141.409 149.924 141.636 148.435C141.923 146.553 142.476 142.05 142.479 139.597C142.799 139.477 143.121 139.361 143.43 139.277C147.871 138.065 151.632 136.7 152.528 135.852C153.418 135.007 153.334 135.487 152.814 134.12C152.416 133.075 152.897 131.302 152.897 131.302C149.906 132.042 145.232 132.706 144.691 132.236C144.152 131.763 144.489 126.307 145.501 120.989C146.057 118.077 144.507 116.456 142.993 115.586C142.993 115.586 146.897 116.464 146.542 120.15C146.189 123.839 145.801 128.071 146.565 130.049C146.565 130.049 146.969 131.472 150.904 130.585C154.167 129.848 158.192 129.544 159.62 130.744C159.561 130.982 159.502 131.205 159.443 131.412C158.853 133.45 158.155 136.82 158.228 138.003C158.245 138.199 158.702 139.902 158.702 140.016C158.692 141.192 159.626 139.23 160.214 139.23C160.216 139.23 160.216 139.23 160.22 139.23Z" fill="url(#paint6_linear_20_3036)"/>
<path d="M152.863 135.497L157.255 121.24L167.427 115.376L164.268 128.923L152.863 135.497Z" fill="#AECFDC"/>
<path d="M152.922 131.471C152.922 131.471 153.771 129.633 155.694 128.885C157.616 128.137 155.896 129.855 155.896 129.855C155.896 129.855 156.76 129.832 157.667 128.697C158.573 127.562 157.717 129.656 157.313 130.084C157.313 130.084 157.97 129.804 158.426 129.097C158.881 128.39 159.033 129.218 158.426 130.167C157.819 131.117 157.363 131.471 157.363 131.471C157.363 131.471 158.072 131.168 158.577 130.713C159.083 130.259 158.775 131.396 158.008 132.026L158.826 131.622C158.826 131.622 159.108 131.824 158.008 132.683C156.908 133.541 154.929 135.107 153.616 135.006C152.304 134.905 152.659 135.01 152.659 135.01C152.659 135.01 151.418 133.316 152.922 131.471Z" fill="#FDE0D9"/>
<path d="M171.704 110.57C171.704 110.57 170.962 108.684 171.367 107.876C171.772 107.068 171.907 106.496 171.907 106.277C171.907 106.058 172.379 106.505 172.311 107.022C172.244 107.539 172.244 107.539 172.244 107.539C172.244 107.539 172.791 107.051 173.054 106.22C173.316 105.389 173.703 104.661 173.829 105.014C173.956 105.368 173.678 106.479 173.678 106.479C173.678 106.479 174.588 105.538 174.639 104.923C174.689 104.307 175.372 104.282 175.22 105.04C175.069 105.797 174.639 106.58 174.639 106.58C174.639 106.58 175.448 105.822 175.651 105.368C175.853 104.913 176.258 105.09 176.03 105.646C175.802 106.201 175.347 107.022 175.347 107.022C175.347 107.022 176.156 106.656 176.384 106.277C176.612 105.899 177.194 106.228 176.612 107.022C176.03 107.817 175.372 108.625 175.246 109.358C175.119 110.09 175.027 111.463 174.112 111.711C173.197 111.959 171.704 110.57 171.704 110.57Z" fill="#FDE0D9"/>
<path d="M158.98 108.92C156.151 106.998 155.089 109.168 154.384 110.077C153.676 110.985 146.896 112.979 146.163 113.534C145.431 114.092 142.992 115.586 142.545 115.177C142.098 114.768 140.16 114.733 140.16 114.733C142.843 113.431 147.427 111.159 150.81 109.209C150.81 109.209 155.042 107.956 155.052 107.953C155.114 107.928 156.03 107.739 156.676 107.897C158.108 108.133 158.089 108.285 158.98 108.92Z" fill="url(#paint7_linear_20_3036)"/>
<path d="M158.701 99.7139C158.026 100.253 157.79 99.4107 157.79 99.4107C157.79 99.4107 156.913 100.455 156.104 100.69C155.294 100.926 155.879 99.7811 155.879 99.7811C155.879 99.7811 154.485 100.959 153.979 100.993C153.473 101.027 153.81 100.151 153.81 100.151C153.81 100.151 153.001 100.589 152.663 101.397C152.326 102.205 152.191 102.508 152.191 102.508C152.191 102.508 152.225 101.566 151.719 101.162C151.213 100.757 150.91 103.384 151.415 103.956C151.921 104.528 151.921 104.528 151.921 104.528C151.921 104.528 149.37 109.869 147.825 110.816C147.777 110.874 147.729 110.93 147.68 110.985C147.68 110.985 149.163 112.408 150.837 112.895C150.84 112.892 150.846 112.892 150.849 112.889C152.132 112.238 152.719 111.124 152.84 110.877C152.855 110.842 152.865 110.808 152.868 110.774L152.927 110.337L153.234 108.108C153.237 108.102 153.24 108.092 153.24 108.086C153.243 108.083 153.243 108.083 153.243 108.08C154.181 108.489 155.715 108.548 157.088 108.158C159.119 107.578 159.371 102.037 159.371 102.037C159.491 100.864 159.548 99.6265 159.572 98.5513C159.312 99.0053 158.997 99.4768 158.701 99.7139Z" fill="#FDE0D9"/>
<path d="M153.241 108.086C153.241 108.092 153.238 108.102 153.235 108.108L152.927 110.337C152.107 109.106 152.107 107.29 152.107 107.29C152.393 107.63 152.831 107.894 153.241 108.086Z" fill="#ECBFB9"/>
<path d="M152.109 113.003C151.705 113.071 151.274 113.019 150.839 112.895C149.165 112.408 147.682 110.985 147.682 110.985L149.572 110.337H152.929C152.929 110.337 154.081 112.678 152.109 113.003Z" fill="#FDE0D9"/>
<g opacity="0.1">
<path opacity="0.1" d="M142.992 115.586C142.992 115.586 145.256 116.842 144.591 121.555C143.926 126.267 142.795 132.44 144.125 132.971C145.455 133.503 151.506 131.687 151.506 131.687C151.506 131.687 145.122 132.96 144.69 132.236C144.258 131.511 144.417 128.758 144.666 126.674C144.916 124.589 146.147 119.835 145.415 118.428C144.684 117.02 142.992 115.586 142.992 115.586Z" fill="white"/>
</g>
<path d="M142.478 139.692V139.597C141.793 139.849 141.115 140.11 140.603 140.073C139.203 139.982 138.337 139.387 137.743 138.374C137.672 138.256 137.607 138.132 137.543 138.003C137.102 137.097 136.929 136.917 136.678 135.01C136.441 133.201 136.223 129.218 136.453 125.249C136.651 128.538 137.18 132.564 138.541 134.564C141.068 138.28 144.856 137.551 147.482 137.019C150.06 136.5 152.436 135.876 152.525 135.854C152.452 135.884 150.725 136.842 148.226 137.814C146.472 138.497 144.186 139.13 142.478 139.692Z" fill="#1C3F75"/>
<path d="M154.995 141.143L141.525 148.908H141.479C141.556 148.761 141.609 148.604 141.636 148.435C141.919 146.577 142.462 142.166 142.479 139.693V139.597L146.234 138.513C146.234 138.513 145.789 140.628 148.138 141.867C150.432 143.077 154.789 141.231 154.995 141.143Z" fill="#1C3F75"/>
<path d="M114.337 148.387C113.145 148.387 111.909 148.277 110.634 148.03C99.4229 145.856 94.1105 138.923 92.0348 135.269C91.3719 134.102 91.9222 132.622 93.1858 132.164L95.0121 131.503L92.9713 132.242L93.1686 132.169C94.1687 131.803 95.285 132.213 95.8087 133.14C97.4499 136.043 101.87 141.916 111.462 143.776C117.693 144.984 122.949 141.902 125.39 140.095C126.265 139.447 127.482 139.532 128.245 140.309C129.169 141.248 129.048 142.783 127.989 143.568C125.43 145.468 120.494 148.387 114.337 148.387Z" fill="#CDE9F9"/>
<path d="M93.5786 141.068C96.131 141.068 98.2001 137.989 98.2001 134.191C98.2001 130.394 96.131 127.315 93.5786 127.315C91.0262 127.315 88.957 130.394 88.957 134.191C88.957 137.989 91.0262 141.068 93.5786 141.068Z" fill="#AECFDC"/>
<path d="M129.571 132.286C129.571 132.286 124.605 134.608 123.788 138.75C122.97 142.891 125.862 147.096 129.571 146.845C133.28 146.594 136.801 143.519 136.801 143.519L134.726 139.001C134.726 139.001 132.387 141.493 130.224 141.596C128.062 141.699 126.596 137.431 131.227 135.486L129.571 132.286Z" fill="url(#paint8_linear_20_3036)"/>
<path d="M101.951 159.502V152.259L96.0198 152.971C93.3698 151.843 90.1163 151.292 86.6709 151.292V151.581C87.2202 151.581 87.7622 151.596 88.2959 151.624C86.2246 151.588 83.8167 151.721 81.0755 152.045C82.9239 151.741 84.8049 151.581 86.6695 151.581L86.6706 151.292C86.6702 151.292 86.6697 151.292 86.6695 151.292C81.0344 151.292 74.8904 152.764 70.0565 155.589C69.7139 155.789 69.3871 155.995 69.0677 156.202L62.6973 156.966V165.591C62.6973 165.591 62.7036 165.593 62.7135 165.597C62.8228 167.939 64.2216 170.113 66.9879 171.73C69.8719 173.415 73.7906 174.233 77.9928 174.233C83.6279 174.233 89.7718 172.761 94.6055 169.936C99.4563 167.101 101.97 163.497 101.952 160.194C101.979 159.754 101.951 159.502 101.951 159.502ZM73.9762 173.67C73.096 173.547 72.2494 173.382 71.4434 173.178C72.3125 173.382 73.1563 173.543 73.9762 173.67ZM71.3471 173.154C71.3141 173.146 71.2812 173.137 71.2484 173.129C71.2821 173.137 71.3134 173.146 71.3471 173.154Z" fill="#2A2F6D"/>
<path d="M83.1678 162.902C94.0098 161.741 102.424 157.315 101.962 153.016C101.5 148.717 92.3364 146.174 81.4944 147.336C70.6524 148.497 62.2379 152.923 62.7 157.222C63.1621 161.521 72.3258 164.064 83.1678 162.902Z" fill="#65939E"/>
<path d="M77.9924 166.199C73.7198 166.199 69.8745 165.327 67.1652 163.744C64.5051 162.189 63.0861 160.091 63.0617 157.676H63.0488V101.569H63.0505L63.0613 101.251C63.0441 97.9281 65.6584 94.4888 70.2337 91.8148C74.8534 89.1151 80.8437 87.5664 86.6688 87.5662C90.9423 87.5662 94.7867 88.4381 97.496 90.0214C98.6097 90.6721 99.5099 91.4248 100.181 92.2576L99.9541 92.4325C100.156 92.7038 100.335 92.9594 100.5 93.2133L100.743 93.0625C101.162 93.7647 101.432 94.5137 101.545 95.2991L101.551 95.342L101.548 95.3488L101.558 95.4294C101.597 95.751 101.61 96.0745 101.598 96.3912L101.594 96.4856L101.611 96.5165V152.689L101.599 152.689C101.522 155.956 98.9084 159.331 94.4274 161.95C89.8071 164.65 83.8168 166.199 77.9924 166.199Z" fill="url(#paint9_linear_20_3036)"/>
<path d="M86.6706 87.9172C90.881 87.9172 94.6625 88.772 97.3188 90.3244C98.39 90.9504 99.255 91.6716 99.8981 92.4674L99.6719 92.6419C99.8695 92.9071 100.044 93.1568 100.206 93.4049L100.447 93.2545C100.831 93.9015 101.081 94.5888 101.19 95.3075L101.189 95.3103L101.209 95.4717C101.246 95.7741 101.258 96.0789 101.247 96.3775L101.239 96.5642L101.259 96.602V152.372L101.246 152.372L101.247 152.69C101.169 155.829 98.6193 159.093 94.25 161.647C89.6822 164.317 83.7567 165.848 77.9928 165.848C73.7817 165.848 69.9995 164.993 67.3434 163.44C64.796 161.951 63.4371 159.957 63.4139 157.673H63.401V101.881L63.4167 101.879L63.4134 101.249C63.397 98.055 65.948 94.7268 70.4118 92.1179C74.9791 89.4485 80.9047 87.9175 86.669 87.9172H86.6706ZM86.6706 87.2145C86.6701 87.2145 86.6699 87.2145 86.6694 87.2145C81.0344 87.2147 74.8904 88.6863 70.0565 91.5114C65.206 94.3461 62.6928 97.9506 62.7097 101.253L62.6973 101.254V158.698L62.7102 157.68C62.7348 160.11 64.1298 162.376 66.9879 164.047C69.8719 165.732 73.7906 166.55 77.9928 166.55C83.6278 166.55 89.7718 165.078 94.6055 162.253C99.365 159.472 101.875 155.949 101.951 152.698L101.95 152.371C101.953 152.479 101.953 152.588 101.951 152.698L101.963 159.494V96.4352C101.957 96.4253 101.955 96.415 101.95 96.4052C101.963 96.0625 101.949 95.723 101.908 95.3874C101.937 95.303 101.963 95.2491 101.963 95.2491H101.893C101.589 93.138 100.202 91.1954 97.6741 89.7182C94.7909 88.0327 90.8724 87.2145 86.6706 87.2145ZM100.796 93.0216C100.636 92.7764 100.453 92.5126 100.237 92.2228C100.446 92.4819 100.632 92.748 100.796 93.0216Z" fill="#FDFEFE"/>
<g opacity="0.5">
<path opacity="0.5" d="M65.2871 156.467V101.368C65.2871 101.368 68.7483 95.7922 74.6973 96.3898C80.6462 96.9871 81.6065 100.372 81.6065 100.372V161.704C81.6065 161.704 69.8749 170.346 65.2871 156.467Z" fill="url(#paint10_linear_20_3036)"/>
</g>
<path d="M68.3032 159.702C70.8556 159.702 72.9247 156.623 72.9247 152.826C72.9247 149.028 70.8556 145.949 68.3032 145.949C65.7508 145.949 63.6816 149.028 63.6816 152.826C63.6816 156.623 65.7508 159.702 68.3032 159.702Z" fill="url(#paint11_linear_20_3036)"/>
<path d="M89.0618 167.021C87.8697 167.021 86.6336 166.912 85.3582 166.665C74.1475 164.491 68.8352 157.558 66.7594 153.904C66.0965 152.737 66.6468 151.256 67.9104 150.799L69.7367 150.138L67.6959 150.876L67.8933 150.804C68.8934 150.437 70.0096 150.848 70.5334 151.775C72.1745 154.678 76.595 160.55 86.1865 162.41C92.4176 163.618 97.6739 160.536 100.115 158.729C100.99 158.081 102.207 158.167 102.97 158.943C103.894 159.883 103.772 161.417 102.714 162.203C100.154 164.102 95.2187 167.021 89.0618 167.021Z" fill="#CDE9F9"/>
<path d="M104.296 150.92C104.296 150.92 99.3296 153.242 98.5123 157.384C97.695 161.526 100.587 165.731 104.296 165.48C108.005 165.229 111.525 162.154 111.525 162.154L109.451 157.635C109.451 157.635 107.111 160.128 104.949 160.231C102.787 160.334 101.32 156.066 105.951 154.121L104.296 150.92Z" fill="url(#paint12_linear_20_3036)"/>
<g opacity="0.5">
<path opacity="0.5" d="M85.7678 157.759C85.7678 157.027 85.1662 156.467 84.4239 156.467C83.6817 156.467 83.0801 157.061 83.0801 157.793C83.0801 158.525 83.6817 159.119 84.4239 159.119C85.1662 159.119 85.7678 158.491 85.7678 157.759Z" fill="white"/>
</g>
<g opacity="0.5">
<path opacity="0.5" d="M81.6066 151.246C81.6066 150.247 80.7858 149.483 79.773 149.483C78.7605 149.483 77.9395 150.293 77.9395 151.292C77.9395 152.291 78.7603 153.101 79.773 153.101C80.7858 153.101 81.6066 152.245 81.6066 151.246Z" fill="white"/>
</g>
<g opacity="0.5">
<path opacity="0.5" d="M85.7661 142.808C85.7661 141.344 84.5628 140.225 83.0784 140.225C81.5939 140.225 80.3906 141.412 80.3906 142.876C80.3906 144.341 81.5939 145.528 83.0784 145.528C84.5628 145.528 85.7661 144.272 85.7661 142.808Z" fill="white"/>
</g>
<path d="M88.8643 133.014H84.9911C84.1593 133.014 83.4785 132.334 83.4785 131.504C83.4785 130.673 84.1593 129.994 84.9911 129.994H88.8643C89.6962 129.994 90.3769 130.673 90.3769 131.504C90.3769 132.334 89.6962 133.014 88.8643 133.014Z" fill="white"/>
<path d="M98.5588 133.014H97.03C96.2228 133.014 95.5625 132.354 95.5625 131.549C95.5625 130.743 96.2228 130.084 97.03 130.084H98.5588C99.366 130.084 100.026 130.743 100.026 131.549C100.026 132.354 99.366 133.014 98.5588 133.014Z" fill="white"/>
<path d="M200.849 105.326V101.183L197.456 101.59C195.94 100.945 194.079 100.63 192.108 100.63V100.795C192.422 100.795 192.732 100.804 193.038 100.82C191.853 100.8 190.476 100.876 188.908 101.061C189.965 100.887 191.041 100.795 192.108 100.795L192.108 100.63C192.108 100.63 192.108 100.63 192.108 100.63C188.884 100.63 185.369 101.472 182.604 103.088C182.408 103.203 182.221 103.32 182.039 103.439L178.395 103.876V108.809C178.395 108.809 178.398 108.811 178.404 108.813C178.466 110.153 179.266 111.396 180.849 112.321C182.498 113.285 184.74 113.753 187.144 113.753C190.368 113.753 193.882 112.911 196.647 111.295C199.422 109.673 200.86 107.611 200.85 105.722C200.865 105.471 200.849 105.326 200.849 105.326ZM184.846 113.431C184.343 113.361 183.858 113.266 183.397 113.149C183.894 113.266 184.377 113.358 184.846 113.431ZM183.342 113.136C183.323 113.131 183.304 113.126 183.286 113.121C183.305 113.126 183.323 113.131 183.342 113.136Z" fill="#2A2F6D"/>
<path d="M190.105 107.273C196.307 106.608 201.121 104.076 200.857 101.617C200.592 99.1582 195.35 97.7034 189.148 98.3678C182.946 99.0322 178.132 101.564 178.397 104.023C178.661 106.482 183.903 107.937 190.105 107.273Z" fill="#65939E"/>
<path d="M187.142 109.007C184.724 109.007 182.551 108.515 181.025 107.623C179.551 106.762 178.765 105.606 178.752 104.28H178.744V72.3206L178.746 72.3204L178.751 72.0034C178.742 70.1578 180.21 68.2376 182.78 66.7358C185.4 65.2045 188.799 64.326 192.105 64.326C194.523 64.326 196.695 64.8175 198.223 65.71C198.841 66.0717 199.341 66.4887 199.713 66.9494L199.584 67.0492C199.698 67.2027 199.798 67.3463 199.891 67.4884L200.029 67.4022C200.255 67.7822 200.402 68.1865 200.464 68.6093L200.463 68.6119L200.473 68.6923C200.494 68.8675 200.502 69.0444 200.495 69.2186L200.491 69.3116L200.502 69.332V101.426H200.495C200.453 103.241 198.985 105.126 196.467 106.597C193.847 108.128 190.448 109.007 187.142 109.007Z" fill="url(#paint13_linear_20_3036)"/>
<path d="M192.106 64.6774C194.462 64.6774 196.571 65.1518 198.045 66.0131C198.622 66.35 199.086 66.7358 199.431 67.1593L199.302 67.2589C199.411 67.4055 199.507 67.5433 199.596 67.6799L199.734 67.5941C199.926 67.9204 200.052 68.265 200.11 68.6234L200.124 68.7342C200.143 68.8914 200.149 69.0498 200.143 69.2046L200.136 69.392L200.15 69.419V101.248H200.143L200.143 101.426C200.099 103.114 198.695 104.888 196.29 106.294C193.721 107.794 190.387 108.655 187.142 108.655C184.786 108.655 182.676 108.181 181.202 107.32C179.841 106.524 179.116 105.472 179.104 104.277H179.096V72.6324L179.107 72.6313L179.103 72.0016C179.095 70.3098 180.535 68.4548 182.958 67.0392C185.526 65.5383 188.86 64.6777 192.105 64.6774H192.106ZM192.106 63.9747C192.106 63.9747 192.106 63.9747 192.106 63.9747C188.882 63.9749 185.367 64.8166 182.602 66.4327C179.827 68.0542 178.39 70.1161 178.4 72.0053L178.393 72.0063V104.867L178.4 104.284C178.414 105.675 179.212 106.971 180.847 107.926C182.496 108.89 184.738 109.358 187.142 109.358C190.366 109.358 193.88 108.516 196.646 106.9C199.368 105.309 200.804 103.294 200.848 101.434L200.847 101.247C200.849 101.309 200.849 101.371 200.848 101.434L200.854 105.322V69.2491C200.851 69.2435 200.85 69.2376 200.847 69.232C200.855 69.036 200.846 68.8418 200.823 68.6497C200.84 68.6014 200.854 68.5707 200.854 68.5707H200.814C200.641 67.3631 199.847 66.2519 198.401 65.4067C196.752 64.4427 194.51 63.9747 192.106 63.9747ZM200.187 67.2966C200.095 67.1563 199.991 67.0054 199.867 66.8396C199.986 66.9876 200.093 67.1399 200.187 67.2966Z" fill="#FDFEFE"/>
<g opacity="0.5">
<path opacity="0.5" d="M191.59 104.329C191.59 103.91 191.246 103.59 190.821 103.59C190.397 103.59 190.053 103.93 190.053 104.349C190.053 104.768 190.397 105.107 190.821 105.107C191.246 105.107 191.59 104.748 191.59 104.329Z" fill="white"/>
</g>
<g opacity="0.5">
<path opacity="0.5" d="M189.209 100.603C189.209 100.032 188.74 99.5951 188.16 99.5951C187.581 99.5951 187.111 100.058 187.111 100.63C187.111 101.201 187.581 101.665 188.16 101.665C188.74 101.665 189.209 101.175 189.209 100.603Z" fill="white"/>
</g>
<g opacity="0.5">
<path opacity="0.5" d="M191.59 95.7765C191.59 94.9388 190.902 94.2986 190.053 94.2986C189.204 94.2986 188.516 94.9777 188.516 95.8154C188.516 96.6531 189.204 97.3322 190.053 97.3322C190.902 97.3322 191.59 96.6144 191.59 95.7765Z" fill="white"/>
</g>
<path d="M185.952 91.0375H183.736C183.261 91.0375 182.871 90.6489 182.871 90.1736C182.871 89.6985 183.26 89.3097 183.736 89.3097H185.952C186.428 89.3097 186.818 89.6983 186.818 90.1736C186.818 90.6489 186.428 91.0375 185.952 91.0375Z" fill="white"/>
<path d="M193.708 91.0375H191.492C191.016 91.0375 190.627 90.6489 190.627 90.1736C190.627 89.6985 191.016 89.3097 191.492 89.3097H193.708C194.184 89.3097 194.573 89.6983 194.573 90.1736C194.573 90.6489 194.184 91.0375 193.708 91.0375Z" fill="white"/>
<path d="M334.001 79.0066V131.906C334.001 134.907 332.397 137.682 329.793 139.183L282.997 166.156C281.467 167.036 279.76 167.479 278.054 167.479C276.348 167.479 274.642 167.037 273.113 166.156L211.938 130.893V73.143L278.054 109.013L334.001 79.0066Z" fill="#CDE9F9"/>
<path d="M262.797 155.727L262.797 109.629L217.023 81.9385V129.343L262.797 155.727Z" fill="url(#paint14_linear_20_3036)"/>
<path d="M135.648 211.098L262.798 137.64V131.776L140.081 202.512C140.081 202.512 136.26 204.083 135.152 205.764C134.044 207.446 135.648 211.098 135.648 211.098Z" fill="#AECFDC"/>
<path d="M262.797 131.776L138.429 203.463C136.707 204.456 135.647 206.29 135.647 208.275V233.495C135.647 235.922 133.015 237.439 130.91 236.226L96.5377 216.413C95.5609 215.85 94.959 214.809 94.959 213.683V175.751L135.647 199.204L262.797 125.913V131.776Z" fill="#3C7FBE"/>
<path d="M262.796 109.63V125.914L255.423 130.166H255.42L255.222 130.28L245.5 135.885L245.302 135.997L238.842 139.721L238.644 139.835L231.695 143.841L231.499 143.955L222.123 149.358L221.925 149.472L212.2 155.077L212.002 155.191L205.367 159.015L205.171 159.129L198.222 163.133L198.026 163.247L188.65 168.652L188.452 168.766L178.727 174.371L178.529 174.485L172.07 178.207L171.872 178.321L164.925 182.327L164.727 182.441L155.353 187.844L155.153 187.958L145.43 193.563L145.232 193.677L138.173 197.746L137.977 197.86L135.646 199.203C135.646 199.203 134.836 200.733 133.987 202.935C133.96 202.999 133.936 203.064 133.911 203.129C133.195 205.009 132.464 207.348 132.179 209.634C132.169 209.708 132.16 209.783 132.152 209.858C132.105 210.274 132.074 210.688 132.06 211.097C132.034 211.855 131.209 212.313 130.552 211.935L97.4693 190.395C95.9143 189.497 94.959 187.838 94.959 186.045V175.75L99.8938 172.906L100.092 172.792L107.151 168.724L107.349 168.609L117.072 163.004L117.27 162.89L126.646 157.487L126.842 157.373L133.791 153.368L133.989 153.254L140.447 149.531L140.646 149.417L150.371 143.81L150.567 143.698L159.943 138.293L160.141 138.179L167.088 134.176L167.286 134.06L173.921 130.238L174.117 130.123L183.842 124.518L184.04 124.404L193.416 118.999L193.612 118.885H193.614L200.561 114.88H200.563L200.759 114.768L207.219 111.043L207.417 110.929L217.142 105.324L217.34 105.21L226.713 99.807L226.911 99.6929L233.859 95.6874L234.057 95.5734L236.876 93.9493L262.796 109.63Z" fill="#E7F6FD"/>
<path d="M173.922 130.237L212.003 155.191L212.201 155.077L174.118 130.123L173.922 130.237Z" fill="#AECFDC"/>
<path d="M183.842 124.518L221.925 149.472L222.123 149.358L184.04 124.404L183.842 124.518Z" fill="#AECFDC"/>
<path d="M193.612 118.885L193.416 118.999L231.499 143.955L231.695 143.841L193.614 118.885H193.612Z" fill="#AECFDC"/>
<path d="M200.562 114.879L238.841 139.721L200.758 114.767L200.562 114.879Z" fill="#AECFDC"/>
<path d="M207.219 111.043L245.302 135.996L245.5 135.885L207.417 110.929L207.219 111.043Z" fill="#AECFDC"/>
<path d="M217.338 105.21L217.141 105.324L255.222 130.28L255.421 130.165H255.42L217.338 105.21Z" fill="#AECFDC"/>
<path d="M226.713 99.8064L262.796 123.45V123.206L226.911 99.6923L226.713 99.8064Z" fill="#AECFDC"/>
<path d="M234.055 95.5726L233.857 95.6867L262.795 114.651V114.406L234.055 95.5726Z" fill="#AECFDC"/>
<path d="M107.15 168.723L145.231 193.677L145.429 193.563L107.348 168.609L107.15 168.723Z" fill="#AECFDC"/>
<path d="M99.8945 172.906L137.977 197.86L138.173 197.746L100.092 172.792L99.8945 172.906Z" fill="#AECFDC"/>
<path d="M94.959 177.604L133.912 203.129L133.987 202.935L94.959 177.36V177.604Z" fill="#AECFDC"/>
<path d="M94.959 185.487L132.152 209.858L132.179 209.634L94.959 185.242V185.487Z" fill="#AECFDC"/>
<path d="M117.072 163.004L155.153 187.958L155.353 187.844L117.27 162.89L117.072 163.004Z" fill="#AECFDC"/>
<path d="M126.646 157.487L164.727 182.441L164.925 182.327L126.842 157.373L126.646 157.487Z" fill="#AECFDC"/>
<path d="M133.791 153.367L171.872 178.321L172.07 178.207L133.989 153.253L133.791 153.367Z" fill="#AECFDC"/>
<path d="M140.447 149.531L178.53 174.485L178.728 174.371L140.647 149.417L140.447 149.531Z" fill="#AECFDC"/>
<path d="M150.371 143.81L188.452 168.766L188.65 168.652L150.567 143.698L150.371 143.81Z" fill="#AECFDC"/>
<path d="M159.943 138.293L198.026 163.247L198.222 163.133L160.141 138.179L159.943 138.293Z" fill="#AECFDC"/>
<path d="M167.088 134.175L205.171 159.129L205.367 159.015L167.286 134.059L167.088 134.175Z" fill="#AECFDC"/>
<path d="M334.001 79.0066V131.906C334.001 134.907 332.397 137.682 329.793 139.183L282.998 166.156C281.467 167.036 279.761 167.479 278.055 167.479V109.014L334.001 79.0066Z" fill="#AECFDC"/>
<path d="M232.281 84.8703L271.277 107.348C275.472 109.766 280.639 109.766 284.833 107.348L334.001 79.0071L279.729 47.7239C272.399 43.4987 263.368 43.4987 256.038 47.7239L211.938 73.1438L232.281 84.8703Z" fill="#3C7FBE"/>
<path d="M232.281 65.4195L271.277 87.8973C275.472 90.3148 280.639 90.3148 284.833 87.8973L334.001 59.5563L279.729 28.2732C272.399 24.0479 263.368 24.0479 256.038 28.2732L211.938 53.693L232.281 65.4195Z" fill="url(#paint15_linear_20_3036)"/>
<path d="M232.281 75.6348L271.277 98.1126C275.472 100.53 280.639 100.53 284.833 98.1126L334.001 69.7716L279.729 38.4884C272.399 34.2632 263.368 34.2632 256.038 38.4884L211.938 63.9082L232.281 75.6348Z" fill="url(#paint16_linear_20_3036)"/>
<g opacity="0.44">
<path opacity="0.44" d="M144.441 186.319C157.84 186.319 168.703 179.853 168.703 171.877C168.703 163.901 157.84 157.435 144.441 157.435C131.042 157.435 120.18 163.901 120.18 171.877C120.18 179.853 131.042 186.319 144.441 186.319Z" fill="#AECFDC"/>
</g>
<path d="M143.998 149.957L127.787 159.301C126.542 160.019 125.775 161.344 125.775 162.779V170.029C125.775 171.376 126.453 172.634 127.579 173.378L143.718 184.036C144.985 184.873 146.616 184.926 147.934 184.173L164.437 174.753C165.69 174.038 166.463 172.708 166.463 171.267V163.949C166.463 162.581 165.765 161.307 164.611 160.568L148.181 150.053C146.915 149.243 145.301 149.205 143.998 149.957Z" fill="#3C7FBE"/>
<path d="M143.998 149.957L127.787 159.301C126.542 160.019 125.775 161.344 125.775 162.779V170.029C125.775 171.376 126.453 172.634 127.579 173.378L143.718 184.036C144.985 184.873 146.616 184.926 147.934 184.173L164.437 174.753C165.69 174.038 166.463 172.708 166.463 171.267V163.949C166.463 162.581 165.765 161.307 164.611 160.568L148.181 150.053C146.915 149.243 145.301 149.205 143.998 149.957Z" fill="url(#paint17_linear_20_3036)"/>
<path d="M130.247 158.867L145.071 150.322C145.715 149.951 146.511 149.97 147.136 150.37L162.068 159.926C163.325 160.73 163.277 162.58 161.979 163.318L147.155 171.742C146.517 172.105 145.731 172.087 145.111 171.695L130.178 162.259C128.916 161.462 128.954 159.613 130.247 158.867Z" fill="white"/>
<path d="M131.068 158.912L145.117 150.886C145.726 150.538 146.481 150.555 147.073 150.931L161.224 159.906C162.415 160.662 162.369 162.399 161.14 163.092L147.091 171.004C146.487 171.345 145.742 171.328 145.154 170.96L131.002 162.097C129.807 161.349 129.843 159.612 131.068 158.912Z" fill="url(#paint18_linear_20_3036)"/>
<path d="M135.208 164.731L146.12 158.365L156.919 165.469L161.139 163.092C161.139 163.092 162.824 162.325 162.632 161.426C162.441 160.526 162.441 160.526 162.441 160.526L146.716 150.371C146.716 150.371 146.538 149.858 143.851 151.359C141.164 152.86 130.26 159.166 130.26 159.166C130.26 159.166 128.963 160.475 130.26 161.928C131.557 163.38 135.208 164.731 135.208 164.731Z" fill="url(#paint19_linear_20_3036)"/>
<path d="M154.145 161.226C154.145 156.942 150.625 153.669 146.283 153.669C141.94 153.669 138.42 157.142 138.42 161.426C138.42 165.71 141.94 169.182 146.283 169.182C150.625 169.183 154.145 165.51 154.145 161.226Z" fill="url(#paint20_linear_20_3036)"/>
<path d="M150.122 164.25C150.118 164.245 150.115 164.243 150.115 164.243L148.642 161.059C148.642 160.857 147.569 160.692 146.245 160.692C144.922 160.692 143.849 160.857 143.849 161.059L142.122 164.22C142.075 164.26 142.051 164.301 142.051 164.343C142.051 164.707 143.867 165.002 146.107 165.002C148.347 165.002 150.163 164.707 150.163 164.343C150.162 164.312 150.149 164.281 150.122 164.25Z" fill="white"/>
<path d="M150.116 164.243C149.815 163.6 148.165 160.06 147.974 159.56C147.819 159.153 147.791 158.876 147.787 158.758V156.568H147.785C147.786 156.565 147.787 156.561 147.787 156.557C147.787 156.395 147.113 156.264 146.281 156.264C145.449 156.264 144.775 156.395 144.775 156.557C144.775 156.561 144.776 156.565 144.777 156.568H144.775V158.696H144.774C144.649 159.786 142.538 163.497 142.122 164.221C142.075 164.261 142.051 164.302 142.051 164.344C142.051 164.708 143.867 165.003 146.107 165.003C148.347 165.003 150.163 164.708 150.163 164.344C150.163 164.31 150.147 164.276 150.116 164.243Z" fill="white"/>
<path d="M146.281 156.85C147.113 156.85 147.787 156.718 147.787 156.556C147.787 156.394 147.113 156.263 146.281 156.263C145.45 156.263 144.775 156.394 144.775 156.556C144.775 156.718 145.45 156.85 146.281 156.85Z" fill="white"/>
<path d="M146.246 161.426C147.569 161.426 148.642 161.262 148.642 161.059C148.642 160.857 147.569 160.693 146.246 160.693C144.922 160.693 143.85 160.857 143.85 161.059C143.85 161.262 144.922 161.426 146.246 161.426Z" fill="white"/>
<path d="M146.107 165.002C148.347 165.002 150.163 164.707 150.163 164.343C150.163 163.979 148.347 163.685 146.107 163.685C143.867 163.685 142.051 163.979 142.051 164.343C142.051 164.707 143.867 165.002 146.107 165.002Z" fill="white"/>
<path d="M154.145 161.226C154.145 156.942 150.625 153.669 146.283 153.669C141.94 153.669 138.42 157.142 138.42 161.426C138.42 165.71 141.94 169.182 146.283 169.182C150.625 169.183 154.145 165.51 154.145 161.226Z" fill="url(#paint21_linear_20_3036)"/>
<g opacity="0.44">
<path opacity="0.44" d="M190.031 159.385C203.43 159.385 214.293 152.919 214.293 144.943C214.293 136.967 203.43 130.502 190.031 130.502C176.632 130.502 165.77 136.967 165.77 144.943C165.77 152.919 176.632 159.385 190.031 159.385Z" fill="#AECFDC"/>
</g>
<path d="M188.207 123.831L171.996 133.176C170.751 133.893 169.984 135.219 169.984 136.654V143.903C169.984 145.251 170.662 146.509 171.788 147.253L187.927 157.911C189.194 158.747 190.825 158.8 192.143 158.047L208.646 148.628C209.899 147.913 210.672 146.582 210.672 145.141V137.824C210.672 136.456 209.974 135.182 208.821 134.443L192.39 123.928C191.124 123.117 189.51 123.08 188.207 123.831Z" fill="#3C7FBE"/>
<path d="M189.588 123.023L173.376 132.367C172.132 133.085 171.365 134.411 171.365 135.845V143.095C171.365 144.443 172.042 145.701 173.169 146.444L189.308 157.102C190.575 157.939 192.206 157.992 193.524 157.239L210.027 147.82C211.28 147.105 212.053 145.774 212.053 144.333V137.016C212.053 135.648 211.355 134.374 210.201 133.635L193.771 123.12C192.504 122.309 190.891 122.272 189.588 123.023Z" fill="url(#paint22_linear_20_3036)"/>
<path d="M174.456 132.742L189.28 124.196C189.923 123.826 190.72 123.844 191.345 124.244L206.277 133.8C207.534 134.605 207.486 136.455 206.188 137.192L191.364 145.617C190.726 145.979 189.94 145.961 189.319 145.569L174.387 136.133C173.125 135.336 173.163 133.487 174.456 132.742Z" fill="white"/>
<path d="M175.275 132.786L189.324 124.76C189.933 124.412 190.688 124.429 191.281 124.805L205.431 133.78C206.623 134.536 206.576 136.273 205.347 136.966L191.298 144.879C190.694 145.219 189.949 145.202 189.361 144.834L175.21 135.972C174.014 135.223 174.05 133.486 175.275 132.786Z" fill="url(#paint23_linear_20_3036)"/>
<path d="M179.415 138.605L190.327 132.24L201.126 139.343L205.346 136.966C205.346 136.966 207.031 136.199 206.839 135.3C206.648 134.401 206.648 134.401 206.648 134.401L190.923 124.245C190.923 124.245 190.745 123.733 188.058 125.233C185.371 126.734 174.467 133.04 174.467 133.04C174.467 133.04 173.17 134.35 174.467 135.802C175.764 137.255 179.415 138.605 179.415 138.605Z" fill="url(#paint24_linear_20_3036)"/>
<path d="M198.354 135.1C198.354 130.816 194.834 127.543 190.492 127.543C186.149 127.543 182.629 131.016 182.629 135.3C182.629 139.584 186.149 143.057 190.492 143.057C194.834 143.057 198.354 139.384 198.354 135.1Z" fill="url(#paint25_linear_20_3036)"/>
<path d="M194.331 138.125C194.327 138.12 194.324 138.117 194.324 138.117L192.851 134.933C192.851 134.731 191.778 134.567 190.454 134.567C189.131 134.567 188.058 134.731 188.058 134.933L186.331 138.094C186.284 138.134 186.26 138.175 186.26 138.217C186.26 138.581 188.076 138.876 190.316 138.876C192.556 138.876 194.372 138.581 194.372 138.217C194.371 138.186 194.357 138.155 194.331 138.125Z" fill="white"/>
<path d="M194.325 138.118C194.024 137.474 192.374 133.934 192.183 133.434C192.028 133.028 192 132.75 191.996 132.633V130.443H191.994C191.995 130.439 191.996 130.435 191.996 130.432C191.996 130.269 191.322 130.138 190.49 130.138C189.658 130.138 188.984 130.27 188.984 130.432C188.984 130.435 188.985 130.439 188.986 130.443H188.984V132.57H188.983C188.858 133.66 186.747 137.371 186.331 138.095C186.284 138.135 186.26 138.176 186.26 138.218C186.26 138.582 188.076 138.877 190.316 138.877C192.556 138.877 194.372 138.582 194.372 138.218C194.372 138.184 194.356 138.15 194.325 138.118Z" fill="white"/>
<path d="M190.49 130.724C191.322 130.724 191.996 130.593 191.996 130.431C191.996 130.269 191.322 130.137 190.49 130.137C189.659 130.137 188.984 130.269 188.984 130.431C188.984 130.593 189.659 130.724 190.49 130.724Z" fill="white"/>
<path d="M190.455 135.3C191.778 135.3 192.851 135.136 192.851 134.933C192.851 134.731 191.778 134.567 190.455 134.567C189.131 134.567 188.059 134.731 188.059 134.933C188.059 135.136 189.131 135.3 190.455 135.3Z" fill="white"/>
<path d="M190.316 138.876C192.556 138.876 194.372 138.581 194.372 138.217C194.372 137.854 192.556 137.559 190.316 137.559C188.076 137.559 186.26 137.854 186.26 138.217C186.26 138.581 188.076 138.876 190.316 138.876Z" fill="white"/>
<path d="M198.354 135.1C198.354 130.816 194.834 127.543 190.492 127.543C186.149 127.543 182.629 131.016 182.629 135.3C182.629 139.584 186.149 143.057 190.492 143.057C194.834 143.057 198.354 139.384 198.354 135.1Z" fill="url(#paint26_linear_20_3036)"/>
<g opacity="0.44">
<path opacity="0.44" d="M234.933 133.101C248.333 133.101 259.195 126.635 259.195 118.66C259.195 110.684 248.333 104.218 234.933 104.218C221.534 104.218 210.672 110.684 210.672 118.66C210.672 126.635 221.534 133.101 234.933 133.101Z" fill="#AECFDC"/>
</g>
<path d="M234.49 96.7391L218.279 106.084C217.034 106.801 216.268 108.127 216.268 109.562V116.811C216.268 118.159 216.945 119.417 218.071 120.161L234.21 130.819C235.477 131.655 237.108 131.708 238.427 130.956L254.929 121.536C256.182 120.821 256.955 119.49 256.955 118.05V110.732C256.955 109.364 256.258 108.09 255.104 107.351L238.673 96.8363C237.407 96.0255 235.793 95.9881 234.49 96.7391Z" fill="#3C7FBE"/>
<path d="M234.49 96.7391L218.279 106.084C217.034 106.801 216.268 108.127 216.268 109.562V116.811C216.268 118.159 216.945 119.417 218.071 120.161L234.21 130.819C235.477 131.655 237.108 131.708 238.427 130.956L254.929 121.536C256.182 120.821 256.955 119.49 256.955 118.05V110.732C256.955 109.364 256.258 108.09 255.104 107.351L238.673 96.8363C237.407 96.0255 235.793 95.9881 234.49 96.7391Z" fill="url(#paint27_linear_20_3036)"/>
<path d="M220.739 105.65L235.563 97.1045C236.207 96.7339 237.003 96.7521 237.628 97.1522L252.56 106.708C253.817 107.513 253.769 109.363 252.471 110.1L237.647 118.525C237.009 118.888 236.223 118.869 235.603 118.477L220.67 109.041C219.408 108.244 219.446 106.395 220.739 105.65Z" fill="white"/>
<path d="M221.558 105.694L235.607 97.6681C236.216 97.32 236.971 97.3373 237.564 97.7131L251.714 106.689C252.906 107.444 252.86 109.181 251.63 109.874L237.582 117.787C236.977 118.127 236.232 118.11 235.644 117.742L221.493 108.88C220.297 108.131 220.333 106.394 221.558 105.694Z" fill="url(#paint28_linear_20_3036)"/>
<path d="M225.698 111.513L236.61 105.148L247.409 112.251L251.63 109.874C251.63 109.874 253.314 109.107 253.123 108.208C252.931 107.309 252.931 107.309 252.931 107.309L237.206 97.1533C237.206 97.1533 237.028 96.6407 234.341 98.1416C231.654 99.6424 220.75 105.948 220.75 105.948C220.75 105.948 219.454 107.258 220.75 108.71C222.047 110.163 225.698 111.513 225.698 111.513Z" fill="url(#paint29_linear_20_3036)"/>
<path d="M244.637 108.008C244.637 103.724 241.117 100.451 236.775 100.451C232.432 100.451 228.912 103.924 228.912 108.208C228.912 112.492 232.432 115.965 236.775 115.965C241.117 115.965 244.637 112.293 244.637 108.008Z" fill="url(#paint30_linear_20_3036)"/>
<path d="M240.614 111.033C240.611 111.028 240.608 111.025 240.608 111.025L239.134 107.842C239.134 107.639 238.061 107.475 236.737 107.475C235.414 107.475 234.341 107.639 234.341 107.842L232.614 111.002C232.568 111.042 232.543 111.083 232.543 111.126C232.543 111.489 234.359 111.784 236.599 111.784C238.839 111.784 240.655 111.489 240.655 111.126C240.655 111.094 240.64 111.063 240.614 111.033Z" fill="white"/>
<path d="M240.608 111.026C240.307 110.382 238.657 106.842 238.466 106.343C238.311 105.936 238.283 105.658 238.279 105.541V103.351H238.277C238.278 103.347 238.279 103.343 238.279 103.34C238.279 103.178 237.605 103.046 236.773 103.046C235.941 103.046 235.267 103.178 235.267 103.34C235.267 103.343 235.268 103.347 235.269 103.351H235.267V105.478H235.266C235.141 106.568 233.031 110.279 232.614 111.003C232.568 111.043 232.543 111.084 232.543 111.126C232.543 111.49 234.359 111.785 236.599 111.785C238.839 111.785 240.655 111.49 240.655 111.126C240.655 111.092 240.639 111.059 240.608 111.026Z" fill="white"/>
<path d="M236.773 103.632C237.605 103.632 238.279 103.501 238.279 103.339C238.279 103.177 237.605 103.045 236.773 103.045C235.942 103.045 235.268 103.177 235.268 103.339C235.268 103.501 235.942 103.632 236.773 103.632Z" fill="white"/>
<path d="M236.738 108.208C238.062 108.208 239.134 108.044 239.134 107.842C239.134 107.639 238.062 107.475 236.738 107.475C235.415 107.475 234.342 107.639 234.342 107.842C234.342 108.044 235.415 108.208 236.738 108.208Z" fill="white"/>
<path d="M236.599 111.784C238.839 111.784 240.655 111.489 240.655 111.126C240.655 110.762 238.839 110.467 236.599 110.467C234.359 110.467 232.543 110.762 232.543 111.126C232.543 111.489 234.359 111.784 236.599 111.784Z" fill="white"/>
<path d="M244.637 108.008C244.637 103.724 241.117 100.451 236.775 100.451C232.432 100.451 228.912 103.924 228.912 108.208C228.912 112.492 232.432 115.965 236.775 115.965C241.117 115.965 244.637 112.293 244.637 108.008Z" fill="url(#paint31_linear_20_3036)"/>
<defs>
<linearGradient id="paint0_linear_20_3036" x1="135.645" y1="185.256" x2="260.92" y2="185.256" gradientUnits="userSpaceOnUse">
<stop stop-color="#6B385F"/>
<stop offset="0.4197" stop-color="#6F3B62" stop-opacity="0.7323"/>
<stop offset="0.5218" stop-color="#764268" stop-opacity="0.6035"/>
<stop offset="0.6937" stop-color="#8C567A" stop-opacity="0.3865"/>
<stop offset="0.9131" stop-color="#B5799B" stop-opacity="0.1096"/>
<stop offset="1" stop-color="#CC8DAE" stop-opacity="0"/>
</linearGradient>
<linearGradient id="paint1_linear_20_3036" x1="124.502" y1="137.41" x2="133.64" y2="137.41" gradientUnits="userSpaceOnUse">
<stop stop-color="#6B385F"/>
<stop offset="0.4197" stop-color="#6F3B62" stop-opacity="0.7323"/>
<stop offset="0.5218" stop-color="#764268" stop-opacity="0.6035"/>
<stop offset="0.6937" stop-color="#8C567A" stop-opacity="0.3865"/>
<stop offset="0.9131" stop-color="#B5799B" stop-opacity="0.1096"/>
<stop offset="1" stop-color="#CC8DAE" stop-opacity="0"/>
</linearGradient>
<linearGradient id="paint2_linear_20_3036" x1="127.836" y1="124.671" x2="152.613" y2="124.671" gradientUnits="userSpaceOnUse">
<stop offset="0.2595" stop-color="#6B385F"/>
<stop offset="0.6487" stop-color="#6F3B62" stop-opacity="0.7323"/>
<stop offset="0.7105" stop-color="#764268" stop-opacity="0.6035"/>
<stop offset="0.8146" stop-color="#8C567A" stop-opacity="0.3865"/>
<stop offset="0.9474" stop-color="#B5799B" stop-opacity="0.1096"/>
<stop offset="1" stop-color="#CC8DAE" stop-opacity="0"/>
</linearGradient>
<linearGradient id="paint3_linear_20_3036" x1="159.026" y1="98.1954" x2="162.981" y2="98.1954" gradientUnits="userSpaceOnUse">
<stop stop-color="#6B385F"/>
<stop offset="0.4197" stop-color="#6F3B62" stop-opacity="0.7323"/>
<stop offset="0.5218" stop-color="#764268" stop-opacity="0.6035"/>
<stop offset="0.6937" stop-color="#8C567A" stop-opacity="0.3865"/>
<stop offset="0.9131" stop-color="#B5799B" stop-opacity="0.1096"/>
<stop offset="1" stop-color="#CC8DAE" stop-opacity="0"/>
</linearGradient>
<linearGradient id="paint4_linear_20_3036" x1="136.355" y1="130.676" x2="174.481" y2="130.676" gradientUnits="userSpaceOnUse">
<stop offset="0.1342" stop-color="#1D4989"/>
<stop offset="0.9351" stop-color="white" stop-opacity="0"/>
</linearGradient>
<linearGradient id="paint5_linear_20_3036" x1="148.801" y1="119.541" x2="173.829" y2="119.541" gradientUnits="userSpaceOnUse">
<stop offset="0.3423" stop-color="#1D4989"/>
<stop offset="0.9818" stop-color="#2575AE" stop-opacity="0.4681"/>
<stop offset="1" stop-color="#29ABE2" stop-opacity="0"/>
</linearGradient>
<linearGradient id="paint6_linear_20_3036" x1="138.93" y1="133.533" x2="160.22" y2="133.533" gradientUnits="userSpaceOnUse">
<stop offset="0.3423" stop-color="#1D4989"/>
<stop offset="1" stop-color="#29ABE2" stop-opacity="0"/>
</linearGradient>
<linearGradient id="paint7_linear_20_3036" x1="140.16" y1="111.541" x2="158.98" y2="111.541" gradientUnits="userSpaceOnUse">
<stop offset="0.3423" stop-color="#1D4989"/>
<stop offset="1" stop-color="#29ABE2" stop-opacity="0"/>
</linearGradient>
<linearGradient id="paint8_linear_20_3036" x1="123.649" y1="139.571" x2="136.801" y2="139.571" gradientUnits="userSpaceOnUse">
<stop offset="0.0607" stop-color="#28A8E0"/>
<stop offset="0.9984" stop-color="#29ABE2" stop-opacity="0"/>
</linearGradient>
<linearGradient id="paint9_linear_20_3036" x1="63.0487" y1="126.882" x2="101.61" y2="126.882" gradientUnits="userSpaceOnUse">
<stop offset="0.0607" stop-color="#28A8E0"/>
<stop offset="0.9984" stop-color="#29ABE2" stop-opacity="0"/>
</linearGradient>
<linearGradient id="paint10_linear_20_3036" x1="65.2871" y1="130.354" x2="81.6065" y2="130.354" gradientUnits="userSpaceOnUse">
<stop offset="0.4247" stop-color="white"/>
<stop offset="1" stop-color="#2484C6" stop-opacity="0"/>
</linearGradient>
<linearGradient id="paint11_linear_20_3036" x1="63.6816" y1="152.826" x2="72.9247" y2="152.826" gradientUnits="userSpaceOnUse">
<stop stop-color="#6B385F"/>
<stop offset="0.4197" stop-color="#6F3B62" stop-opacity="0.7323"/>
<stop offset="0.5218" stop-color="#764268" stop-opacity="0.6035"/>
<stop offset="0.6937" stop-color="#8C567A" stop-opacity="0.3865"/>
<stop offset="0.9131" stop-color="#B5799B" stop-opacity="0.1096"/>
<stop offset="1" stop-color="#CC8DAE" stop-opacity="0"/>
</linearGradient>
<linearGradient id="paint12_linear_20_3036" x1="98.3731" y1="158.205" x2="111.525" y2="158.205" gradientUnits="userSpaceOnUse">
<stop offset="0.0607" stop-color="#28A8E0"/>
<stop offset="0.9984" stop-color="#29ABE2" stop-opacity="0"/>
</linearGradient>
<linearGradient id="paint13_linear_20_3036" x1="178.744" y1="86.6664" x2="200.502" y2="86.6664" gradientUnits="userSpaceOnUse">
<stop offset="0.0607" stop-color="#28A8E0"/>
<stop offset="0.9984" stop-color="#29ABE2" stop-opacity="0"/>
</linearGradient>
<linearGradient id="paint14_linear_20_3036" x1="217.023" y1="118.833" x2="262.797" y2="118.833" gradientUnits="userSpaceOnUse">
<stop stop-color="#29ABE2" stop-opacity="0"/>
<stop offset="0.2747" stop-color="#20439C" stop-opacity="0.8757"/>
<stop offset="0.7514" stop-color="#21409A"/>
</linearGradient>
<linearGradient id="paint15_linear_20_3036" x1="211.937" y1="57.4073" x2="334.001" y2="57.4073" gradientUnits="userSpaceOnUse">
<stop offset="0.0607" stop-color="#28A8E0"/>
<stop offset="0.9984" stop-color="#29ABE2" stop-opacity="0"/>
</linearGradient>
<linearGradient id="paint16_linear_20_3036" x1="211.937" y1="67.6226" x2="334.001" y2="67.6226" gradientUnits="userSpaceOnUse">
<stop offset="0.0607" stop-color="#28A8E0"/>
<stop offset="0.9984" stop-color="#29ABE2" stop-opacity="0"/>
</linearGradient>
<linearGradient id="paint17_linear_20_3036" x1="125.775" y1="167.06" x2="166.463" y2="167.06" gradientUnits="userSpaceOnUse">
<stop offset="0.3062" stop-color="#29ABE2" stop-opacity="0"/>
<stop offset="0.6875" stop-color="#28A8E0" stop-opacity="0.8614"/>
<stop offset="0.9037" stop-color="#28A8E0"/>
</linearGradient>
<linearGradient id="paint18_linear_20_3036" x1="130.127" y1="160.942" x2="162.09" y2="160.942" gradientUnits="userSpaceOnUse">
<stop stop-color="white"/>
<stop offset="0.9052" stop-color="#2484C6" stop-opacity="0"/>
</linearGradient>
<linearGradient id="paint19_linear_20_3036" x1="129.684" y1="157.878" x2="162.648" y2="157.878" gradientUnits="userSpaceOnUse">
<stop offset="0.3423" stop-color="#1D4989"/>
<stop offset="1" stop-color="#29ABE2" stop-opacity="0"/>
</linearGradient>
<linearGradient id="paint20_linear_20_3036" x1="138.42" y1="161.426" x2="154.145" y2="161.426" gradientUnits="userSpaceOnUse">
<stop stop-color="#BD8AAE"/>
<stop offset="1" stop-color="#2484C6" stop-opacity="0"/>
</linearGradient>
<linearGradient id="paint21_linear_20_3036" x1="138.42" y1="161.426" x2="154.145" y2="161.426" gradientUnits="userSpaceOnUse">
<stop offset="0.3062" stop-color="#29ABE2" stop-opacity="0"/>
<stop offset="0.6875" stop-color="#28A8E0" stop-opacity="0.8614"/>
<stop offset="0.9037" stop-color="#28A8E0"/>
</linearGradient>
<linearGradient id="paint22_linear_20_3036" x1="171.365" y1="140.127" x2="212.053" y2="140.127" gradientUnits="userSpaceOnUse">
<stop offset="0.3062" stop-color="#29ABE2" stop-opacity="0"/>
<stop offset="0.6875" stop-color="#28A8E0" stop-opacity="0.8614"/>
<stop offset="0.9037" stop-color="#28A8E0"/>
</linearGradient>
<linearGradient id="paint23_linear_20_3036" x1="174.334" y1="134.817" x2="206.297" y2="134.817" gradientUnits="userSpaceOnUse">
<stop stop-color="white"/>
<stop offset="0.9052" stop-color="#2484C6" stop-opacity="0"/>
</linearGradient>
<linearGradient id="paint24_linear_20_3036" x1="173.891" y1="131.752" x2="206.855" y2="131.752" gradientUnits="userSpaceOnUse">
<stop offset="0.3423" stop-color="#1D4989"/>
<stop offset="1" stop-color="#29ABE2" stop-opacity="0"/>
</linearGradient>
<linearGradient id="paint25_linear_20_3036" x1="182.629" y1="135.3" x2="198.354" y2="135.3" gradientUnits="userSpaceOnUse">
<stop stop-color="#BD8AAE"/>
<stop offset="1" stop-color="#2484C6" stop-opacity="0"/>
</linearGradient>
<linearGradient id="paint26_linear_20_3036" x1="182.629" y1="135.3" x2="198.354" y2="135.3" gradientUnits="userSpaceOnUse">
<stop offset="0.3062" stop-color="#29ABE2" stop-opacity="0"/>
<stop offset="0.6875" stop-color="#28A8E0" stop-opacity="0.8614"/>
<stop offset="0.9037" stop-color="#28A8E0"/>
</linearGradient>
<linearGradient id="paint27_linear_20_3036" x1="216.267" y1="113.843" x2="256.955" y2="113.843" gradientUnits="userSpaceOnUse">
<stop offset="0.3062" stop-color="#29ABE2" stop-opacity="0"/>
<stop offset="0.6875" stop-color="#28A8E0" stop-opacity="0.8614"/>
<stop offset="0.9037" stop-color="#28A8E0"/>
</linearGradient>
<linearGradient id="paint28_linear_20_3036" x1="220.617" y1="107.725" x2="252.581" y2="107.725" gradientUnits="userSpaceOnUse">
<stop stop-color="white"/>
<stop offset="0.9052" stop-color="#2484C6" stop-opacity="0"/>
</linearGradient>
<linearGradient id="paint29_linear_20_3036" x1="220.174" y1="104.66" x2="253.138" y2="104.66" gradientUnits="userSpaceOnUse">
<stop offset="0.3423" stop-color="#1D4989"/>
<stop offset="1" stop-color="#29ABE2" stop-opacity="0"/>
</linearGradient>
<linearGradient id="paint30_linear_20_3036" x1="228.912" y1="108.208" x2="244.637" y2="108.208" gradientUnits="userSpaceOnUse">
<stop stop-color="#BD8AAE"/>
<stop offset="1" stop-color="#2484C6" stop-opacity="0"/>
</linearGradient>
<linearGradient id="paint31_linear_20_3036" x1="228.912" y1="108.208" x2="244.637" y2="108.208" gradientUnits="userSpaceOnUse">
<stop offset="0.3062" stop-color="#29ABE2" stop-opacity="0"/>
<stop offset="0.6875" stop-color="#28A8E0" stop-opacity="0.8614"/>
<stop offset="0.9037" stop-color="#28A8E0"/>
</linearGradient>
</defs>
</svg>
