<svg width="776" height="608" viewBox="0 0 776 608" fill="none" xmlns="http://www.w3.org/2000/svg">
<path d="M487.665 592.175C449.123 570.92 448.753 535.926 486.847 514.411C524.94 492.896 586.305 492.716 623.216 514.011C660.126 535.307 660.494 570.301 624.034 591.776C587.574 613.25 526.208 613.431 487.665 592.175Z" fill="#E7F6FD"/>
<g opacity="0.46">
<path opacity="0.46" d="M276.821 579.695L68.6471 459.258C61.1057 454.895 61.1058 443.989 68.6482 439.627L299.625 306.02C307.332 301.562 316.824 301.553 324.539 305.996L537.386 428.564C544.944 432.916 544.955 443.839 537.405 448.207L310.129 579.695C299.823 585.657 287.126 585.657 276.821 579.695Z" fill="#CDE9F9"/>
</g>
<g opacity="0.46">
<path opacity="0.46" d="M409.007 173.35V185.387C409.007 189.523 406.763 192.884 403.627 194.685C400.523 196.464 396.536 196.715 392.986 194.674L261.895 119.035L205.008 86.2196C201.697 84.3098 199.66 80.7631 199.66 76.9326V18.6349C199.66 10.3955 208.548 5.24453 215.671 9.35877L238.935 22.7819V69.0206C238.935 72.8511 240.972 76.3978 244.294 78.3076L409.007 173.35Z" fill="#CDE9F9"/>
</g>
<path d="M478.085 119.177V177.475C478.085 185.714 469.187 190.865 462.064 186.762L438.81 173.35V127.089C438.81 123.259 436.762 119.723 433.451 117.813L268.738 22.7818V10.7228C268.738 2.4834 277.637 -2.66758 284.76 1.44666L472.737 109.901C476.048 111.811 478.085 115.347 478.085 119.177Z" fill="url(#paint0_linear_20_3946)"/>
<g opacity="0.46">
<path opacity="0.46" d="M684.107 352.514V370.848C684.107 379.087 675.208 384.238 668.085 380.124L480.108 271.67C476.796 269.76 474.76 266.224 474.76 262.394V204.096C474.76 195.856 483.647 190.705 490.77 194.82L538.628 222.43V262.394C538.628 266.224 540.665 269.76 543.976 271.67L684.107 352.514Z" fill="#CDE9F9"/>
</g>
<path d="M794.999 310.009V368.307C794.999 376.546 786.101 381.697 778.978 377.583L731.131 349.973V310.009C731.131 306.178 729.084 302.643 725.773 300.733L585.652 219.889V201.555C585.652 199.547 586.175 197.724 587.079 196.174C589.878 191.362 596.282 189.168 601.674 192.278L694.862 246.047L789.641 300.733C792.963 302.643 794.999 306.178 794.999 310.009Z" fill="url(#paint1_linear_20_3946)"/>
<path d="M262.732 554.625C262.732 533.279 245.256 516.968 223.698 516.968C202.141 516.968 184.665 534.273 184.665 555.619C184.665 576.965 202.141 594.27 223.698 594.27C245.256 594.27 262.732 575.972 262.732 554.625Z" fill="url(#paint2_linear_20_3946)"/>
<path d="M598.332 384.259C598.332 372.125 588.397 362.854 576.144 362.854C563.89 362.854 553.957 372.69 553.957 384.824C553.957 396.959 563.891 406.794 576.144 406.794C588.398 406.794 598.332 396.393 598.332 384.259Z" fill="url(#paint3_linear_20_3946)"/>
<path d="M307.106 584.705C307.106 572.57 297.172 563.3 284.919 563.3C272.665 563.3 262.731 573.136 262.731 585.27C262.731 597.404 272.666 607.24 284.919 607.24C297.172 607.24 307.106 596.838 307.106 584.705Z" fill="url(#paint4_linear_20_3946)"/>
<path d="M106.748 434.999C106.748 405.811 82.8521 383.508 53.3741 383.508C23.8961 383.508 0 407.17 0 436.359C0 465.547 23.8961 489.21 53.3741 489.21C82.8521 489.21 106.748 464.187 106.748 434.999Z" fill="url(#paint5_linear_20_3946)"/>
<path d="M611.367 418.748C611.367 400.501 596.429 386.559 578.001 386.559C559.574 386.559 544.635 401.35 544.635 419.598C544.635 437.846 559.574 452.637 578.001 452.637C596.429 452.637 611.367 436.995 611.367 418.748Z" fill="url(#paint6_linear_20_3946)"/>
<path d="M295.799 194.667L316.273 201.678L495.113 305.144L455.975 294.84L295.799 194.667Z" fill="#CDE9F9"/>
<path d="M123.003 294.636L295.799 194.667L468.595 294.636L295.799 394.606L123.003 294.636Z" fill="#2A2F6D"/>
<path d="M123.003 305.549V440.953C123.003 443.204 124.201 445.284 126.146 446.41L288.488 540.331C293.012 542.948 298.586 542.948 303.109 540.331L465.451 446.41C467.397 445.285 468.595 443.205 468.595 440.953V295.121C468.595 294.906 468.363 294.771 468.177 294.878L298.943 392.787C296.998 393.912 294.601 393.912 292.656 392.787L132.435 300.094C128.243 297.668 123.003 300.699 123.003 305.549Z" fill="#3DBBED"/>
<path d="M123.003 294.636V440.81C123.003 443.149 124.248 445.311 126.27 446.48L288.423 540.293C292.988 542.934 298.611 542.934 303.175 540.293L468.595 444.59V295.462C468.595 295.095 468.198 294.865 467.881 295.049L295.799 394.606L123.003 294.636Z" fill="url(#paint7_linear_20_3946)"/>
<path d="M209.4 344.621L295.799 294.636L382.196 344.621L468.595 294.636L295.799 194.667L123.003 294.636L209.4 344.621Z" fill="url(#paint8_linear_20_3946)"/>
<path d="M352.882 361.934V511.534L416.851 474.526V324.571L352.882 361.934Z" fill="#DE5FA3"/>
<path d="M172.187 423.06V473.044L238.714 511.533V427.631L209.4 444.589L172.187 423.06Z" fill="#DE5FA3"/>
<path d="M352.882 361.934V511.534L416.851 474.526V324.571L352.882 361.934Z" fill="url(#paint9_linear_20_3946)"/>
<path d="M172.187 423.06V473.044L238.714 511.533V427.631L209.4 444.589L172.187 423.06Z" fill="url(#paint10_linear_20_3946)"/>
<path d="M295.799 194.667V294.636L382.196 344.621L468.595 294.636L295.799 194.667Z" fill="url(#paint11_linear_20_3946)"/>
<path d="M209.399 344.621L295.798 294.636L382.195 344.621L295.798 394.606L209.399 344.621Z" fill="url(#paint12_linear_20_3946)"/>
<path opacity="0.69" d="M295.798 536.037V394.607L209.399 444.592L123.001 393.956V438.908C123.001 442.425 124.873 445.675 127.914 447.434L288.431 540.299C291.705 542.193 295.798 539.825 295.798 536.037Z" fill="#3C7FBE"/>
<path d="M295.49 394.608L281.919 412.309L235.423 472.953L62.9658 373.163L82.6796 347.452L123.033 294.818L295.49 394.608Z" fill="#CDE9F9"/>
<g opacity="0.32">
<path opacity="0.32" d="M295.49 394.608L281.919 412.309C272.335 414.655 258.524 419.206 238.712 427.631C181.63 451.89 187.261 408.347 145.393 362.992C128.108 344.276 104.485 342.771 82.6797 347.452L123.033 294.818L295.49 394.608Z" fill="url(#paint13_linear_20_3946)"/>
</g>
<path d="M285.293 368.552C284.531 368.552 283.739 368.452 282.937 368.256C277.69 366.983 272.224 361.843 268.668 354.842L228.004 274.778C220.381 259.77 216.184 243.825 216.184 229.878C216.184 220.144 219.108 212.425 224.419 208.141L224.987 207.683L224.965 207.612L225.856 207.098C225.856 207.098 226.211 206.86 226.272 206.824C226.663 206.587 227.063 206.37 227.468 206.168L261.173 186.758C261.454 186.58 264.124 185.053 264.441 184.877L266.812 183.515C268.557 182.913 270.456 182.607 272.46 182.607C277.193 182.607 282.518 184.313 287.857 187.54C300.256 195.039 311.574 211.356 316.348 223.6L316.811 224.786L319.104 223.45L319.207 223.343C322.13 220.348 326.516 218.698 331.559 218.698C336.676 218.698 342.235 220.425 347.635 223.691C365.655 234.588 380.315 261.29 380.315 283.215C380.315 289.554 379.45 295.316 377.745 300.341C375.674 306.733 372.391 311.683 367.981 315.062L327.288 345.932C326.866 346.255 326.387 346.532 325.818 346.783L325.713 346.836L292.317 366.101C291.952 366.309 291.521 366.443 291 366.509L290.782 366.536L289.709 367.156C289.291 367.441 288.929 367.649 288.559 367.823L288.208 368.023L287.924 368.093C287.078 368.398 286.192 368.552 285.293 368.552ZM224.489 211.744C220.746 215.71 218.767 221.98 218.767 229.878C218.767 243.363 222.851 258.828 230.267 273.426L270.931 353.489C274.092 359.714 279.025 364.437 283.497 365.522C284.065 365.659 284.616 365.725 285.185 365.725C285.355 365.725 285.523 365.72 285.687 365.708L287.455 365.586L286.547 364.061C266.816 330.896 254.258 308.681 253.775 306.085C253.211 303.066 236.255 245.64 226.325 212.184L225.787 210.371L224.489 211.744Z" fill="url(#paint14_linear_20_3946)"/>
<path d="M272.462 183.698C276.997 183.698 282.127 185.349 287.296 188.474C299.487 195.848 310.63 211.926 315.336 223.997L316.262 226.371L318.461 225.089L319.526 224.468L319.782 224.319L319.989 224.107C322.704 221.323 326.815 219.789 331.563 219.789C336.481 219.789 341.845 221.462 347.075 224.627C364.806 235.348 379.229 261.631 379.229 283.216C379.229 289.434 378.384 295.077 376.707 300.02C374.711 306.183 371.552 310.954 367.329 314.189L326.626 345.067C326.276 345.334 325.87 345.569 325.382 345.784L325.274 345.832L325.171 345.891L291.779 365.153C291.54 365.29 291.242 365.379 290.865 365.427L290.43 365.482L290.05 365.701L289.167 366.211L289.115 366.241L287.484 363.501C264.161 324.298 255.331 308.028 254.846 305.883C254.142 302.111 230.106 221.097 227.368 211.871L226.292 208.245L223.698 210.994C219.759 215.167 217.678 221.697 217.678 229.878C217.678 243.531 221.805 259.173 229.296 273.92L269.96 353.984C273.31 360.58 278.399 365.408 283.244 366.583C283.886 366.738 284.538 366.815 285.184 366.815C285.38 366.815 285.573 366.809 285.763 366.796L288.547 366.603C288.4 366.687 288.251 366.764 288.1 366.835L288.017 366.874L287.937 366.92L287.885 366.95L287.561 367.065C286.829 367.327 286.066 367.46 285.294 367.46C284.621 367.46 283.915 367.371 283.193 367.195C278.249 365.996 273.056 361.073 269.641 354.346L228.977 274.282C221.43 259.425 217.275 243.655 217.275 229.878C217.275 220.481 220.056 213.063 225.104 208.992L225.971 208.292L226.401 208.044L226.447 208.018L226.49 207.99C226.566 207.942 226.64 207.891 226.714 207.84C226.755 207.812 226.795 207.782 226.837 207.757C227.19 207.544 227.567 207.337 227.955 207.144L228.014 207.114L228.071 207.082L261.718 187.702L261.746 187.687L261.8 187.652C262.062 187.489 264.619 186.024 264.998 185.813L267.264 184.511C268.868 183.972 270.617 183.698 272.462 183.698ZM272.463 181.516C270.319 181.516 268.273 181.843 266.36 182.516L263.915 183.921C263.618 184.086 260.833 185.679 260.632 185.81L226.985 205.189C226.554 205.404 226.128 205.637 225.711 205.889C225.574 205.971 225.448 206.066 225.314 206.152L223.678 207.095L223.737 207.291C218.151 211.796 215.096 219.696 215.096 229.878C215.096 243.99 219.336 260.114 227.035 275.272L267.699 355.336C271.395 362.615 277.137 367.972 282.679 369.317C283.576 369.536 284.451 369.644 285.293 369.644C286.347 369.644 287.349 369.46 288.293 369.122L288.342 369.205L289.022 368.813C289.448 368.613 289.859 368.376 290.253 368.103L291.136 367.594C291.731 367.518 292.317 367.36 292.86 367.048L326.257 347.783C326.904 347.498 327.458 347.176 327.945 346.804L368.642 315.931C373.245 312.404 376.671 307.194 378.776 300.694C380.499 295.617 381.406 289.732 381.406 283.217C381.406 260.952 366.508 233.831 348.198 222.759C342.207 219.134 336.504 217.609 331.56 217.609C325.999 217.609 321.399 219.539 318.429 222.584L317.364 223.205C312.518 210.774 301.037 194.238 288.421 186.607C282.927 183.285 277.437 181.516 272.463 181.516ZM285.185 364.633C284.734 364.633 284.26 364.583 283.754 364.46C279.579 363.448 274.924 358.944 271.902 352.993L231.238 272.93C223.896 258.479 219.856 243.189 219.856 229.878C219.856 222.241 221.76 216.224 225.28 212.494C236.39 249.921 252.176 303.455 252.704 306.284C253.449 310.279 276.376 349.093 285.613 364.618C285.473 364.628 285.33 364.633 285.185 364.633Z" fill="white"/>
<path d="M283.47 367.052C278.632 367.052 272.666 361.959 268.962 354.666L228.297 274.601C220.853 259.945 216.752 244.414 216.752 230.873C216.752 216.698 223.161 207.893 233.476 207.893C237.762 207.893 242.409 209.39 247.29 212.341C259.14 219.508 270.31 235.688 274.804 247.271C275.517 249.113 276.993 250.4 278.392 250.4C279.14 250.4 279.801 250.029 280.207 249.382C282.435 245.836 286.764 243.802 292.085 243.802C296.811 243.802 301.993 245.425 307.068 248.495C324.431 258.997 338.559 284.729 338.559 305.857C338.559 319.22 334.591 329.621 327.386 335.145L286.702 366.009C285.789 366.701 284.701 367.052 283.47 367.052Z" fill="url(#paint15_linear_20_3946)"/>
<path d="M233.472 206.801L233.474 208.983C237.502 208.983 242.084 210.468 246.726 213.274C258.369 220.317 269.359 236.25 273.787 247.665C274.674 249.953 276.524 251.49 278.391 251.49C279.521 251.49 280.518 250.933 281.129 249.962C283.153 246.74 287.147 244.892 292.085 244.892C296.613 244.892 301.6 246.46 306.506 249.427C323.579 259.754 337.47 285.068 337.47 305.857C337.47 318.872 333.654 328.965 326.733 334.27L286.046 365.137C285.315 365.691 284.473 365.959 283.47 365.959C279.719 365.959 273.863 361.91 269.932 354.17L229.267 274.104C221.899 259.598 217.841 244.245 217.841 230.871C217.841 217.369 223.831 208.981 233.473 208.981V206.801H233.472ZM233.474 206.801C222.912 206.8 215.661 215.619 215.661 230.873C215.661 244.57 219.811 260.303 227.325 275.096L267.99 355.162C272.005 363.067 278.403 368.144 283.469 368.144C284.9 368.144 286.224 367.739 287.359 366.878L328.047 336.012C335.52 330.282 339.647 319.556 339.647 305.858V305.857C339.647 284.355 325.312 258.254 307.631 247.559C302.016 244.164 296.668 242.709 292.085 242.709C286.231 242.709 281.623 245.078 279.285 248.799C279.066 249.147 278.749 249.307 278.391 249.307C277.518 249.307 276.394 248.361 275.819 246.875C271.534 235.831 260.449 219.025 247.852 211.405H247.851C242.684 208.282 237.8 206.801 233.474 206.801Z" fill="white"/>
<path d="M344.475 413.089C344.475 413.089 340.132 408.102 341.069 403.561C342.004 399.02 339.474 394.623 337.826 394.281C336.179 393.941 337.679 398.125 336.508 400.68C335.336 403.234 334.711 404.182 331.998 402.76C329.285 401.338 323.501 396.051 320.865 395.292C318.229 394.531 319.779 397.434 322.508 399.828C325.236 402.222 326.132 404.129 326.132 404.129C326.132 404.129 317.656 400.44 313.906 399.879C310.155 399.318 311.372 402.798 317.049 405.478C322.725 408.158 322.725 408.158 322.725 408.158C322.725 408.158 314.285 405.336 312.34 406.441C310.395 407.545 310.139 408.783 313.392 409.671C316.646 410.559 322.195 413.859 322.195 413.859C322.195 413.859 316.257 413.492 313.984 414.097C311.711 414.703 311.698 416.853 315.655 417.456C319.611 418.06 322.901 419.816 326.468 423.352C330.035 426.887 339.007 430.25 342.948 426.761C346.887 423.272 344.475 413.089 344.475 413.089Z" fill="#FDE0D9"/>
<path d="M607.825 275.386C607.825 275.386 607.296 267.528 609.995 264.859C612.693 262.188 615.725 258.942 616.689 256.345C617.654 253.746 620.005 253.803 619.161 256.856C618.317 259.91 618.317 259.91 618.317 259.91C618.317 259.91 621.385 257.526 625.994 256.007C630.603 254.488 635.093 255.628 631.763 257.2C628.431 258.774 626.77 260.582 626.77 260.582C626.77 260.582 632.842 259.256 634.483 260.672C636.125 262.087 633.276 262.359 631.495 263.712C629.713 265.065 629.713 265.065 629.713 265.065C629.713 265.065 634.792 264.394 636.27 265.561C637.747 266.727 634.932 266.841 632.537 268.041C630.142 269.243 630.142 269.243 630.142 269.243C630.142 269.243 633.887 269.803 635.762 270.621C637.638 271.439 634.406 273.569 632.26 273.556C630.116 273.542 626.95 278.483 625.615 280.789C624.281 283.095 617.414 286.194 613.918 284.394C610.421 282.594 607.825 275.386 607.825 275.386Z" fill="#FDE0D9"/>
<path d="M485.054 318.321C485.947 321.18 478.541 330.532 471.962 334.33C465.384 338.139 468.673 335.705 468.673 335.705L463.968 325.654L462.258 321.998C462.214 322.02 462.16 322.031 462.116 322.053C452.651 325.818 440.584 323.941 438.471 317.076C436.347 310.179 445.615 282.395 445.615 282.395C452.793 272.584 484.814 278.237 486.426 287.611C487.308 292.762 479.107 301.787 477.778 309.503C476.7 315.843 482.516 321.529 482.516 321.529C482.516 321.529 484.161 315.461 485.054 318.321Z" fill="#FDE0D9"/>
<path d="M565.693 417.317C565.693 417.317 637.352 466.692 648.573 468.525C659.794 470.357 712.78 447.745 712.78 447.745C712.78 447.745 714.459 436.471 705.7 432.076C705.7 432.076 666.174 439.394 658.631 438.48C651.087 437.565 604.266 386.475 569.1 388.281C533.931 390.086 565.693 417.317 565.693 417.317Z" fill="#2A2F6D"/>
<path d="M745.461 486.141C745.461 486.141 745.461 486.141 732.173 494.369C722.229 500.524 683.847 511.634 662.195 516.763C654.898 518.498 649.506 519.557 647.731 519.513C640.673 519.339 628.703 514.93 585.268 494.326C561.23 482.922 545.699 469.52 536.615 459.819C529.285 451.994 526.159 446.581 526.159 446.581C526.159 446.581 551.711 397.636 572.231 401.237C574.888 401.707 577.36 402.503 579.648 403.562C595.048 410.71 602.858 429.993 611.81 443.645C622.114 459.328 644.899 476.963 651.314 480.226C657.729 483.489 657.37 482.125 670.135 479.593C682.9 477.072 735.822 464.129 735.822 464.129C737.586 465.275 739.057 466.519 740.266 467.807C748.031 476.046 745.461 486.141 745.461 486.141Z" fill="#3C7FBE"/>
<path d="M662.194 516.764C654.897 518.499 649.505 519.557 647.73 519.514C640.672 519.339 628.703 514.93 585.267 494.326C561.229 482.922 545.698 469.521 536.614 459.819L548.279 451.503C548.279 451.503 558.005 474.072 596.888 495.396C624.281 510.401 646.184 516.087 662.194 516.764Z" fill="url(#paint16_linear_20_3946)"/>
<path d="M740.265 467.807C705.892 478.687 660.626 497.752 652.599 499.16C641.25 501.157 632.025 492.907 616.689 476.548C601.365 460.19 552.538 425.355 552.538 425.355L579.647 403.562C595.048 410.71 602.857 429.993 611.81 443.645C622.113 459.327 644.899 476.963 651.314 480.226C657.729 483.489 657.37 482.125 670.134 479.593C682.899 477.072 735.821 464.129 735.821 464.129C737.586 465.275 739.056 466.519 740.265 467.807Z" fill="url(#paint17_linear_20_3946)"/>
<path d="M541.407 334.352C537.258 335.334 534.448 335.956 534.448 335.956C534.448 335.956 534.97 336.818 535.918 338.302C541.287 346.727 560.402 375.407 576.543 383.406L588.764 388.197C588.764 388.197 587.751 392.409 585.747 398.662C582.273 409.434 575.846 426.251 566.491 437.96C566.491 437.96 566.469 437.982 566.436 438.026C564.911 439.925 563.31 441.693 561.633 443.275C555.24 449.288 550.023 453.184 545.938 455.705C538.543 460.289 534.916 460.343 534.916 460.343C534.916 460.343 480.491 435.199 456.039 388.175C456.039 388.175 456.017 388.208 455.974 388.262L455.963 388.273C454.525 390.238 432.317 420.292 421.153 424.537C409.619 428.935 339.39 428.935 339.39 428.935C339.39 428.935 339.314 428.564 339.216 427.888C338.846 425.181 338.17 417.586 341.046 409.903C341.046 409.903 409.739 400.223 415.043 393.25C420.337 386.276 431.381 362.42 438.994 352.042C438.994 352.042 479.717 310.758 507.6 305.225C510.453 304.657 513.263 304.155 516.019 303.697C540.242 299.648 560.587 299.157 571.838 293.657C584.375 287.534 606.996 273.173 606.996 273.173C606.996 273.173 613.172 274.45 615.187 278.739C617.202 283.027 616.614 289.04 616.614 289.04C616.614 289.04 580.769 320.688 573.81 324.737C568.908 327.596 551.33 332.005 541.407 334.352Z" fill="#CDE9F9"/>
<path d="M425.825 268.981C425.825 268.981 432.34 287.398 447.629 286.687C462.918 285.977 467.459 292.081 466.684 297.408C465.908 302.736 465.908 302.736 465.908 302.736C465.908 302.736 469.284 297.3 472.938 296.766C476.592 296.23 472.505 306.684 470.322 309.46C468.139 312.236 468.139 312.236 468.139 312.236C468.139 312.236 483.43 309.951 492.252 299.974C501.074 289.996 497.627 277.016 491.383 276.047C491.383 276.047 495.476 254.619 477.681 250.293C459.887 245.966 455.404 253.65 448.36 250.309C441.316 246.967 442.789 248.886 442.789 248.886L444.221 251.702C444.695 252.633 443.862 253.704 442.849 253.453C440.687 252.917 437.6 251.853 435.558 249.867C434.887 249.214 433.765 249.668 433.803 250.604C433.899 252.965 434.287 256.015 435.555 257.72C435.555 257.72 431.585 254.182 429.21 250.971C428.446 249.936 426.814 250.256 426.466 251.495C425.155 256.147 423.428 264.326 425.825 268.981Z" fill="#2A2F6D"/>
<path d="M735.758 467.563C735.758 467.563 744.352 485.266 747.613 485.081C750.873 484.894 769.22 500.096 771.784 499.119C774.348 498.144 775.222 483.474 771.655 479.938C768.088 476.403 760.963 474.498 758.645 469.069C756.328 463.64 751.469 462.204 747.881 461.893C744.293 461.582 738.27 461.626 735.758 467.563Z" fill="#222457"/>
<path d="M709.177 443.342C709.177 443.342 725.34 451.419 728.33 454.621C731.322 457.823 736.315 457.564 732.86 449.317C729.404 441.07 726.861 438.822 725.772 434.723C724.683 430.625 717.771 427.688 713.759 429.44C709.746 431.193 705.06 435.173 705.06 435.173L709.177 443.342Z" fill="#222457"/>
<path d="M462.41 359.015C462.367 358.666 462.345 358.415 462.345 358.251C462.356 358.415 462.377 358.666 462.41 359.015Z" fill="#2A2F6D"/>
<path d="M566.436 438.025C564.911 439.924 563.31 441.692 561.633 443.274C543.64 460.211 534.916 460.342 534.916 460.342C534.916 460.342 480.491 435.199 456.039 388.174C456.039 388.174 432.698 420.149 421.153 424.536C409.619 428.934 339.39 428.934 339.39 428.934C339.39 428.934 339.314 428.563 339.216 427.887C362.916 425.595 416.786 419.757 424.628 413.503C434.735 405.439 453.185 385.053 458.391 376.999C462.639 370.429 462.574 361.961 462.41 359.069C462.922 363.903 466.081 384.704 483.932 401.051C504.278 419.658 516.008 447.247 538.815 445.26C560.206 443.394 565.815 438.614 566.436 438.025Z" fill="url(#paint18_linear_20_3946)"/>
<path d="M616.614 289.04C616.614 289.04 580.77 320.688 573.81 324.737C566.861 328.786 534.448 335.956 534.448 335.956C533.5 334.472 534.448 335.956 534.448 335.956L514.689 320.348C514.689 320.348 558.921 321.179 585.54 304.821C612.148 288.473 615.187 278.738 615.187 278.738C617.202 283.027 616.614 289.04 616.614 289.04Z" fill="url(#paint19_linear_20_3946)"/>
<path d="M516.019 303.696C512.991 304.886 509.048 306.13 503.929 307.341C482.495 312.438 453.534 341.445 444.668 349.619C435.803 357.792 422.319 387.662 418.06 394.264C413.802 400.856 380.8 405.439 371.575 409.706C362.35 413.973 341.046 409.902 341.046 409.902C341.046 409.902 409.739 400.223 415.043 393.249C420.337 386.276 431.381 362.42 438.994 352.041C438.994 352.041 479.717 310.757 507.6 305.224C510.453 304.657 513.263 304.155 516.019 303.696Z" fill="#E7F6FD"/>
<g opacity="0.22">
<path opacity="0.22" d="M588.764 388.196C588.764 388.196 587.751 392.409 585.747 398.662C572.111 394.547 546.701 385.064 537.868 369.415C525.571 347.61 514.222 326.275 503.81 320.59C494.998 315.766 502.69 309.488 521.342 324.558C522.221 325.268 522.678 325.223 522.984 326.312C523.155 326.921 525.047 327.761 526.154 328.677C529.475 331.425 534.448 335.956 534.448 335.956C534.448 335.956 534.97 336.818 535.918 338.303C541.287 346.727 560.402 375.407 576.543 383.406L588.764 388.196Z" fill="url(#paint20_linear_20_3946)"/>
</g>
<path d="M545.938 455.705C538.543 460.289 534.916 460.343 534.916 460.343C534.916 460.343 480.491 435.199 456.039 388.175C456.039 388.175 456.017 388.208 455.974 388.262C457.183 385.479 458.326 382.686 458.326 382.686C458.326 382.686 471.636 411.387 500.172 434.359C518.491 449.114 535.863 454.057 545.938 455.705Z" fill="url(#paint21_linear_20_3946)"/>
<path d="M469.033 315.09C469.033 315.09 467.138 321.834 463.969 325.654L462.259 321.998C462.215 322.02 462.161 322.03 462.117 322.052C464.601 320.372 467.291 318.058 469.033 315.09Z" fill="#ECBFB9"/>
<path d="M267.434 213.684C267.434 213.684 278.454 212.453 284.527 200.511L267.434 213.684Z" fill="#E7F6FD"/>
<path d="M267.854 217.481L267.01 209.888L267.432 213.685L266.98 209.893C267.352 209.846 276.125 208.618 281.13 198.778L287.922 202.247C280.996 215.864 268.388 217.421 267.854 217.481Z" fill="#E7F6FD"/>
<path d="M222.906 103.928C222.906 103.928 228.393 113.583 241.742 114.449L222.906 103.928Z" fill="#17A1DB"/>
<path d="M219.594 105.818L226.219 102.039L222.906 103.929L226.204 102.014C226.394 102.337 230.989 109.925 241.988 110.639L241.495 118.262C226.272 117.272 219.86 106.285 219.594 105.818Z" fill="#17A1DB"/>
<path d="M191.715 201.49C191.715 201.49 200.202 204.038 207.631 198.583L191.715 201.49Z" fill="url(#paint22_linear_20_3946)"/>
<path d="M191.101 203.926L192.328 199.05L191.714 201.488L192.305 199.044C192.593 199.126 199.409 201.004 205.532 196.51L209.73 200.655C201.257 206.875 191.511 204.05 191.101 203.926Z" fill="url(#paint23_linear_20_3946)"/>
<path d="M318.035 149.011C318.035 149.011 329.055 147.78 335.128 135.837L318.035 149.011Z" fill="#BD8AAE"/>
<path d="M318.457 152.807L317.613 145.215L318.036 149.012L317.584 145.219C317.955 145.173 326.728 143.945 331.733 134.104L338.525 137.574C331.599 151.191 318.991 152.747 318.457 152.807Z" fill="#BD8AAE"/>
<path d="M342.206 200.592C342.206 200.592 347.693 210.247 361.042 211.113L342.206 200.592Z" fill="#17A1DB"/>
<path d="M338.894 202.482L345.519 198.703L342.206 200.593L345.504 198.678C345.694 199.001 350.288 206.589 361.288 207.303L360.794 214.926C345.572 213.936 339.159 202.949 338.894 202.482Z" fill="#17A1DB"/>
<path d="M235.334 169.209C235.334 169.209 243.821 171.757 251.25 166.303L235.334 169.209Z" fill="#BD8AAE"/>
<path d="M234.721 171.646L235.948 166.771L235.334 169.209L235.925 166.764C236.213 166.846 243.029 168.724 249.152 164.23L253.35 168.375C244.877 174.595 235.131 171.77 234.721 171.646Z" fill="#BD8AAE"/>
<path d="M271.212 138.583C271.212 138.583 276.146 145.467 286.341 145.053L271.212 138.583Z" fill="url(#paint24_linear_20_3946)"/>
<path d="M268.851 140.282L273.574 136.882L271.212 138.581L273.56 136.864C273.73 137.093 277.822 142.481 286.224 142.14L286.459 147.962C274.832 148.436 269.089 140.616 268.851 140.282Z" fill="url(#paint25_linear_20_3946)"/>
<path d="M347.419 252.223C347.419 252.223 343.06 259.486 347.471 268.705L347.419 252.223Z" fill="#E7F6FD"/>
<path d="M344.926 250.72L349.91 253.723L347.418 252.221L349.921 253.703C349.778 253.951 346.457 259.847 350.092 267.444L344.848 269.963C339.817 259.45 344.715 251.072 344.926 250.72Z" fill="#E7F6FD"/>
<path d="M299.717 175.928C299.717 175.928 301.196 182.536 307.591 185.448L299.717 175.928Z" fill="url(#paint26_linear_20_3946)"/>
<path d="M297.87 176.43L301.566 175.427L299.718 175.929L301.561 175.409C301.614 175.632 302.914 180.876 308.184 183.276L307.002 187.622C299.708 184.299 297.942 176.749 297.87 176.43Z" fill="url(#paint27_linear_20_3946)"/>
<defs>
<linearGradient id="paint0_linear_20_3946" x1="268.738" y1="94.1016" x2="478.085" y2="94.1016" gradientUnits="userSpaceOnUse">
<stop offset="0.0607" stop-color="#28A8E0"/>
<stop offset="0.9984" stop-color="#29ABE2" stop-opacity="0"/>
</linearGradient>
<linearGradient id="paint1_linear_20_3946" x1="585.652" y1="284.932" x2="794.999" y2="284.932" gradientUnits="userSpaceOnUse">
<stop offset="0.0607" stop-color="#28A8E0"/>
<stop offset="0.9984" stop-color="#29ABE2" stop-opacity="0"/>
</linearGradient>
<linearGradient id="paint2_linear_20_3946" x1="184.664" y1="555.619" x2="262.732" y2="555.619" gradientUnits="userSpaceOnUse">
<stop stop-color="#BD8AAE"/>
<stop offset="1" stop-color="#2484C6" stop-opacity="0"/>
</linearGradient>
<linearGradient id="paint3_linear_20_3946" x1="553.957" y1="384.824" x2="598.332" y2="384.824" gradientUnits="userSpaceOnUse">
<stop offset="0.0607" stop-color="#28A8E0"/>
<stop offset="0.9984" stop-color="#29ABE2" stop-opacity="0"/>
</linearGradient>
<linearGradient id="paint4_linear_20_3946" x1="262.73" y1="585.269" x2="307.106" y2="585.269" gradientUnits="userSpaceOnUse">
<stop offset="0.0607" stop-color="#28A8E0"/>
<stop offset="0.9984" stop-color="#29ABE2" stop-opacity="0"/>
</linearGradient>
<linearGradient id="paint5_linear_20_3946" x1="0.00152482" y1="436.358" x2="106.749" y2="436.358" gradientUnits="userSpaceOnUse">
<stop offset="0.0607" stop-color="#28A8E0"/>
<stop offset="0.9984" stop-color="#29ABE2" stop-opacity="0"/>
</linearGradient>
<linearGradient id="paint6_linear_20_3946" x1="544.636" y1="419.598" x2="611.368" y2="419.598" gradientUnits="userSpaceOnUse">
<stop stop-color="#21409A"/>
<stop offset="0.9984" stop-color="#29ABE2" stop-opacity="0"/>
</linearGradient>
<linearGradient id="paint7_linear_20_3946" x1="123.003" y1="418.455" x2="468.595" y2="418.455" gradientUnits="userSpaceOnUse">
<stop offset="0.0607" stop-color="#3C7FBE"/>
<stop offset="0.5484" stop-color="#1B75BC" stop-opacity="0.53"/>
<stop offset="0.9984" stop-color="#29ABE2" stop-opacity="0"/>
</linearGradient>
<linearGradient id="paint8_linear_20_3946" x1="123.003" y1="269.644" x2="468.595" y2="269.644" gradientUnits="userSpaceOnUse">
<stop stop-color="#BD8AAE"/>
<stop offset="1" stop-color="#2484C6" stop-opacity="0"/>
</linearGradient>
<linearGradient id="paint9_linear_20_3946" x1="384.866" y1="511.535" x2="384.866" y2="324.571" gradientUnits="userSpaceOnUse">
<stop offset="0.1616" stop-color="#BD8AAE"/>
<stop offset="1" stop-color="#2484C6" stop-opacity="0"/>
</linearGradient>
<linearGradient id="paint10_linear_20_3946" x1="205.45" y1="511.534" x2="205.45" y2="423.06" gradientUnits="userSpaceOnUse">
<stop offset="0.1616" stop-color="#BD8AAE"/>
<stop offset="1" stop-color="#2484C6" stop-opacity="0"/>
</linearGradient>
<linearGradient id="paint11_linear_20_3946" x1="295.799" y1="269.644" x2="468.595" y2="269.644" gradientUnits="userSpaceOnUse">
<stop stop-color="#BD8AAE"/>
<stop offset="1" stop-color="#2484C6" stop-opacity="0"/>
</linearGradient>
<linearGradient id="paint12_linear_20_3946" x1="209.4" y1="344.621" x2="382.196" y2="344.621" gradientUnits="userSpaceOnUse">
<stop stop-color="#21409A"/>
<stop offset="0.9984" stop-color="#29ABE2" stop-opacity="0"/>
</linearGradient>
<linearGradient id="paint13_linear_20_3946" x1="82.6794" y1="364.698" x2="295.49" y2="364.698" gradientUnits="userSpaceOnUse">
<stop offset="0.0607" stop-color="#28A8E0"/>
<stop offset="0.9984" stop-color="#29ABE2" stop-opacity="0"/>
</linearGradient>
<linearGradient id="paint14_linear_20_3946" x1="216.184" y1="275.579" x2="380.317" y2="275.579" gradientUnits="userSpaceOnUse">
<stop offset="0.0607" stop-color="#28A8E0"/>
<stop offset="0.9984" stop-color="#29ABE2" stop-opacity="0"/>
</linearGradient>
<linearGradient id="paint15_linear_20_3946" x1="216.751" y1="287.472" x2="338.559" y2="287.472" gradientUnits="userSpaceOnUse">
<stop offset="0.0607" stop-color="#28A8E0"/>
<stop offset="0.9984" stop-color="#29ABE2" stop-opacity="0"/>
</linearGradient>
<linearGradient id="paint16_linear_20_3946" x1="536.614" y1="485.509" x2="662.194" y2="485.509" gradientUnits="userSpaceOnUse">
<stop stop-color="#BD8AAE"/>
<stop offset="1" stop-color="#2484C6" stop-opacity="0"/>
</linearGradient>
<linearGradient id="paint17_linear_20_3946" x1="552.538" y1="451.508" x2="740.265" y2="451.508" gradientUnits="userSpaceOnUse">
<stop stop-color="#21409A"/>
<stop offset="0.9984" stop-color="#29ABE2" stop-opacity="0"/>
</linearGradient>
<linearGradient id="paint18_linear_20_3946" x1="339.215" y1="409.706" x2="566.436" y2="409.706" gradientUnits="userSpaceOnUse">
<stop stop-color="#A7A9AC"/>
<stop offset="1" stop-color="#2484C6" stop-opacity="0"/>
</linearGradient>
<linearGradient id="paint19_linear_20_3946" x1="514.69" y1="307.347" x2="616.693" y2="307.347" gradientUnits="userSpaceOnUse">
<stop stop-color="#A7A9AC"/>
<stop offset="1" stop-color="#2484C6" stop-opacity="0"/>
</linearGradient>
<linearGradient id="paint20_linear_20_3946" x1="500.167" y1="356.875" x2="588.763" y2="356.875" gradientUnits="userSpaceOnUse">
<stop offset="0.0607" stop-color="#28A8E0"/>
<stop offset="0.9984" stop-color="#29ABE2" stop-opacity="0"/>
</linearGradient>
<linearGradient id="paint21_linear_20_3946" x1="455.973" y1="421.514" x2="545.937" y2="421.514" gradientUnits="userSpaceOnUse">
<stop stop-color="#A7A9AC"/>
<stop offset="1" stop-color="#2484C6" stop-opacity="0"/>
</linearGradient>
<linearGradient id="paint22_linear_20_3946" x1="191.715" y1="200.333" x2="207.631" y2="200.333" gradientUnits="userSpaceOnUse">
<stop offset="0.1616" stop-color="#BD8AAE"/>
<stop offset="1" stop-color="#2484C6" stop-opacity="0"/>
</linearGradient>
<linearGradient id="paint23_linear_20_3946" x1="191.101" y1="200.591" x2="209.73" y2="200.591" gradientUnits="userSpaceOnUse">
<stop offset="0.1616" stop-color="#BD8AAE"/>
<stop offset="1" stop-color="#2484C6" stop-opacity="0"/>
</linearGradient>
<linearGradient id="paint24_linear_20_3946" x1="271.212" y1="141.827" x2="286.342" y2="141.827" gradientUnits="userSpaceOnUse">
<stop offset="0.0607" stop-color="#28A8E0"/>
<stop offset="0.9984" stop-color="#29ABE2" stop-opacity="0"/>
</linearGradient>
<linearGradient id="paint25_linear_20_3946" x1="268.85" y1="142.425" x2="286.459" y2="142.425" gradientUnits="userSpaceOnUse">
<stop offset="0.0607" stop-color="#28A8E0"/>
<stop offset="0.9984" stop-color="#29ABE2" stop-opacity="0"/>
</linearGradient>
<linearGradient id="paint26_linear_20_3946" x1="299.717" y1="180.688" x2="307.592" y2="180.688" gradientUnits="userSpaceOnUse">
<stop stop-color="#21409A"/>
<stop offset="0.9984" stop-color="#29ABE2" stop-opacity="0"/>
</linearGradient>
<linearGradient id="paint27_linear_20_3946" x1="297.87" y1="181.515" x2="308.184" y2="181.515" gradientUnits="userSpaceOnUse">
<stop stop-color="#21409A"/>
<stop offset="0.9984" stop-color="#29ABE2" stop-opacity="0"/>
</linearGradient>
</defs>
</svg>
