<svg width="1242" height="1118" viewBox="0 0 1242 1118" fill="none" xmlns="http://www.w3.org/2000/svg">
<path d="M1210.54 561.331V581.315C1210.54 588.721 1206.59 595.56 1200.17 599.246L800.006 829.004C781.198 839.803 758.068 839.772 739.29 828.922L364.204 612.213C358.892 609.143 355.619 603.472 355.619 597.334V577.645C356.867 572.669 360.024 568.104 365.081 565.179L403.672 542.893L476.393 544.552L1153.5 560.027L1210.54 561.331Z" fill="url(#paint0_linear_20_604)"/>
<path d="M1200.53 580.449L1194.6 583.877L1179.12 592.821L795.467 814.446C777.094 825.058 754.464 825.058 736.1 814.446L392.767 616.122L372.968 604.681L365.071 600.116C351.633 592.356 351.633 572.949 365.081 565.179L776.74 327.418C790.476 319.489 807.397 319.47 821.151 327.38L1200.51 545.493C1213.97 553.244 1213.99 572.679 1200.53 580.449Z" fill="#2A2F6D"/>
<path d="M1200.53 580.449L1194.6 583.877L1179.12 592.821L806.465 377.141L392.767 616.122L372.968 604.681L365.071 600.116C351.633 592.356 351.633 572.949 365.081 565.179L776.74 327.418C790.476 319.489 807.397 319.47 821.151 327.38L1200.51 545.493C1213.97 553.244 1213.99 572.679 1200.53 580.449Z" fill="#242D60"/>
<path d="M1210.54 564.676C1210.03 570.881 1206.7 576.89 1200.53 580.449L1194.6 583.877L1153.5 560.027L811.092 361.33C805.039 357.827 797.57 357.827 791.526 361.339L476.392 544.552L372.967 604.681L365.07 600.116C360.023 597.2 356.866 592.644 355.618 587.669C354.789 584.38 354.789 580.924 355.618 577.645C356.866 572.669 360.023 568.104 365.079 565.179L403.67 542.893L776.738 327.418C790.474 319.489 807.395 319.47 821.15 327.38L1200.5 545.493C1206.7 549.052 1210.05 555.098 1210.54 561.331C1210.64 562.44 1210.64 563.567 1210.54 564.676Z" fill="url(#paint1_linear_20_604)"/>
<g opacity="0.49">
<path opacity="0.49" d="M394.744 822.999L288.718 761.752C284.878 759.534 284.878 753.987 288.718 751.768L406.358 683.824C410.284 681.557 415.119 681.552 419.048 683.812L527.453 746.142C531.303 748.356 531.309 753.91 527.464 756.131L411.708 822.998C406.459 826.031 399.992 826.031 394.744 822.999Z" fill="url(#paint2_linear_20_604)"/>
</g>
<g opacity="0.49">
<path opacity="0.49" d="M933.93 504.987C912.384 492.516 912.74 472.264 934.72 459.982C956.7 447.699 991.368 447.699 1011.76 459.982C1032.15 472.264 1031.8 492.515 1010.97 504.987C990.143 517.458 955.475 517.458 933.93 504.987Z" fill="url(#paint3_linear_20_604)"/>
</g>
<g opacity="0.49">
<path opacity="0.49" d="M683.419 457.546C670.558 450.102 670.77 438.014 683.891 430.682C697.011 423.35 717.704 423.35 729.877 430.682C742.049 438.013 741.837 450.102 729.405 457.546C716.973 464.99 696.279 464.99 683.419 457.546Z" fill="url(#paint4_linear_20_604)"/>
</g>
<g opacity="0.49">
<path opacity="0.49" d="M1037.43 608.977C1030.41 604.914 1030.53 598.315 1037.69 594.312C1044.85 590.311 1056.15 590.311 1062.79 594.312C1069.44 598.314 1069.32 604.913 1062.54 608.977C1055.75 613.04 1044.45 613.04 1037.43 608.977Z" fill="url(#paint5_linear_20_604)"/>
</g>
<g opacity="0.46">
<path opacity="0.46" d="M521.539 396.662L361.217 489.941C355.141 493.477 347.516 489.111 347.486 482.078L347.272 432.307C347.258 429.038 348.99 426.009 351.815 424.366L512.138 331.086C518.215 327.551 525.839 331.917 525.869 338.95L526.084 388.72C526.097 391.989 524.365 395.017 521.539 396.662Z" fill="#CDE9F9"/>
</g>
<g opacity="0.46">
<path opacity="0.46" d="M719.845 319.017L559.523 412.296C553.446 415.832 545.822 411.465 545.791 404.433L545.577 354.662C545.563 351.393 547.295 348.364 550.121 346.721L710.443 253.441C716.519 249.906 724.144 254.271 724.174 261.305L724.388 311.075C724.402 314.344 722.67 317.373 719.845 319.017Z" fill="#CDE9F9"/>
</g>
<g opacity="0.46">
<path opacity="0.46" d="M734.44 218.552L574.117 311.833C568.041 315.368 560.417 311.003 560.386 303.969L560.172 254.199C560.158 250.93 561.89 247.901 564.716 246.257L725.038 152.978C731.114 149.442 738.738 153.808 738.769 160.841L738.983 210.612C738.997 213.881 737.264 216.909 734.44 218.552Z" fill="#CDE9F9"/>
</g>
<g opacity="0.49">
<path opacity="0.49" d="M542.901 872.356C519.634 859.544 519.412 838.452 542.406 825.485C565.401 812.517 602.445 812.408 624.726 825.243C647.007 838.079 647.23 859.171 625.221 872.114C603.21 885.059 566.167 885.167 542.901 872.356Z" fill="url(#paint6_linear_20_604)"/>
</g>
<g opacity="0.46">
<path opacity="0.46" d="M921.272 169.546V353.135C921.272 362.111 926.057 370.405 933.827 374.893L1179.38 516.789C1196.12 526.464 1217.06 514.376 1217.06 495.031V310.411C1217.06 301.407 1212.24 293.092 1204.43 288.614L958.882 147.748C942.138 138.143 921.272 150.236 921.272 169.546Z" fill="url(#paint7_linear_20_604)"/>
</g>
<path d="M1043.44 225.248V229.402L1060.88 239.47V235.315L1043.44 225.248Z" fill="white"/>
<path d="M1043.44 232.838V236.993L1060.88 247.059V242.905L1043.44 232.838Z" fill="white"/>
<path d="M1043.44 240.427V244.582L1060.88 254.65V250.494L1043.44 240.427Z" fill="white"/>
<path d="M1175.09 328.146V323.992L1067.43 261.861V266.016L1175.09 328.146Z" fill="white"/>
<path d="M1043.44 248.017V252.171L1060.88 262.239V258.084L1043.44 248.017Z" fill="white"/>
<path d="M1043.44 255.607V259.762L1060.88 269.828V265.673L1043.44 255.607Z" fill="white"/>
<path d="M1175.09 335.735V331.581L1067.43 269.451V273.605L1175.09 335.735Z" fill="white"/>
<path d="M1043.44 278.376V282.531L1060.88 292.597V288.443L1043.44 278.376Z" fill="white"/>
<path d="M1043.44 285.966V290.121L1060.88 300.187V296.032L1043.44 285.966Z" fill="white"/>
<path d="M1043.44 316.324V320.479L1060.88 330.546V326.391L1043.44 316.324Z" fill="white"/>
<path d="M1043.44 323.914V328.069L1060.88 338.135V333.981L1043.44 323.914Z" fill="white"/>
<path d="M1135.35 376.955L1067.43 337.758V341.913L1135.35 381.109V376.955Z" fill="white"/>
<path d="M1138.93 379.021V383.176L1175.09 404.043V399.889L1138.93 379.021Z" fill="white"/>
<path d="M1101.55 349.861L1067.43 330.168V334.323L1101.55 354.017V349.861Z" fill="white"/>
<path d="M1105.13 351.927V356.082L1175.09 396.453V392.299L1105.13 351.927Z" fill="white"/>
<path d="M1165.89 364.218V368.374L1175.09 373.684V369.53L1165.89 364.218Z" fill="white"/>
<path d="M1115.8 327.727L1067.43 299.809V303.964L1115.8 331.882V327.727Z" fill="white"/>
<path d="M1095.98 255.57L1067.43 239.092V243.247L1095.98 259.724V255.57Z" fill="white"/>
<path d="M1142.79 282.58L1099.56 257.636V261.791L1142.79 286.735V282.58Z" fill="white"/>
<path d="M1117.59 275.632L1087.16 258.069V262.224L1117.59 279.787V275.632Z" fill="white"/>
<path d="M1149.53 294.058L1121.17 277.697V281.852L1149.53 298.213V294.058Z" fill="white"/>
<path d="M1153.11 296.124V300.279L1175.09 312.966V308.812L1153.11 296.124Z" fill="white"/>
<path d="M1073.05 257.517V261.672L1095.98 274.903V270.749L1073.05 257.517Z" fill="white"/>
<path d="M1166.12 311.225L1099.56 272.815V276.971L1166.12 315.379V311.225Z" fill="white"/>
<path d="M1128.01 312.004L1084.52 286.902V291.056L1128.01 316.158V312.004Z" fill="white"/>
<path d="M1166.12 333.994L1131.59 314.07V318.225L1166.12 338.149V333.994Z" fill="white"/>
<path d="M1162.31 354.563L1119.38 329.792V333.948L1162.31 358.718V354.563Z" fill="white"/>
<path d="M1138.93 348.661V352.817L1162.31 366.307V362.153L1138.93 348.661Z" fill="white"/>
<path d="M1075.85 312.257L1067.43 307.399V311.554L1075.85 316.413V312.257Z" fill="white"/>
<path d="M1091.62 321.357V325.512L1135.35 350.75V346.596L1091.62 321.357Z" fill="white"/>
<path d="M1088.04 319.291L1079.42 314.324V318.478L1088.04 323.447V319.291Z" fill="white"/>
<path d="M1127.26 349.517L1079.42 321.913V326.068L1127.26 353.671V349.517Z" fill="white"/>
<path d="M940.594 171.975V295.958C940.594 300.021 942.775 303.772 946.306 305.78L1005.92 339.675C1011.07 342.6 1017.45 338.883 1017.45 332.962V211.715C1017.45 207.43 1015.14 203.479 1011.41 201.38L949.656 166.67C945.601 164.391 940.594 167.323 940.594 171.975Z" fill="url(#paint8_linear_20_604)"/>
<path opacity="0.5" d="M1057.78 356.945L1089.99 375.55C1091.3 376.308 1092.1 377.706 1092.1 379.22V447.018C1092.1 449.342 1089.59 450.794 1087.58 449.633L1055.99 431.385C1054.76 430.673 1054 429.357 1054 427.933V359.13C1054 357.188 1056.1 355.974 1057.78 356.945Z" fill="url(#paint9_linear_20_604)"/>
<path d="M1057.88 358.606C1057.53 358.404 1057.24 358.569 1057.24 358.973C1057.24 359.377 1057.53 359.878 1057.88 360.085C1058.24 360.291 1058.53 360.126 1058.53 359.717C1058.53 359.308 1058.24 358.808 1057.88 358.606Z" stroke="white" stroke-width="0.25" stroke-miterlimit="10"/>
<path d="M1059.95 359.821C1059.6 359.619 1059.31 359.784 1059.31 360.188C1059.31 360.592 1059.6 361.093 1059.95 361.299C1060.3 361.506 1060.59 361.341 1060.59 360.932C1060.59 360.523 1060.3 360.023 1059.95 359.821Z" stroke="white" stroke-width="0.25" stroke-miterlimit="10"/>
<path d="M1061.98 360.933C1061.63 360.731 1061.34 360.896 1061.34 361.3C1061.34 361.705 1061.63 362.205 1061.98 362.412C1062.33 362.619 1062.62 362.454 1062.62 362.045C1062.62 361.636 1062.33 361.135 1061.98 360.933Z" stroke="white" stroke-width="0.25" stroke-miterlimit="10"/>
<path d="M1106.66 389.147V430.194C1106.66 431.965 1107.6 433.602 1109.13 434.49L1136 450.055C1137.98 451.201 1140.46 449.772 1140.46 447.483V407.185C1140.46 405.063 1139.33 403.102 1137.49 402.048L1110.79 386.75C1108.95 385.695 1106.66 387.025 1106.66 389.147Z" fill="white"/>
<path d="M1148.97 413.627V454.31C1148.97 456.316 1150.04 458.169 1151.78 459.172L1169.56 469.445C1171.69 470.677 1174.36 469.138 1174.36 466.675V427.479C1174.36 424.914 1172.99 422.543 1170.77 421.261L1153.26 411.148C1151.36 410.047 1148.97 411.424 1148.97 413.627Z" fill="#17A1DB"/>
<path d="M423.681 528.843C423.681 528.843 417.08 523.852 409.118 525.201C401.156 526.549 390.269 530.322 388.464 533.881C386.658 537.439 388.234 545.537 395.768 546.297C403.303 547.056 410.331 547.359 411.848 549.028C413.365 550.698 406.504 554.775 410.39 556.455C414.276 558.135 427.018 554.037 428.232 550.242C429.445 546.448 423.681 528.843 423.681 528.843Z" fill="url(#paint10_linear_20_604)"/>
<path d="M645.31 679.848C645.31 679.848 657.674 685.483 660.783 691.534C663.892 697.585 663.728 699.343 659.873 697.909C656.017 696.475 653.653 694.756 653.653 694.756C653.653 694.756 655.164 706.023 657.445 708.987C659.726 711.951 661.693 719.003 649.254 720.217C636.815 721.431 627.41 722.039 624.224 705.344C621.038 688.65 622.567 680.557 622.567 680.557L645.31 679.848Z" fill="url(#paint11_linear_20_604)"/>
<path d="M639.185 497.502C638.743 500.792 638.039 503.716 637.123 506.311C632.229 520.277 621.395 524.845 614.259 525.82C605.806 526.982 567.607 511.509 567.607 511.509C567.607 511.509 555.782 493.948 563.655 473.916C570.848 455.618 591.118 446.482 610.021 449.724C611.805 450.018 613.58 450.436 615.332 450.969C635.593 457.099 641.976 476.543 639.185 497.502Z" fill="white"/>
<g opacity="0.38">
<path opacity="0.38" d="M639.185 497.502C638.743 500.792 638.039 503.716 637.123 506.311C632.229 520.277 621.395 524.845 614.259 525.82C610.732 526.302 602.049 523.896 593.106 520.924C580.602 516.773 567.607 511.509 567.607 511.509C567.607 511.509 555.782 493.948 563.655 473.916C566.708 466.162 572.1 460.047 578.753 455.839C587.787 450.1 599.129 447.857 610.021 449.724C611.805 450.018 613.58 450.436 615.332 450.969C635.593 457.099 641.976 476.543 639.185 497.502Z" fill="url(#paint12_linear_20_604)"/>
</g>
<g opacity="0.52">
<path opacity="0.52" d="M593.106 520.924C580.602 516.773 567.607 511.509 567.607 511.509C567.607 511.509 555.782 493.948 563.655 473.916C566.708 466.162 572.1 460.047 578.753 455.839C571.241 464.903 569.203 477.248 572.493 493.195C574.915 504.951 584.521 514.505 593.106 520.924Z" fill="url(#paint13_linear_20_604)"/>
</g>
<path d="M650.444 682.07C650.444 682.07 644.856 685.368 635.749 685.946C626.65 686.524 620.28 684.101 620.28 684.101C620.28 684.101 605.11 630.978 603.9 618.54C602.68 606.093 601.469 589.043 601.469 589.043C601.469 589.043 601.218 589.304 600.761 589.807C596.627 594.326 575.478 618.27 567.488 643.732C558.613 672.008 528.767 722.318 517.936 740.998C507.115 759.678 490.734 758.765 481.627 758.765C480.211 758.765 477.855 758.635 474.884 758.402C458.774 757.172 424.653 753.203 424.653 753.203C424.653 753.203 418.507 771.305 404.1 776.569C389.703 781.833 389.051 779.784 388.483 771.51C387.915 763.246 402.442 725.374 409.418 722.952C416.402 720.52 418.544 725.57 434.766 723.8C450.989 722.039 486.534 718.471 486.534 718.471C486.534 718.471 493.584 706.843 498.529 690.157C502.692 676.126 503.353 664.024 503.455 660.53C503.474 659.869 503.474 659.515 503.474 659.515C503.474 659.515 465.246 687.744 458.876 690.474C452.534 693.194 388.781 702.222 375.324 702.306H375.138C375.138 702.306 367.856 718.396 357.24 725.076C346.614 731.756 334.182 733.703 334.48 729.995C334.787 726.287 343.885 699.884 359.363 684.4C359.363 684.4 363.907 678.94 372.102 680.459C372.102 680.459 436.983 668.459 443.529 660.642C450.076 652.835 482.642 603.363 491.237 587.273C499.833 571.183 504.899 554.721 504.899 554.721C504.899 554.721 504.778 554.73 504.545 554.74C501.956 554.851 485.668 555.485 479.503 553.799C472.808 551.963 427.018 552.066 427.018 552.066C427.018 552.066 421.058 547.668 419.661 540.587C419.382 539.218 419.279 537.746 419.428 536.181C420.341 526.566 421.859 527.367 421.859 527.367C421.859 527.367 473.236 526.873 491.237 522.625C491.237 522.625 508.996 517.109 516.074 513.019C523.16 508.929 547.522 502.147 582.742 509.749C617.952 517.361 654.821 533.777 648.106 565.137C641.401 596.497 636.419 603.904 641.01 627.847C645.601 651.782 644.502 675.595 650.444 682.07Z" fill="white"/>
<g opacity="0.04">
<path opacity="0.04" d="M650.444 682.075C650.444 682.075 650.025 682.327 649.224 682.69C647.613 683.445 644.456 684.702 640.097 685.448C638.756 685.671 637.304 685.848 635.749 685.951C626.65 686.528 620.28 684.106 620.28 684.106C620.28 684.106 614.944 665.407 610.344 647.594C610.344 647.585 610.344 647.566 610.335 647.557C607.187 635.371 604.393 623.604 603.9 618.545C602.68 606.098 601.469 589.048 601.469 589.048C601.469 589.048 601.218 589.309 600.761 589.812C600.566 590.026 600.342 590.278 600.072 590.576C600.072 590.576 600.072 590.576 600.072 590.585C599.653 591.051 599.15 591.61 598.573 592.262C591.728 600.116 574.519 621.34 567.488 643.737C558.613 672.013 528.767 722.323 517.936 741.003C507.115 759.683 490.734 758.77 481.627 758.77C480.211 758.77 477.855 758.639 474.884 758.406C458.774 757.177 424.653 753.208 424.653 753.208C424.653 753.208 418.507 771.31 404.1 776.574C389.703 781.838 389.051 779.788 388.483 771.515C387.915 763.251 402.442 725.379 409.418 722.957C414.279 721.261 416.793 723.189 423.33 723.925C426.189 724.252 429.831 724.345 434.766 723.804C450.989 722.044 486.534 718.475 486.534 718.475C486.534 718.475 493.584 706.848 498.529 690.162C502.692 676.131 503.353 664.029 503.455 660.535C503.474 659.873 503.474 659.519 503.474 659.519C503.474 659.519 503.204 659.724 502.701 660.088C497.253 664.094 464.706 687.982 458.876 690.479C452.534 693.199 388.781 702.227 375.325 702.311H375.138C375.138 702.311 367.856 718.401 357.24 725.081C346.614 731.761 334.182 733.708 334.48 730C334.787 726.292 343.885 699.888 359.363 684.404C359.363 684.404 363.907 678.945 372.102 680.463C372.102 680.463 436.983 668.463 443.529 660.647C450.076 652.839 482.642 603.368 491.237 587.278C499.833 571.188 504.899 554.725 504.899 554.725C504.899 554.725 504.778 554.735 504.545 554.744C501.956 554.856 485.668 555.489 479.503 553.803C472.808 551.968 427.018 552.07 427.018 552.07C427.018 552.07 421.058 547.673 419.661 540.592C419.382 539.223 419.279 537.751 419.428 536.185C420.341 526.571 421.859 527.372 421.859 527.372C421.859 527.372 473.236 526.878 491.237 522.63C491.237 522.63 507.925 517.45 515.394 513.406C515.627 513.276 515.859 513.145 516.074 513.024C523.16 508.934 547.522 502.152 582.742 509.754C617.952 517.366 654.821 533.782 648.106 565.142C641.401 596.501 636.419 603.908 641.01 627.852C645.601 651.786 644.502 675.6 650.444 682.075Z" fill="url(#paint14_linear_20_604)"/>
</g>
<path d="M406.669 725.192C406.669 725.192 416.143 723.253 414.982 736.608C413.821 749.964 407.024 765.877 403.232 772.021C399.439 778.164 389.02 779.868 388.602 773.036C388.184 766.203 394.814 742.459 406.669 725.192Z" fill="#17A1DB"/>
<g opacity="0.52">
<path opacity="0.52" d="M615.728 548.115C608.148 558.364 603.184 578.087 600.763 589.807C596.628 594.326 575.479 618.27 567.489 643.732C558.614 672.008 528.768 722.318 517.937 740.998C507.116 759.678 490.736 758.765 481.628 758.765C480.212 758.765 477.856 758.635 474.886 758.402C484.804 756.222 496.407 752.579 504.388 746.626C521.066 734.179 519.856 704.43 550.196 642.884C580.536 581.339 626.959 532.938 615.728 548.115Z" fill="url(#paint15_linear_20_604)"/>
</g>
<path d="M361.416 682.629C361.416 682.629 369.373 679.393 367.856 689.409C366.339 699.425 356.023 716.12 349.349 721.887C342.675 727.654 334.34 727.805 337.445 720.443C340.55 713.082 348.402 693.929 361.416 682.629Z" fill="#17A1DB"/>
<path d="M561.93 669.735C561.324 673.574 542.867 711.641 539.552 713.859C537.838 714.995 534.961 714.902 532.782 713.57C530.733 712.322 529.28 709.983 529.969 706.555C531.264 700.089 540.315 677.412 547.886 665.673C549.097 663.8 551.416 662.999 553.511 663.726C554.442 664.043 555.458 664.434 556.463 664.872C559.425 666.148 562.218 667.872 561.93 669.735Z" fill="#CDE9F9"/>
<path d="M504.06 654.479C504.051 656.342 504.489 657.526 503.474 659.519C503.474 659.519 465.246 687.749 458.876 690.479C457.284 691.159 452.078 692.24 444.954 693.479C423.703 697.168 385.4 702.246 375.324 702.311C375.697 696.572 375.743 692.295 375.743 692.295C375.743 692.295 404.873 688.047 438.854 679.848C472.826 671.659 505.038 630.852 505.038 630.852C504.191 633.815 504.088 641.548 504.069 647.957C504.06 650.454 504.069 652.746 504.06 654.479Z" fill="url(#paint16_linear_20_604)"/>
<path d="M496.369 759.389C493.464 761.346 457.965 763.796 438.855 756.427C438.855 756.427 439.237 754.824 439.992 753.212C440.727 751.629 441.817 750.045 443.251 749.961C446.129 749.812 471.766 751.517 481.628 751.275C489.748 751.07 496.472 755.374 496.956 758.001C497.068 758.56 496.882 759.045 496.369 759.389Z" fill="#CDE9F9"/>
<path d="M440.336 694.089C440.066 694.9 439.265 695.757 437.635 696.539C433.24 698.663 394.705 704.552 387.422 704.114C387.422 704.114 387.18 703.154 387.106 701.989C386.984 700.424 387.161 698.496 388.586 698.058C391.063 697.303 437.263 690.008 438.799 690.893C439.777 691.452 440.801 692.71 440.336 694.089Z" fill="#CDE9F9"/>
<path d="M551.716 615.418C546.762 621.269 519.662 613.778 510.154 610.946C501.037 608.226 487.078 605.775 490.235 593.906C490.375 593.403 490.533 592.872 490.738 592.331C495.59 579.111 524.03 538.546 527.913 529.882C531.797 521.208 537.04 515.916 540.373 516.251C540.373 516.251 580.874 520.034 593.464 526.267C595.215 527.133 596.425 528.046 596.919 528.997C600.951 536.832 556.661 609.567 551.716 615.418Z" fill="url(#paint17_linear_20_604)"/>
<path d="M580.788 534.493C580.583 537.549 578.497 542.021 576.001 541.695C573.049 541.295 538.481 534.82 534.141 533.739C534.02 533.702 533.918 533.674 533.843 533.655C531.217 532.872 534.132 526.91 537.568 524.99C537.568 524.99 579.838 530.161 580.648 532.789C580.788 533.254 580.834 533.841 580.788 534.493Z" fill="#3C7FBE"/>
<path d="M571.615 551.394C571.345 554.45 569.287 558.735 566.847 558.409C564.072 558.037 533.266 552.27 526.049 550.695C525.378 550.546 524.913 550.434 524.689 550.369C522.054 549.587 524.978 543.624 528.414 541.714C528.414 541.714 570.684 546.875 571.494 549.503C571.652 550.015 571.689 550.667 571.615 551.394Z" fill="#3C7FBE"/>
<path d="M562.041 566.785C562.013 567.018 561.771 567.661 561.37 568.611C558.577 575.254 547.849 596.887 544.803 599.365C541.814 601.797 533.237 598.555 529.224 596.403C528.562 596.058 528.032 595.732 527.659 595.471C525.024 593.608 543.025 564.353 543.025 564.353C546.666 561.121 562.274 564.912 562.041 566.785Z" fill="#BD8AAE"/>
<path d="M648.72 554.499C648.72 554.499 636.439 558.133 630.291 557.222C624.143 556.312 624.071 574.523 625.285 575.889C626.498 577.255 641.804 578.621 645.68 575.889C645.68 575.889 649.942 560.247 648.72 554.499Z" fill="#CDE9F9"/>
<path d="M596.311 529.703C596.311 529.703 605.442 518.963 613.241 518.97C613.241 518.97 601.214 513.131 597.474 513.474C593.733 513.817 584.81 524.137 584.81 524.137C584.81 524.137 595.402 527.375 596.311 529.703Z" fill="#AECFDC"/>
<path d="M545.727 517.583C545.727 517.583 554.288 507.515 560.054 506.569C560.054 506.569 550.846 506.486 546.727 506.569C542.608 506.652 536.279 518.153 536.279 518.153C536.279 518.153 537.465 515.733 545.727 517.583Z" fill="#AECFDC"/>
<path d="M475.985 551.28C481.514 551.28 485.996 546.218 485.996 539.974C485.996 533.729 481.514 528.667 475.985 528.667C470.455 528.667 465.973 533.729 465.973 539.974C465.973 546.218 470.455 551.28 475.985 551.28Z" fill="#AECFDC"/>
<path d="M556.645 607.926C556.645 607.926 559.518 617.758 577.347 621.831L573.357 629.312C573.357 629.312 555.039 629.498 551.1 616.125L556.645 607.926Z" fill="#AECFDC"/>
<path d="M514.388 533.362C514.276 533.614 511.753 539.008 509.499 544.133C508.27 546.918 507.124 549.629 506.482 551.399C506.091 552.471 505.401 553.617 504.545 554.744C501.956 554.856 485.668 555.49 479.503 553.803C474.819 552.517 451.026 552.182 437.141 552.098C431.162 552.061 427.018 552.07 427.018 552.07C427.018 552.07 421.058 547.673 419.661 540.592C426.413 540.229 440.083 539.81 458.271 540.909C484.374 542.483 513.755 533.549 514.388 533.362Z" fill="url(#paint18_linear_20_604)"/>
<path d="M618.48 638.872C624.009 638.872 628.491 633.81 628.491 627.565C628.491 621.321 624.009 616.258 618.48 616.258C612.95 616.258 608.468 621.321 608.468 627.565C608.468 633.81 612.95 638.872 618.48 638.872Z" fill="#AECFDC"/>
<g opacity="0.52">
<path opacity="0.52" d="M640.098 685.443C638.757 685.667 637.305 685.844 635.749 685.946C626.651 686.524 620.281 684.101 620.281 684.101C620.281 684.101 605.111 630.978 603.901 618.54C602.681 606.093 601.47 589.044 601.47 589.044C601.47 589.044 601.219 589.304 600.762 589.807C600.269 590.357 600.881 589.651 599.931 590.732C605.593 569.956 611.565 555.261 612.198 553.892C611.788 554.879 608.538 563.292 608.464 581.665C608.38 601.258 615.727 624.605 620.281 650.711C622.954 666.008 632.583 678.083 640.098 685.443Z" fill="url(#paint19_linear_20_604)"/>
</g>
<path d="M639.185 497.502C638.742 500.792 638.039 503.716 637.123 506.311C634.643 508.128 630.315 510.068 623.686 509.201C612.123 507.694 599.914 483.936 601.526 467.522C602.508 457.542 606.804 452.294 610.02 449.723C611.804 450.017 613.579 450.435 615.331 450.968C635.593 457.099 641.976 476.543 639.185 497.502Z" fill="url(#paint20_linear_20_604)"/>
<path d="M602.205 506.812C600.79 508.294 598.646 509.096 597.607 508.433C595.602 507.156 591.6 502.415 590.684 496.898C589.997 492.772 591.976 488.531 595.217 487.393C596.306 487.008 597.533 486.976 598.851 487.417C598.851 487.417 600.119 497.683 602.885 501.621C604.218 503.504 603.515 505.445 602.205 506.812Z" fill="#CDE9F9"/>
<path d="M602.205 506.812C600.79 508.294 598.646 509.096 597.607 508.433C595.602 507.156 591.6 502.415 590.684 496.898C589.997 492.772 591.976 488.531 595.217 487.393C594.841 489.522 594.701 492.084 595.241 494.803C596.158 499.354 599.751 504.036 602.205 506.812Z" fill="url(#paint21_linear_20_604)"/>
<path d="M580.788 534.493C570.385 532.09 537.466 527.758 537.466 527.758C535.426 529.435 534.514 532.202 534.141 533.739C534.02 533.702 533.918 533.674 533.843 533.655C531.217 532.872 534.132 526.91 537.568 524.99C537.568 524.99 579.838 530.161 580.648 532.789C580.788 533.254 580.834 533.841 580.788 534.493Z" fill="#306097"/>
<path d="M571.615 551.394C562.507 548.413 528.87 544.22 528.87 544.22C528.87 544.22 528.666 545.264 527.399 546.978C526.598 548.059 526.216 549.652 526.049 550.695C525.378 550.546 524.913 550.434 524.689 550.369C522.054 549.586 524.978 543.624 528.414 541.714C528.414 541.714 570.684 546.875 571.494 549.503C571.652 550.015 571.689 550.667 571.615 551.394Z" fill="#306097"/>
<path d="M562.041 566.785C562.013 567.018 561.771 567.661 561.37 568.611C550.791 564.475 544.245 566.906 544.245 566.906C544.245 566.906 543.537 568.425 540.399 574.099C537.819 578.757 531.421 591.875 529.224 596.403C528.562 596.058 528.032 595.732 527.659 595.471C525.024 593.608 543.025 564.353 543.025 564.353C546.666 561.121 562.274 564.912 562.041 566.785Z" fill="#A17194"/>
<path d="M551.716 615.418C546.762 621.269 519.662 613.778 510.154 610.946C501.037 608.226 487.078 605.775 490.235 593.906C493.802 595.928 499.994 598.35 510.704 600.782C537.17 606.782 542.832 609.241 548.094 603.157C552.489 598.07 583.5 546.484 593.464 526.267C595.215 527.133 596.425 528.046 596.919 528.997C600.951 536.832 556.661 609.567 551.716 615.418Z" fill="url(#paint22_linear_20_604)"/>
<g opacity="0.52">
<path opacity="0.52" d="M556.463 664.872C555.709 665.226 554.862 665.766 553.986 666.577C551.109 669.241 544.739 683.188 536.991 700.303C533.825 707.291 532.837 711.287 532.782 713.57C530.733 712.322 529.28 709.983 529.969 706.555C531.264 700.089 540.315 677.412 547.886 665.673C549.097 663.8 551.416 662.999 553.511 663.726C554.442 664.043 555.458 664.434 556.463 664.872Z" fill="url(#paint23_linear_20_604)"/>
</g>
<g opacity="0.52">
<path opacity="0.52" d="M496.956 758.001C493.473 756.352 487.513 754.153 480.268 754.06C469.679 753.93 445.663 753.045 439.991 753.212C440.727 751.629 441.816 750.045 443.251 749.961C446.128 749.812 471.765 751.517 481.627 751.275C489.748 751.07 496.472 755.374 496.956 758.001Z" fill="url(#paint24_linear_20_604)"/>
</g>
<path d="M440.336 694.089C439.33 693.698 437.607 693.101 436.574 693.204C435.056 693.353 403.505 697.76 394.863 699.278C390.942 699.958 388.549 701.02 387.106 701.989C386.984 700.424 387.161 698.496 388.586 698.058C391.063 697.303 437.263 690.008 438.799 690.893C439.777 691.452 440.801 692.71 440.336 694.089Z" fill="url(#paint25_linear_20_604)"/>
<path opacity="0.2" d="M510.757 691.685C508.932 708.381 489.776 730.387 489.776 730.387L425.231 734.486L425.194 730.387C425.426 727.349 424.532 725.3 423.331 723.921C426.19 724.247 429.831 724.34 434.767 723.8C450.989 722.039 486.535 718.471 486.535 718.471C486.535 718.471 493.585 706.843 498.53 690.157C502.692 676.126 503.353 664.024 503.456 660.53C503.474 659.869 503.474 659.515 503.474 659.515C503.474 659.515 503.204 659.72 502.702 660.083C504.033 648.158 504.331 636.456 504.331 636.456C504.331 636.456 512.573 674.99 510.757 691.685Z" fill="url(#paint26_linear_20_604)"/>
<path d="M509.499 544.132C508.27 546.918 507.124 549.629 506.482 551.399C506.09 552.471 505.401 553.617 504.544 554.744C501.956 554.856 485.668 555.49 479.503 553.803C474.819 552.517 451.026 552.182 437.141 552.098C441.834 550.757 449.722 549.462 461.977 550.067C479.308 550.924 500.186 546.424 509.499 544.132Z" fill="#758E9B"/>
<path d="M610.335 647.557C607.187 635.371 604.393 623.604 603.9 618.545C602.68 606.098 601.469 589.048 601.469 589.048C601.469 589.048 601.218 589.309 600.761 589.812C600.566 590.026 600.342 590.278 600.072 590.576C602.345 582.48 604.784 574.412 604.784 574.412C604.784 574.412 605.483 579.582 605.92 602.65C606.172 615.48 608.407 633.805 610.335 647.557Z" fill="#758E9B"/>
<path d="M503.474 659.519C503.474 659.519 465.246 687.749 458.876 690.479C457.284 691.159 452.078 692.239 444.954 693.479C473.776 680.938 494.133 659.929 504.07 647.957C504.061 650.454 504.07 652.746 504.061 654.479C504.051 656.342 504.489 657.526 503.474 659.519Z" fill="#758E9B"/>
<path d="M650.443 682.075C650.443 682.075 650.024 682.327 649.223 682.69C643.766 676.224 640.526 657.526 640.097 647.957C639.52 634.979 632.182 615.405 640.097 584.138C648.013 552.871 646.746 544.375 633.094 533.362C619.442 522.35 597.474 513.471 562.04 510.378C545.752 508.953 528.878 510.891 515.394 513.406C515.626 513.276 515.859 513.145 516.073 513.024C523.16 508.934 547.522 502.152 582.742 509.754C617.952 517.366 654.82 533.782 648.106 565.142C641.401 596.501 636.419 603.908 641.01 627.852C645.601 651.787 644.502 675.6 650.443 682.075Z" fill="url(#paint27_linear_20_604)"/>
<path d="M800.663 803.08C873.675 803.08 932.862 743.866 932.862 670.821C932.862 597.777 873.675 538.563 800.663 538.563C727.652 538.563 668.464 597.777 668.464 670.821C668.464 743.866 727.652 803.08 800.663 803.08Z" fill="#3C7FBE"/>
<path d="M668.469 670.373C668.469 670.523 668.464 670.671 668.464 670.821C668.464 680.228 669.453 689.403 671.319 698.253L787.843 802.459C792.062 802.866 796.338 803.081 800.663 803.081C823.149 803.081 844.32 797.457 862.859 787.55L668.469 670.373Z" fill="url(#paint28_linear_20_604)"/>
<path d="M712.539 572.244C694.705 588.212 681.232 608.95 674.121 632.455L899.639 758.488C905.813 751.515 911.263 743.887 915.871 735.719L712.539 572.244Z" fill="url(#paint29_linear_20_604)"/>
<path d="M770.64 541.991L924.28 717.774C929.821 703.182 932.863 687.359 932.863 670.821C932.863 658.455 931.162 646.488 927.989 635.136L786.075 539.368C780.832 539.944 775.68 540.819 770.64 541.991Z" fill="url(#paint30_linear_20_604)"/>
<path d="M785.935 607.031C795.737 607.031 803.682 599.082 803.682 589.276C803.682 579.471 795.737 571.522 785.935 571.522C776.134 571.522 768.188 579.471 768.188 589.276C768.188 599.082 776.134 607.031 785.935 607.031Z" fill="url(#paint31_linear_20_604)"/>
<path d="M778.94 723.474C794.245 723.474 806.653 711.061 806.653 695.748C806.653 680.436 794.245 668.023 778.94 668.023C763.634 668.023 751.227 680.436 751.227 695.748C751.227 711.061 763.634 723.474 778.94 723.474Z" fill="url(#paint32_linear_20_604)"/>
<path d="M868.129 666.923C876.085 666.923 882.535 660.471 882.535 652.511C882.535 644.552 876.085 638.099 868.129 638.099C860.173 638.099 853.724 644.552 853.724 652.511C853.724 660.471 860.173 666.923 868.129 666.923Z" fill="url(#paint33_linear_20_604)"/>
<path d="M800.663 538.563C727.651 538.563 668.464 597.777 668.464 670.821C668.464 671.79 668.48 672.755 668.5 673.718C670.041 605.214 726.026 550.155 794.869 550.155C864.681 550.155 921.275 606.774 921.275 676.617C921.275 745.491 866.24 801.502 797.767 803.043C798.73 803.063 799.695 803.079 800.662 803.079C873.674 803.079 932.862 743.865 932.862 670.82C932.863 597.777 873.675 538.563 800.663 538.563Z" fill="url(#paint34_linear_20_604)"/>
<path d="M710.678 681.017C718.634 681.017 725.083 674.564 725.083 666.605C725.083 658.645 718.634 652.193 710.678 652.193C702.722 652.193 696.272 658.645 696.272 666.605C696.272 674.564 702.722 681.017 710.678 681.017Z" fill="url(#paint35_linear_20_604)"/>
<path d="M868.129 737.887C872.78 737.887 876.55 734.115 876.55 729.462C876.55 724.81 872.78 721.038 868.129 721.038C863.479 721.038 859.709 724.81 859.709 729.462C859.709 734.115 863.479 737.887 868.129 737.887Z" fill="url(#paint36_linear_20_604)"/>
<path d="M765.044 753.697C765.044 758.35 761.274 762.121 756.624 762.121C751.973 762.121 748.203 758.35 748.203 753.697C748.203 749.044 751.973 745.273 756.624 745.273C761.274 745.273 765.044 749.044 765.044 753.697Z" fill="url(#paint37_linear_20_604)"/>
<path d="M703.345 444.218C733.092 444.218 757.207 420.092 757.207 390.332C757.207 360.572 733.092 336.446 703.345 336.446C673.598 336.446 649.483 360.572 649.483 390.332C649.483 420.092 673.598 444.218 703.345 444.218Z" fill="url(#paint38_linear_20_604)"/>
<path d="M703.345 444.218C733.092 444.218 757.207 420.092 757.207 390.332C757.207 360.572 733.092 336.446 703.345 336.446C673.598 336.446 649.483 360.572 649.483 390.332C649.483 420.092 673.598 444.218 703.345 444.218Z" fill="url(#paint39_linear_20_604)"/>
<path d="M699.505 430.352C703.498 430.352 706.735 427.113 706.735 423.118C706.735 419.123 703.498 415.885 699.505 415.885C695.511 415.885 692.274 419.123 692.274 423.118C692.274 427.113 695.511 430.352 699.505 430.352Z" fill="url(#paint40_linear_20_604)"/>
<path d="M729.36 383.493C735.595 383.493 740.65 378.435 740.65 372.197C740.65 365.959 735.595 360.902 729.36 360.902C723.124 360.902 718.069 365.959 718.069 372.197C718.069 378.435 723.124 383.493 729.36 383.493Z" fill="url(#paint41_linear_20_604)"/>
<path d="M723.999 388.335C724.042 391.579 721.451 394.242 718.209 394.286C714.968 394.33 712.305 391.737 712.261 388.494C712.218 385.252 714.809 382.587 718.051 382.543C721.292 382.499 723.955 385.092 723.999 388.335Z" fill="url(#paint42_linear_20_604)"/>
<path d="M678.259 372.003C678.303 375.246 675.712 377.91 672.47 377.954C669.229 377.998 666.566 375.405 666.522 372.162C666.478 368.919 669.07 366.255 672.312 366.211C675.553 366.167 678.216 368.76 678.259 372.003Z" fill="url(#paint43_linear_20_604)"/>
<path d="M733.351 413.691C733.376 415.586 731.862 417.144 729.967 417.169C728.073 417.194 726.516 415.679 726.491 413.783C726.465 411.888 727.98 410.33 729.875 410.305C731.769 410.28 733.325 411.796 733.351 413.691Z" fill="url(#paint44_linear_20_604)"/>
<path d="M700.268 364.174C700.293 366.069 698.779 367.626 696.884 367.651C694.99 367.677 693.433 366.162 693.408 364.266C693.381 362.371 694.897 360.813 696.792 360.788C698.686 360.763 700.242 362.279 700.268 364.174Z" fill="url(#paint45_linear_20_604)"/>
<path d="M702.618 336.452C672.874 336.853 649.087 361.302 649.488 391.06C649.494 391.455 649.505 391.847 649.519 392.24C649.771 364.324 672.275 341.585 700.322 341.206C728.762 340.822 752.129 363.576 752.513 392.03C752.892 420.089 730.779 443.21 702.892 444.214C703.284 444.217 703.677 444.219 704.072 444.213C733.816 443.812 757.603 419.363 757.201 389.605C756.8 359.848 732.362 336.05 702.618 336.452Z" fill="url(#paint46_linear_20_604)"/>
<mask id="mask0_20_604" style="mask-type:alpha" maskUnits="userSpaceOnUse" x="625" y="374" width="157" height="32">
<path d="M754.69 374.021C755.112 375.351 755.483 376.703 755.801 378.075C756.128 378.136 756.466 378.192 756.789 378.254C773.298 381.409 777.745 385.363 777.77 387.203C777.795 389.044 773.456 393.117 757.037 396.716C742.78 399.842 723.767 401.713 703.501 401.987C683.236 402.261 664.179 400.903 649.844 398.164C633.335 395.009 628.888 391.054 628.863 389.214C628.838 387.374 633.176 383.301 649.595 379.702C649.916 379.632 650.252 379.565 650.577 379.496C650.859 378.115 651.192 376.754 651.578 375.414C635.759 378.57 625.028 383.237 625.109 389.265C625.264 400.777 664.689 406.268 703.553 405.743C742.417 405.218 781.679 398.664 781.523 387.152C781.442 381.124 770.589 376.748 754.69 374.021Z" fill="url(#paint47_linear_20_604)"/>
</mask>
<g mask="url(#mask0_20_604)">
<path d="M754.69 374.021C755.112 375.351 755.483 376.703 755.801 378.075C756.128 378.136 756.466 378.192 756.789 378.254C773.298 381.409 777.745 385.363 777.77 387.203C777.795 389.044 773.456 393.117 757.037 396.716C742.78 399.842 723.767 401.713 703.501 401.987C683.236 402.261 664.179 400.903 649.844 398.164C633.335 395.009 628.888 391.054 628.863 389.214C628.838 387.374 633.176 383.301 649.595 379.702C649.916 379.632 650.252 379.565 650.577 379.496C650.859 378.115 651.192 376.754 651.578 375.414C635.759 378.57 625.028 383.237 625.109 389.265C625.264 400.777 664.689 406.268 703.553 405.743C742.417 405.218 781.679 398.664 781.523 387.152C781.442 381.124 770.589 376.748 754.69 374.021Z" fill="white"/>
</g>
<path d="M967.321 475.974C1008.94 475.974 1042.67 442.221 1042.67 400.586C1042.67 358.95 1008.94 325.198 967.321 325.198C925.704 325.198 891.967 358.95 891.967 400.586C891.967 442.221 925.704 475.974 967.321 475.974Z" fill="#E7F6FD"/>
<path d="M967.321 475.974C1008.94 475.974 1042.67 442.221 1042.67 400.586C1042.67 358.95 1008.94 325.198 967.321 325.198C925.704 325.198 891.967 358.95 891.967 400.586C891.967 442.221 925.704 475.974 967.321 475.974Z" fill="url(#paint48_linear_20_604)"/>
<path d="M1042.68 400.586C1042.68 389.704 1040.37 379.364 1036.22 370.021C1006.43 369.807 971.413 413.765 942.904 420.625C924.674 425.011 906.18 421.147 893.782 417.086C901.304 450.784 931.37 475.974 967.321 475.974C1008.94 475.974 1042.68 442.221 1042.68 400.586Z" fill="url(#paint49_linear_20_604)"/>
<path d="M1042.67 400.586C1042.67 395.728 1042.21 390.98 1041.33 386.378C1010.65 392.147 975.997 429.926 947.36 436.244C930.316 440.004 913.065 437.7 899.967 434.408C912.357 459.058 937.861 475.974 967.32 475.974C1008.94 475.974 1042.67 442.221 1042.67 400.586Z" fill="url(#paint50_linear_20_604)"/>
<path d="M967.321 475.974C1007.76 475.974 1040.76 444.098 1042.59 404.088C1011.6 409.035 976.389 447.765 947.36 454.168C936.427 456.58 925.407 456.494 915.452 455.255C928.961 468.093 947.218 475.974 967.321 475.974Z" fill="url(#paint51_linear_20_604)"/>
<path d="M1039.65 421.772C1009.39 428.562 975.476 465.086 947.36 471.288C946.018 471.584 944.673 471.84 943.329 472.063C950.865 474.596 958.931 475.974 967.321 475.974C1001.58 475.974 1030.5 453.093 1039.65 421.772Z" fill="url(#paint52_linear_20_604)"/>
<path d="M967.321 325.198C925.704 325.198 891.967 358.951 891.967 400.586C891.967 401.138 891.976 401.688 891.987 402.237C892.865 363.19 924.778 331.806 964.019 331.806C1003.81 331.806 1036.07 364.079 1036.07 403.89C1036.07 443.148 1004.7 475.074 965.671 475.953C966.22 475.965 966.769 475.974 967.321 475.974C1008.94 475.974 1042.67 442.221 1042.67 400.586C1042.67 358.951 1008.94 325.198 967.321 325.198Z" fill="url(#paint53_linear_20_604)"/>
<path d="M760.285 371.789L758.276 363.242L756.266 371.789L748.452 373.799L756.266 375.809L758.276 384.807L760.285 375.809L768.78 373.799L760.285 371.789Z" fill="url(#paint54_linear_20_604)"/>
<path d="M885.287 455.289L883.278 446.742L881.268 455.289L873.455 457.298L881.268 459.309L883.278 468.308L885.287 459.309L893.782 457.298L885.287 455.289Z" fill="url(#paint55_linear_20_604)"/>
<path d="M664.623 444.506L662.613 435.959L660.604 444.506L652.79 446.516L660.604 448.526L662.613 457.525L664.623 448.526L673.118 446.516L664.623 444.506Z" fill="url(#paint56_linear_20_604)"/>
<path d="M980.69 653.558L978.68 645.011L976.672 653.558L968.857 655.568L976.672 657.578L978.68 666.577L980.69 657.578L989.186 655.568L980.69 653.558Z" fill="url(#paint57_linear_20_604)"/>
<path d="M1096.12 493.507L1094.11 484.96L1092.11 493.507L1084.29 495.517L1092.11 497.527L1094.11 506.526L1096.12 497.527L1104.62 495.517L1096.12 493.507Z" fill="url(#paint58_linear_20_604)"/>
<path d="M450.686 575.231L448.677 566.684L446.668 575.231L438.854 577.241L446.668 579.251L448.677 588.25L450.686 579.251L459.182 577.241L450.686 575.231Z" fill="url(#paint59_linear_20_604)"/>
<path d="M686.087 577.511L684.079 568.965L682.069 577.511L674.256 579.522L682.069 581.532L684.079 590.53L686.087 581.532L694.583 579.522L686.087 577.511Z" fill="url(#paint60_linear_20_604)"/>
<path d="M784.22 481.062L782.211 472.515L780.202 481.062L772.388 483.072L780.202 485.083L782.211 494.081L784.22 485.083L792.716 483.072L784.22 481.062Z" fill="url(#paint61_linear_20_604)"/>
<path d="M956.18 541.917L954.171 533.371L952.162 541.917L944.349 543.928L952.162 545.937L954.171 554.936L956.18 545.937L964.676 543.928L956.18 541.917Z" fill="url(#paint62_linear_20_604)"/>
<mask id="mask1_20_604" style="mask-type:alpha" maskUnits="userSpaceOnUse" x="749" y="403" width="105" height="66">
<path d="M853.382 466.409C854.63 464.294 853.929 461.567 851.815 460.319L756.378 403.941C754.264 402.692 751.538 403.394 750.29 405.509C749.042 407.624 749.743 410.351 751.857 411.599L847.295 467.977C849.408 469.226 852.133 468.524 853.382 466.409Z" fill="url(#paint63_linear_20_604)"/>
</mask>
<g mask="url(#mask1_20_604)">
<path d="M853.382 466.409C854.63 464.294 853.929 461.567 851.815 460.319L756.378 403.941C754.264 402.692 751.538 403.394 750.29 405.509C749.042 407.624 749.743 410.351 751.857 411.599L847.295 467.977C849.408 469.226 852.133 468.524 853.382 466.409Z" fill="#E7F6FD"/>
<path d="M852.608 465.953C851.503 467.825 849.089 468.448 847.217 467.342C845.345 466.236 844.723 463.821 845.829 461.948C846.934 460.076 849.348 459.453 851.22 460.559C853.091 461.664 853.714 464.079 852.608 465.953Z" fill="#CDE9F9"/>
</g>
<mask id="mask2_20_604" style="mask-type:alpha" maskUnits="userSpaceOnUse" x="771" y="506" width="105" height="66">
<path d="M875.251 569.118C876.499 567.003 875.798 564.276 873.684 563.028L778.247 506.65C776.133 505.401 773.407 506.103 772.159 508.218C770.911 510.332 771.612 513.059 773.726 514.308L869.164 570.686C871.278 571.935 874.002 571.233 875.251 569.118Z" fill="url(#paint64_linear_20_604)"/>
</mask>
<g mask="url(#mask2_20_604)">
<path d="M875.251 569.118C876.499 567.003 875.798 564.276 873.684 563.028L778.247 506.65C776.133 505.401 773.407 506.103 772.159 508.218C770.911 510.332 771.612 513.059 773.726 514.308L869.164 570.686C871.278 571.935 874.002 571.233 875.251 569.118Z" fill="#E7F6FD"/>
<path d="M874.477 568.661C873.372 570.534 870.958 571.156 869.086 570.05C867.214 568.945 866.592 566.53 867.698 564.657C868.803 562.784 871.217 562.162 873.089 563.268C874.961 564.374 875.583 566.789 874.477 568.661Z" fill="#CDE9F9"/>
</g>
<mask id="mask3_20_604" style="mask-type:alpha" maskUnits="userSpaceOnUse" x="990" y="483" width="105" height="66">
<path d="M1094.14 546.117C1095.39 544.002 1094.68 541.275 1092.57 540.027L997.133 483.649C995.019 482.4 992.294 483.102 991.046 485.217C989.798 487.331 990.499 490.058 992.613 491.307L1088.05 547.685C1090.16 548.934 1092.89 548.232 1094.14 546.117Z" fill="url(#paint65_linear_20_604)"/>
</mask>
<g mask="url(#mask3_20_604)">
<path d="M1094.14 546.117C1095.39 544.002 1094.68 541.275 1092.57 540.027L997.133 483.649C995.019 482.4 992.294 483.102 991.046 485.217C989.798 487.331 990.499 490.058 992.613 491.307L1088.05 547.685C1090.16 548.934 1092.89 548.232 1094.14 546.117Z" fill="#E7F6FD"/>
<path d="M1093.36 545.66C1092.26 547.533 1089.84 548.155 1087.97 547.049C1086.1 545.944 1085.48 543.529 1086.58 541.656C1087.69 539.783 1090.1 539.161 1091.98 540.267C1093.85 541.372 1094.47 543.787 1093.36 545.66Z" fill="#CDE9F9"/>
</g>
<mask id="mask4_20_604" style="mask-type:alpha" maskUnits="userSpaceOnUse" x="587" y="367" width="106" height="67">
<path d="M691.643 431.036C692.891 428.921 692.19 426.194 690.076 424.945L594.638 368.567C592.524 367.319 589.799 368.02 588.551 370.135C587.303 372.25 588.004 374.977 590.118 376.226L685.555 432.604C687.669 433.853 690.395 433.15 691.643 431.036Z" fill="url(#paint66_linear_20_604)"/>
</mask>
<g mask="url(#mask4_20_604)">
<path d="M691.643 431.036C692.891 428.921 692.19 426.194 690.076 424.945L594.638 368.567C592.524 367.319 589.799 368.02 588.551 370.135C587.303 372.25 588.004 374.977 590.118 376.226L685.555 432.604C687.669 433.853 690.395 433.15 691.643 431.036Z" fill="#E7F6FD"/>
<path d="M690.869 430.579C689.763 432.452 687.35 433.074 685.478 431.968C683.606 430.862 682.984 428.447 684.089 426.575C685.195 424.702 687.608 424.08 689.48 425.186C691.353 426.291 691.974 428.705 690.869 430.579Z" fill="#CDE9F9"/>
</g>
<mask id="mask5_20_604" style="mask-type:alpha" maskUnits="userSpaceOnUse" x="856" y="492" width="105" height="66">
<path d="M960.355 555.678C961.603 553.563 960.901 550.836 958.787 549.587L863.35 493.209C861.236 491.961 858.51 492.662 857.263 494.777C856.015 496.892 856.716 499.619 858.83 500.868L954.267 557.246C956.381 558.494 959.106 557.792 960.355 555.678Z" fill="url(#paint67_linear_20_604)"/>
</mask>
<g mask="url(#mask5_20_604)">
<path d="M960.355 555.678C961.603 553.563 960.901 550.836 958.787 549.587L863.35 493.209C861.236 491.961 858.51 492.662 857.263 494.777C856.015 496.892 856.716 499.619 858.83 500.868L954.267 557.246C956.381 558.494 959.106 557.792 960.355 555.678Z" fill="#E7F6FD"/>
<path d="M959.582 555.22C958.476 557.093 956.062 557.715 954.191 556.609C952.319 555.503 951.697 553.089 952.802 551.216C953.908 549.343 956.321 548.721 958.193 549.827C960.065 550.933 960.687 553.348 959.582 555.22Z" fill="#CDE9F9"/>
</g>
<path d="M1058.71 597.503C1074.43 592.416 1083.06 575.54 1077.97 559.81C1072.89 544.079 1056.02 535.451 1040.3 540.538C1024.57 545.625 1015.95 562.501 1021.03 578.231C1026.12 593.962 1042.99 602.59 1058.71 597.503Z" fill="#E7F6FD"/>
<path d="M1049.49 598.9C1066.02 598.9 1079.42 585.497 1079.42 568.965C1079.42 552.433 1066.02 539.031 1049.49 539.031C1032.97 539.031 1019.57 552.433 1019.57 568.965C1019.57 585.497 1032.97 598.9 1049.49 598.9Z" fill="url(#paint68_linear_20_604)"/>
<path d="M1053.18 559.127C1053.66 561.295 1052.29 563.438 1050.12 563.915C1047.95 564.391 1045.81 563.02 1045.33 560.852C1044.86 558.684 1046.23 556.541 1048.4 556.064C1050.56 555.587 1052.71 556.959 1053.18 559.127Z" fill="url(#paint69_linear_20_604)"/>
<path d="M1037.3 559.987C1038.05 563.371 1035.91 566.719 1032.52 567.462C1029.14 568.206 1025.79 566.065 1025.05 562.68C1024.31 559.295 1026.45 555.948 1029.83 555.204C1033.21 554.461 1036.56 556.602 1037.3 559.987Z" fill="url(#paint70_linear_20_604)"/>
<path d="M1052.83 579.794C1053.22 581.554 1052.11 583.293 1050.35 583.68C1048.59 584.067 1046.85 582.953 1046.46 581.194C1046.08 579.434 1047.19 577.695 1048.95 577.308C1050.71 576.922 1052.45 578.034 1052.83 579.794Z" fill="url(#paint71_linear_20_604)"/>
<path d="M1031.59 577.263C1031.98 579.022 1030.87 580.762 1029.11 581.149C1027.35 581.535 1025.61 580.423 1025.22 578.663C1024.84 576.903 1025.95 575.164 1027.71 574.777C1029.47 574.389 1031.21 575.503 1031.59 577.263Z" fill="url(#paint72_linear_20_604)"/>
<path d="M1068.43 578.316C1068.66 579.345 1068.01 580.361 1066.98 580.588C1065.95 580.814 1064.94 580.163 1064.71 579.135C1064.49 578.107 1065.14 577.09 1066.16 576.864C1067.19 576.637 1068.21 577.288 1068.43 578.316Z" fill="url(#paint73_linear_20_604)"/>
<path d="M1038.62 551.321C1038.84 552.35 1038.19 553.366 1037.16 553.593C1036.14 553.818 1035.12 553.168 1034.89 552.139C1034.67 551.111 1035.32 550.094 1036.35 549.868C1037.37 549.642 1038.39 550.293 1038.62 551.321Z" fill="url(#paint74_linear_20_604)"/>
<path d="M1047.64 592.408C1047.87 593.436 1047.22 594.453 1046.19 594.679C1045.16 594.906 1044.14 594.254 1043.92 593.226C1043.69 592.197 1044.34 591.181 1045.37 590.954C1046.4 590.729 1047.41 591.379 1047.64 592.408Z" fill="url(#paint75_linear_20_604)"/>
<path d="M1065.02 553.893C1065.25 554.921 1064.6 555.938 1063.57 556.164C1062.54 556.39 1061.52 555.739 1061.3 554.712C1061.07 553.683 1061.72 552.667 1062.75 552.44C1063.78 552.214 1064.79 552.864 1065.02 553.893Z" fill="url(#paint76_linear_20_604)"/>
<path d="M1043.07 539.729C1026.93 543.277 1016.72 559.243 1020.27 575.39C1020.32 575.604 1020.37 575.817 1020.42 576.028C1017.43 560.81 1027.14 545.918 1042.35 542.572C1057.79 539.179 1073.05 548.945 1076.44 564.384C1079.78 579.609 1070.34 594.665 1055.27 598.334C1055.49 598.292 1055.7 598.248 1055.92 598.202C1072.06 594.653 1082.27 578.687 1078.72 562.539C1075.17 546.393 1059.21 536.18 1043.07 539.729Z" fill="url(#paint77_linear_20_604)"/>
<path d="M784.322 263.919L886.516 322.952C891.49 325.825 894.554 331.135 894.554 336.88V403.073C894.554 409.067 888.036 412.786 882.879 409.734L781.512 349.75C776.978 347.066 774.196 342.187 774.196 336.916V269.765C774.196 264.568 779.821 261.319 784.322 263.919Z" fill="url(#paint78_linear_20_604)"/>
<path d="M774.082 266.478L876.276 325.511C881.25 328.385 884.314 333.694 884.314 339.44V405.632C884.314 411.626 877.796 415.345 872.638 412.293L771.272 352.309C766.738 349.626 763.956 344.747 763.956 339.475V272.326C763.956 267.128 769.582 263.879 774.082 266.478Z" fill="#E7F6FD"/>
<path d="M876.565 412.918C875.267 412.918 874.026 412.574 872.877 411.894L771.51 351.909C767.137 349.322 764.422 344.558 764.422 339.477V272.326C764.422 268.854 767.245 266.029 770.717 266.029C771.817 266.029 772.87 266.316 773.849 266.882L876.043 325.915C880.858 328.696 883.849 333.879 883.849 339.44V405.632C883.849 409.65 880.581 412.918 876.565 412.918Z" fill="url(#paint79_linear_20_604)"/>
<path d="M770.718 266.495C771.734 266.495 772.709 266.76 773.617 267.285L875.811 326.318C880.481 329.016 883.383 334.044 883.383 339.44V405.632C883.383 408.911 880.777 412.452 876.565 412.452C875.351 412.452 874.19 412.128 873.113 411.491L771.747 351.507C767.516 349.003 764.887 344.393 764.887 339.475V272.326C764.887 268.724 767.914 266.495 770.718 266.495ZM770.717 265.563C767.191 265.563 763.956 268.384 763.956 272.326V339.477C763.956 344.748 766.738 349.628 771.272 352.311L872.638 412.295C873.904 413.044 875.251 413.385 876.564 413.385C880.602 413.385 884.314 410.157 884.314 405.634V339.442C884.314 333.696 881.25 328.386 876.276 325.513L774.082 266.48C772.994 265.849 771.841 265.563 770.717 265.563Z" fill="white"/>
<path d="M789.422 288.095L786.512 294.872C786.971 295.299 787.43 295.748 787.882 296.218C797.548 306.18 802.267 321.484 798.432 330.412C798.291 330.731 798.143 331.039 797.984 331.341C797.929 331.45 797.867 331.554 797.806 331.659C795.009 336.582 789.655 337.785 783.717 335.403C782.791 335.035 781.846 334.572 780.895 334.022C780.641 333.876 780.387 333.723 780.132 333.564C779.669 333.275 779.315 333.035 778.967 332.799L778.808 332.686C778.046 332.148 777.288 331.563 776.526 330.911C776.434 330.83 776.337 330.746 776.239 330.662C775.959 330.415 775.678 330.161 775.397 329.901C775.293 329.806 775.189 329.711 775.086 329.61C774.72 329.265 774.354 328.905 773.995 328.536C773.409 327.931 772.848 327.311 772.3 326.678L769.388 333.46C769.943 334.083 770.503 334.702 771.083 335.298C771.601 335.829 772.119 336.339 772.643 336.832C772.79 336.973 772.937 337.113 773.088 337.25C773.485 337.62 773.888 337.979 774.29 338.331C774.424 338.451 774.558 338.57 774.692 338.683C775.772 339.603 776.858 340.448 777.938 341.205C778.024 341.269 778.109 341.325 778.195 341.381C778.689 341.731 779.184 342.051 779.672 342.361L779.842 342.467C780.179 342.676 780.515 342.878 780.85 343.071C781.65 343.534 782.445 343.952 783.237 344.33C783.835 344.613 784.398 344.853 784.959 345.079C794.018 348.674 802.128 346.405 805.754 337.961C811.196 325.3 804.494 303.579 790.792 289.449C790.337 288.982 789.879 288.532 789.422 288.095Z" fill="url(#paint80_linear_20_604)"/>
<path d="M833.312 319.751L833.304 322.826C833.299 324.639 831.335 325.767 829.769 324.857L815.271 316.443C814.543 316.02 814.096 315.241 814.099 314.399L814.107 311.324C814.112 309.511 816.076 308.384 817.642 309.294L832.139 317.708C832.867 318.13 833.314 318.909 833.312 319.751Z" fill="#E7F6FD"/>
<path d="M879.172 361.523L879.164 364.605C879.158 366.414 877.2 367.543 875.633 366.637L815.233 331.75C814.502 331.328 814.053 330.547 814.055 329.704L814.064 326.623C814.069 324.813 816.028 323.685 817.595 324.59L877.996 359.477C878.726 359.899 879.175 360.679 879.172 361.523Z" fill="#E7F6FD"/>
<g opacity="0.53">
<g opacity="0.53">
<path opacity="0.53" d="M854.183 377.757L854.174 380.838C854.169 382.649 852.21 383.777 850.643 382.871L815.144 362.367C814.414 361.945 813.965 361.164 813.968 360.321L813.976 357.239C813.981 355.429 815.94 354.302 817.507 355.206L853.006 375.71C853.737 376.133 854.186 376.913 854.183 377.757Z" fill="#E7F6FD"/>
</g>
</g>
<path d="M869.763 371.421L869.754 374.503C869.75 376.313 867.79 377.442 866.223 376.536L815.189 347.058C814.459 346.636 814.01 345.855 814.012 345.012L814.02 341.93C814.025 340.12 815.985 338.993 817.551 339.897L868.587 369.375C869.316 369.797 869.766 370.578 869.763 371.421Z" fill="#E7F6FD"/>
<path d="M556.586 847.408C539.346 837.448 539.346 821.096 556.586 811.07C573.827 801.043 602.039 801.043 619.28 811.07C636.52 821.096 636.52 837.448 619.28 847.408C602.04 857.367 573.827 857.366 556.586 847.408Z" fill="#2A2F6D"/>
<path d="M559.483 833.073C542.957 824.436 542.957 810.253 559.483 801.557C576.009 792.86 603.051 792.86 619.577 801.557C636.103 810.253 636.103 824.436 619.577 833.073C603.051 841.711 576.008 841.711 559.483 833.073Z" fill="#2A2F6D"/>
<path d="M632.018 818.641H631.376V833.284H632.018V818.641Z" fill="#2A2F6D"/>
<path d="M632.01 816.625L625.644 806.628L618.789 802.034C612.881 799.515 605.627 798.284 597.945 798.284V798.929C599.17 798.929 600.379 798.963 601.568 799.026C596.95 798.945 591.582 799.243 585.47 799.966C589.591 799.287 593.785 798.929 597.942 798.929L597.944 798.284C597.943 798.284 597.943 798.284 597.942 798.284C585.379 798.285 571.681 801.573 560.905 807.884C560.141 808.331 559.412 808.79 558.701 809.254L544.498 810.961V830.23C544.498 830.23 544.512 830.235 544.534 830.243C544.778 835.476 547.896 840.334 554.064 843.946C560.493 847.711 569.23 849.539 578.599 849.539C591.161 849.539 604.859 846.251 615.635 839.94C626.45 833.605 632.053 825.552 632.014 818.173C632.073 817.19 632.01 816.625 632.01 816.625ZM569.644 848.282C567.682 848.006 565.794 847.637 563.997 847.181C565.934 847.638 567.816 847.998 569.644 848.282ZM563.782 847.129C563.709 847.111 563.635 847.091 563.562 847.071C563.637 847.09 563.707 847.111 563.782 847.129Z" fill="#2A2F6D"/>
<path d="M586.303 836.528C584.022 836.528 581.572 836.477 578.593 836.369C567.764 835.976 562.534 834.64 554.264 830.151C548.328 826.93 545.029 822.018 544.971 816.321H544.942V698.63L544.97 698.629C544.921 688.943 553.254 678.819 561.119 674.209C571.879 667.902 585.757 667.373 597.921 667.372C608.839 667.372 617.831 671.687 622.22 674.259C624.742 675.737 626.781 677.448 628.301 679.344L627.795 679.736C628.248 680.347 628.651 680.923 629.024 681.498L629.566 681.161C630.524 682.77 631.143 684.487 631.402 686.291L631.427 686.463L631.42 686.483L631.433 686.59C631.523 687.323 631.552 688.064 631.524 688.79L631.52 688.91L631.553 688.976V814.767L631.527 814.766C631.355 821.885 626.244 827.213 615.444 831.537C606.7 835.034 597.985 836.528 586.303 836.528Z" fill="url(#paint81_linear_20_604)"/>
<path d="M597.922 667.838C608.729 667.838 617.637 672.113 621.985 674.661C624.45 676.106 626.442 677.774 627.927 679.622L627.421 680.013C627.87 680.618 628.267 681.186 628.634 681.752L629.174 681.415C630.096 682.968 630.691 684.622 630.939 686.357L630.948 686.418L630.943 686.432L630.969 686.645C631.055 687.355 631.085 688.07 631.058 688.773L631.048 689.022L631.087 689.093V813.938H631.059L631.06 814.753C630.894 821.662 625.876 826.857 615.269 831.103C606.587 834.579 597.928 836.062 586.311 836.062C584.034 836.062 581.588 836.012 578.612 835.903C567.868 835.514 562.682 834.19 554.488 829.741C548.708 826.604 545.494 821.836 545.439 816.316H545.41V698.627H545.438C545.419 694.969 546.871 690.481 549.421 686.313C551.469 682.965 555.203 678.217 561.356 674.611C572.016 668.363 585.821 667.839 597.923 667.838H597.922ZM597.922 666.907C597.921 666.907 597.921 666.907 597.92 666.907C585.358 666.907 571.66 667.491 560.883 673.806C550.07 680.145 544.466 691.248 544.505 698.632L544.477 695.59V818.603L544.505 816.325C544.56 821.761 547.552 827.037 554.042 830.56C562.457 835.128 567.894 836.447 578.577 836.834C581.24 836.931 583.809 836.993 586.309 836.993C596.542 836.993 605.659 835.953 615.614 831.968C626.969 827.422 631.819 821.844 631.99 814.775L631.988 813.936C631.995 814.218 631.996 814.497 631.99 814.775L632.017 829.862V688.876C632.005 688.854 632 688.831 631.988 688.809C632.018 688.043 631.984 687.284 631.894 686.533C631.959 686.344 632.017 686.224 632.017 686.224H631.861C631.183 681.504 628.091 677.16 622.455 673.858C616.025 670.089 607.289 666.907 597.922 666.907ZM629.414 681.244C629.058 680.696 628.65 680.106 628.168 679.458C628.633 680.037 629.049 680.632 629.414 681.244Z" fill="white"/>
<g opacity="0.5">
<path opacity="0.5" d="M631.181 817.082V693.976C631.181 693.976 623.465 681.519 610.202 682.854C596.939 684.189 594.798 691.752 594.798 691.752V828.783C594.798 828.783 594.963 832.126 597.118 833.284C603.646 836.787 613.656 835.201 628.929 823.231C631.185 821.464 630.192 820.081 631.181 817.082Z" fill="url(#paint82_linear_20_604)"/>
</g>
<path opacity="0.43" d="M576.576 811.765C578.425 809.776 579.578 807.003 579.578 803.937C579.578 797.901 575.121 792.989 569.643 792.989C564.164 792.989 559.707 797.9 559.707 803.937C559.707 807.004 560.86 809.776 562.709 811.765C562.764 811.825 562.824 811.878 562.88 811.935C563.042 812.101 563.203 812.268 563.374 812.422C563.545 812.576 563.724 812.717 563.904 812.859C563.974 812.913 564.039 812.973 564.11 813.025C564.355 813.208 564.609 813.377 564.87 813.535C564.885 813.544 564.899 813.555 564.914 813.564C565.746 814.062 566.651 814.434 567.61 814.653C567.621 814.656 567.632 814.66 567.644 814.662C567.933 814.728 568.227 814.774 568.524 814.811C568.56 814.815 568.595 814.824 568.631 814.828C568.964 814.865 569.301 814.885 569.643 814.885C569.646 814.885 569.65 814.884 569.654 814.884C569.991 814.884 570.325 814.865 570.654 814.828C570.697 814.824 570.738 814.812 570.781 814.807C571.071 814.77 571.359 814.725 571.64 814.661C571.658 814.658 571.675 814.651 571.692 814.647C572.644 814.427 573.544 814.058 574.37 813.562C574.387 813.552 574.403 813.54 574.421 813.529C574.679 813.373 574.931 813.205 575.174 813.025C575.248 812.97 575.315 812.908 575.387 812.852C575.565 812.712 575.742 812.573 575.911 812.421C576.083 812.266 576.245 812.098 576.407 811.932C576.463 811.876 576.522 811.824 576.576 811.765Z" fill="#2A2F6D"/>
<path d="M569.944 800.013C569.297 798.683 567.734 798.108 566.378 798.695C563.614 799.893 560.254 801 556.517 801.97C536.355 807.206 505.214 808.436 497.066 797.731C491.33 790.203 498.64 775.995 517.656 757.725C533.711 742.288 540.351 729.133 537.976 717.496C534.26 699.338 509.098 689.816 486.887 681.413C470.19 675.087 452.925 668.556 452.264 660.562C451.174 647.276 464.528 632.985 475.917 623.333C485.567 615.156 495.504 608.855 499.846 606.229C501.098 605.472 501.522 603.859 500.804 602.582L500.261 601.615C499.513 600.286 497.819 599.831 496.512 600.616C485.742 607.082 443.555 634.199 445.773 661.101C446.769 673.194 464.295 679.828 484.587 687.505C505.214 695.312 528.589 704.163 531.587 718.809C533.459 727.939 527.248 739.455 513.13 753.02C490.789 774.504 483.647 790.873 491.879 801.681C497.839 809.507 511.268 812.395 525.786 812.395C536.709 812.395 548.248 810.755 557.662 808.342C562.831 807.019 567.357 805.463 570.793 803.814V803.758C570.793 802.404 570.487 801.128 569.944 800.013Z" fill="#198ACB"/>
<path d="M578.245 773.212C583.092 773.212 587.022 769.28 587.022 764.431C587.022 759.581 583.092 755.65 578.245 755.65C573.397 755.65 569.468 759.581 569.468 764.431C569.468 769.28 573.397 773.212 578.245 773.212Z" fill="url(#paint83_linear_20_604)"/>
<path d="M591.126 790.264C594.467 790.264 597.176 787.554 597.176 784.211C597.176 780.868 594.467 778.158 591.126 778.158C587.784 778.158 585.075 780.868 585.075 784.211C585.075 787.554 587.784 790.264 591.126 790.264Z" fill="url(#paint84_linear_20_604)"/>
<path d="M605.84 798.397C607.958 798.397 609.676 796.679 609.676 794.56C609.676 792.44 607.958 790.722 605.84 790.722C603.721 790.722 602.004 792.44 602.004 794.56C602.004 796.679 603.721 798.397 605.84 798.397Z" fill="url(#paint85_linear_20_604)"/>
<path d="M962.841 598.764C969.543 598.764 974.976 593.329 974.976 586.624C974.976 579.919 969.543 574.483 962.841 574.483C956.139 574.483 950.706 579.919 950.706 586.624C950.706 593.329 956.139 598.764 962.841 598.764Z" fill="url(#paint86_linear_20_604)"/>
<path d="M1030.42 481.508C1037.12 481.508 1042.55 476.072 1042.55 469.367C1042.55 462.662 1037.12 457.227 1030.42 457.227C1023.71 457.227 1018.28 462.662 1018.28 469.367C1018.28 476.072 1023.71 481.508 1030.42 481.508Z" fill="url(#paint87_linear_20_604)"/>
<path d="M798.276 422.446C804.978 422.446 810.411 417.01 810.411 410.305C810.411 403.6 804.978 398.165 798.276 398.165C791.574 398.165 786.141 403.6 786.141 410.305C786.141 417.01 791.574 422.446 798.276 422.446Z" fill="url(#paint88_linear_20_604)"/>
<path d="M727.405 536.618C734.107 536.618 739.54 531.182 739.54 524.477C739.54 517.772 734.107 512.337 727.405 512.337C720.703 512.337 715.27 517.772 715.27 524.477C715.27 531.182 720.703 536.618 727.405 536.618Z" fill="url(#paint89_linear_20_604)"/>
<path d="M1140.28 565.778C1146.99 565.778 1152.42 560.342 1152.42 553.637C1152.42 546.932 1146.99 541.497 1140.28 541.497C1133.58 541.497 1128.15 546.932 1128.15 553.637C1128.15 560.342 1133.58 565.778 1140.28 565.778Z" fill="url(#paint90_linear_20_604)"/>
<defs>
<linearGradient id="paint0_linear_20_604" x1="355.619" y1="689.988" x2="1210.54" y2="689.988" gradientUnits="userSpaceOnUse">
<stop stop-color="#BD8AAE"/>
<stop offset="1" stop-color="#2484C6" stop-opacity="0"/>
</linearGradient>
<linearGradient id="paint1_linear_20_604" x1="354.996" y1="463.07" x2="1210.61" y2="463.07" gradientUnits="userSpaceOnUse">
<stop offset="0.0536" stop-color="#1F479A"/>
<stop offset="0.2572" stop-color="#3C7FBE"/>
<stop offset="0.6965" stop-color="#28A8E0"/>
<stop offset="0.9493" stop-color="#29ABE2" stop-opacity="0"/>
</linearGradient>
<linearGradient id="paint2_linear_20_604" x1="285.837" y1="753.696" x2="530.344" y2="753.696" gradientUnits="userSpaceOnUse">
<stop offset="0.2572" stop-color="#3C7FBE"/>
<stop offset="0.6965" stop-color="#28A8E0"/>
<stop offset="0.9493" stop-color="#29ABE2" stop-opacity="0"/>
</linearGradient>
<linearGradient id="paint3_linear_20_604" x1="918.001" y1="482.555" x2="1026.83" y2="482.555" gradientUnits="userSpaceOnUse">
<stop offset="0.2572" stop-color="#3C7FBE"/>
<stop offset="0.6965" stop-color="#28A8E0"/>
<stop offset="0.9493" stop-color="#29ABE2" stop-opacity="0"/>
</linearGradient>
<linearGradient id="paint4_linear_20_604" x1="673.91" y1="444.157" x2="738.87" y2="444.157" gradientUnits="userSpaceOnUse">
<stop offset="0.2572" stop-color="#3C7FBE"/>
<stop offset="0.6965" stop-color="#28A8E0"/>
<stop offset="0.9493" stop-color="#29ABE2" stop-opacity="0"/>
</linearGradient>
<linearGradient id="paint5_linear_20_604" x1="1032.24" y1="601.667" x2="1067.7" y2="601.667" gradientUnits="userSpaceOnUse">
<stop offset="0.2572" stop-color="#3C7FBE"/>
<stop offset="0.6965" stop-color="#28A8E0"/>
<stop offset="0.9493" stop-color="#29ABE2" stop-opacity="0"/>
</linearGradient>
<linearGradient id="paint6_linear_20_604" x1="525.305" y1="848.791" x2="641.583" y2="848.791" gradientUnits="userSpaceOnUse">
<stop offset="0.2572" stop-color="#3C7FBE"/>
<stop offset="0.6965" stop-color="#28A8E0"/>
<stop offset="0.9493" stop-color="#29ABE2" stop-opacity="0"/>
</linearGradient>
<linearGradient id="paint7_linear_20_604" x1="921.273" y1="332.289" x2="1217.06" y2="332.289" gradientUnits="userSpaceOnUse">
<stop offset="0.0607" stop-color="#28A8E0"/>
<stop offset="0.9984" stop-color="#29ABE2" stop-opacity="0"/>
</linearGradient>
<linearGradient id="paint8_linear_20_604" x1="940.593" y1="253.287" x2="1017.45" y2="253.287" gradientUnits="userSpaceOnUse">
<stop offset="0.0607" stop-color="#28A8E0"/>
<stop offset="0.9984" stop-color="#29ABE2" stop-opacity="0"/>
</linearGradient>
<linearGradient id="paint9_linear_20_604" x1="1054" y1="403.323" x2="1092.1" y2="403.323" gradientUnits="userSpaceOnUse">
<stop stop-color="#21409A"/>
<stop offset="0.9984" stop-color="#BD8AAE"/>
</linearGradient>
<linearGradient id="paint10_linear_20_604" x1="387.783" y1="540.905" x2="428.4" y2="540.905" gradientUnits="userSpaceOnUse">
<stop stop-color="#21409A"/>
<stop offset="0.9984" stop-color="#BD8AAE"/>
</linearGradient>
<linearGradient id="paint11_linear_20_604" x1="622.201" y1="700.302" x2="662.955" y2="700.302" gradientUnits="userSpaceOnUse">
<stop stop-color="#21409A"/>
<stop offset="0.9984" stop-color="#BD8AAE"/>
</linearGradient>
<linearGradient id="paint12_linear_20_604" x1="560.951" y1="487.481" x2="639.806" y2="487.481" gradientUnits="userSpaceOnUse">
<stop stop-color="#CDE9F9"/>
<stop offset="0.5583" stop-color="#E7F6FD"/>
</linearGradient>
<linearGradient id="paint13_linear_20_604" x1="560.951" y1="488.381" x2="593.106" y2="488.381" gradientUnits="userSpaceOnUse">
<stop stop-color="#BD8AAE"/>
<stop offset="1" stop-color="#2484C6" stop-opacity="0"/>
</linearGradient>
<linearGradient id="paint14_linear_20_604" x1="334.475" y1="642.891" x2="650.444" y2="642.891" gradientUnits="userSpaceOnUse">
<stop offset="0.0607" stop-color="#28A8E0"/>
<stop offset="0.9984" stop-color="#29ABE2" stop-opacity="0"/>
</linearGradient>
<linearGradient id="paint15_linear_20_604" x1="474.885" y1="652.039" x2="617.444" y2="652.039" gradientUnits="userSpaceOnUse">
<stop stop-color="#BD8AAE"/>
<stop offset="1" stop-color="#2484C6" stop-opacity="0"/>
</linearGradient>
<linearGradient id="paint16_linear_20_604" x1="375.324" y1="666.581" x2="505.038" y2="666.581" gradientUnits="userSpaceOnUse">
<stop stop-color="#2484C6" stop-opacity="0"/>
<stop offset="0.9639" stop-color="#AECFDC"/>
</linearGradient>
<linearGradient id="paint17_linear_20_604" x1="489.779" y1="566.915" x2="597.178" y2="566.915" gradientUnits="userSpaceOnUse">
<stop offset="0.0607" stop-color="#28A8E0"/>
<stop offset="0.9984" stop-color="#29ABE2" stop-opacity="0"/>
</linearGradient>
<linearGradient id="paint18_linear_20_604" x1="419.661" y1="544.158" x2="514.388" y2="544.158" gradientUnits="userSpaceOnUse">
<stop stop-color="#2484C6" stop-opacity="0"/>
<stop offset="0.9639" stop-color="#AECFDC"/>
</linearGradient>
<linearGradient id="paint19_linear_20_604" x1="599.93" y1="619.964" x2="640.098" y2="619.964" gradientUnits="userSpaceOnUse">
<stop stop-color="#BD8AAE"/>
<stop offset="1" stop-color="#2484C6" stop-opacity="0"/>
</linearGradient>
<linearGradient id="paint20_linear_20_604" x1="601.382" y1="479.568" x2="639.806" y2="479.568" gradientUnits="userSpaceOnUse">
<stop stop-color="#21409A"/>
<stop offset="0.9984" stop-color="#BD8AAE"/>
</linearGradient>
<linearGradient id="paint21_linear_20_604" x1="590.547" y1="498.031" x2="602.205" y2="498.031" gradientUnits="userSpaceOnUse">
<stop stop-color="#CDE9F9"/>
<stop offset="0.5583" stop-color="#E7F6FD"/>
</linearGradient>
<linearGradient id="paint22_linear_20_604" x1="489.779" y1="571.93" x2="597.178" y2="571.93" gradientUnits="userSpaceOnUse">
<stop stop-color="#BD8AAE"/>
<stop offset="1" stop-color="#2484C6" stop-opacity="0"/>
</linearGradient>
<linearGradient id="paint23_linear_20_604" x1="529.795" y1="688.515" x2="556.463" y2="688.515" gradientUnits="userSpaceOnUse">
<stop stop-color="#BD8AAE"/>
<stop offset="1" stop-color="#2484C6" stop-opacity="0"/>
</linearGradient>
<linearGradient id="paint24_linear_20_604" x1="439.991" y1="753.977" x2="496.955" y2="753.977" gradientUnits="userSpaceOnUse">
<stop stop-color="#BD8AAE"/>
<stop offset="1" stop-color="#2484C6" stop-opacity="0"/>
</linearGradient>
<linearGradient id="paint25_linear_20_604" x1="387.074" y1="696.404" x2="440.451" y2="696.404" gradientUnits="userSpaceOnUse">
<stop stop-color="#2484C6" stop-opacity="0"/>
<stop offset="0.9639" stop-color="#AECFDC"/>
</linearGradient>
<linearGradient id="paint26_linear_20_604" x1="423.331" y1="685.471" x2="511.018" y2="685.471" gradientUnits="userSpaceOnUse">
<stop stop-color="#2484C6" stop-opacity="0"/>
<stop offset="0.9639" stop-color="#AECFDC"/>
</linearGradient>
<linearGradient id="paint27_linear_20_604" x1="515.394" y1="594.502" x2="650.444" y2="594.502" gradientUnits="userSpaceOnUse">
<stop stop-color="#BD8AAE"/>
<stop offset="1" stop-color="#2484C6" stop-opacity="0"/>
</linearGradient>
<linearGradient id="paint28_linear_20_604" x1="830.229" y1="798.453" x2="650.959" y2="671.813" gradientUnits="userSpaceOnUse">
<stop stop-color="#21409A"/>
<stop offset="0.9984" stop-color="#29ABE2" stop-opacity="0"/>
</linearGradient>
<linearGradient id="paint29_linear_20_604" x1="877.014" y1="732.223" x2="697.744" y2="605.584" gradientUnits="userSpaceOnUse">
<stop stop-color="#21409A"/>
<stop offset="0.9984" stop-color="#29ABE2" stop-opacity="0"/>
</linearGradient>
<linearGradient id="paint30_linear_20_604" x1="919.649" y1="671.869" x2="740.379" y2="545.23" gradientUnits="userSpaceOnUse">
<stop stop-color="#21409A"/>
<stop offset="0.9984" stop-color="#29ABE2" stop-opacity="0"/>
</linearGradient>
<linearGradient id="paint31_linear_20_604" x1="768.188" y1="589.276" x2="803.683" y2="589.276" gradientUnits="userSpaceOnUse">
<stop offset="0.0607" stop-color="#28A8E0"/>
<stop offset="0.9984" stop-color="#29ABE2" stop-opacity="0"/>
</linearGradient>
<linearGradient id="paint32_linear_20_604" x1="751.227" y1="695.748" x2="806.652" y2="695.748" gradientUnits="userSpaceOnUse">
<stop offset="0.0607" stop-color="#28A8E0"/>
<stop offset="0.9984" stop-color="#29ABE2" stop-opacity="0"/>
</linearGradient>
<linearGradient id="paint33_linear_20_604" x1="853.724" y1="652.511" x2="882.535" y2="652.511" gradientUnits="userSpaceOnUse">
<stop offset="0.0607" stop-color="#28A8E0"/>
<stop offset="0.9984" stop-color="#29ABE2" stop-opacity="0"/>
</linearGradient>
<linearGradient id="paint34_linear_20_604" x1="668.464" y1="670.822" x2="932.863" y2="670.822" gradientUnits="userSpaceOnUse">
<stop offset="0.0607" stop-color="#28A8E0"/>
<stop offset="0.9984" stop-color="#29ABE2" stop-opacity="0"/>
</linearGradient>
<linearGradient id="paint35_linear_20_604" x1="696.272" y1="666.605" x2="725.083" y2="666.605" gradientUnits="userSpaceOnUse">
<stop offset="0.0607" stop-color="#28A8E0"/>
<stop offset="0.9984" stop-color="#29ABE2" stop-opacity="0"/>
</linearGradient>
<linearGradient id="paint36_linear_20_604" x1="859.71" y1="729.462" x2="876.55" y2="729.462" gradientUnits="userSpaceOnUse">
<stop offset="0.0607" stop-color="#28A8E0"/>
<stop offset="0.9984" stop-color="#29ABE2" stop-opacity="0"/>
</linearGradient>
<linearGradient id="paint37_linear_20_604" x1="748.203" y1="753.696" x2="765.044" y2="753.696" gradientUnits="userSpaceOnUse">
<stop offset="0.0607" stop-color="#28A8E0"/>
<stop offset="0.9984" stop-color="#29ABE2" stop-opacity="0"/>
</linearGradient>
<linearGradient id="paint38_linear_20_604" x1="649.519" y1="391.035" x2="757.234" y2="389.57" gradientUnits="userSpaceOnUse">
<stop stop-color="#1592D1"/>
<stop offset="1" stop-color="#82CDBD"/>
</linearGradient>
<linearGradient id="paint39_linear_20_604" x1="649.519" y1="391.035" x2="757.234" y2="389.57" gradientUnits="userSpaceOnUse">
<stop stop-color="#BD8AAE"/>
<stop offset="1" stop-color="#2484C6" stop-opacity="0"/>
</linearGradient>
<linearGradient id="paint40_linear_20_604" x1="704.187" y1="417.701" x2="694.705" y2="428.678" gradientUnits="userSpaceOnUse">
<stop stop-color="#1592D1"/>
<stop offset="1" stop-color="#40C4DC"/>
</linearGradient>
<linearGradient id="paint41_linear_20_604" x1="736.652" y1="363.753" x2="721.845" y2="380.894" gradientUnits="userSpaceOnUse">
<stop stop-color="#1592D1"/>
<stop offset="1" stop-color="#40C4DC"/>
</linearGradient>
<linearGradient id="paint42_linear_20_604" x1="721.936" y1="384.01" x2="714.239" y2="392.921" gradientUnits="userSpaceOnUse">
<stop stop-color="#1592D1"/>
<stop offset="1" stop-color="#40C4DC"/>
</linearGradient>
<linearGradient id="paint43_linear_20_604" x1="676.195" y1="367.68" x2="668.498" y2="376.59" gradientUnits="userSpaceOnUse">
<stop stop-color="#1592D1"/>
<stop offset="1" stop-color="#40C4DC"/>
</linearGradient>
<linearGradient id="paint44_linear_20_604" x1="732.16" y1="411.15" x2="727.661" y2="416.358" gradientUnits="userSpaceOnUse">
<stop stop-color="#1592D1"/>
<stop offset="1" stop-color="#40C4DC"/>
</linearGradient>
<linearGradient id="paint45_linear_20_604" x1="699.074" y1="361.633" x2="694.575" y2="366.841" gradientUnits="userSpaceOnUse">
<stop stop-color="#1592D1"/>
<stop offset="1" stop-color="#40C4DC"/>
</linearGradient>
<linearGradient id="paint46_linear_20_604" x1="649.484" y1="390.332" x2="757.206" y2="390.332" gradientUnits="userSpaceOnUse">
<stop offset="0.0607" stop-color="#28A8E0"/>
<stop offset="0.9984" stop-color="#29ABE2" stop-opacity="0"/>
</linearGradient>
<linearGradient id="paint47_linear_20_604" x1="701.566" y1="366.7" x2="704.563" y2="402.794" gradientUnits="userSpaceOnUse">
<stop stop-color="#666666"/>
<stop offset="1" stop-color="#999999"/>
</linearGradient>
<linearGradient id="paint48_linear_20_604" x1="976.248" y1="371.888" x2="953.713" y2="444.267" gradientUnits="userSpaceOnUse">
<stop stop-color="#BD8AAE"/>
<stop offset="1" stop-color="#2484C6" stop-opacity="0"/>
</linearGradient>
<linearGradient id="paint49_linear_20_604" x1="961.256" y1="444.84" x2="978.082" y2="367.954" gradientUnits="userSpaceOnUse">
<stop stop-color="#BD8AAE"/>
<stop offset="1" stop-color="#2484C6" stop-opacity="0"/>
</linearGradient>
<linearGradient id="paint50_linear_20_604" x1="974.382" y1="443.552" x2="971.077" y2="413.217" gradientUnits="userSpaceOnUse">
<stop stop-color="#BD8AAE"/>
<stop offset="1" stop-color="#2484C6" stop-opacity="0"/>
</linearGradient>
<linearGradient id="paint51_linear_20_604" x1="973.822" y1="455.996" x2="986.172" y2="399.563" gradientUnits="userSpaceOnUse">
<stop stop-color="#BD8AAE"/>
<stop offset="1" stop-color="#2484C6" stop-opacity="0"/>
</linearGradient>
<linearGradient id="paint52_linear_20_604" x1="993.415" y1="467.375" x2="991.011" y2="441.846" gradientUnits="userSpaceOnUse">
<stop stop-color="#BD8AAE"/>
<stop offset="1" stop-color="#2484C6" stop-opacity="0"/>
</linearGradient>
<linearGradient id="paint53_linear_20_604" x1="891.967" y1="400.586" x2="1042.67" y2="400.586" gradientUnits="userSpaceOnUse">
<stop stop-color="#64CDF6"/>
<stop offset="1" stop-color="white" stop-opacity="0"/>
</linearGradient>
<linearGradient id="paint54_linear_20_604" x1="748.453" y1="374.025" x2="768.781" y2="374.025" gradientUnits="userSpaceOnUse">
<stop stop-color="#CDE8F9"/>
<stop offset="1" stop-color="white" stop-opacity="0"/>
</linearGradient>
<linearGradient id="paint55_linear_20_604" x1="873.455" y1="457.525" x2="893.783" y2="457.525" gradientUnits="userSpaceOnUse">
<stop stop-color="#CDE8F9"/>
<stop offset="1" stop-color="white" stop-opacity="0"/>
</linearGradient>
<linearGradient id="paint56_linear_20_604" x1="652.79" y1="446.742" x2="673.118" y2="446.742" gradientUnits="userSpaceOnUse">
<stop stop-color="#CDE8F9"/>
<stop offset="1" stop-color="white" stop-opacity="0"/>
</linearGradient>
<linearGradient id="paint57_linear_20_604" x1="968.858" y1="655.794" x2="989.186" y2="655.794" gradientUnits="userSpaceOnUse">
<stop stop-color="#CDE8F9"/>
<stop offset="1" stop-color="white" stop-opacity="0"/>
</linearGradient>
<linearGradient id="paint58_linear_20_604" x1="1084.29" y1="495.743" x2="1104.62" y2="495.743" gradientUnits="userSpaceOnUse">
<stop stop-color="#CDE8F9"/>
<stop offset="1" stop-color="white" stop-opacity="0"/>
</linearGradient>
<linearGradient id="paint59_linear_20_604" x1="438.854" y1="577.467" x2="459.182" y2="577.467" gradientUnits="userSpaceOnUse">
<stop stop-color="#CDE8F9"/>
<stop offset="1" stop-color="white" stop-opacity="0"/>
</linearGradient>
<linearGradient id="paint60_linear_20_604" x1="674.256" y1="579.748" x2="694.584" y2="579.748" gradientUnits="userSpaceOnUse">
<stop stop-color="#CDE8F9"/>
<stop offset="1" stop-color="white" stop-opacity="0"/>
</linearGradient>
<linearGradient id="paint61_linear_20_604" x1="772.388" y1="483.298" x2="792.716" y2="483.298" gradientUnits="userSpaceOnUse">
<stop stop-color="#CDE8F9"/>
<stop offset="1" stop-color="white" stop-opacity="0"/>
</linearGradient>
<linearGradient id="paint62_linear_20_604" x1="944.348" y1="544.153" x2="964.676" y2="544.153" gradientUnits="userSpaceOnUse">
<stop stop-color="#CDE8F9"/>
<stop offset="1" stop-color="white" stop-opacity="0"/>
</linearGradient>
<linearGradient id="paint63_linear_20_604" x1="775.723" y1="390.297" x2="828.067" y2="481.624" gradientUnits="userSpaceOnUse">
<stop/>
<stop offset="0.0867" stop-color="#070707"/>
<stop offset="0.217" stop-color="#1C1C1C"/>
<stop offset="0.3749" stop-color="#3E3E3E"/>
<stop offset="0.5544" stop-color="#6D6D6D"/>
<stop offset="0.7519" stop-color="#A9A9A9"/>
<stop offset="0.9617" stop-color="#F1F1F1"/>
<stop offset="1" stop-color="white"/>
</linearGradient>
<linearGradient id="paint64_linear_20_604" x1="797.597" y1="493.006" x2="849.941" y2="584.333" gradientUnits="userSpaceOnUse">
<stop/>
<stop offset="0.0867" stop-color="#070707"/>
<stop offset="0.217" stop-color="#1C1C1C"/>
<stop offset="0.3749" stop-color="#3E3E3E"/>
<stop offset="0.5544" stop-color="#6D6D6D"/>
<stop offset="0.7519" stop-color="#A9A9A9"/>
<stop offset="0.9617" stop-color="#F1F1F1"/>
<stop offset="1" stop-color="white"/>
</linearGradient>
<linearGradient id="paint65_linear_20_604" x1="1016.48" y1="469.996" x2="1068.83" y2="561.323" gradientUnits="userSpaceOnUse">
<stop/>
<stop offset="0.0867" stop-color="#070707"/>
<stop offset="0.217" stop-color="#1C1C1C"/>
<stop offset="0.3749" stop-color="#3E3E3E"/>
<stop offset="0.5544" stop-color="#6D6D6D"/>
<stop offset="0.7519" stop-color="#A9A9A9"/>
<stop offset="0.9617" stop-color="#F1F1F1"/>
<stop offset="1" stop-color="white"/>
</linearGradient>
<linearGradient id="paint66_linear_20_604" x1="613.982" y1="354.93" x2="666.326" y2="446.257" gradientUnits="userSpaceOnUse">
<stop/>
<stop offset="0.0867" stop-color="#070707"/>
<stop offset="0.217" stop-color="#1C1C1C"/>
<stop offset="0.3749" stop-color="#3E3E3E"/>
<stop offset="0.5544" stop-color="#6D6D6D"/>
<stop offset="0.7519" stop-color="#A9A9A9"/>
<stop offset="0.9617" stop-color="#F1F1F1"/>
<stop offset="1" stop-color="white"/>
</linearGradient>
<linearGradient id="paint67_linear_20_604" x1="882.7" y1="479.562" x2="935.044" y2="570.888" gradientUnits="userSpaceOnUse">
<stop/>
<stop offset="0.0867" stop-color="#070707"/>
<stop offset="0.217" stop-color="#1C1C1C"/>
<stop offset="0.3749" stop-color="#3E3E3E"/>
<stop offset="0.5544" stop-color="#6D6D6D"/>
<stop offset="0.7519" stop-color="#A9A9A9"/>
<stop offset="0.9617" stop-color="#F1F1F1"/>
<stop offset="1" stop-color="white"/>
</linearGradient>
<linearGradient id="paint68_linear_20_604" x1="1020.33" y1="575.374" x2="1078.78" y2="562.534" gradientUnits="userSpaceOnUse">
<stop offset="0.0607" stop-color="#28A8E0"/>
<stop offset="0.9984" stop-color="#29ABE2" stop-opacity="0"/>
</linearGradient>
<linearGradient id="paint69_linear_20_604" x1="1051.25" y1="556.52" x2="1047.31" y2="563.555" gradientUnits="userSpaceOnUse">
<stop stop-color="#21409A"/>
<stop offset="0.9984" stop-color="#29ABE2" stop-opacity="0"/>
</linearGradient>
<linearGradient id="paint70_linear_20_604" x1="1034.24" y1="555.928" x2="1028.1" y2="566.912" gradientUnits="userSpaceOnUse">
<stop stop-color="#21409A"/>
<stop offset="0.9984" stop-color="#29ABE2" stop-opacity="0"/>
</linearGradient>
<linearGradient id="paint71_linear_20_604" x1="1051.27" y1="577.676" x2="1048.08" y2="583.387" gradientUnits="userSpaceOnUse">
<stop stop-color="#21409A"/>
<stop offset="0.9984" stop-color="#29ABE2" stop-opacity="0"/>
</linearGradient>
<linearGradient id="paint72_linear_20_604" x1="1030.03" y1="575.146" x2="1026.84" y2="580.856" gradientUnits="userSpaceOnUse">
<stop stop-color="#21409A"/>
<stop offset="0.9984" stop-color="#29ABE2" stop-opacity="0"/>
</linearGradient>
<linearGradient id="paint73_linear_20_604" x1="1067.55" y1="577.071" x2="1065.68" y2="580.409" gradientUnits="userSpaceOnUse">
<stop stop-color="#21409A"/>
<stop offset="0.9984" stop-color="#29ABE2" stop-opacity="0"/>
</linearGradient>
<linearGradient id="paint74_linear_20_604" x1="1037.73" y1="550.076" x2="1035.86" y2="553.413" gradientUnits="userSpaceOnUse">
<stop stop-color="#21409A"/>
<stop offset="0.9984" stop-color="#29ABE2" stop-opacity="0"/>
</linearGradient>
<linearGradient id="paint75_linear_20_604" x1="1046.75" y1="591.164" x2="1044.89" y2="594.502" gradientUnits="userSpaceOnUse">
<stop stop-color="#21409A"/>
<stop offset="0.9984" stop-color="#29ABE2" stop-opacity="0"/>
</linearGradient>
<linearGradient id="paint76_linear_20_604" x1="1064.13" y1="552.647" x2="1062.27" y2="555.984" gradientUnits="userSpaceOnUse">
<stop stop-color="#21409A"/>
<stop offset="0.9984" stop-color="#29ABE2" stop-opacity="0"/>
</linearGradient>
<linearGradient id="paint77_linear_20_604" x1="1019.57" y1="568.679" x2="1079.42" y2="568.679" gradientUnits="userSpaceOnUse">
<stop offset="0.0607" stop-color="#28A8E0"/>
<stop offset="0.9984" stop-color="#29ABE2" stop-opacity="0"/>
</linearGradient>
<linearGradient id="paint78_linear_20_604" x1="774.196" y1="336.914" x2="894.554" y2="336.914" gradientUnits="userSpaceOnUse">
<stop offset="0.2572" stop-color="#3C7FBE"/>
<stop offset="0.6965" stop-color="#28A8E0"/>
<stop offset="0.9493" stop-color="#29ABE2" stop-opacity="0"/>
</linearGradient>
<linearGradient id="paint79_linear_20_604" x1="764.422" y1="339.474" x2="883.849" y2="339.474" gradientUnits="userSpaceOnUse">
<stop stop-color="#BD8AAE"/>
<stop offset="1" stop-color="#2484C6" stop-opacity="0"/>
</linearGradient>
<linearGradient id="paint80_linear_20_604" x1="769.387" y1="317.409" x2="807.647" y2="317.409" gradientUnits="userSpaceOnUse">
<stop stop-color="#1592D1"/>
<stop offset="1" stop-color="#40C4DC"/>
</linearGradient>
<linearGradient id="paint81_linear_20_604" x1="544.942" y1="751.95" x2="631.551" y2="751.95" gradientUnits="userSpaceOnUse">
<stop offset="0.0607" stop-color="#28A8E0"/>
<stop offset="0.9984" stop-color="#29ABE2" stop-opacity="0"/>
</linearGradient>
<linearGradient id="paint82_linear_20_604" x1="631.181" y1="758.837" x2="594.798" y2="758.837" gradientUnits="userSpaceOnUse">
<stop offset="0.4247" stop-color="white"/>
<stop offset="1" stop-color="#2484C6" stop-opacity="0"/>
</linearGradient>
<linearGradient id="paint83_linear_20_604" x1="569.666" y1="766.258" x2="586.811" y2="762.495" gradientUnits="userSpaceOnUse">
<stop stop-color="#CDE8F9"/>
<stop offset="1" stop-color="white" stop-opacity="0"/>
</linearGradient>
<linearGradient id="paint84_linear_20_604" x1="585.204" y1="785.491" x2="597.024" y2="782.897" gradientUnits="userSpaceOnUse">
<stop stop-color="#CDE8F9"/>
<stop offset="1" stop-color="white" stop-opacity="0"/>
</linearGradient>
<linearGradient id="paint85_linear_20_604" x1="602.023" y1="795.402" x2="609.519" y2="793.759" gradientUnits="userSpaceOnUse">
<stop stop-color="#CDE8F9"/>
<stop offset="1" stop-color="white" stop-opacity="0"/>
</linearGradient>
<linearGradient id="paint86_linear_20_604" x1="951.002" y1="589.234" x2="974.707" y2="584.028" gradientUnits="userSpaceOnUse">
<stop offset="0.0607" stop-color="#28A8E0"/>
<stop offset="0.9984" stop-color="#29ABE2" stop-opacity="0"/>
</linearGradient>
<linearGradient id="paint87_linear_20_604" x1="1018.57" y1="471.981" x2="1042.28" y2="466.775" gradientUnits="userSpaceOnUse">
<stop offset="0.0607" stop-color="#28A8E0"/>
<stop offset="0.9984" stop-color="#29ABE2" stop-opacity="0"/>
</linearGradient>
<linearGradient id="paint88_linear_20_604" x1="786.427" y1="412.912" x2="810.132" y2="407.706" gradientUnits="userSpaceOnUse">
<stop offset="0.0607" stop-color="#28A8E0"/>
<stop offset="0.9984" stop-color="#29ABE2" stop-opacity="0"/>
</linearGradient>
<linearGradient id="paint89_linear_20_604" x1="715.559" y1="527.081" x2="739.264" y2="521.875" gradientUnits="userSpaceOnUse">
<stop stop-color="#BD8AAE"/>
<stop offset="1" stop-color="#2484C6" stop-opacity="0"/>
</linearGradient>
<linearGradient id="paint90_linear_20_604" x1="1128.45" y1="556.253" x2="1152.15" y2="551.047" gradientUnits="userSpaceOnUse">
<stop stop-color="#BD8AAE"/>
<stop offset="1" stop-color="#2484C6" stop-opacity="0"/>
</linearGradient>
</defs>
</svg>
