<svg width="1920" height="662" viewBox="0 0 1920 662" fill="none" xmlns="http://www.w3.org/2000/svg">
<mask id="mask0_20_385" style="mask-type:alpha" maskUnits="userSpaceOnUse" x="0" y="0" width="1920" height="662">
<rect width="1920" height="662" fill="#7C14FD"/>
</mask>
<g mask="url(#mask0_20_385)">
<path opacity="0.4" fill-rule="evenodd" clip-rule="evenodd" d="M1956.86 1215C2240.8 1215 2470.98 983.979 2470.98 699C2470.98 414.021 2240.8 183 1956.86 183C1672.92 183 1442.73 414.021 1442.73 699C1442.73 983.979 1672.92 1215 1956.86 1215ZM1956.86 1040.97C1768.68 1040.97 1616.13 887.865 1616.13 699C1616.13 510.135 1768.68 357.03 1956.86 357.03C2145.04 357.03 2297.58 510.135 2297.58 699C2297.58 887.865 2145.04 1040.97 1956.86 1040.97Z" fill="url(#paint0_linear_20_385)"/>
<path opacity="0.4" fill-rule="evenodd" clip-rule="evenodd" d="M-93.6585 386C232.655 386 497.185 120.505 497.185 -207C497.185 -534.505 232.655 -800 -93.6585 -800C-419.972 -800 -684.502 -534.505 -684.502 -207C-684.502 120.505 -419.972 386 -93.6585 386ZM-93.6584 186C-309.917 186 -485.229 10.0479 -485.229 -207C-485.229 -424.048 -309.917 -600 -93.6584 -600C122.6 -600 297.912 -424.048 297.912 -207C297.912 10.0479 122.6 186 -93.6584 186Z" fill="url(#paint1_linear_20_385)"/>
</g>
<g opacity="0.3" clip-path="url(#clip0_20_385)">
<path d="M1680.67 207.836C1680.67 206.212 1681.99 204.895 1683.61 204.895C1685.23 204.895 1686.55 206.212 1686.55 207.836C1686.55 209.461 1685.23 210.782 1683.61 210.782C1681.99 210.782 1680.67 209.461 1680.67 207.836Z" fill="#E54884"/>
<path d="M1555.84 357.504C1555.84 355.126 1557.77 353.198 1560.14 353.198C1562.52 353.198 1564.44 355.126 1564.44 357.504C1564.44 359.882 1562.52 361.811 1560.14 361.811C1557.77 361.811 1555.84 359.882 1555.84 357.504Z" stroke="#4BDFEA" stroke-width="4"/>
<path d="M1536.43 294.306C1536.43 291.928 1538.36 289.999 1540.73 289.999C1543.11 289.999 1545.03 291.928 1545.03 294.306C1545.03 296.684 1543.11 298.612 1540.73 298.612C1538.36 298.612 1536.43 296.684 1536.43 294.306Z" stroke="#4BDFEA" stroke-width="4"/>
<path d="M1500.84 325.739L1495.66 324.139L1500.84 322.538L1502.43 317.357L1504.03 322.538L1509.21 324.139L1504.03 325.739L1502.43 330.92L1500.84 325.739Z" fill="#F44D99"/>
<path d="M848.119 10.2223C850 8.77596 852.701 9.1285 854.149 11.0123C855.596 12.8962 855.24 15.6023 853.36 17.0486C851.48 18.499 848.783 18.1465 847.335 16.2627C845.887 14.3789 846.239 11.6726 848.119 10.2223Z" stroke="#4BDFEA" stroke-width="4"/>
<path d="M713.744 182.221C715.03 181.232 716.874 181.471 717.865 182.759C718.851 184.048 718.613 185.895 717.327 186.888C716.041 187.876 714.197 187.637 713.206 186.349C712.219 185.061 712.458 183.213 713.744 182.221Z" fill="#E54884"/>
<path d="M629.746 237.901C631.627 236.454 634.328 236.807 635.776 238.69C637.223 240.574 636.867 243.28 634.987 244.727C633.107 246.177 630.409 245.825 628.962 243.941C627.514 242.057 627.866 239.351 629.746 237.901Z" stroke="#4BDFEA" stroke-width="4"/>
<path d="M667.921 183.959C669.801 182.508 672.499 182.861 673.946 184.748C675.394 186.632 675.042 189.334 673.158 190.785C671.277 192.235 668.58 191.883 667.132 189.999C665.685 188.111 666.037 185.409 667.921 183.959Z" stroke="#4BDFEA" stroke-width="4"/>
<path d="M621.348 174.856L619.46 169.771L623.88 172.903L628.955 171.011L625.825 175.439L627.714 180.523L623.294 177.388L618.218 179.283L621.348 174.856Z" fill="#F44D99"/>
<path d="M160.745 289.1L158.857 284.015L163.276 287.147L168.352 285.255L165.222 289.683L167.11 294.767L162.69 291.632L157.615 293.528L160.745 289.1Z" fill="#F44D99"/>
<path d="M1077.36 595.521C1077.36 594.407 1078.27 593.5 1079.38 593.5C1080.5 593.5 1081.4 594.407 1081.4 595.521C1081.4 596.639 1080.5 597.547 1079.38 597.547C1078.27 597.547 1077.36 596.639 1077.36 595.521Z" fill="#F44D99"/>
<path d="M1086.05 551.209C1086.05 550.079 1086.96 549.159 1088.09 549.159C1089.22 549.159 1090.13 550.079 1090.13 551.209C1090.13 552.339 1089.22 553.255 1088.09 553.255C1086.96 553.255 1086.05 552.339 1086.05 551.209Z" fill="#FFE843"/>
<path d="M319.085 420.525C319.085 418.901 320.399 417.584 322.025 417.584C323.647 417.584 324.961 418.901 324.961 420.525C324.961 422.15 323.647 423.47 322.025 423.47C320.399 423.47 319.085 422.15 319.085 420.525Z" fill="#E54884"/>
<path d="M311.936 521.173C311.936 518.795 313.861 516.867 316.235 516.867C318.608 516.867 320.533 518.795 320.533 521.173C320.533 523.551 318.608 525.48 316.235 525.48C313.861 525.48 311.936 523.551 311.936 521.173Z" stroke="#4BDFEA" stroke-width="4"/>
<path d="M278.776 471.748C278.776 469.37 280.701 467.442 283.074 467.442C285.448 467.442 287.373 469.37 287.373 471.748C287.373 474.127 285.448 476.055 283.074 476.055C280.701 476.055 278.776 474.127 278.776 471.748Z" stroke="#4BDFEA" stroke-width="4"/>
<path d="M185.758 505.613L180.582 504.012L185.758 502.412L187.351 497.231L188.949 502.412L194.125 504.012L188.949 505.613L187.351 510.794L185.758 505.613Z" fill="#F44D99"/>
<path d="M362.152 443.139L353.32 440.408L362.152 437.678L364.878 428.83L367.603 437.678L376.436 440.408L367.603 443.139L364.878 451.987L362.152 443.139Z" fill="#F44D99"/>
<path d="M936.308 334.943C936.308 333.764 937.262 332.808 938.439 332.808C939.616 332.808 940.57 333.764 940.57 334.943C940.57 336.122 939.616 337.078 938.439 337.078C937.262 337.078 936.308 336.122 936.308 334.943Z" fill="#E54884"/>
<path d="M1806.66 422.66C1805.41 421.947 1804.97 420.351 1805.68 419.095C1806.4 417.839 1807.99 417.402 1809.25 418.119C1810.5 418.832 1810.94 420.428 1810.22 421.684C1809.51 422.94 1807.92 423.377 1806.66 422.66Z" fill="#FFE843"/>
<path d="M967.548 351.343L961.138 349.362L967.548 347.385L969.521 340.964L971.499 347.385L977.904 349.362L971.499 351.343L969.521 357.76L967.548 351.343Z" fill="#F44D99"/>
<path d="M1775.89 31.929C1773.82 30.7541 1773.1 28.1248 1774.28 26.0586C1775.45 23.9884 1778.08 23.2672 1780.14 24.4462C1782.2 25.6211 1782.92 28.2504 1781.75 30.3166C1780.58 32.3828 1777.95 33.1039 1775.89 31.929Z" fill="#4BDFEA"/>
<path d="M1901.67 125.524L1892.84 122.794L1901.67 120.063L1904.4 111.215L1907.12 120.063L1915.95 122.794L1907.12 125.524L1904.4 134.372L1901.67 125.524Z" fill="#F44D99"/>
<path d="M1881.63 9.23392C1882.91 8.24544 1884.76 8.48449 1885.75 9.77276C1886.73 11.061 1886.49 12.9083 1885.21 13.9008C1883.92 14.8893 1882.08 14.6503 1881.09 13.362C1880.1 12.0737 1880.34 10.2265 1881.63 9.23392Z" fill="#E54884"/>
<path d="M1224.7 100.394C1222.64 99.2194 1221.92 96.5902 1223.09 94.5241C1224.27 92.454 1226.89 91.7329 1228.95 92.9118C1231.02 94.0866 1231.74 96.7158 1230.56 98.7819C1229.39 100.848 1226.77 101.569 1224.7 100.394Z" fill="#4BDFEA"/>
<path d="M1330.44 77.6993C1331.73 76.7108 1333.57 76.9499 1334.56 78.2382C1335.55 79.5264 1335.31 81.3738 1334.02 82.3663C1332.74 83.3548 1330.89 83.1157 1329.9 81.8275C1328.92 80.5392 1329.15 78.6919 1330.44 77.6993Z" fill="#E54884"/>
<path d="M1304.03 12.5925C1305.91 11.1422 1308.61 11.4946 1310.05 13.3824C1311.5 15.2662 1311.15 17.9684 1309.27 19.4187C1307.39 20.869 1304.69 20.5165 1303.24 18.6327C1301.79 16.7449 1302.14 14.0428 1304.03 12.5925Z" stroke="#E1E84D" stroke-width="4"/>
<path d="M452.918 39.6342C452.918 37.3978 454.726 35.5869 456.958 35.5869C459.186 35.5869 460.998 37.3978 460.998 39.6342C460.998 41.8706 459.186 43.6815 456.958 43.6815C454.726 43.6815 452.918 41.8706 452.918 39.6342Z" fill="#F44D99"/>
<path d="M419.585 17.9317C419.585 16.4936 420.749 15.3269 422.185 15.3269C423.621 15.3269 424.785 16.4936 424.785 17.9317C424.785 19.3698 423.621 20.5366 422.185 20.5366C420.749 20.5366 419.585 19.3698 419.585 17.9317Z" fill="#FFE843"/>
<path d="M373.657 23.4293C373.657 21.991 374.822 20.8242 376.257 20.8242C377.693 20.8242 378.857 21.991 378.857 23.4293C378.857 24.8675 377.693 26.0343 376.257 26.0343C374.822 26.0343 373.657 24.8675 373.657 23.4293Z" fill="#FFE843"/>
<path d="M413.373 156.37L408.019 154.717L413.373 153.064L415.023 147.696L416.677 153.064L422.031 154.717L416.677 156.37L415.023 161.738L413.373 156.37Z" fill="#FFE843"/>
<path d="M1804.91 636.236C1805.73 635.608 1806.89 635.762 1807.52 636.576C1808.14 637.391 1807.99 638.557 1807.18 639.185C1806.36 639.809 1805.2 639.659 1804.57 638.845C1803.95 638.031 1804.1 636.864 1804.91 636.236Z" fill="#E54884"/>
<path d="M1775.95 637.334C1777.14 636.418 1778.85 636.641 1779.76 637.832C1780.68 639.023 1780.45 640.733 1779.27 641.648C1778.08 642.564 1776.37 642.341 1775.46 641.15C1774.54 639.959 1774.77 638.249 1775.95 637.334Z" stroke="#4BDFEA" stroke-width="2.528"/>
<path d="M1746.52 631.581L1745.33 628.368L1748.12 630.35L1751.33 629.15L1749.35 631.95L1750.55 635.162L1747.75 633.181L1744.54 634.38L1746.52 631.581Z" fill="#F44D99"/>
<path d="M1372.58 250.431C1372.58 248.75 1373.94 247.388 1375.61 247.388C1377.29 247.388 1378.64 248.75 1378.64 250.431C1378.64 252.108 1377.29 253.469 1375.61 253.469C1373.94 253.469 1372.58 252.108 1372.58 250.431Z" stroke="#4BDFEA" stroke-width="2.824"/>
<path d="M1517.24 564.829C1515.83 564.647 1514.84 563.355 1515.02 561.945C1515.21 560.535 1516.5 559.543 1517.9 559.725C1519.31 559.911 1520.3 561.203 1520.12 562.609C1519.93 564.019 1518.64 565.012 1517.24 564.829Z" fill="#E54884"/>
<path d="M1603.55 582.432C1601.49 582.164 1600.04 580.272 1600.31 578.21C1600.57 576.148 1602.46 574.694 1604.52 574.965C1606.58 575.233 1608.03 577.125 1607.76 579.187C1607.49 581.249 1605.6 582.699 1603.55 582.432Z" stroke="#4BDFEA" stroke-width="3.498"/>
<path d="M1546.65 592.143C1544.59 591.871 1543.14 589.983 1543.4 587.921C1543.68 585.859 1545.56 584.405 1547.62 584.672C1549.68 584.944 1551.13 586.832 1550.86 588.894C1550.59 590.956 1548.71 592.41 1546.65 592.143Z" stroke="#4BDFEA" stroke-width="3.498"/>
<path d="M1569.82 626.622L1567.85 630.937L1567.06 626.262L1562.75 624.285L1567.42 623.487L1569.39 619.172L1570.19 623.847L1574.49 625.82L1569.82 626.622Z" fill="#F44D99"/>
<path d="M1392.61 373.349C1392.99 374.742 1392.17 376.181 1390.78 376.561C1389.39 376.946 1387.96 376.128 1387.58 374.734C1387.19 373.341 1388.01 371.902 1389.4 371.522C1390.79 371.137 1392.23 371.955 1392.61 373.349Z" fill="#FFE843"/>
<path d="M1245.49 461.333C1244.47 461.203 1243.76 460.268 1243.89 459.251C1244.03 458.23 1244.96 457.513 1245.97 457.646C1246.99 457.78 1247.71 458.712 1247.57 459.733C1247.44 460.75 1246.51 461.467 1245.49 461.333Z" fill="#E54884"/>
<path d="M1307.87 474.054C1306.38 473.859 1305.33 472.494 1305.52 471.003C1305.72 469.512 1307.08 468.463 1308.57 468.657C1310.05 468.852 1311.11 470.217 1310.91 471.708C1310.72 473.199 1309.35 474.248 1307.87 474.054Z" stroke="#4BDFEA" stroke-width="2.528"/>
<path d="M1266.74 481.071C1265.26 480.876 1264.21 479.511 1264.4 478.02C1264.6 476.529 1265.96 475.48 1267.45 475.674C1268.94 475.869 1269.98 477.234 1269.79 478.725C1269.6 480.216 1268.23 481.265 1266.74 481.071Z" stroke="#4BDFEA" stroke-width="2.528"/>
<path d="M1283.49 505.989L1282.07 509.109L1281.5 505.73L1278.38 504.304L1281.75 503.725L1283.18 500.605L1283.76 503.988L1286.87 505.414L1283.49 505.989Z" fill="#F44D99"/>
<path d="M933.457 444.585C934.322 445.711 934.112 447.328 932.988 448.195C931.864 449.062 930.25 448.851 929.385 447.725C928.519 446.599 928.734 444.982 929.858 444.115C930.982 443.248 932.592 443.459 933.457 444.585Z" fill="#E54884"/>
<path d="M884.853 370.999C886.119 372.648 885.811 375.01 884.165 376.278C882.52 377.546 880.158 377.238 878.892 375.589C877.631 373.94 877.938 371.578 879.584 370.31C881.226 369.042 883.587 369.35 884.853 370.999Z" stroke="#4BDFEA" stroke-width="3.498"/>
<path d="M931.941 404.442C933.207 406.091 932.899 408.452 931.253 409.72C929.608 410.989 927.25 410.681 925.984 409.032C924.718 407.383 925.026 405.021 926.672 403.753C928.317 402.485 930.675 402.793 931.941 404.442Z" stroke="#4BDFEA" stroke-width="3.498"/>
<path d="M939.89 363.638L944.326 361.985L941.588 365.858L943.242 370.302L939.376 367.56L934.94 369.217L937.674 365.344L936.024 360.899L939.89 363.638Z" fill="#F44D99"/>
<path d="M857.654 435.624C857.654 433.039 859.749 430.941 862.329 430.941C864.913 430.941 867.008 433.039 867.008 435.624C867.008 438.212 864.913 440.311 862.329 440.311C859.749 440.311 857.654 438.212 857.654 435.624Z" fill="#F44D99"/>
<path d="M819.063 410.498C819.063 408.833 820.409 407.484 822.071 407.484C823.733 407.484 825.084 408.833 825.084 410.498C825.084 412.167 823.733 413.516 822.071 413.516C820.409 413.516 819.063 412.167 819.063 410.498Z" fill="#FFE843"/>
<path d="M765.892 416.863C765.892 415.198 767.239 413.849 768.901 413.849C770.563 413.849 771.914 415.198 771.914 416.863C771.914 418.532 770.563 419.881 768.901 419.881C767.239 419.881 765.892 418.532 765.892 416.863Z" fill="#FFE843"/>
<path d="M0.0617678 9.95878C0.0617679 8.79605 1.00413 7.85211 2.16479 7.85211C3.32546 7.85211 4.26367 8.79605 4.26367 9.95878C4.26367 11.1175 3.32546 12.0614 2.16479 12.0614C1.00413 12.0614 0.0617677 11.1175 0.0617678 9.95878Z" fill="#F44D99"/>
<path d="M1071.71 322.028C1071.71 319.338 1073.89 317.159 1076.58 317.159C1079.27 317.159 1081.44 319.338 1081.44 322.028C1081.44 324.722 1079.27 326.902 1076.58 326.902C1073.89 326.902 1071.71 324.722 1071.71 322.028Z" fill="#F44D99"/>
<path d="M1422.62 263.484C1422.62 261.754 1424.02 260.348 1425.75 260.348C1427.48 260.348 1428.88 261.754 1428.88 263.484C1428.88 265.218 1427.48 266.624 1425.75 266.624C1424.02 266.624 1422.62 265.218 1422.62 263.484Z" fill="#FFE843"/>
<path d="M977.992 301.654C977.992 300.399 979.011 299.378 980.265 299.378C981.518 299.378 982.533 300.399 982.533 301.654C982.533 302.91 981.518 303.931 980.265 303.931C979.011 303.931 977.992 302.91 977.992 301.654Z" fill="#FFE843"/>
<path d="M1024.1 462.601L1017.65 460.608L1024.1 458.619L1026.09 452.157L1028.07 458.619L1034.52 460.608L1028.07 462.601L1026.09 469.063L1024.1 462.601Z" fill="#FFE843"/>
<path d="M710.232 438.452C709.399 438.452 708.724 437.775 708.724 436.941C708.724 436.106 709.399 435.425 710.232 435.425C711.065 435.425 711.74 436.106 711.74 436.941C711.74 437.775 711.065 438.452 710.232 438.452Z" fill="#FFE843"/>
<path d="M550.745 549.277C549.876 549.277 549.172 548.572 549.172 547.701C549.172 546.83 549.876 546.125 550.745 546.125C551.615 546.125 552.318 546.83 552.318 547.701C552.318 548.572 551.615 549.277 550.745 549.277Z" fill="#E54884"/>
<path d="M562.841 526.156L561.381 530.9L559.921 526.156L555.186 524.694L559.921 523.231L561.381 518.492L562.841 523.231L567.572 524.694L562.841 526.156Z" fill="#F44D99"/>
<path d="M541.222 449.058C539.24 449.058 537.631 447.445 537.631 445.46C537.631 443.471 539.24 441.859 541.222 441.859C543.207 441.859 544.816 443.471 544.816 445.46C544.816 447.445 543.207 449.058 541.222 449.058Z" fill="#F44D99"/>
<path d="M526.199 518.427C525.273 518.427 524.521 517.673 524.521 516.745C524.521 515.818 525.273 515.064 526.199 515.064C527.125 515.064 527.877 515.818 527.877 516.745C527.877 517.673 527.125 518.427 526.199 518.427Z" fill="#FFE843"/>
<path d="M644.89 484.303L643.418 489.076L641.95 484.303L637.187 482.833L641.95 481.358L643.418 476.586L644.89 481.358L649.654 482.833L644.89 484.303Z" fill="#FFE843"/>
<path d="M1794.21 251.44C1794.21 248.867 1796.29 246.777 1798.87 246.777C1801.44 246.777 1803.52 248.867 1803.52 251.44C1803.52 254.02 1801.44 256.111 1798.87 256.111C1796.29 256.111 1794.21 254.02 1794.21 251.44Z" fill="#FFE843"/>
<path d="M1085.31 134.36C1085.31 131.787 1087.39 129.697 1089.97 129.697C1092.54 129.697 1094.62 131.787 1094.62 134.36C1094.62 136.94 1092.54 139.031 1089.97 139.031C1087.39 139.031 1085.31 136.94 1085.31 134.36Z" fill="#FFE843"/>
<path d="M1865.34 489.57L1855.75 486.609L1865.34 483.643L1868.31 474.034L1871.26 483.643L1880.86 486.609L1871.26 489.57L1868.31 499.184L1865.34 489.57Z" fill="#FFE843"/>
<path d="M1694.47 567.957C1694.47 565.287 1696.63 563.124 1699.29 563.124C1701.96 563.124 1704.12 565.287 1704.12 567.957C1704.12 570.623 1701.96 572.786 1699.29 572.786C1696.63 572.786 1694.47 570.623 1694.47 567.957Z" stroke="#4BDFEA" stroke-width="4.489"/>
<path d="M1657.26 512.496C1657.26 509.826 1659.42 507.663 1662.08 507.663C1664.75 507.663 1666.91 509.826 1666.91 512.496C1666.91 515.161 1664.75 517.325 1662.08 517.325C1659.42 517.325 1657.26 515.161 1657.26 512.496Z" stroke="#4BDFEA" stroke-width="4.489"/>
<path d="M82.8282 196.55C82.8282 194.313 84.6359 192.503 86.8642 192.503C89.0965 192.503 90.9043 194.313 90.9043 196.55C90.9043 198.782 89.0965 200.593 86.8642 200.593C84.6359 200.593 82.8282 198.782 82.8282 196.55Z" fill="#F44D99"/>
<path d="M258.406 207.82C258.406 205.77 260.064 204.109 262.106 204.109C264.152 204.109 265.811 205.77 265.811 207.82C265.811 209.866 264.152 211.527 262.106 211.527C260.064 211.527 258.406 209.866 258.406 207.82Z" fill="#FFE843"/>
<path d="M199.11 76.2772C199.11 73.8991 201.035 71.9749 203.408 71.9749C205.782 71.9749 207.707 73.8991 207.707 76.2772C207.707 78.6553 205.782 80.5837 203.408 80.5837C201.035 80.5837 199.11 78.6553 199.11 76.2772Z" stroke="#4BDFEA" stroke-width="6"/>
<path d="M121.229 105.867C119.976 105.15 119.539 103.554 120.255 102.298C120.966 101.046 122.559 100.605 123.813 101.322C125.066 102.035 125.503 103.631 124.791 104.887C124.076 106.143 122.483 106.58 121.229 105.867Z" fill="#FFE843"/>
<path d="M132.835 404.855L131.541 400.885L127.578 399.588L131.541 398.296L132.835 394.322L134.125 398.296L138.092 399.588L134.125 400.885L132.835 404.855Z" fill="#FFE843"/>
<path d="M1563.89 134.83C1563.02 133.732 1619.05 87.4507 1620.42 86.3569L1701.88 21.1244C1703.26 20.0265 1705.87 19.8239 1705.45 21.25C1705.04 22.68 1706.4 24.0007 1705.03 25.0946L1625.23 88.8686" fill="url(#paint2_linear_20_385)"/>
<path d="M1211.67 758.716C1210.8 757.618 1266.82 711.337 1268.2 710.244L1349.66 645.011C1351.04 643.913 1353.64 643.71 1353.23 645.136C1352.81 646.567 1354.18 647.887 1352.81 648.981L1273.01 712.755" fill="url(#paint3_linear_20_385)"/>
<path d="M305.425 701.594C304.556 700.496 360.584 654.215 361.955 653.121L443.416 587.885C444.795 586.791 447.403 586.588 446.987 588.014C446.57 589.444 447.937 590.765 446.566 591.859L366.767 655.633" fill="url(#paint4_linear_20_385)"/>
<path d="M170.096 68.0777C169.38 67.1743 215.582 29.0119 216.714 28.1085L283.888 -25.6835C285.02 -26.587 287.175 -26.7531 286.832 -25.5782L286.828 -25.5742C286.484 -24.3952 287.612 -23.3095 286.48 -22.4061L220.681 30.1827" fill="url(#paint5_linear_20_385)"/>
<path d="M55.5398 53.2097C61.4925 47.2503 71.1333 47.2422 77.0779 53.1975C83.0225 59.1488 83.0143 68.8109 77.0617 74.7703C71.1131 80.7337 61.4683 80.7418 55.5278 74.7865C49.5832 68.8312 49.5912 59.1731 55.5398 53.2097Z" fill="#FFBC4A"/>
<path d="M74.7162 51.3141C75.2378 51.8368 75.1449 52.7807 74.4857 53.441C73.8306 54.0973 72.8885 54.1904 72.3668 53.6678L69.5319 50.832C69.0386 50.3377 68.2056 50.3702 67.5505 51.0265C67.0571 51.5248 66.7821 52.258 67.1056 52.5821L77.0011 62.4994C77.5673 63.0626 77.3771 64.1726 76.718 64.8289C76.0629 65.4892 74.9548 65.6796 74.3927 65.1124L66.871 57.5813C66.4747 57.1843 65.5528 57.5084 64.9867 58.0756C64.461 58.6022 64.6065 58.9749 64.4407 59.854L68.5654 63.9822C69.0385 64.4603 68.9052 65.3636 68.25 66.024C67.5949 66.6803 66.6892 66.814 66.216 66.3359L60.8417 60.9559C60.4373 60.5508 59.6931 60.64 59.0339 61.2963C58.5082 61.8229 58.2293 62.5238 58.5245 62.8195L64.1575 68.4628C64.6145 68.9206 64.3356 69.9415 63.6805 70.6018C63.0254 71.2581 62.0022 71.5337 61.5452 71.0759L55.9929 65.5176C55.5723 65.0962 54.8161 65.1692 54.1569 65.8295C53.6312 66.3562 53.3644 67.0652 53.6676 67.369L56.7531 70.4601C57.1737 70.8814 56.9958 71.7403 56.3367 72.3966C55.6816 73.0569 54.8242 73.2351 54.3996 72.8138L53.6232 72.0319C54.1125 73.0447 54.8121 73.8996 55.6128 74.7017C61.5533 80.657 71.1535 80.6893 77.1062 74.73C83.0588 68.7666 83.0629 59.1087 77.1224 53.1534C76.2691 52.2986 75.157 51.7557 74.3603 50.9616L74.7162 51.3141Z" fill="#FF9151"/>
<path d="M707.823 81.5681C713.776 75.6088 723.416 75.6007 729.361 81.556C735.306 87.5072 735.298 97.1694 729.345 103.129C723.396 109.092 713.751 109.1 707.811 103.145C701.866 97.1897 701.874 87.5316 707.823 81.5681Z" fill="#FFBC4A"/>
<path d="M726.999 79.6726C727.521 80.1952 727.428 81.1391 726.769 81.7995C726.114 82.4558 725.172 82.5489 724.65 82.0263L721.815 79.1904C721.322 78.6962 720.489 78.7287 719.834 79.385C719.34 79.8833 719.065 80.6165 719.389 80.9406L729.284 90.8579C729.85 91.4211 729.66 92.5311 729.001 93.1874C728.346 93.8477 727.238 94.0381 726.676 93.4709L719.154 85.9398C718.758 85.5428 717.836 85.8669 717.27 86.434C716.744 86.9607 716.89 87.3334 716.724 88.2125L720.849 92.3407C721.322 92.8188 721.188 93.7221 720.533 94.3825C719.878 95.0388 718.972 95.1725 718.499 94.6944L713.125 89.3144C712.72 88.9093 711.976 88.9984 711.317 89.6547C710.792 90.1814 710.512 90.8823 710.808 91.178L716.441 96.8213C716.898 97.2791 716.619 98.3 715.964 98.9603C715.309 99.6166 714.285 99.8922 713.828 99.4344L708.276 93.8761C707.856 93.4547 707.099 93.5277 706.44 94.188C705.915 94.7147 705.648 95.4236 705.951 95.7275L709.037 98.8186C709.457 99.2399 709.279 100.099 708.62 100.755C707.965 101.415 707.108 101.594 706.683 101.172L705.907 100.39C706.396 101.403 707.095 102.258 707.896 103.06C713.837 109.015 723.437 109.048 729.389 103.088C735.342 97.1251 735.346 87.4671 729.406 81.5119C728.552 80.6571 727.44 80.1141 726.644 79.3201L726.999 79.6726Z" fill="#FF9151"/>
<path d="M848.518 535.701C856.052 528.154 868.252 528.145 875.774 535.681C883.296 543.216 883.288 555.443 875.758 562.986C868.224 570.533 856.024 570.541 848.498 563.006C840.976 555.471 840.988 543.244 848.518 535.701Z" fill="#FFBC4A"/>
<path d="M872.786 533.297C873.449 533.961 873.328 535.157 872.499 535.987C871.666 536.818 870.473 536.939 869.814 536.279L866.227 532.685C865.604 532.061 864.549 532.102 863.72 532.932C863.093 533.56 862.745 534.492 863.153 534.905L875.681 547.452C876.397 548.169 876.151 549.571 875.322 550.401C874.493 551.236 873.089 551.479 872.378 550.762L862.858 541.229C862.357 540.723 861.188 541.136 860.472 541.853C859.805 542.522 859.995 542.992 859.785 544.106L865.002 549.332C865.604 549.935 865.434 551.082 864.601 551.912C863.772 552.743 862.628 552.913 862.025 552.309L855.227 545.499C854.714 544.985 853.772 545.098 852.943 545.933C852.275 546.597 851.924 547.484 852.296 547.857L859.421 554.999C860.003 555.579 859.651 556.875 858.818 557.706C857.989 558.536 856.695 558.889 856.117 558.309L849.093 551.272C848.559 550.738 847.601 550.835 846.768 551.665C846.1 552.334 845.765 553.233 846.149 553.618L850.051 557.527C850.581 558.062 850.359 559.148 849.525 559.982C848.696 560.813 847.609 561.04 847.075 560.505L846.092 559.521C846.707 560.801 847.597 561.883 848.608 562.895C856.129 570.431 868.281 570.475 875.811 562.932C883.345 555.384 883.353 543.162 875.831 535.622C874.751 534.545 873.344 533.856 872.337 532.847L872.786 533.297Z" fill="#FF9151"/>
<path d="M1208.86 305.916C1208.86 314.355 1202.04 321.193 1193.63 321.193C1185.21 321.193 1178.4 314.355 1178.4 305.916C1178.4 297.482 1185.21 290.639 1193.63 290.639C1202.04 290.639 1208.86 297.482 1208.86 305.916Z" fill="#6679BF"/>
<path d="M1190.2 312.641C1190.2 310.741 1191.73 309.202 1193.63 309.202C1195.52 309.202 1197.06 310.741 1197.06 312.641C1197.06 314.541 1195.52 316.081 1193.63 316.081C1191.73 316.081 1190.2 314.541 1190.2 312.641Z" fill="#303B72"/>
<path d="M1194.25 316.081C1194.25 314.699 1195.37 313.577 1196.74 313.577C1198.12 313.577 1199.24 314.699 1199.24 316.081C1199.24 317.462 1198.12 318.584 1196.74 318.584C1195.37 318.584 1194.25 317.462 1194.25 316.081Z" fill="#303B72"/>
<path d="M1197.21 298.081C1197.21 296.959 1198.12 296.047 1199.24 296.047C1200.36 296.047 1201.26 296.959 1201.26 298.081C1201.26 299.203 1200.36 300.111 1199.24 300.111C1198.12 300.111 1197.21 299.203 1197.21 298.081Z" fill="#303B72"/>
<path d="M1181.89 307.662C1181.89 306.799 1182.59 306.103 1183.45 306.103C1184.31 306.103 1185 306.799 1185 307.662C1185 308.525 1184.31 309.226 1183.45 309.226C1182.59 309.226 1181.89 308.525 1181.89 307.662Z" fill="#303B72"/>
<path d="M1185.05 298.097C1185.05 296.282 1186.52 294.812 1188.32 294.812C1190.13 294.812 1191.6 296.282 1191.6 298.097C1191.6 299.912 1190.13 301.383 1188.32 301.383C1186.52 301.383 1185.05 299.912 1185.05 298.097Z" fill="#303B72"/>
<path d="M106.08 461.483C106.08 469.921 99.2622 476.76 90.8509 476.76C82.4395 476.76 75.6215 469.921 75.6215 461.483C75.6215 453.048 82.4395 446.206 90.8509 446.206C99.2622 446.206 106.08 453.048 106.08 461.483Z" fill="#6679BF"/>
<path d="M87.4208 468.208C87.4208 466.308 88.9575 464.768 90.85 464.768C92.7426 464.768 94.2793 466.308 94.2793 468.208C94.2793 470.108 92.7426 471.647 90.85 471.647C88.9575 471.647 87.4208 470.108 87.4208 468.208Z" fill="#303B72"/>
<path d="M91.4727 471.647C91.4727 470.266 92.5928 469.143 93.9678 469.143C95.3468 469.143 96.4629 470.266 96.4629 471.647C96.4629 473.028 95.3468 474.151 93.9678 474.151C92.5928 474.151 91.4727 473.028 91.4727 471.647Z" fill="#303B72"/>
<path d="M94.4377 453.648C94.4377 452.525 95.3438 451.614 96.4641 451.614C97.5844 451.614 98.4902 452.525 98.4902 453.648C98.4902 454.77 97.5844 455.677 96.4641 455.677C95.3438 455.677 94.4377 454.77 94.4377 453.648Z" fill="#303B72"/>
<path d="M79.1189 463.229C79.1189 462.366 79.8146 461.669 80.6718 461.669C81.5331 461.669 82.2285 462.366 82.2285 463.229C82.2285 464.092 81.5331 464.792 80.6718 464.792C79.8146 464.792 79.1189 464.092 79.1189 463.229Z" fill="#303B72"/>
<path d="M82.2772 453.664C82.2772 451.849 83.741 450.378 85.5486 450.378C87.3563 450.378 88.8242 451.849 88.8242 453.664C88.8242 455.479 87.3563 456.949 85.5486 456.949C83.741 456.949 82.2772 455.479 82.2772 453.664Z" fill="#303B72"/>
<path d="M1125.22 37.4019C1128.69 27.7722 1139.3 22.7973 1148.9 26.2895C1158.5 29.7816 1163.46 40.42 1159.98 50.0498C1156.5 59.6795 1145.9 64.6544 1136.29 61.1663C1126.69 57.6701 1121.73 47.0316 1125.22 37.4019Z" fill="#FFA283"/>
<path d="M1132.74 38.8436L1147.19 44.1021C1147.58 44.5031 1147.77 45.0217 1147.58 45.5484C1147.33 46.2452 1146.55 46.5814 1145.83 46.3221L1141.69 44.8191C1140.93 44.5396 1140.11 44.8758 1139.85 45.5726C1139.6 46.2694 1140.02 47.0554 1140.78 47.3309L1144.85 48.8095C1144.31 48.7447 1143.75 49.1377 1143.53 49.7373C1143.28 50.4341 1143.58 51.1917 1144.19 51.4146L1148.69 53.0552C1149.05 53.4441 1149.21 53.9992 1149.01 54.5583C1148.76 55.2551 1148.05 55.6643 1147.43 55.4415L1139.33 52.4962C1138.66 52.2531 1137.91 52.6177 1137.66 53.3105C1137.41 54.0073 1137.75 54.7689 1138.42 55.012L1146.64 58.0019C1147.03 58.2733 1147.16 58.8809 1146.96 59.4359C1146.7 60.1327 1146.03 60.4974 1145.44 60.2786L1137.59 57.4265C1136.9 57.1753 1136.13 57.5318 1135.88 58.2287C1135.63 58.9214 1135.99 59.6911 1136.68 59.9423L1142.71 62.13C1142.76 62.1544 1142.8 62.2233 1142.85 62.2678C1150.32 62.1665 1157.29 57.5035 1159.98 50.0452C1163.46 40.4114 1158.5 29.7769 1148.9 26.2848C1148.09 25.989 1147.28 25.7176 1146.46 25.5393C1146.22 26.228 1146.54 26.9126 1147.14 27.1355L1151.64 28.7722C1152 29.1611 1152.16 29.7201 1151.96 30.2752C1151.71 30.972 1151 31.3853 1150.38 31.1625L1142.28 28.2132C1141.61 27.9701 1140.87 28.3347 1140.61 29.0315C1140.36 29.7243 1140.7 30.4859 1141.37 30.729L1149.59 33.7187C1149.94 34.1036 1150.09 34.6546 1149.89 35.2137C1149.63 35.9105 1148.94 36.3278 1148.35 36.1131L1140.51 33.261C1139.81 33.0057 1139.05 33.3663 1138.8 34.0631C1138.54 34.7559 1138.9 35.5215 1139.6 35.7768L1145.61 37.9644C1146.09 38.2682 1146.28 38.9165 1146.08 39.4756C1145.86 40.0752 1145.25 40.4195 1144.63 40.3222L1133.65 36.3278C1132.83 36.028 1131.96 36.348 1131.7 37.0449C1131.45 37.7417 1131.92 38.5438 1132.74 38.8436Z" fill="#FE5E78"/>
<path d="M1829.66 387.832C1833.14 378.202 1843.75 373.227 1853.35 376.72C1862.95 380.212 1867.91 390.85 1864.43 400.48C1860.95 410.11 1850.35 415.084 1840.74 411.596C1831.14 408.1 1826.18 397.462 1829.66 387.832Z" fill="#FFA283"/>
<path d="M1837.19 389.274L1851.64 394.533C1852.03 394.934 1852.22 395.452 1852.03 395.979C1851.78 396.676 1851 397.012 1850.28 396.753L1846.14 395.246C1845.38 394.97 1844.55 395.307 1844.3 396.003C1844.05 396.7 1844.47 397.486 1845.23 397.762L1849.3 399.24C1848.76 399.176 1848.2 399.568 1847.98 400.168C1847.73 400.865 1848.02 401.622 1848.63 401.845L1853.14 403.486C1853.5 403.875 1853.66 404.43 1853.46 404.989C1853.21 405.686 1852.5 406.095 1851.88 405.872L1843.78 402.927C1843.11 402.684 1842.36 403.048 1842.11 403.741C1841.86 404.438 1842.2 405.2 1842.87 405.443L1851.09 408.433C1851.48 408.7 1851.61 409.312 1851.4 409.867C1851.15 410.563 1850.48 410.928 1849.89 410.709L1842.04 407.857C1841.35 407.606 1840.58 407.963 1840.33 408.659C1840.08 409.352 1840.44 410.122 1841.13 410.373L1847.15 412.561C1847.21 412.585 1847.25 412.654 1847.3 412.698C1854.77 412.597 1861.74 407.934 1864.43 400.476C1867.91 390.842 1862.95 380.208 1853.35 376.716C1852.54 376.42 1851.73 376.148 1850.91 375.97C1850.67 376.659 1850.98 377.343 1851.59 377.566L1856.09 379.203C1856.45 379.592 1856.61 380.151 1856.41 380.706C1856.16 381.403 1855.44 381.816 1854.83 381.593L1846.73 378.644C1846.06 378.401 1845.31 378.765 1845.06 379.462C1844.81 380.155 1845.15 380.917 1845.82 381.16L1854.04 384.15C1854.39 384.534 1854.53 385.085 1854.34 385.644C1854.08 386.341 1853.39 386.759 1852.8 386.544L1844.95 383.692C1844.26 383.437 1843.49 383.797 1843.24 384.494C1842.99 385.187 1843.35 385.952 1844.04 386.208L1850.06 388.395C1850.54 388.699 1850.73 389.347 1850.53 389.906C1850.31 390.506 1849.7 390.85 1849.08 390.753L1838.1 386.758C1837.28 386.459 1836.41 386.779 1836.15 387.476C1835.9 388.172 1836.37 388.975 1837.19 389.274Z" fill="#FE5E78"/>
</g>
<defs>
<linearGradient id="paint0_linear_20_385" x1="2470.98" y1="184.376" x2="1445.48" y2="184.376" gradientUnits="userSpaceOnUse">
<stop stop-color="white"/>
<stop offset="1" stop-color="white" stop-opacity="0.01"/>
</linearGradient>
<linearGradient id="paint1_linear_20_385" x1="497.185" y1="-798.419" x2="-681.352" y2="-798.419" gradientUnits="userSpaceOnUse">
<stop stop-color="white" stop-opacity="0.01"/>
<stop offset="1" stop-color="white"/>
</linearGradient>
<linearGradient id="paint2_linear_20_385" x1="1693.97" y1="121.481" x2="1564.65" y2="135.451" gradientUnits="userSpaceOnUse">
<stop stop-color="white"/>
<stop offset="1" stop-color="#2AB0FF"/>
</linearGradient>
<linearGradient id="paint3_linear_20_385" x1="1341.74" y1="745.368" x2="1212.42" y2="759.338" gradientUnits="userSpaceOnUse">
<stop stop-color="white"/>
<stop offset="1" stop-color="#2AB0FF"/>
</linearGradient>
<linearGradient id="paint4_linear_20_385" x1="435.504" y1="688.246" x2="306.18" y2="702.216" gradientUnits="userSpaceOnUse">
<stop stop-color="white"/>
<stop offset="1" stop-color="#2AB0FF"/>
</linearGradient>
<linearGradient id="paint5_linear_20_385" x1="277.346" y1="57.2007" x2="170.706" y2="68.7209" gradientUnits="userSpaceOnUse">
<stop stop-color="white"/>
<stop offset="1" stop-color="#2AB0FF"/>
</linearGradient>
<clipPath id="clip0_20_385">
<rect width="1916.01" height="662" fill="white" transform="translate(1916.01 662) rotate(-180)"/>
</clipPath>
</defs>
</svg>
