<svg width="626" height="468" viewBox="0 0 626 468" fill="none" xmlns="http://www.w3.org/2000/svg">
<path d="M244.201 337.971C226.271 328.134 226.099 311.939 243.82 301.981C261.541 292.024 290.089 291.941 307.259 301.796C324.43 311.652 324.602 327.847 307.64 337.786C290.679 347.724 262.131 347.808 244.201 337.971Z" fill="#E7F6FD"/>
<path d="M329.088 274.747C315.029 267.034 314.894 254.335 328.789 246.528C342.684 238.72 365.068 238.655 378.532 246.383C391.996 254.11 392.13 266.809 378.83 274.602C365.531 282.395 343.147 282.46 329.088 274.747Z" fill="#E7F6FD"/>
<g opacity="0.46">
<path opacity="0.46" d="M249.451 205.454L181.926 244.213C179.367 245.682 176.172 243.841 176.172 240.897V220.063C176.172 218.694 176.905 217.429 178.095 216.746L245.62 177.988C248.179 176.519 251.374 178.36 251.374 181.304V202.138C251.374 203.507 250.64 204.771 249.451 205.454Z" fill="#CDE9F9"/>
</g>
<g opacity="0.46">
<path opacity="0.46" d="M332.904 173.309L265.38 212.068C262.82 213.537 259.625 211.695 259.625 208.751V187.917C259.625 186.549 260.358 185.284 261.548 184.601L329.073 145.842C331.632 144.373 334.827 146.215 334.827 149.159V169.993C334.827 171.361 334.094 172.626 332.904 173.309Z" fill="#CDE9F9"/>
</g>
<g opacity="0.46">
<path opacity="0.46" d="M339.218 131.281L271.694 170.039C269.135 171.508 265.939 169.667 265.939 166.723V145.889C265.939 144.52 266.673 143.256 267.863 142.573L335.387 103.814C337.946 102.345 341.142 104.187 341.142 107.13V127.964C341.141 129.333 340.408 130.598 339.218 131.281Z" fill="#CDE9F9"/>
</g>
<g opacity="0.49">
<path opacity="0.49" d="M387.779 111.81V161.324C387.779 163.745 389.075 165.981 391.177 167.192L457.644 205.461C462.176 208.07 467.843 204.81 467.843 199.593V149.801C467.843 147.373 466.54 145.13 464.426 143.922L397.959 105.932C393.427 103.341 387.779 106.603 387.779 111.81Z" fill="#E7F6FD"/>
</g>
<g opacity="0.49">
<path opacity="0.49" d="M381.035 117.389V166.902C381.035 169.323 382.331 171.56 384.433 172.77L450.9 211.039C455.432 213.649 461.099 210.388 461.099 205.171V155.38C461.099 152.952 459.795 150.709 457.682 149.501L391.215 111.51C386.683 108.92 381.035 112.181 381.035 117.389Z" fill="url(#paint0_linear_20_1541)"/>
</g>
<path d="M431.349 146.165C428.241 144.295 425.471 144.861 424.458 146.465C424.276 146.754 423.813 146.507 423.615 146C422.574 143.329 419.879 139.265 416.817 137.422C414.804 136.211 412.975 136.033 411.589 136.701L411.581 136.692L411.418 136.786C411.348 136.824 410.697 137.194 410.631 137.236L402.061 142.146C402.061 142.146 408.805 164.733 408.992 165.728C409.179 166.723 417.288 180.256 417.288 180.256L426.124 175.191C426.227 175.146 426.327 175.092 426.421 175.021L436.312 167.557C438.128 166.171 439.132 163.577 439.132 160.264C439.132 155.064 435.647 148.751 431.349 146.165Z" fill="url(#paint1_linear_20_1541)"/>
<path d="M410.351 136.708C410.399 136.676 411.076 136.291 411.148 136.251L411.743 135.911C413.287 135.37 415.195 135.751 417.106 136.9C420.18 138.75 422.978 142.763 424.151 145.772C424.161 145.798 424.172 145.821 424.183 145.842C425.451 144.263 428.369 143.675 431.637 145.643C436.088 148.321 439.71 154.879 439.71 160.264C439.71 163.777 438.623 166.54 436.652 168.043L426.759 175.509C426.64 175.599 426.506 175.677 426.348 175.746L417.086 181.059L416.797 180.575C414.881 177.378 408.615 166.867 408.423 165.842C408.291 165.137 404.214 151.391 401.507 142.324L401.367 141.854L410.351 136.708ZM409.559 165.611C409.789 166.42 414.425 174.328 417.489 179.453L425.845 174.662C425.974 174.602 426.032 174.569 426.08 174.533L435.972 167.068C437.635 165.8 438.552 163.383 438.552 160.264C438.552 155.264 435.191 149.174 431.059 146.688C428.213 144.976 425.781 145.466 424.942 146.797C424.872 146.907 424.778 146.989 424.675 147.055L428.164 152.139L422.305 158.439L412.273 160.506C412.273 160.506 408.416 153.42 408.416 151.988C408.416 150.556 410.026 144.534 410.026 144.534L418.412 139.411C417.803 138.84 417.171 138.331 416.527 137.945C414.767 136.886 413.098 136.638 411.831 137.248L411.696 137.314C411.62 137.356 411.012 137.702 410.93 137.753L402.753 142.437C403.889 146.243 409.381 164.663 409.559 165.611Z" fill="url(#paint2_linear_20_1541)"/>
<path d="M431.304 146.298C429.221 145.044 427.304 144.901 425.952 145.416L425.937 145.401L425.812 145.474C425.544 145.589 425.303 145.727 425.088 145.894L417.043 150.555L412.877 164.156L417.041 179.629C417.145 180.017 417.569 180.202 417.908 180.008L426.081 175.323C426.184 175.277 426.284 175.223 426.377 175.153L436.268 167.688C438.085 166.303 439.088 163.708 439.088 160.396C439.088 155.196 435.603 148.884 431.304 146.298Z" fill="url(#paint3_linear_20_1541)"/>
<path d="M416.562 150.144L424.807 145.366C424.992 145.217 425.278 145.05 425.591 144.916L426.022 144.663L426.096 144.734C427.716 144.26 429.695 144.632 431.594 145.775C436.045 148.453 439.666 155.012 439.666 160.397C439.666 163.91 438.58 166.673 436.609 168.175L426.716 175.642C426.597 175.732 426.462 175.809 426.305 175.878L418.187 180.537C418.046 180.618 417.894 180.657 417.739 180.673L417.628 180.744L417.61 180.687C417.458 180.686 417.308 180.656 417.163 180.593C416.83 180.448 416.581 180.157 416.483 179.793L412.273 164.144L416.562 150.144ZM431.015 146.82C429.277 145.773 427.504 145.469 426.15 145.983L426.051 146.02C425.787 146.14 425.597 146.251 425.433 146.378L417.525 150.966L413.481 164.167L416.609 175.796L421.148 171.889L427.432 157.415L436.117 152.334C434.778 150.017 432.987 148.006 431.015 146.82Z" fill="url(#paint4_linear_20_1541)"/>
<path d="M416.343 180.367C415.142 180.367 413.666 179.12 412.754 177.334L402.869 157.971C401.054 154.417 400.055 150.651 400.055 147.365C400.055 143.894 401.639 141.738 404.189 141.738C405.244 141.738 406.385 142.104 407.583 142.824C410.476 144.565 413.203 148.493 414.3 151.305C414.463 151.725 414.796 152.018 415.108 152.018C415.268 152.018 415.404 151.942 415.491 151.804C416.045 150.926 417.119 150.423 418.436 150.423C419.598 150.423 420.87 150.819 422.114 151.568C426.354 154.119 429.803 160.368 429.803 165.499C429.803 168.752 428.828 171.287 427.059 172.637L417.169 180.101C416.936 180.277 416.658 180.367 416.343 180.367Z" fill="url(#paint5_linear_20_1541)"/>
<path d="M404.189 141.543L404.19 141.933C405.194 141.933 406.333 142.299 407.482 142.991C410.339 144.71 413.034 148.594 414.118 151.376C414.313 151.877 414.711 152.213 415.108 152.213C415.334 152.213 415.534 152.102 415.657 151.908C416.175 151.088 417.188 150.618 418.437 150.618C419.563 150.618 420.8 151.004 422.014 151.735C426.201 154.254 429.608 160.429 429.608 165.499C429.608 168.691 428.661 171.171 426.943 172.481L417.052 179.945C416.853 180.096 416.614 180.172 416.343 180.172C415.231 180.172 413.795 178.941 412.929 177.246L403.044 157.883C401.243 154.356 400.251 150.621 400.251 147.365C400.251 144.015 401.76 141.933 404.189 141.933V141.543ZM404.19 141.543C401.622 141.543 399.859 143.676 399.859 147.365C399.859 150.678 400.868 154.482 402.695 158.06L412.58 177.422C413.556 179.334 415.111 180.562 416.343 180.562C416.691 180.562 417.013 180.464 417.288 180.256L427.179 172.791C428.996 171.405 429.999 168.811 429.999 165.499C429.999 160.299 426.514 153.987 422.216 151.4C420.851 150.579 419.551 150.228 418.437 150.228C417.014 150.228 415.894 150.8 415.325 151.7C415.272 151.784 415.195 151.823 415.108 151.823C414.895 151.823 414.622 151.594 414.482 151.235C413.441 148.563 410.746 144.499 407.684 142.657C406.429 141.901 405.241 141.543 404.19 141.543Z" fill="white"/>
<path d="M416.346 181.166C416.141 181.166 415.929 181.139 415.71 181.086C414.363 180.761 412.967 179.466 412.068 177.705L402.184 158.343C400.312 154.677 399.281 150.778 399.281 147.365C399.281 144.625 400.198 142.565 401.862 141.564C403.526 140.563 405.695 140.765 407.974 142.135C411.048 143.985 413.845 147.999 415.018 151.008C415.029 151.033 415.04 151.056 415.05 151.077C416.318 149.5 419.237 148.911 422.505 150.878C426.956 153.557 430.577 160.115 430.577 165.499C430.577 169.013 429.491 171.776 427.52 173.278L427.518 173.28L417.627 180.745C417.258 181.024 416.821 181.166 416.346 181.166ZM404.192 142.144C403.547 142.144 402.957 142.298 402.44 142.608C401.149 143.385 400.439 145.075 400.439 147.365C400.439 150.584 401.421 154.282 403.205 157.776L413.09 177.139C413.825 178.578 414.957 179.667 415.972 179.912C416.365 180.006 416.695 179.959 416.949 179.767L426.839 172.303C428.503 171.033 429.42 168.617 429.42 165.499C429.42 160.499 426.059 154.409 421.927 151.923C419.081 150.21 416.65 150.7 415.81 152.032C415.634 152.309 415.332 152.449 415.02 152.422C414.578 152.377 414.157 151.999 413.947 151.462C412.875 148.713 410.214 144.875 407.395 143.18C406.253 142.492 405.161 142.144 404.192 142.144Z" fill="url(#paint6_linear_20_1541)"/>
<path d="M387.369 265.181V271.385C387.369 272.914 388.187 274.327 389.515 275.091L408.029 285.746C409.707 286.712 411.775 286.712 413.454 285.746L482.714 245.884C484.042 245.119 484.861 243.706 484.861 242.176V235.679C484.861 235.679 460.693 236.311 455.593 238.598C450.493 240.885 387.369 265.181 387.369 265.181Z" fill="url(#paint7_linear_20_1541)"/>
<path d="M388.477 267.076L406.34 277.391C409.063 278.963 412.421 278.965 415.146 277.397L483.478 238.068C485.323 237.006 485.322 234.353 483.477 233.292L468.016 224.403C464.284 222.257 459.688 222.259 455.957 224.406L388.48 263.243C387 264.094 386.999 266.222 388.477 267.076Z" fill="#E7F6FD"/>
<path d="M410.748 278.376C409.236 278.376 407.746 277.977 406.438 277.222L388.575 266.907C387.942 266.541 387.564 265.888 387.564 265.159C387.565 264.429 387.944 263.776 388.577 263.411L456.055 224.575C457.856 223.538 459.908 222.99 461.989 222.99C464.067 222.99 466.118 223.537 467.918 224.572L483.379 233.461C484.184 233.924 484.665 234.753 484.665 235.68C484.665 236.607 484.185 237.436 483.38 237.899L415.048 277.228C413.743 277.979 412.256 278.376 410.749 278.376C410.748 278.376 410.748 278.376 410.748 278.376Z" fill="url(#paint8_linear_20_1541)"/>
<path d="M461.989 223.184C464.033 223.184 466.05 223.723 467.821 224.741L483.281 233.629C484.025 234.057 484.469 234.824 484.469 235.68C484.469 236.536 484.026 237.302 483.282 237.73L414.95 277.059C413.674 277.793 412.221 278.181 410.748 278.181C409.271 278.181 407.814 277.791 406.536 277.053L388.673 266.739C388.101 266.408 387.76 265.818 387.76 265.159C387.761 264.5 388.103 263.91 388.675 263.58L456.153 224.743C457.925 223.723 459.943 223.184 461.989 223.184ZM461.989 222.794C459.906 222.794 457.823 223.331 455.957 224.406L388.48 263.242C387 264.094 386.999 266.222 388.477 267.076L406.34 277.391C407.703 278.178 409.226 278.571 410.748 278.571C412.267 278.571 413.785 278.18 415.146 277.397L483.478 238.068C485.322 237.006 485.322 234.352 483.476 233.292L468.016 224.403C466.151 223.33 464.07 222.794 461.989 222.794Z" fill="white"/>
<path d="M283.036 172.139C283.036 172.139 280.933 171.822 280.614 170.487C280.295 169.153 280.295 167.883 280.041 167.311C279.786 166.739 280.796 166.582 281.188 167.628C281.58 168.675 281.58 168.675 281.58 168.675C281.58 168.675 281.36 164.367 281.518 163.816C281.677 163.266 282.172 163.158 282.306 163.995C282.441 164.833 282.441 165.468 282.441 165.468C282.441 165.468 282.866 162.955 283.036 162.856C283.206 162.758 283.589 162.546 283.589 163.689C283.589 164.833 283.589 165.129 283.589 165.129C283.589 165.129 283.895 163.081 284.285 162.856C284.676 162.632 284.778 163.223 284.736 164.113C284.693 165.002 284.745 165.299 284.745 165.299C284.745 165.299 285.203 163.139 285.628 163.224C286.053 163.308 286.01 164.621 285.883 165.722C285.756 166.824 286.011 168.941 286.181 169.534C286.35 170.127 286.818 171.101 285.628 171.821C284.438 172.542 283.036 172.139 283.036 172.139Z" fill="#FDE0D9"/>
<path d="M239.995 192.359C239.995 192.359 237.839 188.945 237.728 187.689C237.616 186.433 237.117 183.934 237.728 183.934C238.338 183.934 238.712 186.052 238.712 186.052C238.712 186.052 239.086 183.934 238.712 183.087C238.338 182.24 239.23 181.139 239.783 182.367C240.335 183.595 240.335 185.205 240.335 185.205C240.335 185.205 241.185 183.558 240.973 181.819C240.76 180.08 242.009 180.635 242.205 181.819C242.4 183.003 242.63 184.358 242.63 184.358C242.63 184.358 242.97 183.511 243.097 182.664C243.225 181.817 244.117 181.266 243.99 182.918C243.862 184.57 243.59 185.671 244.002 186.179C244.414 186.687 245.782 185.967 245.842 185.289C245.902 184.612 246.709 185.247 246.242 186.729C245.774 188.212 245.604 190.965 244.67 191.261C243.734 191.558 239.995 192.359 239.995 192.359Z" fill="#FDE0D9"/>
<path d="M277.878 187.322C277.471 190.068 275.687 192.587 274.27 194.202C273.273 195.353 272.455 196.047 272.455 196.047L270.264 206.659L270.033 207.778C270.033 207.778 270.687 209.393 271.422 212.087C272.447 215.816 273.633 221.611 273.472 228.05V228.077C273.359 232.633 272.576 237.508 270.585 242.195C267.298 249.937 260.131 252.827 253.342 252.69C249.156 252.608 245.114 251.38 242.215 249.434C240.028 247.964 238.494 246.088 238.041 243.989C236.002 234.583 243.209 235.097 251.296 220.613C254.657 214.595 255.001 210.391 254.293 207.021C253.303 202.279 250.232 199.198 250.557 195.072C251.112 188.017 261.543 179.269 268.844 179.121C274.486 179.004 277.217 181.157 277.846 184.312C278.035 185.24 278.035 186.254 277.878 187.322Z" fill="#A17194"/>
<path d="M273.473 228.05V228.078C273.36 232.633 272.577 237.508 270.586 242.196C267.299 249.937 260.132 252.827 253.343 252.69C248.022 250.074 246.223 242.679 252.248 235.098C262.252 222.516 256.693 205.407 258.946 200.536C261.196 195.665 267.209 195.563 267.209 195.563L268.634 200.282C268.634 200.282 269.365 202.77 270.265 206.659C270.637 208.258 271.036 210.091 271.423 212.088C272.346 216.838 273.207 222.497 273.473 228.05Z" fill="url(#paint9_linear_20_1541)"/>
<path d="M277.879 187.322C277.472 190.068 275.688 192.587 274.272 194.202C273.924 193.227 273.924 191.768 273.924 191.768C273.924 191.768 276.13 186.578 275.833 183.637C275.692 182.221 276.933 182.709 277.848 184.312C278.036 185.24 278.036 186.254 277.879 187.322Z" fill="url(#paint10_linear_20_1541)"/>
<path d="M242.035 236.611C238.874 240.889 240.392 245.947 242.215 249.434C240.028 247.964 238.494 246.088 238.041 243.989C236.002 234.583 243.209 235.097 251.296 220.613C254.657 214.595 255.001 210.391 254.293 207.021C254.95 208.379 255.483 210.395 255.377 213.316C255.119 220.281 247.474 229.251 242.035 236.611Z" fill="url(#paint11_linear_20_1541)"/>
<path d="M273.817 316.928C273.817 316.928 277.447 323.076 279.308 325.051C281.17 327.026 274.395 329.406 271.471 325.051C268.548 320.695 265.149 319.877 268.123 316.928C271.097 313.979 273.817 316.928 273.817 316.928Z" fill="#222457"/>
<path d="M266.609 302.828C266.609 302.828 265.419 305.591 267.968 310.951C267.968 310.951 268.093 314.184 266.331 313.195C264.569 312.206 263.281 310.349 261.206 308.106C259.13 305.863 256.376 303.335 261.917 299.748C267.458 296.161 266.609 302.828 266.609 302.828Z" fill="#222457"/>
<path d="M284.285 245.788C284.285 245.788 295.128 265.004 295.128 269.442C295.128 272.889 275.175 294.29 270.077 300.683L266.13 304.738C265.583 304.732 261.137 303.66 262.174 299.52C262.174 299.52 277.445 276.134 279.424 269.016C281.403 261.898 272.649 251.201 272.649 251.201C272.649 251.201 273.747 244.345 284.285 245.788Z" fill="#222457"/>
<path d="M290.695 276.317C290.692 284.436 277.319 316.019 275.777 319.657C275.777 319.657 271.18 320.991 268.12 316.927C268.12 316.927 273.891 300.543 276.239 289.916C276.474 288.855 276.677 287.849 276.833 286.925C278.563 276.746 258.163 258.767 263.789 251.949C263.836 251.891 263.887 251.832 263.934 251.778C269.58 245.198 279.255 249.333 279.255 249.333C279.255 249.333 290.7 269.113 290.695 276.317Z" fill="#2A2F6D"/>
<path d="M276.833 286.925C278.563 276.746 258.163 258.767 263.789 251.949C263.836 251.891 263.887 251.832 263.934 251.778C265.276 252.117 266.336 252.698 266.336 252.698C266.336 252.698 266.763 255.935 269.396 259.917C272.033 263.895 278.488 272.366 278.575 280.416C278.621 285.002 277.346 288.099 276.239 289.916C276.474 288.855 276.677 287.849 276.833 286.925Z" fill="url(#paint12_linear_20_1541)"/>
<path d="M258.657 214.486L276.812 204.037C276.812 204.037 281.752 200.581 283.285 192.935L283.632 190.33L282.005 171.546C282.005 171.546 283.93 170.028 286.568 171.546C286.568 171.546 290.83 185.201 290.694 192.678C290.557 200.156 283.037 214.386 283.547 216.927C284.057 219.469 285.63 220.029 286.245 222.989C286.861 225.949 285.64 226.032 284.286 230.946C282.545 237.269 284.286 245.77 284.286 245.77C284.286 245.77 285.565 255.475 265.044 254.579L263.173 254.008C262.778 253.887 262.511 253.521 262.517 253.11L263.488 240.878V235.224L262.898 227.16C262.898 227.16 249.621 222.677 245.308 219.977C240.995 217.276 241.866 205.794 240.464 199.735C239.062 193.676 239.436 192.359 239.436 192.359C239.436 192.359 240.719 189.61 243.269 189.61C245.818 189.61 245.818 189.61 245.818 189.61C245.818 189.61 247.673 205.244 249.55 209.243C251.427 213.243 254.544 215.856 258.657 214.486Z" fill="#3C7FBE"/>
<path d="M270.183 254.57C268.641 254.652 266.935 254.66 265.042 254.578L263.172 254.009C262.776 253.888 262.51 253.521 262.514 253.108L263.489 240.877V235.222L262.898 227.161C262.898 227.161 249.619 222.676 245.307 219.977C242.295 218.09 241.809 211.928 241.316 206.319C242.318 209.022 243.777 212.173 245.843 215.02C250.753 221.799 263.449 222.645 266.329 222.813C269.209 222.984 269.569 233.319 268.547 239.926C267.765 245 269.385 251.723 270.183 254.57Z" fill="#164998"/>
<path d="M281.337 198.465C280.5 200.852 278.954 204.74 277.511 205.746C275.386 207.228 272.667 210.446 272.667 210.446C272.667 210.446 269.991 213.117 268.336 213.031C266.677 212.946 258.656 214.486 258.656 214.486C258.656 214.486 258.672 214.474 258.699 214.459L276.81 204.038C276.81 204.038 279.338 202.271 281.337 198.465Z" fill="#253E84"/>
<path d="M284.287 230.948C282.542 237.27 284.287 245.768 284.287 245.768C284.287 245.768 285.34 253.767 270.183 254.57C268.641 254.652 266.935 254.66 265.042 254.578L263.171 254.009C262.776 253.888 262.51 253.521 262.514 253.108L263.488 240.877V235.222L262.898 227.161C262.898 227.161 249.619 222.676 245.307 219.977C242.294 218.09 241.809 211.928 241.316 206.319C241.101 203.894 240.886 201.565 240.463 199.736C239.059 193.676 239.434 192.357 239.434 192.357C239.434 192.357 240.718 189.608 243.269 189.608C245.816 189.608 245.816 189.608 245.816 189.608C245.816 189.608 247.67 205.243 249.548 209.244C251.426 213.242 254.466 214.486 258.656 214.486C258.656 214.486 258.672 214.474 258.699 214.459L276.81 204.038C276.81 204.038 279.001 202.505 280.918 199.221C281.059 198.98 281.2 198.726 281.337 198.465C282.135 196.952 282.847 195.115 283.286 192.935L283.63 190.329L282.002 171.547C282.002 171.547 282.182 171.407 282.503 171.254C283.239 170.903 284.729 170.49 286.568 171.547C286.568 171.547 287.566 174.737 288.579 178.879C289.659 183.306 290.762 188.816 290.692 192.677C290.555 200.157 283.035 214.385 283.548 216.927C283.591 217.142 283.642 217.345 283.696 217.536C283.7 217.536 283.7 217.54 283.7 217.54C284.318 219.583 285.68 220.281 286.243 222.988C286.862 225.948 285.641 226.03 284.287 230.948Z" fill="url(#paint13_linear_20_1541)"/>
<path d="M273.631 213.242C270.227 213.768 267.171 211.386 266.33 210.071V204.986C266.31 204.978 266.287 204.974 266.267 204.966C266.177 204.28 265.512 203.176 264.045 202.739C261.76 202.057 262.175 199.182 262.855 199.182C263.509 199.182 264.925 200.664 265.039 200.781C264.964 200.641 264.088 198.925 265.066 196.979C266.083 194.947 269.992 195.961 273.138 191.983C273.795 191.148 274.253 190.353 274.566 189.62C275.462 194.772 276.522 204.369 272.202 205.434V209.685C272.203 209.685 277.039 212.715 273.631 213.242Z" fill="#FDE0D9"/>
<g opacity="0.23">
<path opacity="0.23" d="M268.845 226.457C268.845 226.457 268.633 230.353 272.966 231.116C277.3 231.878 279.387 228.763 283.164 228.235C283.164 228.235 276.505 229.722 275.373 230.478C274.242 231.233 269.653 230.099 268.845 226.457Z" fill="white"/>
</g>
<path d="M283.548 216.927C283.591 217.142 283.642 217.345 283.697 217.536C283.215 216.978 282.492 215.434 281.721 211.296C280.359 204.011 289.198 200.438 289.025 188.672C288.963 184.288 288.779 181.122 288.579 178.879C289.659 183.306 290.763 188.816 290.692 192.677C290.555 200.157 283.035 214.385 283.548 216.927Z" fill="url(#paint14_linear_20_1541)"/>
<g opacity="0.23">
<path opacity="0.23" d="M280.918 199.221C281.059 198.98 281.2 198.726 281.337 198.465C282.135 196.952 282.847 195.115 283.285 192.935L283.629 190.329L282.002 171.547C282.002 171.547 282.182 171.407 282.503 171.255C282.878 174.936 284.154 187.385 284.287 189.187C284.416 190.981 282.643 197.864 280.918 199.221Z" fill="white"/>
</g>
<path d="M272.201 205.438V207.731C271.935 207.938 271.688 208.055 271.469 208.031C270.315 207.907 268.633 205.025 268.633 205.025C270.143 205.461 271.309 205.539 272.201 205.438Z" fill="#ECBFB9"/>
<path d="M270.927 184.188C270.927 184.188 274.156 189.356 265.914 192.998C257.671 196.64 255.801 199.353 256.226 208.034C256.226 208.034 252.657 200.113 257.416 195.031C262.174 189.948 271.012 188.339 270.927 184.188Z" fill="url(#paint15_linear_20_1541)"/>
<path d="M330.804 220.55C330.382 221.747 329.828 222.948 329.116 224.138C322.848 234.592 313.647 237.362 309.053 238.094C307.586 238.328 306.218 237.227 306.183 235.789L306.133 233.71L306.189 236.033L306.182 235.808C306.15 234.668 306.979 233.699 308.142 233.516C311.789 232.942 319.555 230.676 324.917 221.731C328.4 215.92 327.01 209.501 325.966 206.38C325.592 205.262 326.114 204.071 327.204 203.592C328.523 203.012 330.101 203.702 330.555 205.056C331.653 208.329 332.986 214.367 330.804 220.55Z" fill="#AECFDC"/>
<path d="M296.195 235.611C296.195 235.611 300.076 231.172 304.779 231.525C309.482 231.878 313.23 236.064 311.936 239.806C310.641 243.549 306.345 246.283 306.345 246.283L302.033 242.848C302.033 242.848 305.373 241.16 306.081 238.966C306.788 236.772 302.58 234.033 299.199 238.236L296.195 235.611Z" fill="#A17194"/>
<path d="M329.485 244.262C318.731 238.073 318.731 227.91 329.485 221.679C340.239 215.447 357.836 215.447 368.59 221.679C379.344 227.91 379.344 238.073 368.59 244.262C357.836 250.452 340.239 250.452 329.485 244.262Z" fill="#2A2F6D"/>
<path d="M331.291 235.353C320.984 229.985 320.984 221.171 331.291 215.766C341.599 210.362 358.466 210.362 368.774 215.766C379.082 221.171 379.082 229.985 368.774 235.353C358.467 240.721 341.599 240.721 331.291 235.353Z" fill="#2A2F6D"/>
<path d="M376.533 226.384H376.133V235.484H376.533V226.384Z" fill="#2A2F6D"/>
<path d="M376.531 225.131L372.56 218.918L368.283 216.063C364.598 214.498 360.073 213.732 355.282 213.732V214.133C356.046 214.133 356.8 214.154 357.542 214.193C354.662 214.143 351.313 214.328 347.501 214.778C350.072 214.356 352.687 214.133 355.281 214.133L355.282 213.732C355.281 213.732 355.281 213.732 355.281 213.732C347.445 213.732 338.901 215.776 332.179 219.698C331.702 219.976 331.248 220.261 330.804 220.55L321.945 221.61V233.586C321.945 233.586 321.954 233.589 321.968 233.594C322.12 236.846 324.065 239.865 327.912 242.11C331.922 244.45 337.372 245.586 343.215 245.586C351.051 245.586 359.595 243.542 366.317 239.62C373.063 235.683 376.558 230.678 376.533 226.092C376.569 225.482 376.531 225.131 376.531 225.131ZM337.629 244.805C336.405 244.634 335.227 244.405 334.107 244.121C335.316 244.405 336.489 244.628 337.629 244.805ZM333.973 244.088C333.927 244.077 333.882 244.065 333.836 244.053C333.883 244.064 333.926 244.078 333.973 244.088Z" fill="#2A2F6D"/>
<path d="M348.025 237.595C346.6 237.595 345.07 237.563 343.209 237.496C336.435 237.252 333.164 236.419 327.991 233.62C324.257 231.601 322.181 228.519 322.145 224.943H322.127V151.8H322.145C322.132 149.458 323.059 146.595 324.686 143.945C325.986 141.827 328.357 138.823 332.264 136.542C338.997 132.61 347.668 132.281 355.267 132.28C362.099 132.28 367.726 134.97 370.471 136.573C373.818 138.527 375.814 141.136 376.243 144.118L376.262 144.248L376.258 144.261L376.263 144.305C376.32 144.768 376.339 145.234 376.321 145.689L376.319 145.741L376.339 145.778V223.977H376.322C376.214 228.444 373.007 231.783 366.23 234.486C360.767 236.665 355.323 237.595 348.025 237.595ZM373.977 140.002C374.261 140.383 374.513 140.743 374.747 141.102L375.08 140.896C374.85 140.511 374.583 140.131 374.287 139.763L373.977 140.002Z" fill="url(#paint16_linear_20_1541)"/>
<path d="M355.268 132.475C362.054 132.475 367.644 135.148 370.373 136.741C371.933 137.653 373.195 138.707 374.136 139.875L373.82 140.118C374.102 140.497 374.352 140.853 374.583 141.208L374.921 140.999C375.511 141.986 375.891 143.04 376.05 144.146L376.063 144.229L376.059 144.24L376.07 144.329C376.124 144.781 376.143 145.236 376.126 145.681L376.122 145.785L376.144 145.826V223.46L376.126 223.461L376.127 223.972C376.021 228.351 372.854 231.634 366.158 234.305C360.72 236.474 355.297 237.399 348.025 237.399C346.603 237.399 345.075 237.368 343.216 237.301C336.479 237.058 333.227 236.23 328.085 233.449C324.416 231.465 322.376 228.443 322.341 224.941H322.323V151.8H322.34C322.328 149.492 323.244 146.667 324.852 144.047C326.141 141.948 328.491 138.971 332.363 136.71C339.053 132.803 347.693 132.476 355.267 132.475H355.268ZM355.268 132.085C355.268 132.085 355.267 132.085 355.267 132.085C347.431 132.086 338.887 132.448 332.165 136.373C325.42 140.312 321.925 147.213 321.949 151.802L321.932 149.911V226.361L321.95 224.945C321.984 228.323 323.85 231.602 327.898 233.792C333.147 236.631 336.538 237.451 343.202 237.691C344.862 237.751 346.465 237.79 348.025 237.79C354.407 237.79 360.094 237.144 366.303 234.667C373.386 231.843 376.412 228.375 376.518 223.982L376.517 223.461C376.522 223.636 376.522 223.81 376.518 223.982L376.534 233.358V145.738C376.527 145.725 376.524 145.711 376.516 145.697C376.535 145.22 376.514 144.749 376.458 144.282C376.498 144.165 376.534 144.09 376.534 144.09H376.438C376.015 141.157 374.086 138.457 370.571 136.405C366.56 134.063 361.111 132.085 355.268 132.085ZM374.911 140.995C374.689 140.655 374.434 140.288 374.134 139.885C374.424 140.245 374.683 140.615 374.911 140.995Z" fill="white"/>
<g opacity="0.5">
<path opacity="0.5" d="M376.012 225.415V148.908C376.012 148.908 371.199 141.166 362.926 141.996C354.653 142.825 353.318 147.526 353.318 147.526V232.687C353.318 232.687 353.421 234.766 354.765 235.484C358.837 237.661 365.081 236.676 374.607 229.237C376.014 228.138 375.395 227.279 376.012 225.415Z" fill="url(#paint17_linear_20_1541)"/>
</g>
<path d="M368.045 216.482C370.771 216.482 372.981 213.048 372.981 208.812C372.981 204.576 370.771 201.141 368.045 201.141C365.319 201.141 363.109 204.576 363.109 208.812C363.109 213.048 365.319 216.482 368.045 216.482Z" fill="url(#paint18_linear_20_1541)"/>
<path d="M340.97 198.277C341.609 199.375 342.377 200.452 343.299 201.488C351.409 210.598 360.967 211.611 365.617 211.479C367.102 211.436 368.241 210.101 368.007 208.682L367.668 206.63L368.047 208.923L368.011 208.7C367.831 207.574 366.835 206.776 365.657 206.812C361.967 206.925 353.914 206.139 346.975 198.346C342.467 193.282 342.636 186.717 343.078 183.458C343.236 182.289 342.502 181.217 341.341 180.948C339.937 180.623 338.516 181.593 338.323 183.008C337.854 186.427 337.672 192.606 340.97 198.277Z" fill="#CDE9F9"/>
<path d="M339.075 170.232C339.075 170.232 335.523 174.936 336.843 179.45C338.163 183.963 343.048 186.751 346.453 184.713C349.858 182.676 351.652 177.92 351.652 177.92L347.387 174.426C347.387 174.426 346.422 178.033 344.416 179.178C342.409 180.322 338.85 176.785 342.274 172.618L339.075 170.232Z" fill="#A17194"/>
<path d="M351.962 216.842L348.417 216.109V216.109C348.416 216.109 348.533 215.324 348.135 214.851C347.797 214.451 347.037 214.232 345.994 214.232C345.238 214.232 344.229 214.349 343.719 214.911C343.225 215.455 343.303 216.289 343.304 216.298L339.711 216.75C339.678 216.505 339.435 214.311 340.979 212.552C342.102 211.271 343.79 210.622 345.994 210.622C348.222 210.622 349.89 211.282 350.954 212.585C352.421 214.383 352.014 216.596 351.962 216.842Z" fill="white"/>
<path d="M332.843 216.099L330.145 215.541V215.542C330.144 215.542 330.233 214.944 329.93 214.584C329.673 214.28 329.094 214.113 328.3 214.113C327.725 214.113 326.957 214.202 326.568 214.63C326.193 215.044 326.251 215.679 326.252 215.686L323.518 216.03C323.493 215.844 323.307 214.173 324.482 212.834C325.338 211.859 326.623 211.365 328.3 211.365C329.996 211.365 331.266 211.868 332.075 212.859C333.192 214.228 332.883 215.912 332.843 216.099Z" fill="white"/>
<path d="M250.249 272.416C250.249 265.284 244.379 259.834 237.139 259.834C229.899 259.834 224.029 265.616 224.029 272.748C224.029 279.88 229.899 285.662 237.139 285.662C244.379 285.663 250.249 279.549 250.249 272.416Z" fill="url(#paint19_linear_20_1541)"/>
<path d="M243.545 277.451C243.539 277.443 243.534 277.438 243.534 277.438L241.077 272.138C241.077 271.801 239.288 271.528 237.081 271.528C234.875 271.528 233.086 271.801 233.086 272.138L230.206 277.4C230.129 277.467 230.088 277.535 230.088 277.606C230.088 278.211 233.116 278.702 236.851 278.702C240.586 278.702 243.613 278.211 243.613 277.606C243.612 277.553 243.589 277.501 243.545 277.451Z" fill="white"/>
<path d="M243.533 277.439C243.032 276.367 240.28 270.474 239.962 269.642C239.704 268.965 239.657 268.502 239.65 268.307V264.661H239.647C239.648 264.655 239.65 264.649 239.65 264.643C239.65 264.373 238.526 264.154 237.139 264.154C235.752 264.154 234.628 264.373 234.628 264.643C234.628 264.649 234.629 264.655 234.631 264.661H234.628V268.203H234.626C234.418 270.018 230.899 276.196 230.204 277.401C230.127 277.468 230.086 277.536 230.086 277.607C230.086 278.212 233.114 278.703 236.849 278.703C240.584 278.703 243.611 278.212 243.611 277.607C243.611 277.549 243.584 277.494 243.533 277.439Z" fill="white"/>
<path d="M237.14 265.13C238.526 265.13 239.65 264.911 239.65 264.642C239.65 264.372 238.526 264.153 237.14 264.153C235.753 264.153 234.629 264.372 234.629 264.642C234.629 264.911 235.753 265.13 237.14 265.13Z" fill="white"/>
<path d="M237.079 272.749C239.286 272.749 241.075 272.475 241.075 272.138C241.075 271.801 239.286 271.528 237.079 271.528C234.873 271.528 233.084 271.801 233.084 272.138C233.084 272.475 234.873 272.749 237.079 272.749Z" fill="white"/>
<path d="M236.849 278.702C240.584 278.702 243.611 278.211 243.611 277.606C243.611 277 240.584 276.509 236.849 276.509C233.114 276.509 230.086 277 230.086 277.606C230.086 278.211 233.114 278.702 236.849 278.702Z" fill="white"/>
<path d="M250.249 272.416C250.249 265.284 244.379 259.834 237.139 259.834C229.899 259.834 224.029 265.616 224.029 272.748C224.029 279.88 229.899 285.662 237.139 285.662C244.379 285.663 250.249 279.549 250.249 272.416Z" fill="url(#paint20_linear_20_1541)"/>
<path d="M352.786 288.439C352.786 281.306 346.916 275.856 339.676 275.856C332.436 275.856 326.566 281.638 326.566 288.77C326.566 295.903 332.436 301.685 339.676 301.685C346.916 301.685 352.786 295.571 352.786 288.439Z" fill="url(#paint21_linear_20_1541)"/>
<path d="M346.081 293.473C346.075 293.465 346.07 293.461 346.07 293.461L343.612 288.161C343.612 287.824 341.823 287.55 339.617 287.55C337.41 287.55 335.621 287.824 335.621 288.161L332.742 293.423C332.664 293.489 332.623 293.558 332.623 293.628C332.623 294.233 335.651 294.724 339.386 294.724C343.121 294.724 346.149 294.234 346.149 293.628C346.148 293.576 346.124 293.524 346.081 293.473Z" fill="white"/>
<path d="M346.072 293.461C345.571 292.39 342.819 286.497 342.501 285.664C342.243 284.987 342.196 284.525 342.189 284.33V280.684H342.186C342.188 280.678 342.189 280.671 342.189 280.665C342.189 280.395 341.065 280.177 339.678 280.177C338.291 280.177 337.167 280.396 337.167 280.665C337.167 280.671 337.169 280.678 337.17 280.684H337.167V284.225H337.165C336.957 286.04 333.438 292.218 332.744 293.424C332.666 293.49 332.625 293.559 332.625 293.629C332.625 294.234 335.653 294.725 339.388 294.725C343.123 294.725 346.15 294.235 346.15 293.629C346.15 293.572 346.123 293.516 346.072 293.461Z" fill="white"/>
<path d="M339.677 281.152C341.063 281.152 342.187 280.934 342.187 280.664C342.187 280.394 341.063 280.176 339.677 280.176C338.29 280.176 337.166 280.394 337.166 280.664C337.166 280.934 338.29 281.152 339.677 281.152Z" fill="white"/>
<path d="M339.617 288.771C341.823 288.771 343.612 288.498 343.612 288.161C343.612 287.823 341.823 287.55 339.617 287.55C337.41 287.55 335.621 287.823 335.621 288.161C335.621 288.498 337.41 288.771 339.617 288.771Z" fill="white"/>
<path d="M339.386 294.724C343.121 294.724 346.149 294.233 346.149 293.628C346.149 293.022 343.121 292.532 339.386 292.532C335.651 292.532 332.623 293.022 332.623 293.628C332.623 294.233 335.651 294.724 339.386 294.724Z" fill="white"/>
<path d="M352.786 288.439C352.786 281.306 346.916 275.856 339.676 275.856C332.436 275.856 326.566 281.638 326.566 288.77C326.566 295.903 332.436 301.685 339.676 301.685C346.916 301.685 352.786 295.571 352.786 288.439Z" fill="url(#paint22_linear_20_1541)"/>
<path d="M405.29 227.301C405.29 222.283 401.16 218.449 396.067 218.449C390.973 218.449 386.844 222.517 386.844 227.535C386.844 232.552 390.973 236.62 396.067 236.62C401.16 236.621 405.29 232.319 405.29 227.301Z" fill="url(#paint23_linear_20_1541)"/>
<path d="M400.574 230.843C400.57 230.838 400.566 230.834 400.566 230.834L398.837 227.106C398.837 226.869 397.578 226.676 396.026 226.676C394.473 226.676 393.215 226.869 393.215 227.106L391.189 230.808C391.134 230.854 391.105 230.903 391.105 230.952C391.105 231.378 393.235 231.723 395.863 231.723C398.491 231.723 400.621 231.378 400.621 230.952C400.621 230.915 400.605 230.879 400.574 230.843Z" fill="white"/>
<path d="M400.566 230.834C400.213 230.08 398.278 225.934 398.054 225.349C397.872 224.872 397.839 224.547 397.834 224.41V221.844H397.833C397.833 221.84 397.834 221.835 397.834 221.831C397.834 221.641 397.044 221.487 396.068 221.487C395.092 221.487 394.301 221.641 394.301 221.831C394.301 221.835 394.302 221.84 394.303 221.844H394.301V224.335H394.3C394.153 225.612 391.677 229.959 391.189 230.807C391.134 230.854 391.105 230.902 391.105 230.951C391.105 231.377 393.235 231.722 395.863 231.722C398.491 231.722 400.621 231.377 400.621 230.951C400.621 230.912 400.602 230.873 400.566 230.834Z" fill="white"/>
<path d="M396.067 222.175C397.043 222.175 397.834 222.021 397.834 221.831C397.834 221.641 397.043 221.488 396.067 221.488C395.092 221.488 394.301 221.641 394.301 221.831C394.301 222.021 395.092 222.175 396.067 222.175Z" fill="white"/>
<path d="M396.026 227.535C397.579 227.535 398.837 227.343 398.837 227.106C398.837 226.869 397.579 226.676 396.026 226.676C394.473 226.676 393.215 226.869 393.215 227.106C393.215 227.343 394.473 227.535 396.026 227.535Z" fill="white"/>
<path d="M395.863 231.723C398.491 231.723 400.621 231.378 400.621 230.952C400.621 230.526 398.491 230.181 395.863 230.181C393.236 230.181 391.105 230.526 391.105 230.952C391.105 231.378 393.236 231.723 395.863 231.723Z" fill="white"/>
<path d="M405.29 227.301C405.29 222.283 401.16 218.449 396.067 218.449C390.973 218.449 386.844 222.517 386.844 227.535C386.844 232.552 390.973 236.62 396.067 236.62C401.16 236.621 405.29 232.319 405.29 227.301Z" fill="url(#paint24_linear_20_1541)"/>
<path d="M295.291 164.76C295.291 164.76 299.25 164.32 301.431 160.052L295.291 164.76Z" fill="white"/>
<path d="M295.443 166.117L295.139 163.403L295.291 164.76L295.129 163.405C295.262 163.388 298.414 162.949 300.212 159.433L302.651 160.673C300.163 165.539 295.634 166.095 295.443 166.117Z" fill="url(#paint25_linear_20_1541)"/>
<path d="M301.555 180.291C301.555 180.291 303.526 183.742 308.321 184.051L301.555 180.291Z" fill="white"/>
<path d="M300.365 180.966L302.745 179.615L301.555 180.291L302.74 179.606C302.808 179.722 304.459 182.433 308.41 182.689L308.233 185.413C302.764 185.06 300.461 181.133 300.365 180.966Z" fill="url(#paint26_linear_20_1541)"/>
<path d="M310.453 171.802C310.453 171.802 313.502 172.713 316.17 170.763L310.453 171.802Z" fill="url(#paint27_linear_20_1541)"/>
<path d="M310.232 172.673L310.673 170.93L310.453 171.802L310.665 170.928C310.768 170.957 313.217 171.628 315.417 170.022L316.924 171.504C313.881 173.727 310.38 172.717 310.232 172.673Z" fill="url(#paint28_linear_20_1541)"/>
<path d="M286.299 150.005C286.299 150.005 290.257 149.565 292.439 145.297L286.299 150.005Z" fill="white"/>
<path d="M286.451 151.361L286.147 148.648L286.299 150.005L286.137 148.65C286.27 148.633 289.422 148.194 291.219 144.678L293.659 145.917C291.171 150.784 286.642 151.34 286.451 151.361Z" fill="url(#paint29_linear_20_1541)"/>
<path d="M265.525 167.301C265.525 167.301 267.496 170.751 272.292 171.061L265.525 167.301Z" fill="white"/>
<path d="M264.336 167.976L266.716 166.625L265.526 167.3L266.71 166.616C266.779 166.731 268.429 169.443 272.38 169.698L272.203 172.423C266.735 172.07 264.431 168.143 264.336 167.976Z" fill="url(#paint30_linear_20_1541)"/>
<path d="M274.424 158.812C274.424 158.812 277.472 159.722 280.141 157.773L274.424 158.812Z" fill="url(#paint31_linear_20_1541)"/>
<path d="M274.203 159.683L274.644 157.94L274.423 158.812L274.636 157.938C274.739 157.967 277.188 158.638 279.387 157.032L280.895 158.514C277.852 160.736 274.351 159.727 274.203 159.683Z" fill="url(#paint32_linear_20_1541)"/>
<path d="M308.092 138.602C308.092 138.602 309.864 141.062 313.527 140.914L308.092 138.602Z" fill="white"/>
<path d="M307.244 139.209L308.941 137.995L308.092 138.602L308.936 137.988C308.997 138.07 310.467 139.995 313.485 139.874L313.569 141.954C309.393 142.123 307.33 139.328 307.244 139.209Z" fill="url(#paint33_linear_20_1541)"/>
<path d="M300.069 148.556C300.069 148.556 298.503 151.152 300.088 154.446L300.069 148.556Z" fill="white"/>
<path d="M299.175 148.02L300.965 149.093L300.07 148.556L300.969 149.086C300.918 149.174 299.725 151.282 301.03 153.996L299.147 154.896C297.34 151.139 299.099 148.145 299.175 148.02Z" fill="url(#paint34_linear_20_1541)"/>
<path d="M309.059 151.284C309.059 151.284 309.59 153.645 311.887 154.686L309.059 151.284Z" fill="url(#paint35_linear_20_1541)"/>
<path d="M308.395 151.463L309.722 151.105L309.058 151.284L309.72 151.099C309.739 151.178 310.206 153.052 312.1 153.91L311.675 155.463C309.055 154.276 308.42 151.578 308.395 151.463Z" fill="url(#paint36_linear_20_1541)"/>
<path d="M456.512 230.321L456.504 228.797L456.5 230.207L456.509 231.731L456.512 230.321Z" fill="url(#paint37_linear_20_1541)"/>
<path d="M470.562 232.154L468.701 233.232L468.697 234.643L470.558 233.565L470.562 232.154Z" fill="url(#paint38_linear_20_1541)"/>
<path d="M448.912 233.232L447.039 232.154L447.035 233.565L448.908 234.643L448.912 233.232Z" fill="url(#paint39_linear_20_1541)"/>
<path d="M452.886 238.118C452.895 238.067 452.911 238.016 452.924 237.965C452.94 237.906 452.954 237.846 452.975 237.787C452.992 237.738 453.016 237.69 453.037 237.642C453.064 237.58 453.091 237.518 453.123 237.457C453.147 237.412 453.177 237.368 453.204 237.324C453.247 237.254 453.292 237.185 453.344 237.117C453.374 237.076 453.407 237.036 453.44 236.996C453.517 236.904 453.602 236.814 453.694 236.725C453.727 236.693 453.757 236.66 453.792 236.628C453.849 236.577 453.913 236.527 453.976 236.477C454.031 236.433 454.084 236.388 454.143 236.346C454.211 236.297 454.285 236.25 454.358 236.202C454.433 236.154 454.505 236.104 454.585 236.057C454.764 235.953 454.954 235.86 455.149 235.773C455.205 235.748 455.262 235.724 455.319 235.7C455.472 235.637 455.629 235.578 455.789 235.523C455.846 235.504 455.903 235.482 455.961 235.464C456.061 235.433 456.165 235.405 456.268 235.377C456.346 235.355 456.424 235.333 456.504 235.314C456.611 235.287 456.722 235.266 456.832 235.243C456.908 235.228 456.983 235.211 457.059 235.197C457.283 235.158 457.51 235.127 457.739 235.103C457.809 235.096 457.88 235.091 457.95 235.085C458.085 235.075 458.219 235.064 458.354 235.059C458.441 235.055 458.527 235.053 458.613 235.051C458.722 235.049 458.831 235.048 458.941 235.05C459.032 235.051 459.123 235.053 459.214 235.057C459.315 235.061 459.416 235.066 459.517 235.073C459.61 235.079 459.702 235.087 459.793 235.096C459.893 235.106 459.992 235.117 460.091 235.129C460.181 235.14 460.27 235.153 460.358 235.167C460.465 235.183 460.57 235.202 460.675 235.222C460.758 235.237 460.841 235.254 460.923 235.271C461.048 235.299 461.171 235.33 461.294 235.362C461.362 235.38 461.431 235.397 461.499 235.417C461.718 235.481 461.932 235.552 462.139 235.633C462.242 235.672 462.342 235.716 462.441 235.761C462.493 235.783 462.546 235.804 462.596 235.828C462.747 235.899 462.893 235.975 463.034 236.056C464.212 236.734 464.799 237.622 464.796 238.51L464.8 237.099C464.803 236.212 464.215 235.323 463.038 234.646C462.897 234.564 462.75 234.489 462.6 234.417C462.549 234.394 462.496 234.373 462.444 234.35C462.355 234.31 462.267 234.27 462.176 234.233C462.165 234.229 462.154 234.226 462.143 234.222C461.936 234.142 461.721 234.07 461.502 234.006C461.484 234.001 461.468 233.994 461.45 233.989C461.401 233.975 461.348 233.965 461.298 233.952C461.175 233.92 461.052 233.889 460.926 233.861C460.893 233.854 460.861 233.844 460.827 233.837C460.778 233.827 460.727 233.821 460.678 233.811C460.573 233.791 460.468 233.773 460.362 233.756C460.319 233.75 460.278 233.74 460.235 233.734C460.189 233.728 460.142 233.725 460.095 233.719C459.996 233.706 459.896 233.695 459.796 233.686C459.749 233.681 459.702 233.674 459.654 233.67C459.61 233.666 459.565 233.666 459.521 233.663C459.42 233.656 459.319 233.651 459.217 233.647C459.166 233.645 459.116 233.64 459.065 233.639C459.025 233.637 458.985 233.64 458.945 233.639C458.835 233.638 458.725 233.639 458.615 233.64C458.561 233.642 458.507 233.64 458.454 233.641C458.421 233.642 458.39 233.646 458.358 233.647C458.222 233.653 458.088 233.663 457.953 233.674C457.899 233.679 457.844 233.68 457.791 233.685C457.774 233.687 457.758 233.69 457.741 233.692C457.512 233.716 457.285 233.747 457.061 233.787C457.05 233.789 457.039 233.789 457.029 233.791C456.964 233.803 456.902 233.819 456.838 233.832C456.726 233.855 456.615 233.876 456.505 233.903C456.426 233.922 456.35 233.945 456.272 233.966C456.168 233.994 456.065 234.022 455.964 234.053C455.942 234.06 455.919 234.065 455.897 234.072C455.861 234.084 455.828 234.1 455.792 234.112C455.631 234.167 455.475 234.225 455.322 234.289C455.265 234.313 455.208 234.337 455.152 234.362C454.957 234.449 454.767 234.542 454.588 234.646C454.563 234.66 454.539 234.674 454.515 234.688C454.46 234.721 454.414 234.757 454.362 234.79C454.289 234.838 454.214 234.885 454.146 234.934C454.087 234.977 454.034 235.021 453.98 235.065C453.917 235.115 453.853 235.165 453.796 235.216C453.784 235.227 453.77 235.236 453.759 235.247C453.736 235.268 453.719 235.291 453.697 235.313C453.605 235.402 453.52 235.492 453.444 235.585C453.427 235.605 453.404 235.624 453.388 235.644C453.373 235.664 453.362 235.685 453.347 235.705C453.296 235.773 453.25 235.843 453.207 235.913C453.188 235.942 453.165 235.97 453.148 236C453.139 236.015 453.134 236.03 453.127 236.045C453.093 236.106 453.067 236.168 453.039 236.23C453.023 236.266 453.002 236.302 452.989 236.338C452.984 236.351 452.982 236.363 452.978 236.376C452.956 236.434 452.942 236.494 452.927 236.553C452.916 236.593 452.9 236.633 452.892 236.674C452.889 236.684 452.89 236.695 452.888 236.705C452.877 236.768 452.872 236.831 452.866 236.893C452.863 236.934 452.854 236.974 452.852 237.015C452.852 237.032 452.852 237.05 452.852 237.067L452.848 238.478C452.848 238.42 452.857 238.361 452.863 238.303C452.87 238.242 452.874 238.18 452.886 238.118Z" fill="url(#paint40_linear_20_1541)"/>
<path d="M470.549 238.4C470.522 238.485 470.488 238.569 470.455 238.654C470.432 238.712 470.407 238.769 470.382 238.826C470.358 238.88 470.333 238.934 470.307 238.988C470.279 239.045 470.25 239.101 470.219 239.158C470.191 239.21 470.162 239.261 470.132 239.313C470.094 239.379 470.052 239.445 470.01 239.51C469.979 239.558 469.949 239.605 469.916 239.653C469.87 239.72 469.82 239.786 469.77 239.852C469.738 239.896 469.705 239.94 469.671 239.983C469.573 240.105 469.47 240.227 469.36 240.346C469.345 240.362 469.328 240.378 469.313 240.394C469.215 240.497 469.112 240.6 469.004 240.701C468.92 240.78 468.835 240.859 468.744 240.936L468.74 242.347C468.815 242.283 468.887 242.219 468.957 242.154C468.973 242.14 468.986 242.124 469.001 242.11C469.108 242.01 469.21 241.908 469.308 241.805C469.323 241.789 469.34 241.773 469.356 241.756C469.466 241.637 469.569 241.516 469.667 241.394C469.675 241.383 469.685 241.374 469.693 241.364C469.719 241.33 469.741 241.296 469.767 241.262C469.817 241.196 469.866 241.13 469.912 241.064C469.945 241.016 469.976 240.968 470.006 240.92C470.049 240.855 470.09 240.789 470.128 240.724C470.141 240.702 470.156 240.681 470.168 240.659C470.185 240.629 470.199 240.598 470.216 240.567C470.246 240.511 470.275 240.454 470.303 240.398C470.33 240.344 470.355 240.289 470.379 240.235C470.404 240.178 470.428 240.121 470.451 240.064C470.461 240.038 470.473 240.013 470.483 239.987C470.506 239.928 470.527 239.869 470.546 239.809H473.186L473.19 238.399H470.549V238.4Z" fill="url(#paint41_linear_20_1541)"/>
<path d="M448.952 242.347L448.956 240.936C448.038 240.157 447.425 239.293 447.122 238.4H444.482L444.479 239.81H447.118C447.422 240.703 448.034 241.567 448.952 242.347Z" fill="url(#paint42_linear_20_1541)"/>
<path d="M465.532 242.797C465.215 242.921 464.889 243.034 464.557 243.138C464.375 243.196 464.186 243.244 463.999 243.296C463.825 243.344 463.652 243.396 463.475 243.439C463.285 243.485 463.089 243.522 462.896 243.562C462.717 243.599 462.539 243.64 462.357 243.672C461.958 243.743 461.553 243.803 461.145 243.848L461.141 245.259C461.549 245.213 461.953 245.153 462.353 245.083C462.372 245.079 462.393 245.078 462.412 245.074C462.576 245.045 462.735 245.005 462.897 244.972C463.088 244.932 463.282 244.895 463.471 244.85C463.65 244.807 463.823 244.754 463.999 244.705C464.185 244.654 464.372 244.606 464.554 244.549C464.575 244.542 464.598 244.537 464.62 244.53C464.929 244.431 465.232 244.324 465.528 244.208L467.401 245.285L470.613 243.425L470.617 242.015L467.405 243.875L465.532 242.797Z" fill="url(#paint43_linear_20_1541)"/>
<path d="M456.589 243.848C456.303 243.816 456.021 243.772 455.739 243.728C455.536 243.696 455.335 243.661 455.135 243.623C454.96 243.59 454.786 243.554 454.612 243.516C454.374 243.464 454.139 243.406 453.905 243.344C453.721 243.295 453.536 243.248 453.356 243.194C453.275 243.17 453.195 243.145 453.115 243.119C452.802 243.02 452.492 242.915 452.192 242.798C452.191 242.798 452.191 242.797 452.191 242.797L450.327 243.876L447.094 242.016L447.09 243.426L450.323 245.287L452.186 244.207C452.488 244.324 452.798 244.43 453.112 244.53C453.192 244.555 453.272 244.579 453.352 244.604C453.433 244.628 453.512 244.655 453.594 244.679C453.694 244.707 453.8 244.727 453.901 244.753C454.135 244.815 454.37 244.874 454.608 244.926C454.686 244.943 454.76 244.966 454.838 244.982C454.934 245.002 455.034 245.015 455.13 245.033C455.331 245.071 455.533 245.106 455.736 245.138C455.828 245.152 455.918 245.173 456.011 245.186C456.201 245.212 456.392 245.237 456.583 245.258L456.585 245.258L456.594 246.782H461.151L461.154 245.372H456.598L456.589 243.848Z" fill="url(#paint44_linear_20_1541)"/>
<path d="M467.407 243.875L465.534 242.797C464.187 243.325 462.692 243.675 461.146 243.848L461.155 245.372H456.598L456.59 243.848C455.042 243.675 453.544 243.325 452.19 242.797L450.327 243.876L447.094 242.016L448.958 240.936C448.039 240.157 447.427 239.292 447.123 238.4H444.484L444.469 235.769H447.108C447.402 234.876 448.007 234.014 448.914 233.233L447.041 232.155L450.253 230.294L452.126 231.372C453.477 230.846 454.968 230.494 456.514 230.321L456.505 228.797H461.061L461.07 230.321C462.617 230.494 464.113 230.846 465.469 231.372L467.329 230.294L470.563 232.155L468.702 233.232C469.618 234.014 470.233 234.876 470.536 235.769H473.176L473.191 238.4H470.551C470.258 239.292 469.655 240.157 468.745 240.936L470.618 242.014L467.407 243.875ZM454.619 239.526C456.959 240.873 460.74 240.871 463.066 239.524C465.391 238.177 465.382 235.994 463.041 234.647C460.7 233.299 456.916 233.299 454.591 234.647C452.265 235.994 452.278 238.178 454.619 239.526Z" fill="url(#paint45_linear_20_1541)" stroke="white" stroke-miterlimit="10"/>
<path d="M436.357 243.037L436.351 241.854L436.348 242.949L436.355 244.132L436.357 243.037Z" fill="url(#paint46_linear_20_1541)"/>
<path d="M447.262 244.46L445.818 245.297L445.814 246.391L447.259 245.555L447.262 244.46Z" fill="url(#paint47_linear_20_1541)"/>
<path d="M430.461 245.297L429.007 244.46L429.004 245.555L430.457 246.391L430.461 245.297Z" fill="url(#paint48_linear_20_1541)"/>
<path d="M433.544 249.088C433.552 249.049 433.564 249.009 433.574 248.97C433.586 248.924 433.597 248.878 433.614 248.832C433.628 248.794 433.645 248.757 433.662 248.719C433.682 248.671 433.703 248.623 433.729 248.576C433.748 248.541 433.77 248.507 433.791 248.473C433.825 248.419 433.861 248.365 433.9 248.312C433.924 248.28 433.95 248.249 433.975 248.218C434.035 248.147 434.101 248.076 434.172 248.008C434.198 247.983 434.221 247.958 434.249 247.933C434.293 247.893 434.343 247.855 434.392 247.816C434.434 247.781 434.475 247.747 434.521 247.713C434.574 247.676 434.632 247.639 434.688 247.603C434.747 247.565 434.802 247.526 434.864 247.49C435.003 247.41 435.151 247.337 435.302 247.269C435.345 247.25 435.389 247.232 435.434 247.213C435.552 247.163 435.674 247.117 435.798 247.075C435.843 247.06 435.886 247.044 435.932 247.03C436.01 247.005 436.09 246.984 436.17 246.962C436.231 246.945 436.291 246.928 436.353 246.913C436.436 246.892 436.522 246.876 436.608 246.858C436.666 246.847 436.725 246.833 436.784 246.823C436.957 246.793 437.134 246.768 437.311 246.75C437.366 246.744 437.421 246.741 437.475 246.736C437.58 246.727 437.684 246.72 437.789 246.715C437.856 246.712 437.923 246.711 437.99 246.71C438.074 246.708 438.159 246.708 438.244 246.709C438.315 246.71 438.386 246.712 438.456 246.715C438.535 246.718 438.613 246.722 438.691 246.727C438.763 246.732 438.835 246.738 438.906 246.745C438.983 246.752 439.06 246.761 439.137 246.771C439.206 246.78 439.276 246.789 439.345 246.8C439.427 246.813 439.509 246.827 439.59 246.843C439.655 246.855 439.719 246.867 439.782 246.881C439.879 246.903 439.975 246.926 440.07 246.951C440.123 246.965 440.177 246.979 440.229 246.994C440.399 247.043 440.566 247.099 440.726 247.161C440.806 247.192 440.883 247.226 440.96 247.26C441 247.278 441.042 247.294 441.08 247.312C441.197 247.368 441.311 247.426 441.42 247.49C442.334 248.015 442.79 248.705 442.788 249.394L442.791 248.3C442.793 247.611 442.337 246.921 441.424 246.395C441.314 246.332 441.201 246.273 441.084 246.218C441.044 246.2 441.003 246.183 440.963 246.166C440.894 246.135 440.826 246.103 440.755 246.075C440.747 246.072 440.738 246.07 440.73 246.067C440.568 246.004 440.402 245.949 440.231 245.899C440.218 245.895 440.205 245.89 440.192 245.886C440.153 245.875 440.113 245.867 440.073 245.857C439.978 245.832 439.882 245.808 439.785 245.786C439.759 245.781 439.734 245.773 439.708 245.768C439.67 245.76 439.63 245.755 439.592 245.748C439.511 245.732 439.429 245.718 439.347 245.705C439.314 245.7 439.281 245.693 439.248 245.688C439.212 245.683 439.176 245.681 439.14 245.676C439.063 245.666 438.986 245.658 438.908 245.65C438.871 245.647 438.835 245.641 438.798 245.638C438.763 245.635 438.728 245.635 438.694 245.633C438.615 245.627 438.537 245.623 438.458 245.62C438.419 245.619 438.38 245.615 438.341 245.614C438.309 245.613 438.278 245.615 438.247 245.614C438.161 245.613 438.076 245.614 437.991 245.616C437.949 245.616 437.907 245.615 437.866 245.616C437.841 245.617 437.816 245.62 437.791 245.621C437.686 245.626 437.582 245.633 437.477 245.642C437.435 245.646 437.393 245.647 437.351 245.651C437.338 245.652 437.326 245.655 437.312 245.656C437.135 245.675 436.959 245.699 436.785 245.729C436.777 245.731 436.768 245.732 436.759 245.733C436.709 245.742 436.661 245.754 436.611 245.765C436.525 245.782 436.438 245.799 436.353 245.82C436.292 245.834 436.232 245.852 436.172 245.868C436.091 245.89 436.011 245.912 435.932 245.937C435.916 245.942 435.898 245.945 435.881 245.951C435.853 245.96 435.827 245.972 435.799 245.982C435.675 246.024 435.553 246.07 435.435 246.119C435.39 246.138 435.346 246.156 435.302 246.176C435.151 246.243 435.004 246.316 434.865 246.396C434.846 246.407 434.827 246.418 434.808 246.429C434.766 246.455 434.73 246.483 434.689 246.509C434.633 246.545 434.575 246.582 434.522 246.62C434.476 246.653 434.435 246.688 434.392 246.722C434.344 246.76 434.294 246.799 434.25 246.839C434.241 246.847 434.23 246.855 434.221 246.862C434.203 246.879 434.191 246.897 434.173 246.914C434.102 246.983 434.036 247.053 433.977 247.124C433.964 247.14 433.946 247.155 433.933 247.171C433.921 247.186 433.913 247.202 433.901 247.218C433.861 247.271 433.826 247.325 433.793 247.379C433.779 247.402 433.76 247.424 433.747 247.447C433.74 247.458 433.737 247.47 433.73 247.482C433.705 247.529 433.684 247.577 433.663 247.626C433.651 247.654 433.634 247.681 433.623 247.709C433.62 247.719 433.618 247.729 433.615 247.738C433.598 247.784 433.587 247.83 433.575 247.876C433.567 247.907 433.554 247.938 433.548 247.97C433.546 247.978 433.547 247.986 433.545 247.995C433.536 248.043 433.533 248.092 433.529 248.14C433.526 248.172 433.519 248.203 433.518 248.235C433.517 248.248 433.517 248.262 433.517 248.275L433.514 249.37C433.514 249.324 433.521 249.279 433.525 249.234C433.532 249.185 433.536 249.136 433.544 249.088Z" fill="url(#paint49_linear_20_1541)"/>
<path d="M447.253 249.307C447.231 249.373 447.205 249.439 447.179 249.504C447.161 249.549 447.142 249.593 447.122 249.638C447.104 249.68 447.085 249.721 447.064 249.763C447.043 249.807 447.019 249.851 446.996 249.895C446.974 249.936 446.951 249.976 446.928 250.016C446.898 250.067 446.866 250.118 446.834 250.169C446.81 250.206 446.786 250.243 446.76 250.28C446.725 250.332 446.686 250.383 446.647 250.434C446.622 250.468 446.597 250.502 446.57 250.536C446.494 250.631 446.414 250.725 446.329 250.817C446.317 250.83 446.304 250.842 446.292 250.854C446.216 250.935 446.136 251.014 446.053 251.093C445.987 251.154 445.921 251.215 445.851 251.275L445.848 252.37C445.906 252.32 445.962 252.27 446.016 252.22C446.028 252.209 446.038 252.197 446.05 252.186C446.133 252.108 446.213 252.03 446.288 251.949C446.3 251.936 446.314 251.924 446.325 251.911C446.411 251.819 446.491 251.725 446.567 251.63C446.573 251.622 446.581 251.614 446.587 251.606C446.607 251.58 446.625 251.553 446.645 251.528C446.683 251.477 446.721 251.426 446.757 251.374C446.783 251.337 446.807 251.299 446.83 251.262C446.863 251.211 446.895 251.161 446.925 251.11C446.935 251.093 446.946 251.077 446.956 251.06C446.969 251.036 446.98 251.013 446.992 250.989C447.016 250.945 447.039 250.901 447.061 250.857C447.081 250.815 447.1 250.774 447.119 250.731C447.139 250.687 447.158 250.643 447.176 250.598C447.183 250.579 447.193 250.559 447.201 250.539C447.218 250.493 447.234 250.447 447.25 250.401H449.298L449.301 249.307H447.253V249.307Z" fill="url(#paint50_linear_20_1541)"/>
<path d="M430.491 252.37L430.495 251.276C429.782 250.671 429.307 250 429.071 249.307H427.023L427.02 250.401H429.068C429.303 251.094 429.779 251.765 430.491 252.37Z" fill="url(#paint51_linear_20_1541)"/>
<path d="M443.359 252.72C443.113 252.816 442.86 252.903 442.603 252.984C442.461 253.029 442.315 253.066 442.17 253.106C442.034 253.144 441.901 253.184 441.763 253.218C441.615 253.253 441.464 253.282 441.314 253.313C441.174 253.342 441.036 253.374 440.895 253.399C440.585 253.453 440.271 253.5 439.954 253.535L439.951 254.63C440.268 254.594 440.582 254.548 440.892 254.493C440.907 254.49 440.923 254.489 440.938 254.486C441.065 254.464 441.188 254.433 441.314 254.407C441.463 254.376 441.613 254.348 441.759 254.312C441.898 254.279 442.033 254.238 442.17 254.2C442.314 254.16 442.459 254.123 442.6 254.079C442.617 254.073 442.634 254.07 442.651 254.064C442.891 253.988 443.127 253.905 443.356 253.814L444.81 254.651L447.302 253.206L447.306 252.112L444.813 253.556L443.359 252.72Z" fill="url(#paint52_linear_20_1541)"/>
<path d="M436.417 253.535C436.195 253.51 435.976 253.476 435.757 253.442C435.6 253.417 435.444 253.39 435.289 253.361C435.153 253.335 435.018 253.307 434.883 253.277C434.698 253.237 434.516 253.191 434.335 253.144C434.192 253.106 434.048 253.07 433.908 253.027C433.846 253.009 433.784 252.99 433.722 252.97C433.479 252.893 433.238 252.811 433.005 252.72C433.005 252.72 433.004 252.72 433.004 252.72L431.557 253.557L429.048 252.113L429.045 253.207L431.554 254.651L433 253.814C433.234 253.905 433.475 253.986 433.719 254.064C433.781 254.084 433.842 254.103 433.905 254.121C433.968 254.14 434.029 254.161 434.093 254.18C434.171 254.202 434.252 254.217 434.331 254.238C434.513 254.286 434.695 254.331 434.88 254.371C434.94 254.385 434.998 254.403 435.058 254.415C435.133 254.43 435.21 254.44 435.285 254.454C435.441 254.484 435.597 254.511 435.754 254.536C435.826 254.547 435.896 254.563 435.968 254.573C436.116 254.593 436.264 254.612 436.413 254.629L436.414 254.629L436.421 255.812H439.957L439.96 254.718H436.424L436.417 253.535Z" fill="url(#paint53_linear_20_1541)"/>
<path d="M444.813 253.556L443.359 252.719C442.314 253.129 441.154 253.401 439.954 253.535L439.961 254.718H436.425L436.418 253.535C435.217 253.401 434.054 253.129 433.004 252.719L431.558 253.557L429.049 252.113L430.495 251.275C429.782 250.67 429.307 249.999 429.072 249.306H427.023L427.012 247.265H429.06C429.288 246.572 429.758 245.902 430.461 245.296L429.008 244.459L431.501 243.015L432.954 243.852C434.002 243.444 435.16 243.17 436.359 243.036L436.352 241.854H439.888L439.895 243.036C441.096 243.17 442.256 243.444 443.309 243.852L444.753 243.015L447.262 244.459L445.818 245.296C446.528 245.902 447.005 246.571 447.241 247.264H449.29L449.301 249.306H447.253C447.025 249.999 446.557 250.669 445.852 251.275L447.305 252.111L444.813 253.556ZM434.889 250.181C436.705 251.226 439.639 251.225 441.444 250.18C443.249 249.134 443.242 247.44 441.425 246.395C439.608 245.349 436.672 245.349 434.867 246.395C433.062 247.44 433.072 249.135 434.889 250.181Z" fill="url(#paint54_linear_20_1541)" stroke="white" stroke-miterlimit="10"/>
<path d="M426.455 255.16C426.455 247.531 420.178 241.703 412.434 241.703C404.69 241.703 398.412 247.887 398.412 255.515C398.412 263.144 404.69 269.328 412.434 269.328C420.177 269.328 426.455 262.789 426.455 255.16Z" fill="url(#paint55_linear_20_1541)"/>
<path d="M412.432 242.483C419.856 242.483 425.671 248.051 425.671 255.16C425.671 258.666 424.291 262.004 421.787 264.559C419.266 267.131 415.943 268.548 412.432 268.548C405.132 268.548 399.193 262.701 399.193 255.515C399.193 248.329 405.132 242.483 412.432 242.483ZM412.432 241.703C404.688 241.703 398.41 247.887 398.41 255.515C398.41 263.144 404.688 269.328 412.432 269.328C420.176 269.328 426.453 262.788 426.453 255.16C426.454 247.531 420.176 241.703 412.432 241.703Z" fill="url(#paint56_linear_20_1541)"/>
<defs>
<linearGradient id="paint0_linear_20_1541" x1="381.035" y1="161.28" x2="461.098" y2="161.28" gradientUnits="userSpaceOnUse">
<stop offset="0.0607" stop-color="#28A8E0"/>
<stop offset="0.9984" stop-color="#29ABE2" stop-opacity="0"/>
</linearGradient>
<linearGradient id="paint1_linear_20_1541" x1="402.061" y1="158.286" x2="439.132" y2="158.286" gradientUnits="userSpaceOnUse">
<stop stop-color="#BD8AAE"/>
<stop offset="1" stop-color="#2484C6" stop-opacity="0"/>
</linearGradient>
<linearGradient id="paint2_linear_20_1541" x1="401.367" y1="158.364" x2="439.71" y2="158.364" gradientUnits="userSpaceOnUse">
<stop stop-color="#BD8AAE"/>
<stop offset="1" stop-color="#2484C6" stop-opacity="0"/>
</linearGradient>
<linearGradient id="paint3_linear_20_1541" x1="412.877" y1="162.611" x2="439.088" y2="162.611" gradientUnits="userSpaceOnUse">
<stop stop-color="#BD8AAE"/>
<stop offset="1" stop-color="#2484C6" stop-opacity="0"/>
</linearGradient>
<linearGradient id="paint4_linear_20_1541" x1="412.274" y1="162.639" x2="439.666" y2="162.639" gradientUnits="userSpaceOnUse">
<stop stop-color="#BD8AAE"/>
<stop offset="1" stop-color="#2484C6" stop-opacity="0"/>
</linearGradient>
<linearGradient id="paint5_linear_20_1541" x1="400.055" y1="161.053" x2="429.803" y2="161.053" gradientUnits="userSpaceOnUse">
<stop offset="0.0607" stop-color="#28A8E0"/>
<stop offset="0.9984" stop-color="#29ABE2" stop-opacity="0"/>
</linearGradient>
<linearGradient id="paint6_linear_20_1541" x1="399.281" y1="161.051" x2="430.577" y2="161.051" gradientUnits="userSpaceOnUse">
<stop stop-color="#BD8AAE"/>
<stop offset="1" stop-color="#2484C6" stop-opacity="0"/>
</linearGradient>
<linearGradient id="paint7_linear_20_1541" x1="387.369" y1="261.075" x2="484.861" y2="261.075" gradientUnits="userSpaceOnUse">
<stop stop-color="#21409A"/>
<stop offset="0.9984" stop-color="#29ABE2" stop-opacity="0"/>
</linearGradient>
<linearGradient id="paint8_linear_20_1541" x1="387.565" y1="250.683" x2="484.665" y2="250.683" gradientUnits="userSpaceOnUse">
<stop offset="0.0607" stop-color="#28A8E0"/>
<stop offset="0.9984" stop-color="#29ABE2" stop-opacity="0"/>
</linearGradient>
<linearGradient id="paint9_linear_20_1541" x1="248.472" y1="224.129" x2="273.473" y2="224.129" gradientUnits="userSpaceOnUse">
<stop stop-color="#6B385F"/>
<stop offset="0.4197" stop-color="#6F3B62" stop-opacity="0.7323"/>
<stop offset="0.5218" stop-color="#764268" stop-opacity="0.6035"/>
<stop offset="0.6937" stop-color="#8C567A" stop-opacity="0.3865"/>
<stop offset="0.9131" stop-color="#B5799B" stop-opacity="0.1096"/>
<stop offset="1" stop-color="#CC8DAE" stop-opacity="0"/>
</linearGradient>
<linearGradient id="paint10_linear_20_1541" x1="273.924" y1="188.501" x2="277.993" y2="188.501" gradientUnits="userSpaceOnUse">
<stop stop-color="#6B385F"/>
<stop offset="0.4197" stop-color="#6F3B62" stop-opacity="0.7323"/>
<stop offset="0.5218" stop-color="#764268" stop-opacity="0.6035"/>
<stop offset="0.6937" stop-color="#8C567A" stop-opacity="0.3865"/>
<stop offset="0.9131" stop-color="#B5799B" stop-opacity="0.1096"/>
<stop offset="1" stop-color="#CC8DAE" stop-opacity="0"/>
</linearGradient>
<linearGradient id="paint11_linear_20_1541" x1="237.692" y1="228.228" x2="255.391" y2="228.228" gradientUnits="userSpaceOnUse">
<stop stop-color="#BD8AAE"/>
<stop offset="1" stop-color="#2484C6" stop-opacity="0"/>
</linearGradient>
<linearGradient id="paint12_linear_20_1541" x1="262.805" y1="270.847" x2="278.576" y2="270.847" gradientUnits="userSpaceOnUse">
<stop stop-color="#BD8AAE"/>
<stop offset="1" stop-color="#2484C6" stop-opacity="0"/>
</linearGradient>
<linearGradient id="paint13_linear_20_1541" x1="239.389" y1="212.754" x2="290.695" y2="212.754" gradientUnits="userSpaceOnUse">
<stop offset="0.2372" stop-color="#21409A"/>
<stop offset="0.6554" stop-color="#215DAB" stop-opacity="0.5476"/>
<stop offset="0.9984" stop-color="#29ABE2" stop-opacity="0"/>
</linearGradient>
<linearGradient id="paint14_linear_20_1541" x1="281.578" y1="198.207" x2="290.695" y2="198.207" gradientUnits="userSpaceOnUse">
<stop offset="0.2372" stop-color="#21409A"/>
<stop offset="0.6554" stop-color="#215DAB" stop-opacity="0.5476"/>
<stop offset="0.9984" stop-color="#29ABE2" stop-opacity="0"/>
</linearGradient>
<linearGradient id="paint15_linear_20_1541" x1="254.941" y1="196.111" x2="271.55" y2="196.111" gradientUnits="userSpaceOnUse">
<stop stop-color="#7E4D71"/>
<stop offset="0.648" stop-color="#A17194"/>
</linearGradient>
<linearGradient id="paint16_linear_20_1541" x1="322.127" y1="184.937" x2="376.339" y2="184.937" gradientUnits="userSpaceOnUse">
<stop offset="0.0607" stop-color="#28A8E0"/>
<stop offset="0.9984" stop-color="#29ABE2" stop-opacity="0"/>
</linearGradient>
<linearGradient id="paint17_linear_20_1541" x1="376.012" y1="189.217" x2="353.319" y2="189.217" gradientUnits="userSpaceOnUse">
<stop offset="0.4247" stop-color="white"/>
<stop offset="1" stop-color="#2484C6" stop-opacity="0"/>
</linearGradient>
<linearGradient id="paint18_linear_20_1541" x1="363.109" y1="208.812" x2="372.981" y2="208.812" gradientUnits="userSpaceOnUse">
<stop offset="0.2372" stop-color="#21409A"/>
<stop offset="0.6554" stop-color="#215DAB" stop-opacity="0.5476"/>
<stop offset="0.9984" stop-color="#29ABE2" stop-opacity="0"/>
</linearGradient>
<linearGradient id="paint19_linear_20_1541" x1="224.029" y1="272.748" x2="250.249" y2="272.748" gradientUnits="userSpaceOnUse">
<stop stop-color="#BD8AAE"/>
<stop offset="1" stop-color="#2484C6" stop-opacity="0"/>
</linearGradient>
<linearGradient id="paint20_linear_20_1541" x1="224.029" y1="272.748" x2="250.249" y2="272.748" gradientUnits="userSpaceOnUse">
<stop offset="0.0607" stop-color="#28A8E0"/>
<stop offset="0.9984" stop-color="#29ABE2" stop-opacity="0"/>
</linearGradient>
<linearGradient id="paint21_linear_20_1541" x1="326.566" y1="288.771" x2="352.786" y2="288.771" gradientUnits="userSpaceOnUse">
<stop stop-color="#BD8AAE"/>
<stop offset="1" stop-color="#2484C6" stop-opacity="0"/>
</linearGradient>
<linearGradient id="paint22_linear_20_1541" x1="326.566" y1="288.771" x2="352.786" y2="288.771" gradientUnits="userSpaceOnUse">
<stop offset="0.0607" stop-color="#28A8E0"/>
<stop offset="0.9984" stop-color="#29ABE2" stop-opacity="0"/>
</linearGradient>
<linearGradient id="paint23_linear_20_1541" x1="386.843" y1="227.535" x2="405.289" y2="227.535" gradientUnits="userSpaceOnUse">
<stop stop-color="#BD8AAE"/>
<stop offset="1" stop-color="#2484C6" stop-opacity="0"/>
</linearGradient>
<linearGradient id="paint24_linear_20_1541" x1="386.843" y1="227.535" x2="405.289" y2="227.535" gradientUnits="userSpaceOnUse">
<stop offset="0.0607" stop-color="#28A8E0"/>
<stop offset="0.9984" stop-color="#29ABE2" stop-opacity="0"/>
</linearGradient>
<linearGradient id="paint25_linear_20_1541" x1="295.129" y1="162.774" x2="302.651" y2="162.774" gradientUnits="userSpaceOnUse">
<stop offset="0.0607" stop-color="#28A8E0"/>
<stop offset="0.9984" stop-color="#29ABE2" stop-opacity="0"/>
</linearGradient>
<linearGradient id="paint26_linear_20_1541" x1="303.325" y1="179.37" x2="306.284" y2="186.264" gradientUnits="userSpaceOnUse">
<stop offset="0.0607" stop-color="#28A8E0"/>
<stop offset="0.9984" stop-color="#29ABE2" stop-opacity="0"/>
</linearGradient>
<linearGradient id="paint27_linear_20_1541" x1="310.453" y1="171.389" x2="316.171" y2="171.389" gradientUnits="userSpaceOnUse">
<stop stop-color="#BD8AAE"/>
<stop offset="1" stop-color="#2484C6" stop-opacity="0"/>
</linearGradient>
<linearGradient id="paint28_linear_20_1541" x1="310.826" y1="170.532" x2="316.409" y2="172.783" gradientUnits="userSpaceOnUse">
<stop stop-color="#BD8AAE"/>
<stop offset="1" stop-color="#2484C6" stop-opacity="0"/>
</linearGradient>
<linearGradient id="paint29_linear_20_1541" x1="286.136" y1="148.02" x2="293.659" y2="148.02" gradientUnits="userSpaceOnUse">
<stop offset="0.0607" stop-color="#28A8E0"/>
<stop offset="0.9984" stop-color="#29ABE2" stop-opacity="0"/>
</linearGradient>
<linearGradient id="paint30_linear_20_1541" x1="267.294" y1="166.379" x2="270.254" y2="173.274" gradientUnits="userSpaceOnUse">
<stop offset="0.0607" stop-color="#28A8E0"/>
<stop offset="0.9984" stop-color="#29ABE2" stop-opacity="0"/>
</linearGradient>
<linearGradient id="paint31_linear_20_1541" x1="274.424" y1="158.398" x2="280.141" y2="158.398" gradientUnits="userSpaceOnUse">
<stop stop-color="#BD8AAE"/>
<stop offset="1" stop-color="#2484C6" stop-opacity="0"/>
</linearGradient>
<linearGradient id="paint32_linear_20_1541" x1="274.797" y1="157.543" x2="280.38" y2="159.795" gradientUnits="userSpaceOnUse">
<stop stop-color="#BD8AAE"/>
<stop offset="1" stop-color="#2484C6" stop-opacity="0"/>
</linearGradient>
<linearGradient id="paint33_linear_20_1541" x1="309.344" y1="137.756" x2="312.141" y2="142.751" gradientUnits="userSpaceOnUse">
<stop offset="0.0607" stop-color="#28A8E0"/>
<stop offset="0.9984" stop-color="#29ABE2" stop-opacity="0"/>
</linearGradient>
<linearGradient id="paint34_linear_20_1541" x1="301.361" y1="149.38" x2="297.891" y2="153.936" gradientUnits="userSpaceOnUse">
<stop offset="0.0607" stop-color="#28A8E0"/>
<stop offset="0.9984" stop-color="#29ABE2" stop-opacity="0"/>
</linearGradient>
<linearGradient id="paint35_linear_20_1541" x1="309.321" y1="151.134" x2="311.447" y2="154.93" gradientUnits="userSpaceOnUse">
<stop stop-color="#BD8AAE"/>
<stop offset="1" stop-color="#2484C6" stop-opacity="0"/>
</linearGradient>
<linearGradient id="paint36_linear_20_1541" x1="310.035" y1="151.058" x2="310.624" y2="155.599" gradientUnits="userSpaceOnUse">
<stop stop-color="#BD8AAE"/>
<stop offset="1" stop-color="#2484C6" stop-opacity="0"/>
</linearGradient>
<linearGradient id="paint37_linear_20_1541" x1="456.5" y1="230.264" x2="456.513" y2="230.264" gradientUnits="userSpaceOnUse">
<stop offset="0.0607" stop-color="#28A8E0"/>
<stop offset="0.9984" stop-color="#29ABE2" stop-opacity="0"/>
</linearGradient>
<linearGradient id="paint38_linear_20_1541" x1="468.697" y1="233.399" x2="470.562" y2="233.399" gradientUnits="userSpaceOnUse">
<stop offset="0.0607" stop-color="#28A8E0"/>
<stop offset="0.9984" stop-color="#29ABE2" stop-opacity="0"/>
</linearGradient>
<linearGradient id="paint39_linear_20_1541" x1="447.035" y1="233.399" x2="448.912" y2="233.399" gradientUnits="userSpaceOnUse">
<stop offset="0.0607" stop-color="#28A8E0"/>
<stop offset="0.9984" stop-color="#29ABE2" stop-opacity="0"/>
</linearGradient>
<linearGradient id="paint40_linear_20_1541" x1="452.849" y1="236.075" x2="464.802" y2="236.075" gradientUnits="userSpaceOnUse">
<stop offset="0.0607" stop-color="#28A8E0"/>
<stop offset="0.9984" stop-color="#29ABE2" stop-opacity="0"/>
</linearGradient>
<linearGradient id="paint41_linear_20_1541" x1="468.74" y1="240.373" x2="473.189" y2="240.373" gradientUnits="userSpaceOnUse">
<stop offset="0.0607" stop-color="#28A8E0"/>
<stop offset="0.9984" stop-color="#29ABE2" stop-opacity="0"/>
</linearGradient>
<linearGradient id="paint42_linear_20_1541" x1="444.478" y1="240.373" x2="448.956" y2="240.373" gradientUnits="userSpaceOnUse">
<stop offset="0.0607" stop-color="#28A8E0"/>
<stop offset="0.9984" stop-color="#29ABE2" stop-opacity="0"/>
</linearGradient>
<linearGradient id="paint43_linear_20_1541" x1="461.14" y1="243.65" x2="470.616" y2="243.65" gradientUnits="userSpaceOnUse">
<stop offset="0.0607" stop-color="#28A8E0"/>
<stop offset="0.9984" stop-color="#29ABE2" stop-opacity="0"/>
</linearGradient>
<linearGradient id="paint44_linear_20_1541" x1="447.09" y1="244.399" x2="461.154" y2="244.399" gradientUnits="userSpaceOnUse">
<stop offset="0.0607" stop-color="#28A8E0"/>
<stop offset="0.9984" stop-color="#29ABE2" stop-opacity="0"/>
</linearGradient>
<linearGradient id="paint45_linear_20_1541" x1="444.469" y1="237.084" x2="473.191" y2="237.084" gradientUnits="userSpaceOnUse">
<stop offset="0.0607" stop-color="#28A8E0"/>
<stop offset="0.9984" stop-color="#29ABE2" stop-opacity="0"/>
</linearGradient>
<linearGradient id="paint46_linear_20_1541" x1="436.348" y1="242.993" x2="436.358" y2="242.993" gradientUnits="userSpaceOnUse">
<stop offset="0.0607" stop-color="#28A8E0"/>
<stop offset="0.9984" stop-color="#29ABE2" stop-opacity="0"/>
</linearGradient>
<linearGradient id="paint47_linear_20_1541" x1="445.815" y1="245.426" x2="447.262" y2="245.426" gradientUnits="userSpaceOnUse">
<stop offset="0.0607" stop-color="#28A8E0"/>
<stop offset="0.9984" stop-color="#29ABE2" stop-opacity="0"/>
</linearGradient>
<linearGradient id="paint48_linear_20_1541" x1="429.004" y1="245.426" x2="430.46" y2="245.426" gradientUnits="userSpaceOnUse">
<stop offset="0.0607" stop-color="#28A8E0"/>
<stop offset="0.9984" stop-color="#29ABE2" stop-opacity="0"/>
</linearGradient>
<linearGradient id="paint49_linear_20_1541" x1="433.516" y1="247.503" x2="442.792" y2="247.503" gradientUnits="userSpaceOnUse">
<stop offset="0.0607" stop-color="#28A8E0"/>
<stop offset="0.9984" stop-color="#29ABE2" stop-opacity="0"/>
</linearGradient>
<linearGradient id="paint50_linear_20_1541" x1="445.848" y1="250.838" x2="449.301" y2="250.838" gradientUnits="userSpaceOnUse">
<stop offset="0.0607" stop-color="#28A8E0"/>
<stop offset="0.9984" stop-color="#29ABE2" stop-opacity="0"/>
</linearGradient>
<linearGradient id="paint51_linear_20_1541" x1="427.019" y1="250.839" x2="430.495" y2="250.839" gradientUnits="userSpaceOnUse">
<stop offset="0.0607" stop-color="#28A8E0"/>
<stop offset="0.9984" stop-color="#29ABE2" stop-opacity="0"/>
</linearGradient>
<linearGradient id="paint52_linear_20_1541" x1="439.951" y1="253.381" x2="447.305" y2="253.381" gradientUnits="userSpaceOnUse">
<stop offset="0.0607" stop-color="#28A8E0"/>
<stop offset="0.9984" stop-color="#29ABE2" stop-opacity="0"/>
</linearGradient>
<linearGradient id="paint53_linear_20_1541" x1="429.045" y1="253.963" x2="439.96" y2="253.963" gradientUnits="userSpaceOnUse">
<stop offset="0.0607" stop-color="#28A8E0"/>
<stop offset="0.9984" stop-color="#29ABE2" stop-opacity="0"/>
</linearGradient>
<linearGradient id="paint54_linear_20_1541" x1="427.012" y1="248.286" x2="449.302" y2="248.286" gradientUnits="userSpaceOnUse">
<stop offset="0.0607" stop-color="#28A8E0"/>
<stop offset="0.9984" stop-color="#29ABE2" stop-opacity="0"/>
</linearGradient>
<linearGradient id="paint55_linear_20_1541" x1="398.412" y1="255.515" x2="426.455" y2="255.515" gradientUnits="userSpaceOnUse">
<stop stop-color="#BD8AAE"/>
<stop offset="1" stop-color="#2484C6" stop-opacity="0"/>
</linearGradient>
<linearGradient id="paint56_linear_20_1541" x1="398.41" y1="255.515" x2="426.454" y2="255.515" gradientUnits="userSpaceOnUse">
<stop stop-color="#BD8AAE"/>
<stop offset="1" stop-color="#2484C6" stop-opacity="0"/>
</linearGradient>
</defs>
</svg>
