<svg width="476" height="358" viewBox="0 0 476 358" fill="none" xmlns="http://www.w3.org/2000/svg">
<g opacity="0.28">
<path opacity="0.28" d="M250.812 307.181L147.685 247.468C143.949 245.305 143.949 239.898 147.685 237.735L262.109 171.492C265.927 169.282 270.629 169.277 274.451 171.48L379.894 232.25C383.638 234.408 383.644 239.823 379.904 241.989L267.313 307.181C262.207 310.137 255.917 310.137 250.812 307.181Z" fill="#CDE9F9"/>
</g>
<g opacity="0.46">
<path opacity="0.46" d="M147.876 143.486L96.5319 173.135C94.5859 174.258 92.1562 172.85 92.1562 170.598V154.661C92.1562 153.614 92.7138 152.646 93.6188 152.124L144.963 122.475C146.909 121.351 149.339 122.76 149.339 125.012V140.949C149.339 141.996 148.781 142.963 147.876 143.486Z" fill="#CDE9F9"/>
</g>
<g opacity="0.46">
<path opacity="0.46" d="M211.334 118.896L159.989 148.545C158.043 149.669 155.613 148.26 155.613 146.008V130.07C155.613 129.024 156.171 128.056 157.076 127.534L208.42 97.885C210.366 96.7612 212.796 98.1699 212.796 100.422V116.359C212.796 117.406 212.238 118.374 211.334 118.896Z" fill="#CDE9F9"/>
</g>
<g opacity="0.46">
<path opacity="0.46" d="M216.134 86.7461L164.79 116.395C162.844 117.519 160.414 116.11 160.414 113.858V97.9208C160.414 96.8739 160.972 95.9064 161.877 95.3841L213.221 65.7354C215.167 64.6116 217.597 66.0203 217.597 68.2721V84.2094C217.597 85.2565 217.039 86.2237 216.134 86.7461Z" fill="#CDE9F9"/>
</g>
<path d="M369.658 126.66V243.905C369.658 245.945 368.563 247.828 366.79 248.83L359.915 252.715L358.29 142.74L358.097 129.649L228.369 52.5628L234.736 48.8754C236.827 47.6642 239.403 47.6642 241.495 48.8754L366.573 121.299C367.715 121.961 368.593 122.958 369.113 124.124C369.467 124.909 369.658 125.771 369.658 126.66Z" fill="#CDE9F9"/>
<path d="M369.658 126.66V243.905C369.658 245.945 368.564 247.828 366.791 248.83L359.915 252.715L358.291 142.74V130.231L369.114 124.124C369.468 124.909 369.658 125.771 369.658 126.66Z" fill="#AECFDC"/>
<path d="M228.371 172.656V52.5613L355.579 126.217C358.263 127.771 359.916 130.642 359.916 133.749V252.715L231.852 178.697C229.698 177.452 228.371 175.149 228.371 172.656Z" fill="#7CCAF1"/>
<path d="M228.371 172.656V52.5613L355.579 126.217C358.263 127.771 359.916 130.642 359.916 133.749V252.715L231.852 178.697C229.698 177.452 228.371 175.149 228.371 172.656Z" fill="url(#paint0_linear_20_2687)"/>
<path d="M235.296 144.003L265.166 161.298C266.515 162.079 267.346 163.523 267.346 165.085V165.152C267.346 166.507 265.883 167.355 264.712 166.677L234.886 149.407C233.869 148.818 233.242 147.73 233.242 146.552V145.192C233.242 144.135 234.383 143.474 235.296 144.003Z" fill="#17A1DB"/>
<path d="M235.296 152.265L265.166 169.56C266.515 170.341 267.346 171.784 267.346 173.346V173.413C267.346 174.769 265.883 175.616 264.712 174.938L234.886 157.669C233.869 157.08 233.242 155.991 233.242 154.813V153.453C233.242 152.396 234.383 151.736 235.296 152.265Z" fill="#E7F6FD"/>
<path d="M235.296 160.332L265.166 177.627C266.515 178.408 267.346 179.851 267.346 181.413V181.48C267.346 182.836 265.883 183.683 264.712 183.005L234.886 165.736C233.869 165.147 233.242 164.059 233.242 162.881V161.521C233.242 160.464 234.383 159.803 235.296 160.332Z" fill="#17A1DB"/>
<path d="M235.296 168.593L265.166 185.888C266.515 186.669 267.346 188.113 267.346 189.675V189.742C267.346 191.097 265.883 191.945 264.712 191.267L234.886 173.997C233.869 173.408 233.242 172.32 233.242 171.142V169.782C233.242 168.725 234.383 168.065 235.296 168.593Z" fill="#17A1DB"/>
<path d="M278.403 94.0824L353.165 137.372C354.074 137.898 354.634 138.87 354.634 139.923V218.643C354.634 220.513 352.615 221.682 351 220.747L279.317 179.241C277.686 178.297 276.682 176.553 276.682 174.665V95.0789C276.682 94.1931 277.638 93.6397 278.403 94.0824Z" fill="url(#paint1_linear_20_2687)"/>
<path d="M273.94 95.8724L348.702 139.161C349.611 139.688 350.171 140.66 350.171 141.713V220.433C350.171 222.303 348.152 223.472 346.537 222.537L274.854 181.031C273.223 180.087 272.219 178.343 272.219 176.455V96.8689C272.219 95.9831 273.175 95.4297 273.94 95.8724Z" fill="white"/>
<path d="M276.898 112.423V152.124C276.898 153.425 277.595 154.626 278.723 155.269L297.768 166.123C299.412 167.059 301.452 165.869 301.452 163.973V125.148C301.452 123.776 300.713 122.511 299.521 121.839L279.793 110.724C278.498 109.994 276.898 110.933 276.898 112.423Z" fill="url(#paint2_linear_20_2687)"/>
<path d="M306.277 128.671L306.317 140.943C306.32 142.042 306.905 143.057 307.853 143.609L342.568 163.812C343.78 164.517 345.299 163.64 345.299 162.235V150.397C345.299 149.208 344.666 148.108 343.639 147.514L308.683 127.274C307.612 126.654 306.273 127.431 306.277 128.671Z" fill="#BD8AAE"/>
<path d="M308.464 149.714L343.716 170.126C344.696 170.693 345.3 171.742 345.3 172.876V173.703C345.3 175.028 343.869 175.857 342.725 175.194L307.713 154.922C306.82 154.404 306.27 153.448 306.27 152.414V150.985C306.27 149.856 307.489 149.15 308.464 149.714Z" fill="#BD8AAE"/>
<path d="M306.322 162.598V186.286C306.322 187.308 306.866 188.253 307.748 188.765L323.217 197.747C324.357 198.409 325.783 197.584 325.783 196.263V173.008C325.783 171.783 325.129 170.652 324.07 170.043L308.702 161.215C307.643 160.606 306.322 161.373 306.322 162.598Z" fill="#306097"/>
<path d="M330.684 176.725V200.203C330.684 201.361 331.299 202.43 332.299 203.009L342.538 208.937C343.766 209.648 345.3 208.76 345.3 207.338V184.719C345.3 183.239 344.513 181.871 343.234 181.13L333.155 175.295C332.057 174.659 330.684 175.453 330.684 176.725Z" fill="#3C7FBE"/>
<path d="M287.39 165.521C283.371 163.218 280.082 165.097 280.082 169.696C280.082 174.296 283.371 179.989 287.39 182.347C291.41 184.705 294.698 182.826 294.698 178.171C294.698 173.517 291.409 167.824 287.39 165.521Z" fill="#3C7FBE"/>
<path d="M272.219 100.302L350.144 145.638V141.68C350.144 140.648 349.595 139.694 348.704 139.178L273.916 95.8596C273.162 95.4225 272.219 95.9685 272.219 96.8423V100.302Z" fill="#3C7FBE"/>
<path d="M275.615 98.2663C274.909 97.862 274.332 98.192 274.332 98.9993C274.332 99.8066 274.909 100.806 275.615 101.22C276.321 101.634 276.898 101.304 276.898 100.487C276.898 99.6699 276.32 98.6705 275.615 98.2663Z" fill="white"/>
<path d="M279.728 100.693C279.022 100.289 278.445 100.619 278.445 101.426C278.445 102.234 279.022 103.233 279.728 103.647C280.434 104.061 281.011 103.731 281.011 102.914C281.011 102.097 280.434 101.098 279.728 100.693Z" fill="#E7F6FD"/>
<path d="M283.775 102.914C283.069 102.51 282.492 102.839 282.492 103.647C282.492 104.455 283.07 105.454 283.775 105.868C284.481 106.282 285.058 105.952 285.058 105.135C285.058 104.318 284.481 103.319 283.775 102.914Z" fill="#CDE9F9"/>
<path d="M241.387 73.3733L270.211 90.0627C271.384 90.7417 272.106 91.9968 272.106 93.3548V154.173C272.106 156.258 269.856 157.561 268.055 156.518L239.785 140.149C238.681 139.51 238.002 138.33 238.002 137.053V75.3327C238.002 73.5908 239.883 72.5022 241.387 73.3733Z" fill="url(#paint3_linear_20_2687)"/>
<path d="M236.627 74.2683L265.451 90.9577C266.624 91.6367 267.346 92.8918 267.346 94.2498V155.068C267.346 157.153 265.096 158.456 263.296 157.413L235.025 141.044C233.922 140.405 233.242 139.225 233.242 137.948V76.2278C233.242 74.4858 235.123 73.3972 236.627 74.2683Z" fill="#222457"/>
<path d="M236.627 74.2683L265.451 90.9577C266.624 91.6367 267.346 92.8918 267.346 94.2498V155.068C267.346 157.153 265.096 158.456 263.296 157.413L235.025 141.044C233.922 140.405 233.242 139.225 233.242 137.948V76.2278C233.242 74.4858 235.123 73.3972 236.627 74.2683Z" fill="url(#paint4_linear_20_2687)"/>
<path d="M235.588 78.9149V79.8394L239.461 82.0796V81.155L235.588 78.9149Z" fill="#CDE9F9"/>
<path d="M235.588 80.6037V81.5282L239.461 83.7684V82.8439L235.588 80.6037Z" fill="#CDE9F9"/>
<path d="M235.588 82.2925V83.2174L239.461 85.4576V84.533L235.588 82.2925Z" fill="#CDE9F9"/>
<path d="M264.817 101.813V100.888L240.914 87.0621V87.9869L264.817 101.813Z" fill="#CDE9F9"/>
<path d="M235.588 83.9817V84.9059L239.461 87.1464V86.2216L235.588 83.9817Z" fill="#CDE9F9"/>
<path d="M235.588 85.6706V86.5951L239.461 88.8353V87.9108L235.588 85.6706Z" fill="#CDE9F9"/>
<path d="M264.817 103.501V102.577L240.914 88.7512V89.6758L264.817 103.501Z" fill="#CDE9F9"/>
<path d="M235.588 90.7375V91.6617L239.461 93.9019V92.9773L235.588 90.7375Z" fill="#CDE9F9"/>
<path d="M235.588 92.4263V93.3509L239.461 95.591V94.6665L235.588 92.4263Z" fill="#CDE9F9"/>
<path d="M235.588 99.1818V100.106L239.461 102.347V101.422L235.588 99.1818Z" fill="#CDE9F9"/>
<path d="M235.588 100.871V101.796L239.461 104.035V103.111L235.588 100.871Z" fill="#CDE9F9"/>
<path d="M255.994 112.674L240.914 103.952V104.876L255.994 113.598V112.674Z" fill="#CDE9F9"/>
<path d="M256.789 113.133V114.058L264.818 118.702V117.778L256.789 113.133Z" fill="#CDE9F9"/>
<path d="M248.49 106.645L240.914 102.263V103.187L248.49 107.569V106.645Z" fill="#CDE9F9"/>
<path d="M249.285 107.105V108.029L264.817 117.013V116.088L249.285 107.105Z" fill="#CDE9F9"/>
<path d="M262.773 109.84V110.764L264.817 111.946V111.022L262.773 109.84Z" fill="#CDE9F9"/>
<path d="M251.654 101.719L240.914 95.507V96.4315L251.654 102.644V101.719Z" fill="#CDE9F9"/>
<path d="M247.253 85.6623L240.914 81.9955V82.9203L247.253 86.5868V85.6623Z" fill="#CDE9F9"/>
<path d="M257.645 91.6728L248.049 86.122V87.0468L257.645 92.5976V91.6728Z" fill="#CDE9F9"/>
<path d="M252.051 90.1269L245.295 86.2187V87.1432L252.051 91.0514V90.1269Z" fill="#CDE9F9"/>
<path d="M259.14 94.2271L252.846 90.5863V91.5111L259.14 95.1517V94.2271Z" fill="#CDE9F9"/>
<path d="M259.936 94.6869V95.6114L264.817 98.4349V97.5103L259.936 94.6869Z" fill="#CDE9F9"/>
<path d="M242.162 86.0958V87.0203L247.253 89.9646V89.04L242.162 86.0958Z" fill="#CDE9F9"/>
<path d="M262.826 98.0472L248.049 89.5V90.4245L262.826 98.9718V98.0472Z" fill="#CDE9F9"/>
<path d="M254.364 98.2206L244.707 92.6346V93.5591L254.364 99.1451V98.2206Z" fill="#CDE9F9"/>
<path d="M262.826 103.114L255.16 98.6801V99.6049L262.826 104.039V103.114Z" fill="#CDE9F9"/>
<path d="M261.979 107.691L252.449 102.179V103.103L261.979 108.616V107.691Z" fill="#CDE9F9"/>
<path d="M256.787 106.378V107.303L261.978 110.305V109.38L256.787 106.378Z" fill="#CDE9F9"/>
<path d="M242.783 98.277L240.914 97.1958V98.1203L242.783 99.2015V98.277Z" fill="#CDE9F9"/>
<path d="M246.285 100.302V101.227L255.995 106.843V105.918L246.285 100.302Z" fill="#CDE9F9"/>
<path d="M245.49 99.8423L243.578 98.7367V99.6612L245.49 100.767V99.8423Z" fill="#CDE9F9"/>
<path d="M254.198 106.568L243.578 100.426V101.35L254.198 107.492V106.568Z" fill="#CDE9F9"/>
<path d="M235.588 105.715V106.64L239.461 108.88V107.955L235.588 105.715Z" fill="#BD8AAE"/>
<path d="M235.588 107.404V108.329L239.461 110.569V109.644L235.588 107.404Z" fill="#BD8AAE"/>
<path d="M235.588 109.093V110.018L239.461 112.258V111.333L235.588 109.093Z" fill="#BD8AAE"/>
<path d="M264.817 128.613V127.688L240.914 113.862V114.787L264.817 128.613Z" fill="#BD8AAE"/>
<path d="M235.588 110.782V111.706L239.461 113.947V113.022L235.588 110.782Z" fill="#BD8AAE"/>
<path d="M235.588 112.471V113.395L239.461 115.635V114.711L235.588 112.471Z" fill="#BD8AAE"/>
<path d="M264.817 130.302V129.377L240.914 115.551V116.476L264.817 130.302Z" fill="#BD8AAE"/>
<path d="M235.588 117.538V118.462L239.461 120.702V119.778L235.588 117.538Z" fill="#BD8AAE"/>
<path d="M235.588 119.227V120.151L239.461 122.391V121.467L235.588 119.227Z" fill="#BD8AAE"/>
<path d="M235.588 125.982V126.907L239.461 129.147V128.222L235.588 125.982Z" fill="#BD8AAE"/>
<path d="M235.588 127.671V128.596L239.461 130.836V129.911L235.588 127.671Z" fill="#BD8AAE"/>
<path d="M255.994 139.474L240.914 130.752V131.677L255.994 140.399V139.474Z" fill="#BD8AAE"/>
<path d="M256.789 139.934V140.858L264.818 145.502V144.578L256.789 139.934Z" fill="#BD8AAE"/>
<path d="M248.49 133.445L240.914 129.063V129.987L248.49 134.37V133.445Z" fill="#BD8AAE"/>
<path d="M249.285 133.905V134.829L264.817 143.813V142.889L249.285 133.905Z" fill="#BD8AAE"/>
<path d="M262.773 136.64V137.564L264.817 138.746V137.822L262.773 136.64Z" fill="#BD8AAE"/>
<path d="M251.654 128.52L240.914 122.307V123.232L251.654 129.444V128.52Z" fill="#BD8AAE"/>
<path d="M247.253 112.463L240.914 108.796V109.72L247.253 113.387V112.463Z" fill="#BD8AAE"/>
<path d="M257.645 118.473L248.049 112.922V113.847L257.645 119.398V118.473Z" fill="#BD8AAE"/>
<path d="M252.051 116.927L245.295 113.019V113.943L252.051 117.851V116.927Z" fill="#BD8AAE"/>
<path d="M259.14 121.027L252.846 117.387V118.311L259.14 121.952V121.027Z" fill="#BD8AAE"/>
<path d="M259.936 121.487V122.412L264.817 125.235V124.31L259.936 121.487Z" fill="#BD8AAE"/>
<path d="M242.162 112.896V113.82L247.253 116.765V115.84L242.162 112.896Z" fill="#BD8AAE"/>
<path d="M262.826 124.847L248.049 116.3V117.225L262.826 125.772V124.847Z" fill="#BD8AAE"/>
<path d="M254.364 125.021L244.707 119.435V120.359L254.364 125.945V125.021Z" fill="#BD8AAE"/>
<path d="M262.826 129.914L255.16 125.48V126.405L262.826 130.839V129.914Z" fill="#BD8AAE"/>
<path d="M261.979 134.491L252.449 128.979V129.904L261.979 135.416V134.491Z" fill="#BD8AAE"/>
<path d="M256.787 133.178V134.103L261.978 137.105V136.18L256.787 133.178Z" fill="#BD8AAE"/>
<path d="M242.783 125.077L240.914 123.996V124.921L242.783 126.002V125.077Z" fill="#BD8AAE"/>
<path d="M246.285 127.102V128.027L255.995 133.643V132.718L246.285 127.102Z" fill="#BD8AAE"/>
<path d="M245.49 126.642L243.578 125.537V126.461L245.49 127.567V126.642Z" fill="#BD8AAE"/>
<path d="M254.198 133.368L243.578 127.226V128.151L254.198 134.293V133.368Z" fill="#BD8AAE"/>
<path d="M242.2 135.213C242.1 135.315 242.053 135.513 242.052 135.805L242.048 137.1V137.133C242.048 137.38 241.969 137.512 241.812 137.53C241.655 137.547 241.431 137.471 241.141 137.304L241.139 138.206C241.428 138.373 241.652 138.557 241.809 138.759C241.965 138.961 242.042 139.196 242.042 139.463L242.038 140.744C242.037 141.035 242.084 141.288 242.182 141.507C242.278 141.725 242.432 141.932 242.643 142.129C242.854 142.327 243.146 142.532 243.517 142.747L243.519 141.893C243.279 141.745 243.117 141.6 243.032 141.457C242.946 141.311 242.905 141.143 242.905 140.947L242.909 139.721V139.673C242.91 139.183 242.642 138.739 242.1 138.332V138.284C242.635 138.503 242.905 138.352 242.914 137.834L242.917 136.607C242.918 136.409 242.963 136.29 243.049 136.247C243.136 136.203 243.297 136.249 243.535 136.377L243.537 135.524C243.172 135.312 242.882 135.181 242.668 135.132C242.451 135.081 242.297 135.109 242.2 135.213Z" fill="#CDE9F9"/>
<path d="M247.248 140.676C247.097 140.48 247.02 140.258 247.02 140.011V139.978L247.024 138.683C247.025 138.265 246.916 137.907 246.692 137.606C246.471 137.306 246.088 137 245.54 136.683L245.538 137.536C245.775 137.683 245.939 137.826 246.025 137.969C246.111 138.109 246.152 138.28 246.152 138.479L246.148 139.705C246.157 140.234 246.43 140.699 246.964 141.099V141.147C246.698 141.041 246.494 141.019 246.356 141.087C246.214 141.155 246.143 141.31 246.143 141.556V141.592L246.139 142.819C246.139 143.017 246.096 143.14 246.01 143.184C245.924 143.224 245.759 143.18 245.522 143.051L245.52 143.905C246.065 144.221 246.448 144.355 246.673 144.314C246.895 144.271 247.008 144.041 247.01 143.621L247.013 142.34C247.014 142.073 247.093 141.929 247.244 141.905C247.399 141.883 247.62 141.957 247.915 142.128L247.918 141.226C247.623 141.056 247.402 140.874 247.248 140.676Z" fill="#CDE9F9"/>
<path d="M250.491 139.886C250.391 139.988 250.344 140.186 250.343 140.478L250.339 141.773V141.807C250.339 142.053 250.26 142.185 250.103 142.202C249.946 142.22 249.722 142.144 249.432 141.977L249.43 142.878C249.719 143.046 249.943 143.23 250.1 143.432C250.256 143.634 250.333 143.868 250.333 144.136L250.329 145.416C250.328 145.708 250.375 145.961 250.473 146.18C250.569 146.398 250.723 146.605 250.934 146.802C251.145 147 251.437 147.205 251.808 147.419L251.81 146.566C251.57 146.418 251.408 146.273 251.323 146.13C251.237 145.984 251.196 145.816 251.196 145.62L251.2 144.394V144.346C251.201 143.856 250.933 143.412 250.391 143.004L250.391 142.956C250.926 143.176 251.195 143.025 251.205 142.506L251.208 141.28C251.209 141.082 251.254 140.963 251.34 140.92C251.426 140.876 251.588 140.922 251.825 141.05L251.828 140.196C251.463 139.985 251.173 139.853 250.959 139.805C250.742 139.755 250.588 139.783 250.491 139.886Z" fill="#CDE9F9"/>
<path d="M255.539 145.35C255.388 145.154 255.31 144.931 255.311 144.685V144.651L255.314 143.356C255.316 142.938 255.207 142.58 254.983 142.279C254.762 141.979 254.378 141.673 253.831 141.356L253.828 142.21C254.066 142.356 254.23 142.499 254.316 142.642C254.402 142.782 254.443 142.954 254.442 143.152L254.439 144.378C254.448 144.907 254.721 145.373 255.255 145.772V145.82C254.989 145.714 254.785 145.693 254.647 145.76C254.505 145.829 254.434 145.983 254.434 146.23V146.266L254.43 147.493C254.43 147.691 254.387 147.814 254.301 147.857C254.215 147.898 254.05 147.854 253.813 147.725L253.811 148.579C254.356 148.894 254.739 149.029 254.964 148.988C255.187 148.945 255.3 148.715 255.301 148.294L255.304 147.014C255.305 146.747 255.384 146.603 255.535 146.579C255.69 146.557 255.912 146.631 256.206 146.802L256.209 145.9C255.914 145.73 255.693 145.547 255.539 145.35Z" fill="#CDE9F9"/>
<path d="M236.146 76.0869C236.146 76.4497 236.406 76.8984 236.723 77.0842C237.04 77.2701 237.299 77.1221 237.299 76.7549C237.299 76.3876 237.04 75.9389 236.723 75.7576C236.406 75.5762 236.146 75.7241 236.146 76.0869Z" fill="#E7F6FD"/>
<path d="M237.994 77.177C237.994 77.5398 238.254 77.9885 238.57 78.1743C238.887 78.3602 239.147 78.2122 239.147 77.845C239.147 77.4777 238.887 77.029 238.57 76.8477C238.253 76.6663 237.994 76.8145 237.994 77.177Z" fill="#E7F6FD"/>
<path d="M240.387 77.8453C240.07 77.6636 239.811 77.8119 239.811 78.1746C239.811 78.5374 240.07 78.9861 240.387 79.172C240.704 79.3578 240.963 79.2099 240.963 78.8426C240.963 78.4754 240.704 78.027 240.387 77.8453Z" fill="#E7F6FD"/>
<path d="M171.181 241.11C156.015 232.329 156.015 217.911 171.181 209.071C186.346 200.23 211.162 200.23 226.327 209.071C241.493 217.911 241.493 232.329 226.327 241.11C211.162 249.891 186.346 249.891 171.181 241.11Z" fill="#2A2F6D"/>
<path d="M179.154 182.541C182.999 182.541 186.115 177.668 186.115 171.658C186.115 165.648 182.999 160.776 179.154 160.776C175.31 160.776 172.193 165.648 172.193 171.658C172.193 177.668 175.31 182.541 179.154 182.541Z" fill="url(#paint5_linear_20_2687)"/>
<path d="M217.759 157.481C216.695 158.931 215.452 160.332 214 161.651C201.228 173.249 187.673 173.207 181.175 172.304C179.1 172.016 177.709 169.958 178.256 167.992L179.047 165.15L178.164 168.326L178.248 168.018C178.674 166.457 180.193 165.485 181.838 165.717C186.994 166.444 198.404 166.576 209.332 156.653C216.43 150.207 217.206 140.922 217.088 136.257C217.046 134.585 218.241 133.185 219.909 132.985C221.928 132.743 223.771 134.33 223.824 136.355C223.952 141.249 223.256 149.991 217.759 157.481Z" fill="#CDE9F9"/>
<path d="M224.163 117.882C224.163 117.882 216.683 121.556 215.452 128.111C214.221 134.666 218.576 141.321 224.163 140.923C229.749 140.526 235.052 135.66 235.052 135.66L231.927 128.509C231.927 128.509 228.403 132.454 225.147 132.617C221.891 132.779 219.682 126.026 226.657 122.947L224.163 117.882Z" fill="url(#paint6_linear_20_2687)"/>
<path d="M236.675 213.969V199.703L225.045 201.104C219.848 198.883 213.467 197.797 206.711 197.797V198.367C207.788 198.367 208.851 198.396 209.897 198.452C205.835 198.381 201.113 198.643 195.738 199.281C199.363 198.682 203.052 198.367 206.708 198.367L206.711 197.797C206.71 197.797 206.709 197.797 206.708 197.797C195.658 197.798 183.609 200.697 174.129 206.262C173.457 206.656 172.816 207.061 172.19 207.47L159.697 208.975V225.964C159.697 225.964 159.709 225.968 159.729 225.976C159.944 230.59 162.687 234.872 168.111 238.057C173.767 241.377 181.452 242.989 189.693 242.989C200.743 242.989 212.792 240.089 222.272 234.524C231.785 228.939 236.714 221.839 236.679 215.332C236.73 214.467 236.675 213.969 236.675 213.969ZM181.816 241.881C180.09 241.637 178.429 241.313 176.848 240.91C178.553 241.313 180.208 241.629 181.816 241.881ZM176.66 240.864C176.595 240.847 176.53 240.83 176.466 240.813C176.532 240.83 176.593 240.848 176.66 240.864Z" fill="#2A2F6D"/>
<path d="M232.036 182.03L233.604 192.845L223.379 211.994" stroke="#C4CACB" stroke-width="5" stroke-miterlimit="10"/>
<path d="M228.93 186.486C228.93 186.486 229.392 183.67 231.278 183.504C231.278 183.504 231.739 183.417 231.99 182.997C232.242 182.576 232.383 183.31 232.103 183.952C231.823 184.594 231.823 184.594 231.823 184.594C231.823 184.594 233.29 183.296 233.122 182.873C232.955 182.45 234.548 183.039 234.38 184.006C234.212 184.973 235.314 185.502 234.889 187.171C234.464 188.84 233.604 190.436 231.959 190.668C230.314 190.9 228.93 186.486 228.93 186.486Z" fill="#FDE0D9"/>
<path d="M198.461 155.376V149.52C198.461 146.104 196.763 143.226 190.845 144.937C184.927 146.648 183.672 150.959 185.644 155.376C186.494 157.278 187.408 158.987 188.567 160.247V165.746L195.753 165.232L195.423 162.163C199.738 160.946 198.461 155.376 198.461 155.376Z" fill="#FDE0D9"/>
<path d="M179.15 182.03L176.355 177.966C176.355 177.966 178.339 167.067 181.554 165.465C187.415 162.546 202.654 161.406 210.237 167.19C217.82 172.973 216.255 190.264 219.721 189.636C223.186 189.009 229.252 185.602 229.252 185.602C229.252 185.602 232.58 185.419 231.957 190.668C231.957 190.668 222.409 203.523 215.285 204.279C208.161 205.035 201.145 194.517 201.145 194.517L179.15 182.03Z" fill="#BD8AAE"/>
<path d="M226.721 211.728C226.721 211.728 218.064 176.948 212.554 175.748C207.847 174.722 177.394 173.638 168.622 173.344C166.883 173.286 165.24 174.181 164.385 175.701C163.469 177.328 162.681 179.702 163.278 182.619C164.45 188.336 172.563 204.521 168.003 216.777C168.003 216.776 187.465 228.045 226.721 211.728Z" fill="#222457"/>
<path d="M232.273 184.8C233.411 184.8 234.333 183.875 234.333 182.734C234.333 181.593 233.411 180.668 232.273 180.668C231.135 180.668 230.213 181.593 230.213 182.734C230.213 183.875 231.135 184.8 232.273 184.8Z" fill="#2A2F6D"/>
<path d="M196.061 152.895C196.061 152.895 195.767 152.054 195.055 151.928C194.342 151.802 194.426 155.334 195.055 156.09C195.683 156.847 196.061 156.468 196.061 156.468C196.061 156.468 196.019 158.528 194.761 159.453C193.503 160.378 194.65 161.766 191.708 161.766C188.766 161.766 184.992 160.588 183.693 159.243C182.393 157.898 181.628 152.685 184.778 149.91C184.778 149.91 183.651 143.772 191.03 142.931C198.408 142.09 199.331 142.511 200.169 141.502C201.008 140.493 200.924 139.904 200.924 139.904C200.924 139.904 201.513 142.931 200.631 143.604C200.631 143.604 201.18 144.108 201.513 142.931C201.513 142.931 201.916 145.79 200.623 147.808C199.331 149.826 196.564 151.592 196.061 152.895Z" fill="#2A2F6D"/>
<path d="M196.474 231.48C194.467 231.48 192.311 231.436 189.689 231.34C180.169 230.995 175.572 229.817 168.304 225.862C163.095 223.028 160.199 218.709 160.148 213.7H160.123V109.933L160.147 109.932C160.13 106.64 161.428 102.611 163.706 98.8783C165.53 95.8896 168.855 91.6515 174.334 88.4325C183.792 82.8763 195.993 82.4106 206.687 82.41C216.282 82.4097 224.186 86.2111 228.043 88.4769C230.257 89.7771 232.047 91.2822 233.382 92.9505L232.936 93.2956C233.335 93.8335 233.688 94.341 234.016 94.8473L234.492 94.5498C235.332 95.9636 235.874 97.4735 236.101 99.0576L236.122 99.2008L236.116 99.2175L236.128 99.3202C236.206 99.9664 236.233 100.618 236.208 101.256L236.203 101.376L236.233 101.432V212.327L236.21 212.327C236.059 218.587 231.571 223.275 222.085 227.081C214.403 230.164 206.743 231.48 196.474 231.48Z" fill="url(#paint7_linear_20_2687)"/>
<path d="M206.69 82.8579C216.179 82.8579 224.001 86.6205 227.819 88.8636C229.978 90.1325 231.724 91.5976 233.023 93.2184L232.579 93.563C232.972 94.094 233.32 94.5943 233.643 95.0919L234.118 94.7951C234.924 96.1546 235.443 97.6036 235.66 99.1221L235.665 99.1576L235.661 99.1696L235.686 99.3748C235.761 99.9971 235.787 100.624 235.763 101.239L235.754 101.477L235.787 101.542V211.599L235.763 211.599L235.764 212.328C235.613 218.381 231.214 222.937 221.92 226.666C214.293 229.726 206.683 231.032 196.475 231.032C194.473 231.032 192.322 230.988 189.705 230.893C180.267 230.55 175.713 229.384 168.517 225.469C163.457 222.715 160.644 218.534 160.595 213.695H160.57V109.93L160.594 109.93C160.578 106.719 161.851 102.776 164.087 99.112C165.885 96.1671 169.161 91.9905 174.56 88.8186C183.922 83.3191 196.052 82.8582 206.688 82.8576H206.69V82.8579ZM206.69 81.9629C206.689 81.9629 206.689 81.9629 206.688 81.9629C195.638 81.9635 183.589 82.4775 174.11 88.0465C164.598 93.6346 159.669 103.425 159.702 109.935L159.678 107.253V215.713L159.703 213.705C159.751 218.497 162.382 223.149 168.092 226.256C175.494 230.283 180.276 231.446 189.673 231.787C192.016 231.872 194.276 231.927 196.476 231.927C205.476 231.927 213.496 231.01 222.252 227.497C232.241 223.49 236.508 218.571 236.657 212.338L236.656 211.598C236.663 211.847 236.663 212.093 236.657 212.338L236.681 225.64V101.333C236.67 101.313 236.666 101.293 236.656 101.274C236.682 100.598 236.653 99.9288 236.573 99.2671C236.63 99.1007 236.681 98.9947 236.681 98.9947H236.544C235.948 94.833 233.228 91.0036 228.27 88.0913C222.615 84.769 214.93 81.9629 206.69 81.9629ZM234.391 94.6039C234.078 94.1206 233.719 93.6006 233.296 93.0293C233.704 93.5394 234.071 94.0645 234.391 94.6039Z" fill="#FDFEFE"/>
<g opacity="0.5">
<path opacity="0.5" d="M166.156 220.912V112.371C166.156 112.371 172.944 101.387 184.61 102.564C196.277 103.741 198.16 110.409 198.16 110.409V231.229C198.16 231.229 198.611 226.249 196.715 227.269C190.973 230.357 178.449 234.949 170.734 221.82C169.636 219.95 167.026 223.557 166.156 220.912Z" fill="url(#paint8_linear_20_2687)"/>
</g>
<path d="M215.186 193.394C219.03 193.394 222.146 188.522 222.146 182.512C222.146 176.502 219.03 171.63 215.186 171.63C211.341 171.63 208.225 176.502 208.225 182.512C208.225 188.522 211.341 193.394 215.186 193.394Z" fill="url(#paint9_linear_20_2687)"/>
<path d="M246.451 204.978C244.655 204.978 242.793 204.805 240.873 204.414C223.988 200.973 215.986 190.001 212.86 184.218C211.861 182.371 212.69 180.028 214.593 179.304L217.344 178.259L214.27 179.427L214.567 179.313C216.073 178.732 217.755 179.382 218.543 180.848C221.015 185.444 227.673 194.737 242.12 197.68C251.505 199.592 259.422 194.715 263.098 191.855C264.416 190.829 266.249 190.965 267.398 192.193C268.79 193.68 268.607 196.109 267.013 197.352C263.158 200.358 255.724 204.978 246.451 204.978Z" fill="#CDE9F9"/>
<path d="M269.397 179.496C269.397 179.496 261.917 183.171 260.686 189.726C259.455 196.281 263.811 202.936 269.397 202.538C274.984 202.141 280.286 197.274 280.286 197.274L277.161 190.124C277.161 190.124 273.638 194.069 270.381 194.232C267.125 194.394 264.916 187.641 271.891 184.562L269.397 179.496Z" fill="url(#paint10_linear_20_2687)"/>
<path d="M236.68 215.746H236.115V228.657H236.68V215.746Z" fill="#2A2F6D"/>
<path d="M270.638 221.183H236.176V258.046H270.638V221.183Z" fill="url(#paint11_linear_20_2687)"/>
<path d="M253.407 267.371C262.942 267.371 270.672 262.895 270.672 257.374C270.672 251.854 262.942 247.378 253.407 247.378C243.872 247.378 236.143 251.854 236.143 257.374C236.143 262.895 243.872 267.371 253.407 267.371Z" fill="#3C7FBE"/>
<path d="M253.407 231.506C262.942 231.506 270.672 227.031 270.672 221.51C270.672 215.989 262.942 211.513 253.407 211.513C243.872 211.513 236.143 215.989 236.143 221.51C236.143 227.031 243.872 231.506 253.407 231.506Z" fill="#17A1DB"/>
<path d="M250.994 211.649L250.989 210.734L250.986 211.581L250.991 212.497L250.994 211.649Z" fill="#2A2F6D"/>
<path d="M259.383 212.751L258.272 213.398L258.27 214.245L259.381 213.598L259.383 212.751Z" fill="#2A2F6D"/>
<path d="M246.456 213.398L245.338 212.751L245.336 213.598L246.454 214.245L246.456 213.398Z" fill="#2A2F6D"/>
<path d="M248.828 216.332C248.834 216.302 248.843 216.272 248.851 216.241C248.86 216.205 248.869 216.169 248.882 216.134C248.892 216.104 248.906 216.075 248.918 216.047C248.935 216.009 248.951 215.972 248.971 215.935C248.985 215.908 249.002 215.882 249.018 215.856C249.044 215.814 249.072 215.772 249.102 215.731C249.12 215.706 249.14 215.683 249.16 215.659C249.206 215.603 249.256 215.549 249.311 215.496C249.331 215.476 249.349 215.456 249.37 215.438C249.404 215.407 249.442 215.377 249.48 215.347C249.512 215.32 249.544 215.294 249.579 215.268C249.62 215.238 249.664 215.21 249.708 215.182C249.752 215.152 249.795 215.122 249.843 215.094C249.95 215.032 250.064 214.976 250.18 214.924C250.213 214.909 250.247 214.894 250.281 214.88C250.373 214.842 250.466 214.806 250.562 214.774C250.596 214.762 250.63 214.749 250.665 214.738C250.725 214.719 250.786 214.703 250.848 214.686C250.895 214.673 250.941 214.659 250.989 214.648C251.053 214.632 251.119 214.619 251.185 214.606C251.23 214.597 251.275 214.587 251.321 214.578C251.454 214.555 251.589 214.536 251.726 214.522C251.768 214.517 251.811 214.515 251.852 214.511C251.933 214.504 252.013 214.499 252.094 214.495C252.145 214.493 252.197 214.492 252.249 214.49C252.314 214.489 252.379 214.489 252.444 214.49C252.499 214.49 252.553 214.492 252.608 214.494C252.668 214.496 252.728 214.5 252.788 214.504C252.843 214.508 252.898 214.513 252.953 214.518C253.013 214.523 253.072 214.53 253.131 214.538C253.185 214.544 253.238 214.552 253.291 214.56C253.355 214.57 253.418 214.581 253.48 214.593C253.53 214.603 253.579 214.613 253.628 214.623C253.703 214.64 253.776 214.658 253.85 214.678C253.891 214.688 253.932 214.699 253.972 214.711C254.103 214.749 254.231 214.792 254.355 214.84C254.416 214.864 254.476 214.891 254.535 214.917C254.566 214.931 254.597 214.943 254.628 214.957C254.718 215 254.805 215.046 254.889 215.094C255.592 215.501 255.943 216.035 255.942 216.568L255.944 215.721C255.945 215.188 255.595 214.654 254.892 214.247C254.808 214.198 254.72 214.153 254.63 214.11C254.6 214.096 254.568 214.083 254.537 214.07C254.484 214.046 254.432 214.021 254.377 213.999C254.371 213.997 254.363 213.995 254.357 213.993C254.233 213.945 254.105 213.902 253.974 213.863C253.964 213.86 253.954 213.856 253.943 213.853C253.914 213.844 253.882 213.838 253.852 213.83C253.779 213.811 253.705 213.792 253.63 213.776C253.61 213.771 253.591 213.765 253.571 213.761C253.542 213.755 253.512 213.751 253.482 213.746C253.42 213.734 253.357 213.723 253.294 213.713C253.268 213.709 253.243 213.703 253.218 213.7C253.19 213.696 253.162 213.694 253.134 213.69C253.075 213.683 253.015 213.676 252.956 213.67C252.927 213.667 252.899 213.663 252.871 213.661C252.844 213.658 252.818 213.658 252.791 213.656C252.731 213.652 252.67 213.649 252.61 213.646C252.58 213.645 252.55 213.642 252.519 213.641C252.495 213.641 252.471 213.642 252.447 213.642C252.381 213.641 252.316 213.641 252.251 213.643C252.218 213.643 252.186 213.642 252.154 213.643C252.135 213.644 252.116 213.646 252.097 213.647C252.016 213.651 251.936 213.657 251.855 213.663C251.823 213.666 251.791 213.666 251.758 213.67C251.748 213.671 251.739 213.673 251.729 213.674C251.592 213.688 251.456 213.707 251.323 213.731C251.316 213.732 251.31 213.732 251.303 213.733C251.265 213.74 251.227 213.75 251.189 213.758C251.123 213.771 251.056 213.785 250.991 213.8C250.944 213.812 250.898 213.825 250.852 213.838C250.79 213.855 250.728 213.872 250.668 213.891C250.655 213.895 250.641 213.898 250.628 213.902C250.606 213.909 250.586 213.919 250.565 213.926C250.469 213.959 250.376 213.994 250.284 214.033C250.25 214.047 250.216 214.061 250.183 214.076C250.067 214.129 249.953 214.184 249.846 214.247C249.832 214.255 249.817 214.264 249.803 214.273C249.77 214.292 249.742 214.314 249.711 214.334C249.668 214.362 249.623 214.391 249.583 214.42C249.547 214.446 249.516 214.473 249.483 214.499C249.446 214.529 249.407 214.559 249.373 214.59C249.366 214.596 249.358 214.602 249.351 214.608C249.337 214.621 249.328 214.635 249.314 214.648C249.259 214.702 249.209 214.756 249.163 214.811C249.153 214.823 249.139 214.835 249.13 214.847C249.12 214.859 249.114 214.871 249.105 214.884C249.074 214.925 249.047 214.967 249.021 215.008C249.01 215.026 248.996 215.043 248.986 215.061C248.981 215.07 248.978 215.079 248.973 215.088C248.953 215.125 248.938 215.162 248.921 215.199C248.912 215.221 248.899 215.242 248.891 215.264C248.888 215.272 248.887 215.279 248.884 215.287C248.872 215.322 248.863 215.358 248.854 215.393C248.848 215.417 248.838 215.441 248.833 215.466C248.832 215.472 248.832 215.479 248.831 215.485C248.824 215.523 248.821 215.56 248.818 215.598C248.816 215.622 248.811 215.647 248.81 215.671C248.809 215.682 248.809 215.692 248.809 215.703L248.807 216.55C248.807 216.515 248.812 216.48 248.816 216.445C248.819 216.407 248.822 216.37 248.828 216.332Z" fill="#2A2F6D"/>
<path d="M259.375 216.502C259.358 216.553 259.338 216.604 259.318 216.654C259.305 216.689 259.29 216.724 259.275 216.758C259.261 216.79 259.246 216.823 259.23 216.855C259.214 216.889 259.196 216.923 259.178 216.957C259.161 216.989 259.144 217.02 259.126 217.051C259.103 217.09 259.078 217.129 259.053 217.169C259.035 217.197 259.016 217.226 258.997 217.255C258.969 217.295 258.94 217.335 258.91 217.375C258.89 217.401 258.871 217.427 258.85 217.453C258.792 217.527 258.731 217.6 258.665 217.671C258.656 217.681 258.646 217.69 258.637 217.7C258.578 217.762 258.517 217.824 258.453 217.884C258.402 217.932 258.351 217.979 258.297 218.026L258.295 218.873C258.339 218.835 258.383 218.796 258.425 218.757C258.434 218.748 258.442 218.74 258.451 218.731C258.514 218.671 258.576 218.61 258.634 218.548C258.643 218.538 258.653 218.528 258.663 218.518C258.729 218.447 258.79 218.374 258.848 218.301C258.853 218.294 258.859 218.288 258.864 218.282C258.88 218.262 258.893 218.242 258.908 218.221C258.938 218.182 258.967 218.142 258.995 218.102C259.014 218.073 259.033 218.044 259.051 218.015C259.076 217.976 259.101 217.937 259.124 217.898C259.131 217.885 259.14 217.872 259.148 217.859C259.158 217.841 259.166 217.822 259.176 217.804C259.194 217.77 259.212 217.736 259.228 217.702C259.244 217.67 259.259 217.637 259.273 217.605C259.289 217.57 259.303 217.536 259.317 217.502C259.323 217.486 259.33 217.471 259.336 217.456C259.35 217.42 259.362 217.384 259.374 217.349H260.95L260.952 216.502H259.375Z" fill="#2A2F6D"/>
<path d="M246.48 218.873L246.482 218.026C245.934 217.557 245.568 217.038 245.387 216.502H243.811L243.809 217.349H245.385C245.566 217.886 245.931 218.405 246.48 218.873Z" fill="#2A2F6D"/>
<path d="M256.38 219.143C256.191 219.218 255.996 219.285 255.798 219.348C255.689 219.383 255.577 219.412 255.465 219.443C255.361 219.471 255.258 219.503 255.152 219.529C255.038 219.556 254.922 219.579 254.806 219.602C254.699 219.625 254.593 219.649 254.484 219.669C254.246 219.711 254.004 219.747 253.76 219.774L253.758 220.622C254.002 220.594 254.243 220.558 254.482 220.516C254.493 220.514 254.505 220.513 254.517 220.511C254.615 220.493 254.71 220.469 254.806 220.449C254.921 220.425 255.036 220.403 255.149 220.376C255.256 220.35 255.36 220.318 255.465 220.289C255.576 220.258 255.687 220.229 255.796 220.195C255.809 220.191 255.822 220.188 255.835 220.184C256.02 220.124 256.201 220.06 256.378 219.99L257.496 220.637L259.414 219.52L259.416 218.673L257.498 219.79L256.38 219.143Z" fill="#2A2F6D"/>
<path d="M251.039 219.774C250.869 219.755 250.7 219.729 250.532 219.702C250.411 219.683 250.29 219.662 250.171 219.64C250.067 219.62 249.962 219.598 249.859 219.575C249.717 219.544 249.576 219.509 249.437 219.472C249.327 219.442 249.217 219.414 249.109 219.382C249.061 219.367 249.013 219.352 248.965 219.337C248.778 219.277 248.593 219.214 248.414 219.144C248.414 219.144 248.413 219.143 248.413 219.143L247.3 219.792L245.37 218.674L245.367 219.521L247.298 220.639L248.41 219.991C248.59 220.061 248.776 220.124 248.963 220.185C249.011 220.2 249.059 220.214 249.106 220.229C249.155 220.244 249.202 220.26 249.251 220.274C249.311 220.291 249.374 220.303 249.434 220.319C249.574 220.356 249.714 220.391 249.857 220.423C249.903 220.433 249.948 220.447 249.994 220.456C250.051 220.468 250.111 220.476 250.168 220.487C250.288 220.51 250.408 220.531 250.53 220.55C250.585 220.558 250.639 220.571 250.694 220.578C250.808 220.595 250.922 220.609 251.036 220.622L251.037 220.622L251.042 221.538H253.763L253.765 220.69H251.044L251.039 219.774Z" fill="#2A2F6D"/>
<path d="M257.497 219.791L256.378 219.143C255.574 219.46 254.682 219.671 253.759 219.774L253.764 220.69H251.043L251.038 219.774C250.114 219.671 249.219 219.46 248.411 219.143L247.299 219.792L245.368 218.674L246.481 218.026C245.933 217.557 245.567 217.038 245.386 216.502H243.81L243.801 214.922H245.377C245.552 214.386 245.913 213.868 246.455 213.398L245.337 212.751L247.255 211.633L248.373 212.28C249.179 211.965 250.07 211.753 250.993 211.649L250.988 210.734H253.708L253.713 211.649C254.637 211.753 255.53 211.964 256.34 212.28L257.451 211.633L259.381 212.751L258.271 213.398C258.817 213.868 259.185 214.386 259.366 214.922H260.942L260.951 216.503H259.375C259.199 217.039 258.84 217.558 258.297 218.026L259.415 218.673L257.497 219.791ZM249.861 217.178C251.259 217.988 253.516 217.986 254.905 217.177C256.294 216.368 256.288 215.057 254.89 214.248C253.493 213.438 251.234 213.438 249.845 214.248C248.456 215.057 248.464 216.369 249.861 217.178Z" fill="white"/>
<path d="M254.34 221.092L254.336 220.344L254.334 221.036L254.338 221.784L254.34 221.092Z" fill="#BD8AAE"/>
<path d="M261.193 221.992L260.285 222.521L260.283 223.213L261.191 222.684L261.193 221.992Z" fill="#BD8AAE"/>
<path d="M250.633 222.521L249.719 221.992L249.717 222.684L250.63 223.213L250.633 222.521Z" fill="#BD8AAE"/>
<path d="M252.571 224.918C252.575 224.893 252.583 224.868 252.589 224.843C252.597 224.814 252.604 224.785 252.614 224.756C252.623 224.732 252.634 224.709 252.644 224.685C252.657 224.654 252.671 224.624 252.687 224.594C252.699 224.572 252.713 224.55 252.726 224.529C252.747 224.494 252.77 224.46 252.795 224.427C252.809 224.407 252.826 224.387 252.842 224.368C252.879 224.323 252.92 224.278 252.965 224.235C252.981 224.219 252.996 224.203 253.013 224.187C253.041 224.162 253.072 224.138 253.103 224.113C253.13 224.091 253.155 224.069 253.184 224.048C253.217 224.024 253.253 224.001 253.289 223.978C253.326 223.954 253.36 223.93 253.4 223.907C253.487 223.856 253.58 223.811 253.675 223.767C253.702 223.755 253.73 223.743 253.757 223.732C253.832 223.701 253.908 223.672 253.987 223.645C254.015 223.635 254.042 223.625 254.071 223.616C254.12 223.6 254.17 223.587 254.22 223.573C254.258 223.562 254.296 223.551 254.335 223.542C254.388 223.529 254.442 223.518 254.495 223.507C254.532 223.5 254.569 223.491 254.606 223.485C254.715 223.465 254.826 223.45 254.937 223.439C254.972 223.435 255.006 223.433 255.041 223.43C255.106 223.424 255.172 223.419 255.238 223.417C255.28 223.415 255.322 223.414 255.364 223.413C255.418 223.412 255.471 223.412 255.524 223.413C255.569 223.413 255.613 223.414 255.658 223.416C255.707 223.418 255.756 223.421 255.806 223.424C255.85 223.427 255.895 223.431 255.94 223.435C255.989 223.44 256.037 223.445 256.086 223.452C256.129 223.457 256.173 223.463 256.216 223.47C256.268 223.478 256.319 223.488 256.37 223.497C256.411 223.505 256.451 223.513 256.491 223.522C256.552 223.535 256.612 223.55 256.672 223.566C256.705 223.575 256.739 223.584 256.772 223.593C256.879 223.624 256.983 223.66 257.084 223.699C257.135 223.718 257.183 223.74 257.232 223.762C257.257 223.773 257.283 223.783 257.307 223.795C257.381 223.83 257.453 223.867 257.521 223.907C258.095 224.239 258.382 224.675 258.381 225.111L258.383 224.419C258.384 223.983 258.097 223.547 257.523 223.215C257.454 223.175 257.383 223.138 257.309 223.103C257.284 223.091 257.259 223.081 257.233 223.07C257.19 223.05 257.147 223.03 257.102 223.012C257.097 223.01 257.092 223.009 257.086 223.007C256.985 222.967 256.88 222.932 256.773 222.901C256.765 222.899 256.757 222.895 256.748 222.893C256.724 222.886 256.699 222.881 256.674 222.874C256.614 222.858 256.554 222.843 256.493 222.83C256.476 222.826 256.461 222.821 256.445 222.818C256.421 222.813 256.396 222.81 256.372 222.805C256.321 222.795 256.27 222.786 256.218 222.778C256.197 222.775 256.177 222.77 256.156 222.767C256.133 222.764 256.11 222.763 256.088 222.76C256.039 222.753 255.991 222.748 255.942 222.743C255.919 222.741 255.896 222.737 255.873 222.735C255.851 222.734 255.829 222.733 255.807 222.732C255.758 222.729 255.709 222.726 255.659 222.724C255.635 222.723 255.61 222.72 255.585 222.72C255.566 222.719 255.546 222.72 255.527 222.72C255.473 222.72 255.419 222.72 255.366 222.721C255.34 222.721 255.313 222.72 255.287 222.721C255.272 222.722 255.256 222.723 255.24 222.724C255.174 222.727 255.109 222.732 255.043 222.737C255.017 222.74 254.99 222.74 254.964 222.743C254.955 222.743 254.948 222.745 254.94 222.746C254.828 222.758 254.717 222.773 254.608 222.792C254.603 222.793 254.597 222.794 254.592 222.795C254.561 222.8 254.53 222.809 254.499 222.815C254.445 222.826 254.39 222.837 254.337 222.85C254.298 222.859 254.261 222.87 254.223 222.88C254.172 222.894 254.122 222.908 254.072 222.923C254.062 222.927 254.051 222.929 254.04 222.933C254.022 222.938 254.006 222.946 253.989 222.952C253.911 222.979 253.834 223.008 253.759 223.039C253.731 223.051 253.704 223.063 253.676 223.075C253.581 223.118 253.489 223.164 253.402 223.214C253.389 223.221 253.378 223.228 253.366 223.235C253.339 223.252 253.316 223.269 253.291 223.286C253.255 223.309 253.219 223.332 253.186 223.356C253.157 223.377 253.131 223.399 253.105 223.42C253.074 223.445 253.043 223.469 253.015 223.495C253.009 223.5 253.003 223.505 252.997 223.51C252.986 223.52 252.978 223.532 252.967 223.542C252.922 223.586 252.881 223.63 252.843 223.675C252.835 223.685 252.824 223.695 252.816 223.705C252.809 223.715 252.804 223.725 252.796 223.735C252.771 223.768 252.749 223.802 252.728 223.837C252.719 223.851 252.707 223.865 252.699 223.879C252.695 223.886 252.693 223.894 252.689 223.901C252.673 223.931 252.659 223.962 252.646 223.992C252.638 224.01 252.628 224.027 252.621 224.045C252.619 224.051 252.618 224.058 252.616 224.064C252.606 224.093 252.599 224.121 252.591 224.151C252.586 224.171 252.578 224.19 252.574 224.21C252.573 224.215 252.573 224.221 252.572 224.226C252.567 224.256 252.565 224.287 252.562 224.318C252.56 224.338 252.556 224.357 252.555 224.377C252.555 224.386 252.555 224.395 252.555 224.403L252.553 225.095C252.553 225.067 252.557 225.038 252.56 225.009C252.563 224.979 252.565 224.949 252.571 224.918Z" fill="#BD8AAE"/>
<path d="M261.186 225.057C261.172 225.099 261.156 225.14 261.14 225.181C261.129 225.21 261.117 225.238 261.104 225.266C261.093 225.292 261.08 225.319 261.068 225.345C261.054 225.373 261.039 225.401 261.024 225.429C261.011 225.454 260.997 225.48 260.982 225.505C260.963 225.537 260.943 225.57 260.923 225.602C260.908 225.625 260.893 225.649 260.877 225.672C260.854 225.705 260.83 225.737 260.806 225.77C260.789 225.791 260.774 225.813 260.757 225.834C260.709 225.894 260.659 225.954 260.605 226.012C260.598 226.02 260.59 226.028 260.582 226.035C260.534 226.086 260.484 226.136 260.432 226.186C260.39 226.225 260.349 226.264 260.305 226.302L260.303 226.994C260.339 226.963 260.374 226.931 260.409 226.899C260.416 226.892 260.423 226.885 260.43 226.878C260.482 226.829 260.532 226.779 260.579 226.728C260.587 226.72 260.595 226.712 260.603 226.704C260.657 226.646 260.707 226.586 260.755 226.526C260.759 226.521 260.763 226.517 260.767 226.511C260.78 226.495 260.791 226.478 260.803 226.462C260.828 226.429 260.852 226.397 260.874 226.364C260.89 226.341 260.905 226.317 260.92 226.294C260.941 226.262 260.961 226.23 260.98 226.197C260.986 226.187 260.993 226.176 260.999 226.166C261.008 226.151 261.014 226.136 261.022 226.121C261.037 226.093 261.052 226.065 261.065 226.037C261.078 226.011 261.09 225.984 261.102 225.958C261.115 225.93 261.126 225.902 261.138 225.874C261.143 225.861 261.149 225.849 261.153 225.836C261.164 225.807 261.174 225.778 261.184 225.749H262.472L262.474 225.057H261.186Z" fill="#BD8AAE"/>
<path d="M250.652 226.994L250.653 226.302C250.205 225.919 249.907 225.495 249.759 225.057H248.471L248.469 225.749H249.757C249.905 226.187 250.203 226.611 250.652 226.994Z" fill="#BD8AAE"/>
<path d="M258.74 227.215C258.585 227.276 258.426 227.331 258.265 227.382C258.175 227.41 258.083 227.434 257.992 227.459C257.907 227.483 257.823 227.508 257.736 227.53C257.644 227.552 257.548 227.57 257.454 227.59C257.367 227.608 257.28 227.628 257.191 227.644C256.996 227.678 256.799 227.708 256.6 227.73L256.598 228.422C256.797 228.4 256.994 228.371 257.189 228.336C257.198 228.334 257.208 228.333 257.218 228.332C257.298 228.317 257.375 228.298 257.454 228.281C257.548 228.262 257.642 228.244 257.734 228.221C257.822 228.2 257.906 228.174 257.992 228.15C258.082 228.125 258.174 228.102 258.262 228.074C258.273 228.07 258.284 228.068 258.295 228.065C258.445 228.016 258.593 227.963 258.738 227.906L259.651 228.435L261.218 227.522L261.22 226.83L259.653 227.744L258.74 227.215Z" fill="#BD8AAE"/>
<path d="M254.376 227.73C254.237 227.715 254.099 227.693 253.961 227.671C253.862 227.656 253.764 227.639 253.667 227.62C253.581 227.603 253.496 227.586 253.412 227.567C253.295 227.542 253.18 227.513 253.067 227.483C252.977 227.459 252.887 227.436 252.799 227.409C252.76 227.397 252.72 227.385 252.682 227.373C252.529 227.324 252.378 227.272 252.231 227.215L252.23 227.214L251.321 227.744L249.744 226.831L249.742 227.523L251.319 228.436L252.228 227.906C252.375 227.964 252.527 228.015 252.68 228.065C252.719 228.077 252.758 228.089 252.797 228.101C252.836 228.113 252.875 228.126 252.915 228.138C252.964 228.152 253.015 228.161 253.065 228.174C253.179 228.205 253.293 228.234 253.41 228.259C253.448 228.268 253.484 228.279 253.522 228.287C253.569 228.296 253.617 228.302 253.664 228.311C253.762 228.33 253.861 228.347 253.96 228.363C254.004 228.37 254.049 228.38 254.094 228.386C254.187 228.399 254.28 228.411 254.373 228.422H254.374L254.378 229.169H256.601L256.603 228.477H254.38L254.376 227.73Z" fill="#BD8AAE"/>
<path d="M259.654 227.744L258.741 227.215C258.084 227.474 257.354 227.646 256.601 227.73L256.605 228.478H254.382L254.378 227.73C253.623 227.646 252.892 227.474 252.232 227.215L251.323 227.744L249.746 226.831L250.654 226.302C250.206 225.919 249.908 225.495 249.76 225.057H248.472L248.465 223.766H249.752C249.896 223.327 250.191 222.904 250.633 222.521L249.72 221.992L251.287 221.078L252.2 221.607C252.859 221.349 253.587 221.176 254.34 221.092L254.336 220.344H256.559L256.563 221.092C257.318 221.176 258.048 221.349 258.709 221.607L259.617 221.078L261.194 221.992L260.286 222.521C260.733 222.904 261.033 223.327 261.181 223.766H262.469L262.476 225.057H261.188C261.045 225.495 260.751 225.919 260.308 226.302L261.221 226.831L259.654 227.744ZM253.416 225.609C254.559 226.27 256.402 226.27 257.537 225.608C258.672 224.947 258.667 223.876 257.525 223.215C256.383 222.554 254.537 222.554 253.403 223.215C252.268 223.876 252.274 224.948 253.416 225.609Z" fill="white"/>
<path d="M332.114 221.347L304.996 205.654C304.166 205.175 303.215 205.196 302.282 205.763L302.281 205.762L296.326 209.21L299.095 212.974L300.126 214.159V241.101C300.126 242.705 300.979 244.187 302.364 244.99L322.661 256.758L322.868 257.889L327.01 263.709L333.379 259.954C333.391 259.948 333.402 259.942 333.412 259.935L333.455 259.911V259.907C334.023 259.551 334.426 258.926 334.426 258.157L334.426 225.36C334.426 223.704 333.545 222.173 332.114 221.347Z" fill="url(#paint12_linear_20_2687)"/>
<path d="M325.776 225.083L298.338 209.207C296.999 208.433 295.326 209.402 295.326 210.952V243.888C295.326 245.491 296.179 246.974 297.564 247.777L324.999 263.682C326.371 264.478 328.088 263.485 328.088 261.895L328.089 229.097C328.089 227.44 327.207 225.91 325.776 225.083Z" fill="url(#paint13_linear_20_2687)"/>
<path d="M327.052 263.686L327.011 263.71L327.008 263.705C327.022 263.697 327.038 263.694 327.052 263.686Z" fill="url(#paint14_linear_20_2687)"/>
<path d="M328.089 261.894L328.09 229.097C328.09 228.544 327.96 228.02 327.776 227.516L334.14 223.84C334.31 224.325 334.429 224.83 334.429 225.36L334.428 258.157C334.428 258.926 334.026 259.551 333.457 259.907V259.91L333.414 259.935C333.404 259.941 333.393 259.948 333.382 259.954L327.066 263.677C327.663 263.329 328.089 262.686 328.089 261.894Z" fill="url(#paint15_linear_20_2687)"/>
<path d="M328.995 274.909L328.768 273.672L308.293 261.801C307.05 261.08 306.278 259.738 306.278 258.299V231.19L305.149 229.892L302.688 226.545L307.968 223.488L307.973 223.491L308.219 223.344C308.637 223.089 309.057 222.961 309.468 222.961C309.817 222.961 310.157 223.055 310.479 223.24L337.596 238.933C338.886 239.677 339.686 241.067 339.686 242.559L339.686 275.356C339.686 275.924 339.408 276.423 338.924 276.726L338.859 276.766L332.842 280.314L328.995 274.909Z" fill="url(#paint16_linear_20_2687)"/>
<path d="M309.468 223.408C309.738 223.408 310.003 223.482 310.255 223.628L337.374 239.321C338.525 239.986 339.239 241.226 339.239 242.559L339.239 275.356C339.239 275.766 339.038 276.127 338.688 276.346L338.646 276.373L338.633 276.381L332.967 279.721L329.416 274.73L329.244 273.794L329.169 273.388L328.813 273.181L308.516 261.414C307.411 260.773 306.724 259.58 306.724 258.299V231.358V231.022L306.504 230.769L305.497 229.611L303.343 226.682L307.785 224.11L307.796 224.123L308.449 223.726C308.797 223.515 309.139 223.408 309.468 223.408ZM309.467 222.513C308.982 222.513 308.482 222.66 307.986 222.961L307.986 222.96L302.031 226.408L304.8 230.173L305.831 231.358V258.3C305.831 259.904 306.684 261.386 308.069 262.189L328.366 273.956L328.573 275.088L332.715 280.908L339.085 277.153C339.096 277.147 339.107 277.14 339.117 277.134L339.16 277.109V277.106C339.728 276.75 340.131 276.125 340.131 275.356L340.131 242.559C340.131 240.903 339.25 239.372 337.819 238.546L310.701 222.854C310.312 222.628 309.896 222.513 309.467 222.513Z" fill="#FDFEFE"/>
<path d="M331.73 280.713C331.449 280.713 331.178 280.639 330.926 280.493L303.492 264.588C302.249 263.867 301.477 262.525 301.477 261.086V228.15C301.477 227.18 302.289 226.58 303.042 226.58C303.314 226.58 303.575 226.651 303.819 226.793L331.257 242.669C332.546 243.414 333.346 244.803 333.346 246.295L333.346 279.093C333.346 279.539 333.172 279.952 332.856 280.255C332.553 280.546 332.143 280.713 331.73 280.713Z" fill="url(#paint17_linear_20_2687)"/>
<path d="M303.043 227.028C303.235 227.028 303.422 227.079 303.597 227.18L331.035 243.057C332.186 243.722 332.901 244.963 332.901 246.295L332.9 279.093C332.9 279.817 332.293 280.266 331.731 280.266C331.529 280.266 331.333 280.212 331.15 280.106L303.716 264.2C302.61 263.559 301.923 262.366 301.923 261.086V228.15C301.923 227.457 302.504 227.028 303.043 227.028ZM303.043 226.133C301.994 226.133 301.031 226.975 301.031 228.15V261.085C301.031 262.689 301.884 264.172 303.269 264.975L330.704 280.88C331.036 281.073 331.388 281.16 331.731 281.16C332.806 281.16 333.793 280.298 333.793 279.093L333.794 246.295C333.794 244.639 332.912 243.108 331.481 242.281L304.043 226.404C303.719 226.218 303.377 226.133 303.043 226.133Z" fill="#FDFEFE"/>
<path d="M332.757 280.884L332.716 280.908L332.713 280.903C332.727 280.895 332.743 280.892 332.757 280.884Z" fill="url(#paint18_linear_20_2687)"/>
<path d="M332.757 280.884L332.756 280.884L332.757 280.884ZM332.756 280.884C332.743 280.892 332.727 280.895 332.713 280.903L332.716 280.908L332.756 280.884Z" fill="#FDFEFE"/>
<path d="M334.207 279.51C334.23 279.374 334.241 279.234 334.241 279.093L334.242 246.295C334.242 245.859 334.17 245.406 334.021 244.92L339.581 241.709C339.654 242.01 339.689 242.287 339.689 242.559L339.688 275.356C339.688 275.924 339.41 276.423 338.927 276.725L338.85 276.773L334.207 279.51Z" fill="url(#paint19_linear_20_2687)"/>
<path d="M339.238 242.423C339.241 242.468 339.242 242.514 339.242 242.559L339.241 275.356C339.241 275.766 339.041 276.127 338.691 276.345L338.631 276.383L334.687 278.708L334.688 246.295C334.688 245.921 334.64 245.537 334.543 245.135L339.238 242.423ZM339.846 241.039L333.482 244.715C333.666 245.218 333.795 245.742 333.795 246.295L333.795 279.093C333.795 279.878 333.376 280.516 332.786 280.867L339.087 277.152C339.098 277.147 339.109 277.14 339.12 277.134L339.162 277.109V277.105C339.731 276.75 340.134 276.124 340.134 275.356L340.134 242.559C340.134 242.029 340.015 241.524 339.846 241.039ZM332.786 280.867L332.771 280.876C332.777 280.873 332.782 280.87 332.786 280.867Z" fill="#FDFEFE"/>
<path d="M316.968 244.406C316.967 244.797 316.902 245.047 316.78 245.175C316.654 245.296 316.461 245.283 316.197 245.129C316.008 245.02 315.812 244.869 315.605 244.675L315.602 245.987C315.801 246.198 316.069 246.398 316.408 246.594C316.769 246.803 317.094 246.888 317.376 246.846C317.662 246.806 317.881 246.636 318.036 246.334C318.194 246.034 318.274 245.619 318.275 245.088L318.298 237.244L316.991 236.487L316.968 244.406Z" fill="white"/>
<path d="M320.608 244.642L322.44 245.703L322.837 247.976L324.147 248.735L322.428 239.602L320.654 238.575L318.893 245.692L320.199 246.449L320.608 244.642ZM321.38 241.133C321.445 240.788 321.5 240.469 321.54 240.175C321.557 240.338 321.603 240.673 321.68 241.179C321.757 241.681 321.806 241.998 321.827 242.126L322.197 244.223L320.873 243.456C321.144 242.25 321.315 241.479 321.38 241.133Z" fill="white"/>
<path d="M327.32 250.572L328.996 243.438L327.682 242.677L326.758 247.09C326.653 247.573 326.569 248.127 326.499 248.754C326.419 247.92 326.342 247.274 326.258 246.801L325.354 241.33L324.041 240.569L325.66 249.611L327.32 250.572Z" fill="white"/>
<path d="M330.152 252.211L330.561 250.405L332.389 251.463L332.787 253.737L334.101 254.497L332.378 245.362L330.607 244.337L328.846 251.455L330.152 252.211ZM331.329 246.894C331.395 246.548 331.449 246.23 331.493 245.938C331.507 246.098 331.553 246.434 331.63 246.94C331.707 247.442 331.76 247.761 331.781 247.889L332.15 249.986L330.822 249.217C331.097 248.012 331.264 247.239 331.329 246.894Z" fill="white"/>
<path d="M328.805 255.024L318.893 249.267V249.773L328.805 255.53V255.024Z" fill="white"/>
<path d="M318.893 250.766L334.1 259.587V259.081L318.893 250.26V250.766Z" fill="white"/>
<path d="M329.467 255.904L334.099 258.594V258.088L329.467 255.399V255.904Z" fill="white"/>
<path d="M328.805 256.961L318.893 251.204V251.71L328.805 257.467V256.961Z" fill="white"/>
<path d="M318.893 252.703L334.1 261.524V261.018L318.893 252.198V252.703Z" fill="white"/>
<path d="M329.467 257.841L334.099 260.532V260.026L329.467 257.336V257.841Z" fill="white"/>
<path d="M328.805 259.761L318.893 254.004V254.51L328.805 260.266V259.761Z" fill="white"/>
<path d="M318.893 255.503L334.1 264.323V263.818L318.893 254.997V255.503Z" fill="white"/>
<path d="M329.467 260.641L334.099 263.331V262.825L329.467 260.135V260.641Z" fill="white"/>
<path d="M328.805 261.698L318.893 255.941V256.447L328.805 262.204V261.698Z" fill="white"/>
<path d="M318.893 257.44L334.1 266.261V265.755L318.893 256.934V257.44Z" fill="white"/>
<path d="M329.467 262.578L334.099 265.268V264.762L329.467 262.072V262.578Z" fill="white"/>
<path d="M328.805 264.497L318.893 258.74V259.246L328.805 265.003V264.497Z" fill="white"/>
<path d="M318.893 260.239L334.1 269.06V268.554L318.893 259.734V260.239Z" fill="white"/>
<path d="M329.467 265.377L334.099 268.067V267.561L329.467 264.872V265.377Z" fill="white"/>
<path d="M328.805 266.434L318.893 260.678V261.183L328.805 266.94V266.434Z" fill="white"/>
<path d="M318.893 262.177L334.1 270.997V270.492L318.893 261.671V262.177Z" fill="white"/>
<path d="M329.467 267.315L334.099 270.005V269.499L329.467 266.809V267.315Z" fill="white"/>
<path d="M328.805 269.234L318.893 263.477V263.983L328.805 269.739V269.234Z" fill="white"/>
<path d="M318.893 264.975L334.1 273.796V273.291L318.893 264.47V264.975Z" fill="white"/>
<path d="M329.467 270.114L334.099 272.804V272.298L329.467 269.608V270.114Z" fill="white"/>
<path d="M328.805 271.171L318.893 265.414V265.92L328.805 271.676V271.171Z" fill="white"/>
<path d="M318.893 266.913L334.1 275.734V275.228L318.893 266.407V266.913Z" fill="white"/>
<path d="M329.467 272.051L334.099 274.741V274.235L329.467 271.545V272.051Z" fill="white"/>
<g opacity="0.46">
<path opacity="0.46" d="M303.034 279.048L251.69 308.696C249.744 309.82 247.314 308.411 247.314 306.16V290.222C247.314 289.175 247.872 288.208 248.777 287.686L300.121 258.037C302.067 256.913 304.497 258.322 304.497 260.574V276.511C304.497 277.558 303.939 278.525 303.034 279.048Z" fill="#CDE9F9"/>
</g>
<g opacity="0.46">
<path opacity="0.46" d="M366.491 254.458L315.147 284.107C313.201 285.23 310.771 283.822 310.771 281.57V265.633C310.771 264.586 311.329 263.618 312.234 263.096L363.578 233.447C365.524 232.323 367.954 233.732 367.954 235.984V251.921C367.954 252.968 367.396 253.936 366.491 254.458Z" fill="#CDE9F9"/>
</g>
<g opacity="0.46">
<path opacity="0.46" d="M371.292 222.308L319.948 251.957C318.002 253.081 315.572 251.672 315.572 249.42V233.483C315.572 232.436 316.13 231.469 317.035 230.946L368.379 201.297C370.325 200.174 372.755 201.582 372.755 203.834V219.771C372.754 220.818 372.197 221.786 371.292 222.308Z" fill="#CDE9F9"/>
</g>
<defs>
<linearGradient id="paint0_linear_20_2687" x1="228.371" y1="152.638" x2="359.916" y2="152.638" gradientUnits="userSpaceOnUse">
<stop stop-color="#21409A"/>
<stop offset="0.9984" stop-color="#29ABE2" stop-opacity="0"/>
</linearGradient>
<linearGradient id="paint1_linear_20_2687" x1="276.682" y1="157.501" x2="354.634" y2="157.501" gradientUnits="userSpaceOnUse">
<stop offset="0.5191" stop-color="#21285A"/>
<stop offset="0.7064" stop-color="#21295A" stop-opacity="0.6104"/>
<stop offset="0.7739" stop-color="#222D5E" stop-opacity="0.4701"/>
<stop offset="0.822" stop-color="#233463" stop-opacity="0.37"/>
<stop offset="0.861" stop-color="#253E6B" stop-opacity="0.2891"/>
<stop offset="0.8943" stop-color="#274A77" stop-opacity="0.2198"/>
<stop offset="0.9238" stop-color="#2A5986" stop-opacity="0.1584"/>
<stop offset="0.9505" stop-color="#2E6D9A" stop-opacity="0.1029"/>
<stop offset="0.975" stop-color="#2F85B5" stop-opacity="0.0519"/>
<stop offset="0.9969" stop-color="#2CA5D9" stop-opacity="0.01"/>
<stop offset="1" stop-color="#29ABE2" stop-opacity="0"/>
</linearGradient>
<linearGradient id="paint2_linear_20_2687" x1="276.898" y1="138.46" x2="301.452" y2="138.46" gradientUnits="userSpaceOnUse">
<stop offset="0.0607" stop-color="#28A8E0"/>
<stop offset="0.9984" stop-color="#29ABE2" stop-opacity="0"/>
</linearGradient>
<linearGradient id="paint3_linear_20_2687" x1="238.002" y1="114.976" x2="272.106" y2="114.976" gradientUnits="userSpaceOnUse">
<stop offset="0.5191" stop-color="#21285A"/>
<stop offset="0.7064" stop-color="#21295A" stop-opacity="0.6104"/>
<stop offset="0.7739" stop-color="#222D5E" stop-opacity="0.4701"/>
<stop offset="0.822" stop-color="#233463" stop-opacity="0.37"/>
<stop offset="0.861" stop-color="#253E6B" stop-opacity="0.2891"/>
<stop offset="0.8943" stop-color="#274A77" stop-opacity="0.2198"/>
<stop offset="0.9238" stop-color="#2A5986" stop-opacity="0.1584"/>
<stop offset="0.9505" stop-color="#2E6D9A" stop-opacity="0.1029"/>
<stop offset="0.975" stop-color="#2F85B5" stop-opacity="0.0519"/>
<stop offset="0.9969" stop-color="#2CA5D9" stop-opacity="0.01"/>
<stop offset="1" stop-color="#29ABE2" stop-opacity="0"/>
</linearGradient>
<linearGradient id="paint4_linear_20_2687" x1="233.242" y1="115.871" x2="267.346" y2="115.871" gradientUnits="userSpaceOnUse">
<stop stop-color="#21409A"/>
<stop offset="0.9984" stop-color="#29ABE2" stop-opacity="0"/>
</linearGradient>
<linearGradient id="paint5_linear_20_2687" x1="172.193" y1="171.658" x2="186.115" y2="171.658" gradientUnits="userSpaceOnUse">
<stop stop-color="#6B385F"/>
<stop offset="0.4197" stop-color="#6F3B62" stop-opacity="0.7323"/>
<stop offset="0.5218" stop-color="#764268" stop-opacity="0.6035"/>
<stop offset="0.6937" stop-color="#8C567A" stop-opacity="0.3865"/>
<stop offset="0.9131" stop-color="#B5799B" stop-opacity="0.1096"/>
<stop offset="1" stop-color="#CC8DAE" stop-opacity="0"/>
</linearGradient>
<linearGradient id="paint6_linear_20_2687" x1="215.242" y1="129.411" x2="235.052" y2="129.411" gradientUnits="userSpaceOnUse">
<stop stop-color="#6B385F"/>
<stop offset="0.4197" stop-color="#6F3B62" stop-opacity="0.7323"/>
<stop offset="0.5218" stop-color="#764268" stop-opacity="0.6035"/>
<stop offset="0.6937" stop-color="#8C567A" stop-opacity="0.3865"/>
<stop offset="0.9131" stop-color="#B5799B" stop-opacity="0.1096"/>
<stop offset="1" stop-color="#CC8DAE" stop-opacity="0"/>
</linearGradient>
<linearGradient id="paint7_linear_20_2687" x1="160.123" y1="156.945" x2="236.234" y2="156.945" gradientUnits="userSpaceOnUse">
<stop offset="0.0607" stop-color="#28A8E0"/>
<stop offset="0.9984" stop-color="#29ABE2" stop-opacity="0"/>
</linearGradient>
<linearGradient id="paint8_linear_20_2687" x1="166.156" y1="166.852" x2="198.206" y2="166.852" gradientUnits="userSpaceOnUse">
<stop offset="0.4247" stop-color="white"/>
<stop offset="1" stop-color="#2484C6" stop-opacity="0"/>
</linearGradient>
<linearGradient id="paint9_linear_20_2687" x1="208.225" y1="182.512" x2="222.146" y2="182.512" gradientUnits="userSpaceOnUse">
<stop stop-color="#6B385F"/>
<stop offset="0.4197" stop-color="#6F3B62" stop-opacity="0.7323"/>
<stop offset="0.5218" stop-color="#764268" stop-opacity="0.6035"/>
<stop offset="0.6937" stop-color="#8C567A" stop-opacity="0.3865"/>
<stop offset="0.9131" stop-color="#B5799B" stop-opacity="0.1096"/>
<stop offset="1" stop-color="#CC8DAE" stop-opacity="0"/>
</linearGradient>
<linearGradient id="paint10_linear_20_2687" x1="260.477" y1="191.026" x2="280.286" y2="191.026" gradientUnits="userSpaceOnUse">
<stop stop-color="#6B385F"/>
<stop offset="0.4197" stop-color="#6F3B62" stop-opacity="0.7323"/>
<stop offset="0.5218" stop-color="#764268" stop-opacity="0.6035"/>
<stop offset="0.6937" stop-color="#8C567A" stop-opacity="0.3865"/>
<stop offset="0.9131" stop-color="#B5799B" stop-opacity="0.1096"/>
<stop offset="1" stop-color="#CC8DAE" stop-opacity="0"/>
</linearGradient>
<linearGradient id="paint11_linear_20_2687" x1="236.164" y1="239.615" x2="270.649" y2="239.615" gradientUnits="userSpaceOnUse">
<stop offset="0.0607" stop-color="#28A8E0"/>
<stop offset="0.9984" stop-color="#29ABE2" stop-opacity="0"/>
</linearGradient>
<linearGradient id="paint12_linear_20_2687" x1="296.326" y1="234.512" x2="334.427" y2="234.512" gradientUnits="userSpaceOnUse">
<stop stop-color="#21409A"/>
<stop offset="0.9984" stop-color="#29ABE2" stop-opacity="0"/>
</linearGradient>
<linearGradient id="paint13_linear_20_2687" x1="295.326" y1="236.448" x2="328.089" y2="236.448" gradientUnits="userSpaceOnUse">
<stop stop-color="#21409A"/>
<stop offset="0.9984" stop-color="#29ABE2" stop-opacity="0"/>
</linearGradient>
<linearGradient id="paint14_linear_20_2687" x1="327.008" y1="263.698" x2="327.052" y2="263.698" gradientUnits="userSpaceOnUse">
<stop stop-color="#21409A"/>
<stop offset="0.9984" stop-color="#29ABE2" stop-opacity="0"/>
</linearGradient>
<linearGradient id="paint15_linear_20_2687" x1="327.066" y1="243.759" x2="334.429" y2="243.759" gradientUnits="userSpaceOnUse">
<stop stop-color="#21409A"/>
<stop offset="0.9984" stop-color="#29ABE2" stop-opacity="0"/>
</linearGradient>
<linearGradient id="paint16_linear_20_2687" x1="302.687" y1="251.637" x2="339.686" y2="251.637" gradientUnits="userSpaceOnUse">
<stop offset="0.0607" stop-color="#28A8E0"/>
<stop offset="0.9984" stop-color="#29ABE2" stop-opacity="0"/>
</linearGradient>
<linearGradient id="paint17_linear_20_2687" x1="301.476" y1="253.647" x2="333.346" y2="253.647" gradientUnits="userSpaceOnUse">
<stop offset="0.0607" stop-color="#28A8E0"/>
<stop offset="0.9984" stop-color="#29ABE2" stop-opacity="0"/>
</linearGradient>
<linearGradient id="paint18_linear_20_2687" x1="332.713" y1="280.896" x2="332.757" y2="280.896" gradientUnits="userSpaceOnUse">
<stop offset="0.0607" stop-color="#28A8E0"/>
<stop offset="0.9984" stop-color="#29ABE2" stop-opacity="0"/>
</linearGradient>
<linearGradient id="paint19_linear_20_2687" x1="334.021" y1="260.609" x2="339.688" y2="260.609" gradientUnits="userSpaceOnUse">
<stop offset="0.0607" stop-color="#28A8E0"/>
<stop offset="0.9984" stop-color="#29ABE2" stop-opacity="0"/>
</linearGradient>
</defs>
</svg>
